%
M48
M72
T01C0.0276
T02C0.0315
T03C0.0320
T04C0.0394
T05C0.0400
T06C0.0440
T07C0.0472
T08C0.0660
T09C0.1260
T10C0.1300
%
T01
X12588Y13088
T02
X23288Y11688
X23988Y11688
X24688Y11688
T03
X25488Y9588
X25488Y8788
X22988Y8788
X22988Y9588
X22488Y15688
X21488Y15688
X20488Y15688
X19488Y15688
X18488Y15688
X17488Y15688
X14488Y15188
X14488Y14188
X14488Y16188
X14488Y17188
X14488Y18188
X14488Y19188
X14488Y20188
X14488Y21188
X14488Y22188
X14488Y23188
X14488Y24688
X13488Y24688
X14388Y26388
X14388Y27388
X11388Y27388
X11388Y26388
X9488Y26188
X7988Y26188
X7988Y23188
X9488Y23188
X11488Y23188
X11488Y22188
X11488Y21188
X11488Y20188
X11488Y19188
X11488Y18188
X11488Y17188
X11488Y16188
X11488Y15188
X11488Y14188
X9988Y13588
X8488Y14688
X7988Y15438
X7488Y14688
X9988Y16588
X8988Y20188
X7988Y20188
X17488Y18688
X18488Y18688
X19488Y18688
X20488Y18688
X21488Y18688
X22488Y18688
X23488Y18688
X24488Y18688
X26488Y18688
X27488Y18688
X28488Y18688
X29488Y18688
X30488Y18688
X31488Y18688
X32488Y18688
X33488Y18688
X33488Y15688
X32488Y15688
X31488Y15688
X30488Y15688
X29488Y15688
X28488Y15688
X27488Y15688
X26488Y15688
X24488Y15688
X23488Y15688
X23488Y21688
X22488Y21688
X21488Y21688
X20488Y21688
X19488Y21688
X18488Y21688
X18488Y24688
X19488Y24688
X20488Y24688
X21488Y24688
X22488Y24688
X23488Y24688
X24488Y24688
X25488Y24688
X27488Y24688
X28488Y24688
X29488Y24688
X30488Y24688
X31488Y24688
X32488Y24688
X33488Y24688
X34488Y24688
X34488Y21688
X33488Y21688
X32488Y21688
X31488Y21688
X30488Y21688
X29488Y21688
X28488Y21688
X27488Y21688
X25488Y21688
X24488Y21688
X33988Y13688
X35488Y13688
X35488Y10688
X33988Y10688
T04
X31738Y11688
X30738Y11688
X29738Y11688
X28738Y11688
X28238Y10688
X29238Y10688
X30238Y10688
X31238Y10688
X14238Y11688
X13238Y11688
X12238Y11688
X11238Y11688
X10738Y10688
X11738Y10688
X12738Y10688
X13738Y10688
T05
X8488Y12688
X7488Y12688
X7988Y17688
X17488Y27188
X18488Y27188
X19488Y27188
X20488Y27188
X21488Y27188
X22488Y27188
X23488Y27188
X24488Y27188
X26488Y27188
X27488Y27188
X28488Y27188
X29488Y27188
X30488Y27188
X31488Y27188
X32488Y27188
X33488Y27188
T06
X20988Y11688
X16988Y11688
T07
X18988Y9657
X17020Y7688
X17020Y6704
X20957Y6704
X20957Y7688
T08
X18988Y7688
X18004Y9657
X17020Y9657
X19973Y9657
X20957Y9657
T09
X14738Y8188
X10238Y8188
X27738Y8188
X32238Y8188
T10
X7488Y7588
X7488Y27788
X35888Y27788
X35888Y7588
M30
