%
M48
M72
T01C0.0320
T02C0.0400
T03C0.1300
%
T01
X7681Y6687
X8681Y6687
X11681Y6687
X12681Y6687
X15681Y6687
X16681Y6687
X18681Y9187
X18681Y10187
X21081Y10037
X22081Y10037
X24331Y10087
X24331Y11087
X24581Y13037
X25581Y13037
X25581Y14537
X24581Y14537
X24581Y16037
X25581Y16037
X24531Y17287
X24531Y18287
X22081Y17537
X21081Y17537
X18681Y17187
X18681Y18187
X20681Y20687
X21681Y20687
X24681Y20687
X25681Y20687
X28681Y20687
X29681Y20687
X32181Y18187
X32181Y17187
X32181Y14187
X32181Y13187
X32181Y10187
X32181Y9187
X29681Y6687
X28681Y6687
X25681Y6687
X24681Y6687
X21681Y6687
X20681Y6687
X18681Y13187
X18681Y14187
X16681Y20687
X15681Y20687
X12681Y20687
X11681Y20687
X8681Y20687
X7681Y20687
X5181Y18187
X5181Y17187
X5181Y14187
X5181Y13187
X5181Y10187
X5181Y9187
T02
X23281Y10337
X23281Y11337
X23281Y12337
X23281Y13337
X23281Y14337
X23281Y15337
X23281Y16337
X23281Y17337
T03
X4235Y6224
X4246Y22198
X29216Y18112
X34481Y22187
X29216Y9254
X34481Y6187
M30
