G75*
G70*
%OFA0B0*%
%FSLAX24Y24*%
%IPPOS*%
%LPD*%
%AMOC8*
5,1,8,0,0,1.08239X$1,22.5*
%
%ADD10C,0.0000*%
%ADD11C,0.0520*%
%ADD12C,0.0740*%
%ADD13R,0.0740X0.0740*%
%ADD14C,0.0660*%
%ADD15C,0.0515*%
%ADD16OC8,0.0520*%
%ADD17C,0.0520*%
%ADD18C,0.0990*%
%ADD19C,0.0740*%
%ADD20C,0.0160*%
%ADD21C,0.0320*%
%ADD22C,0.0436*%
%ADD23C,0.0240*%
D10*
X006188Y006188D02*
X006188Y029084D01*
X037158Y029084D01*
X037158Y006188D01*
X006188Y006188D01*
X006838Y007588D02*
X006840Y007638D01*
X006846Y007688D01*
X006856Y007738D01*
X006869Y007786D01*
X006886Y007834D01*
X006907Y007880D01*
X006931Y007924D01*
X006959Y007966D01*
X006990Y008006D01*
X007024Y008043D01*
X007061Y008078D01*
X007100Y008109D01*
X007141Y008138D01*
X007185Y008163D01*
X007231Y008185D01*
X007278Y008203D01*
X007326Y008217D01*
X007375Y008228D01*
X007425Y008235D01*
X007475Y008238D01*
X007526Y008237D01*
X007576Y008232D01*
X007626Y008223D01*
X007674Y008211D01*
X007722Y008194D01*
X007768Y008174D01*
X007813Y008151D01*
X007856Y008124D01*
X007896Y008094D01*
X007934Y008061D01*
X007969Y008025D01*
X008002Y007986D01*
X008031Y007945D01*
X008057Y007902D01*
X008080Y007857D01*
X008099Y007810D01*
X008114Y007762D01*
X008126Y007713D01*
X008134Y007663D01*
X008138Y007613D01*
X008138Y007563D01*
X008134Y007513D01*
X008126Y007463D01*
X008114Y007414D01*
X008099Y007366D01*
X008080Y007319D01*
X008057Y007274D01*
X008031Y007231D01*
X008002Y007190D01*
X007969Y007151D01*
X007934Y007115D01*
X007896Y007082D01*
X007856Y007052D01*
X007813Y007025D01*
X007768Y007002D01*
X007722Y006982D01*
X007674Y006965D01*
X007626Y006953D01*
X007576Y006944D01*
X007526Y006939D01*
X007475Y006938D01*
X007425Y006941D01*
X007375Y006948D01*
X007326Y006959D01*
X007278Y006973D01*
X007231Y006991D01*
X007185Y007013D01*
X007141Y007038D01*
X007100Y007067D01*
X007061Y007098D01*
X007024Y007133D01*
X006990Y007170D01*
X006959Y007210D01*
X006931Y007252D01*
X006907Y007296D01*
X006886Y007342D01*
X006869Y007390D01*
X006856Y007438D01*
X006846Y007488D01*
X006840Y007538D01*
X006838Y007588D01*
X009608Y008188D02*
X009610Y008238D01*
X009616Y008288D01*
X009626Y008337D01*
X009640Y008385D01*
X009657Y008432D01*
X009678Y008477D01*
X009703Y008521D01*
X009731Y008562D01*
X009763Y008601D01*
X009797Y008638D01*
X009834Y008672D01*
X009874Y008702D01*
X009916Y008729D01*
X009960Y008753D01*
X010006Y008774D01*
X010053Y008790D01*
X010101Y008803D01*
X010151Y008812D01*
X010200Y008817D01*
X010251Y008818D01*
X010301Y008815D01*
X010350Y008808D01*
X010399Y008797D01*
X010447Y008782D01*
X010493Y008764D01*
X010538Y008742D01*
X010581Y008716D01*
X010622Y008687D01*
X010661Y008655D01*
X010697Y008620D01*
X010729Y008582D01*
X010759Y008542D01*
X010786Y008499D01*
X010809Y008455D01*
X010828Y008409D01*
X010844Y008361D01*
X010856Y008312D01*
X010864Y008263D01*
X010868Y008213D01*
X010868Y008163D01*
X010864Y008113D01*
X010856Y008064D01*
X010844Y008015D01*
X010828Y007967D01*
X010809Y007921D01*
X010786Y007877D01*
X010759Y007834D01*
X010729Y007794D01*
X010697Y007756D01*
X010661Y007721D01*
X010622Y007689D01*
X010581Y007660D01*
X010538Y007634D01*
X010493Y007612D01*
X010447Y007594D01*
X010399Y007579D01*
X010350Y007568D01*
X010301Y007561D01*
X010251Y007558D01*
X010200Y007559D01*
X010151Y007564D01*
X010101Y007573D01*
X010053Y007586D01*
X010006Y007602D01*
X009960Y007623D01*
X009916Y007647D01*
X009874Y007674D01*
X009834Y007704D01*
X009797Y007738D01*
X009763Y007775D01*
X009731Y007814D01*
X009703Y007855D01*
X009678Y007899D01*
X009657Y007944D01*
X009640Y007991D01*
X009626Y008039D01*
X009616Y008088D01*
X009610Y008138D01*
X009608Y008188D01*
X014108Y008188D02*
X014110Y008238D01*
X014116Y008288D01*
X014126Y008337D01*
X014140Y008385D01*
X014157Y008432D01*
X014178Y008477D01*
X014203Y008521D01*
X014231Y008562D01*
X014263Y008601D01*
X014297Y008638D01*
X014334Y008672D01*
X014374Y008702D01*
X014416Y008729D01*
X014460Y008753D01*
X014506Y008774D01*
X014553Y008790D01*
X014601Y008803D01*
X014651Y008812D01*
X014700Y008817D01*
X014751Y008818D01*
X014801Y008815D01*
X014850Y008808D01*
X014899Y008797D01*
X014947Y008782D01*
X014993Y008764D01*
X015038Y008742D01*
X015081Y008716D01*
X015122Y008687D01*
X015161Y008655D01*
X015197Y008620D01*
X015229Y008582D01*
X015259Y008542D01*
X015286Y008499D01*
X015309Y008455D01*
X015328Y008409D01*
X015344Y008361D01*
X015356Y008312D01*
X015364Y008263D01*
X015368Y008213D01*
X015368Y008163D01*
X015364Y008113D01*
X015356Y008064D01*
X015344Y008015D01*
X015328Y007967D01*
X015309Y007921D01*
X015286Y007877D01*
X015259Y007834D01*
X015229Y007794D01*
X015197Y007756D01*
X015161Y007721D01*
X015122Y007689D01*
X015081Y007660D01*
X015038Y007634D01*
X014993Y007612D01*
X014947Y007594D01*
X014899Y007579D01*
X014850Y007568D01*
X014801Y007561D01*
X014751Y007558D01*
X014700Y007559D01*
X014651Y007564D01*
X014601Y007573D01*
X014553Y007586D01*
X014506Y007602D01*
X014460Y007623D01*
X014416Y007647D01*
X014374Y007674D01*
X014334Y007704D01*
X014297Y007738D01*
X014263Y007775D01*
X014231Y007814D01*
X014203Y007855D01*
X014178Y007899D01*
X014157Y007944D01*
X014140Y007991D01*
X014126Y008039D01*
X014116Y008088D01*
X014110Y008138D01*
X014108Y008188D01*
X016784Y007688D02*
X016786Y007718D01*
X016792Y007748D01*
X016801Y007777D01*
X016814Y007804D01*
X016831Y007829D01*
X016850Y007852D01*
X016873Y007873D01*
X016898Y007890D01*
X016924Y007904D01*
X016953Y007914D01*
X016982Y007921D01*
X017012Y007924D01*
X017043Y007923D01*
X017073Y007918D01*
X017102Y007909D01*
X017129Y007897D01*
X017155Y007882D01*
X017179Y007863D01*
X017200Y007841D01*
X017218Y007817D01*
X017233Y007790D01*
X017244Y007762D01*
X017252Y007733D01*
X017256Y007703D01*
X017256Y007673D01*
X017252Y007643D01*
X017244Y007614D01*
X017233Y007586D01*
X017218Y007559D01*
X017200Y007535D01*
X017179Y007513D01*
X017155Y007494D01*
X017129Y007479D01*
X017102Y007467D01*
X017073Y007458D01*
X017043Y007453D01*
X017012Y007452D01*
X016982Y007455D01*
X016953Y007462D01*
X016924Y007472D01*
X016898Y007486D01*
X016873Y007503D01*
X016850Y007524D01*
X016831Y007547D01*
X016814Y007572D01*
X016801Y007599D01*
X016792Y007628D01*
X016786Y007658D01*
X016784Y007688D01*
X016784Y006704D02*
X016786Y006734D01*
X016792Y006764D01*
X016801Y006793D01*
X016814Y006820D01*
X016831Y006845D01*
X016850Y006868D01*
X016873Y006889D01*
X016898Y006906D01*
X016924Y006920D01*
X016953Y006930D01*
X016982Y006937D01*
X017012Y006940D01*
X017043Y006939D01*
X017073Y006934D01*
X017102Y006925D01*
X017129Y006913D01*
X017155Y006898D01*
X017179Y006879D01*
X017200Y006857D01*
X017218Y006833D01*
X017233Y006806D01*
X017244Y006778D01*
X017252Y006749D01*
X017256Y006719D01*
X017256Y006689D01*
X017252Y006659D01*
X017244Y006630D01*
X017233Y006602D01*
X017218Y006575D01*
X017200Y006551D01*
X017179Y006529D01*
X017155Y006510D01*
X017129Y006495D01*
X017102Y006483D01*
X017073Y006474D01*
X017043Y006469D01*
X017012Y006468D01*
X016982Y006471D01*
X016953Y006478D01*
X016924Y006488D01*
X016898Y006502D01*
X016873Y006519D01*
X016850Y006540D01*
X016831Y006563D01*
X016814Y006588D01*
X016801Y006615D01*
X016792Y006644D01*
X016786Y006674D01*
X016784Y006704D01*
X018752Y009657D02*
X018754Y009687D01*
X018760Y009717D01*
X018769Y009746D01*
X018782Y009773D01*
X018799Y009798D01*
X018818Y009821D01*
X018841Y009842D01*
X018866Y009859D01*
X018892Y009873D01*
X018921Y009883D01*
X018950Y009890D01*
X018980Y009893D01*
X019011Y009892D01*
X019041Y009887D01*
X019070Y009878D01*
X019097Y009866D01*
X019123Y009851D01*
X019147Y009832D01*
X019168Y009810D01*
X019186Y009786D01*
X019201Y009759D01*
X019212Y009731D01*
X019220Y009702D01*
X019224Y009672D01*
X019224Y009642D01*
X019220Y009612D01*
X019212Y009583D01*
X019201Y009555D01*
X019186Y009528D01*
X019168Y009504D01*
X019147Y009482D01*
X019123Y009463D01*
X019097Y009448D01*
X019070Y009436D01*
X019041Y009427D01*
X019011Y009422D01*
X018980Y009421D01*
X018950Y009424D01*
X018921Y009431D01*
X018892Y009441D01*
X018866Y009455D01*
X018841Y009472D01*
X018818Y009493D01*
X018799Y009516D01*
X018782Y009541D01*
X018769Y009568D01*
X018760Y009597D01*
X018754Y009627D01*
X018752Y009657D01*
X020721Y007688D02*
X020723Y007718D01*
X020729Y007748D01*
X020738Y007777D01*
X020751Y007804D01*
X020768Y007829D01*
X020787Y007852D01*
X020810Y007873D01*
X020835Y007890D01*
X020861Y007904D01*
X020890Y007914D01*
X020919Y007921D01*
X020949Y007924D01*
X020980Y007923D01*
X021010Y007918D01*
X021039Y007909D01*
X021066Y007897D01*
X021092Y007882D01*
X021116Y007863D01*
X021137Y007841D01*
X021155Y007817D01*
X021170Y007790D01*
X021181Y007762D01*
X021189Y007733D01*
X021193Y007703D01*
X021193Y007673D01*
X021189Y007643D01*
X021181Y007614D01*
X021170Y007586D01*
X021155Y007559D01*
X021137Y007535D01*
X021116Y007513D01*
X021092Y007494D01*
X021066Y007479D01*
X021039Y007467D01*
X021010Y007458D01*
X020980Y007453D01*
X020949Y007452D01*
X020919Y007455D01*
X020890Y007462D01*
X020861Y007472D01*
X020835Y007486D01*
X020810Y007503D01*
X020787Y007524D01*
X020768Y007547D01*
X020751Y007572D01*
X020738Y007599D01*
X020729Y007628D01*
X020723Y007658D01*
X020721Y007688D01*
X020721Y006704D02*
X020723Y006734D01*
X020729Y006764D01*
X020738Y006793D01*
X020751Y006820D01*
X020768Y006845D01*
X020787Y006868D01*
X020810Y006889D01*
X020835Y006906D01*
X020861Y006920D01*
X020890Y006930D01*
X020919Y006937D01*
X020949Y006940D01*
X020980Y006939D01*
X021010Y006934D01*
X021039Y006925D01*
X021066Y006913D01*
X021092Y006898D01*
X021116Y006879D01*
X021137Y006857D01*
X021155Y006833D01*
X021170Y006806D01*
X021181Y006778D01*
X021189Y006749D01*
X021193Y006719D01*
X021193Y006689D01*
X021189Y006659D01*
X021181Y006630D01*
X021170Y006602D01*
X021155Y006575D01*
X021137Y006551D01*
X021116Y006529D01*
X021092Y006510D01*
X021066Y006495D01*
X021039Y006483D01*
X021010Y006474D01*
X020980Y006469D01*
X020949Y006468D01*
X020919Y006471D01*
X020890Y006478D01*
X020861Y006488D01*
X020835Y006502D01*
X020810Y006519D01*
X020787Y006540D01*
X020768Y006563D01*
X020751Y006588D01*
X020738Y006615D01*
X020729Y006644D01*
X020723Y006674D01*
X020721Y006704D01*
X027108Y008188D02*
X027110Y008238D01*
X027116Y008288D01*
X027126Y008337D01*
X027140Y008385D01*
X027157Y008432D01*
X027178Y008477D01*
X027203Y008521D01*
X027231Y008562D01*
X027263Y008601D01*
X027297Y008638D01*
X027334Y008672D01*
X027374Y008702D01*
X027416Y008729D01*
X027460Y008753D01*
X027506Y008774D01*
X027553Y008790D01*
X027601Y008803D01*
X027651Y008812D01*
X027700Y008817D01*
X027751Y008818D01*
X027801Y008815D01*
X027850Y008808D01*
X027899Y008797D01*
X027947Y008782D01*
X027993Y008764D01*
X028038Y008742D01*
X028081Y008716D01*
X028122Y008687D01*
X028161Y008655D01*
X028197Y008620D01*
X028229Y008582D01*
X028259Y008542D01*
X028286Y008499D01*
X028309Y008455D01*
X028328Y008409D01*
X028344Y008361D01*
X028356Y008312D01*
X028364Y008263D01*
X028368Y008213D01*
X028368Y008163D01*
X028364Y008113D01*
X028356Y008064D01*
X028344Y008015D01*
X028328Y007967D01*
X028309Y007921D01*
X028286Y007877D01*
X028259Y007834D01*
X028229Y007794D01*
X028197Y007756D01*
X028161Y007721D01*
X028122Y007689D01*
X028081Y007660D01*
X028038Y007634D01*
X027993Y007612D01*
X027947Y007594D01*
X027899Y007579D01*
X027850Y007568D01*
X027801Y007561D01*
X027751Y007558D01*
X027700Y007559D01*
X027651Y007564D01*
X027601Y007573D01*
X027553Y007586D01*
X027506Y007602D01*
X027460Y007623D01*
X027416Y007647D01*
X027374Y007674D01*
X027334Y007704D01*
X027297Y007738D01*
X027263Y007775D01*
X027231Y007814D01*
X027203Y007855D01*
X027178Y007899D01*
X027157Y007944D01*
X027140Y007991D01*
X027126Y008039D01*
X027116Y008088D01*
X027110Y008138D01*
X027108Y008188D01*
X031608Y008188D02*
X031610Y008238D01*
X031616Y008288D01*
X031626Y008337D01*
X031640Y008385D01*
X031657Y008432D01*
X031678Y008477D01*
X031703Y008521D01*
X031731Y008562D01*
X031763Y008601D01*
X031797Y008638D01*
X031834Y008672D01*
X031874Y008702D01*
X031916Y008729D01*
X031960Y008753D01*
X032006Y008774D01*
X032053Y008790D01*
X032101Y008803D01*
X032151Y008812D01*
X032200Y008817D01*
X032251Y008818D01*
X032301Y008815D01*
X032350Y008808D01*
X032399Y008797D01*
X032447Y008782D01*
X032493Y008764D01*
X032538Y008742D01*
X032581Y008716D01*
X032622Y008687D01*
X032661Y008655D01*
X032697Y008620D01*
X032729Y008582D01*
X032759Y008542D01*
X032786Y008499D01*
X032809Y008455D01*
X032828Y008409D01*
X032844Y008361D01*
X032856Y008312D01*
X032864Y008263D01*
X032868Y008213D01*
X032868Y008163D01*
X032864Y008113D01*
X032856Y008064D01*
X032844Y008015D01*
X032828Y007967D01*
X032809Y007921D01*
X032786Y007877D01*
X032759Y007834D01*
X032729Y007794D01*
X032697Y007756D01*
X032661Y007721D01*
X032622Y007689D01*
X032581Y007660D01*
X032538Y007634D01*
X032493Y007612D01*
X032447Y007594D01*
X032399Y007579D01*
X032350Y007568D01*
X032301Y007561D01*
X032251Y007558D01*
X032200Y007559D01*
X032151Y007564D01*
X032101Y007573D01*
X032053Y007586D01*
X032006Y007602D01*
X031960Y007623D01*
X031916Y007647D01*
X031874Y007674D01*
X031834Y007704D01*
X031797Y007738D01*
X031763Y007775D01*
X031731Y007814D01*
X031703Y007855D01*
X031678Y007899D01*
X031657Y007944D01*
X031640Y007991D01*
X031626Y008039D01*
X031616Y008088D01*
X031610Y008138D01*
X031608Y008188D01*
X035238Y007588D02*
X035240Y007638D01*
X035246Y007688D01*
X035256Y007738D01*
X035269Y007786D01*
X035286Y007834D01*
X035307Y007880D01*
X035331Y007924D01*
X035359Y007966D01*
X035390Y008006D01*
X035424Y008043D01*
X035461Y008078D01*
X035500Y008109D01*
X035541Y008138D01*
X035585Y008163D01*
X035631Y008185D01*
X035678Y008203D01*
X035726Y008217D01*
X035775Y008228D01*
X035825Y008235D01*
X035875Y008238D01*
X035926Y008237D01*
X035976Y008232D01*
X036026Y008223D01*
X036074Y008211D01*
X036122Y008194D01*
X036168Y008174D01*
X036213Y008151D01*
X036256Y008124D01*
X036296Y008094D01*
X036334Y008061D01*
X036369Y008025D01*
X036402Y007986D01*
X036431Y007945D01*
X036457Y007902D01*
X036480Y007857D01*
X036499Y007810D01*
X036514Y007762D01*
X036526Y007713D01*
X036534Y007663D01*
X036538Y007613D01*
X036538Y007563D01*
X036534Y007513D01*
X036526Y007463D01*
X036514Y007414D01*
X036499Y007366D01*
X036480Y007319D01*
X036457Y007274D01*
X036431Y007231D01*
X036402Y007190D01*
X036369Y007151D01*
X036334Y007115D01*
X036296Y007082D01*
X036256Y007052D01*
X036213Y007025D01*
X036168Y007002D01*
X036122Y006982D01*
X036074Y006965D01*
X036026Y006953D01*
X035976Y006944D01*
X035926Y006939D01*
X035875Y006938D01*
X035825Y006941D01*
X035775Y006948D01*
X035726Y006959D01*
X035678Y006973D01*
X035631Y006991D01*
X035585Y007013D01*
X035541Y007038D01*
X035500Y007067D01*
X035461Y007098D01*
X035424Y007133D01*
X035390Y007170D01*
X035359Y007210D01*
X035331Y007252D01*
X035307Y007296D01*
X035286Y007342D01*
X035269Y007390D01*
X035256Y007438D01*
X035246Y007488D01*
X035240Y007538D01*
X035238Y007588D01*
X035238Y027788D02*
X035240Y027838D01*
X035246Y027888D01*
X035256Y027938D01*
X035269Y027986D01*
X035286Y028034D01*
X035307Y028080D01*
X035331Y028124D01*
X035359Y028166D01*
X035390Y028206D01*
X035424Y028243D01*
X035461Y028278D01*
X035500Y028309D01*
X035541Y028338D01*
X035585Y028363D01*
X035631Y028385D01*
X035678Y028403D01*
X035726Y028417D01*
X035775Y028428D01*
X035825Y028435D01*
X035875Y028438D01*
X035926Y028437D01*
X035976Y028432D01*
X036026Y028423D01*
X036074Y028411D01*
X036122Y028394D01*
X036168Y028374D01*
X036213Y028351D01*
X036256Y028324D01*
X036296Y028294D01*
X036334Y028261D01*
X036369Y028225D01*
X036402Y028186D01*
X036431Y028145D01*
X036457Y028102D01*
X036480Y028057D01*
X036499Y028010D01*
X036514Y027962D01*
X036526Y027913D01*
X036534Y027863D01*
X036538Y027813D01*
X036538Y027763D01*
X036534Y027713D01*
X036526Y027663D01*
X036514Y027614D01*
X036499Y027566D01*
X036480Y027519D01*
X036457Y027474D01*
X036431Y027431D01*
X036402Y027390D01*
X036369Y027351D01*
X036334Y027315D01*
X036296Y027282D01*
X036256Y027252D01*
X036213Y027225D01*
X036168Y027202D01*
X036122Y027182D01*
X036074Y027165D01*
X036026Y027153D01*
X035976Y027144D01*
X035926Y027139D01*
X035875Y027138D01*
X035825Y027141D01*
X035775Y027148D01*
X035726Y027159D01*
X035678Y027173D01*
X035631Y027191D01*
X035585Y027213D01*
X035541Y027238D01*
X035500Y027267D01*
X035461Y027298D01*
X035424Y027333D01*
X035390Y027370D01*
X035359Y027410D01*
X035331Y027452D01*
X035307Y027496D01*
X035286Y027542D01*
X035269Y027590D01*
X035256Y027638D01*
X035246Y027688D01*
X035240Y027738D01*
X035238Y027788D01*
X006838Y027788D02*
X006840Y027838D01*
X006846Y027888D01*
X006856Y027938D01*
X006869Y027986D01*
X006886Y028034D01*
X006907Y028080D01*
X006931Y028124D01*
X006959Y028166D01*
X006990Y028206D01*
X007024Y028243D01*
X007061Y028278D01*
X007100Y028309D01*
X007141Y028338D01*
X007185Y028363D01*
X007231Y028385D01*
X007278Y028403D01*
X007326Y028417D01*
X007375Y028428D01*
X007425Y028435D01*
X007475Y028438D01*
X007526Y028437D01*
X007576Y028432D01*
X007626Y028423D01*
X007674Y028411D01*
X007722Y028394D01*
X007768Y028374D01*
X007813Y028351D01*
X007856Y028324D01*
X007896Y028294D01*
X007934Y028261D01*
X007969Y028225D01*
X008002Y028186D01*
X008031Y028145D01*
X008057Y028102D01*
X008080Y028057D01*
X008099Y028010D01*
X008114Y027962D01*
X008126Y027913D01*
X008134Y027863D01*
X008138Y027813D01*
X008138Y027763D01*
X008134Y027713D01*
X008126Y027663D01*
X008114Y027614D01*
X008099Y027566D01*
X008080Y027519D01*
X008057Y027474D01*
X008031Y027431D01*
X008002Y027390D01*
X007969Y027351D01*
X007934Y027315D01*
X007896Y027282D01*
X007856Y027252D01*
X007813Y027225D01*
X007768Y027202D01*
X007722Y027182D01*
X007674Y027165D01*
X007626Y027153D01*
X007576Y027144D01*
X007526Y027139D01*
X007475Y027138D01*
X007425Y027141D01*
X007375Y027148D01*
X007326Y027159D01*
X007278Y027173D01*
X007231Y027191D01*
X007185Y027213D01*
X007141Y027238D01*
X007100Y027267D01*
X007061Y027298D01*
X007024Y027333D01*
X006990Y027370D01*
X006959Y027410D01*
X006931Y027452D01*
X006907Y027496D01*
X006886Y027542D01*
X006869Y027590D01*
X006856Y027638D01*
X006846Y027688D01*
X006840Y027738D01*
X006838Y027788D01*
D11*
X011128Y027388D02*
X011648Y027388D01*
X011648Y026388D02*
X011128Y026388D01*
X014128Y026388D02*
X014648Y026388D01*
X014648Y027388D02*
X014128Y027388D01*
X018488Y024948D02*
X018488Y024428D01*
X019488Y024428D02*
X019488Y024948D01*
X020488Y024948D02*
X020488Y024428D01*
X021488Y024428D02*
X021488Y024948D01*
X022488Y024948D02*
X022488Y024428D01*
X023488Y024428D02*
X023488Y024948D01*
X024488Y024948D02*
X024488Y024428D01*
X025488Y024428D02*
X025488Y024948D01*
X027488Y024948D02*
X027488Y024428D01*
X028488Y024428D02*
X028488Y024948D01*
X029488Y024948D02*
X029488Y024428D01*
X030488Y024428D02*
X030488Y024948D01*
X031488Y024948D02*
X031488Y024428D01*
X032488Y024428D02*
X032488Y024948D01*
X033488Y024948D02*
X033488Y024428D01*
X034488Y024428D02*
X034488Y024948D01*
X034488Y021948D02*
X034488Y021428D01*
X033488Y021428D02*
X033488Y021948D01*
X032488Y021948D02*
X032488Y021428D01*
X031488Y021428D02*
X031488Y021948D01*
X030488Y021948D02*
X030488Y021428D01*
X029488Y021428D02*
X029488Y021948D01*
X028488Y021948D02*
X028488Y021428D01*
X027488Y021428D02*
X027488Y021948D01*
X025488Y021948D02*
X025488Y021428D01*
X024488Y021428D02*
X024488Y021948D01*
X023488Y021948D02*
X023488Y021428D01*
X022488Y021428D02*
X022488Y021948D01*
X021488Y021948D02*
X021488Y021428D01*
X020488Y021428D02*
X020488Y021948D01*
X019488Y021948D02*
X019488Y021428D01*
X018488Y021428D02*
X018488Y021948D01*
X018488Y018948D02*
X018488Y018428D01*
X017488Y018428D02*
X017488Y018948D01*
X019488Y018948D02*
X019488Y018428D01*
X020488Y018428D02*
X020488Y018948D01*
X021488Y018948D02*
X021488Y018428D01*
X022488Y018428D02*
X022488Y018948D01*
X023488Y018948D02*
X023488Y018428D01*
X024488Y018428D02*
X024488Y018948D01*
X026488Y018948D02*
X026488Y018428D01*
X027488Y018428D02*
X027488Y018948D01*
X028488Y018948D02*
X028488Y018428D01*
X029488Y018428D02*
X029488Y018948D01*
X030488Y018948D02*
X030488Y018428D01*
X031488Y018428D02*
X031488Y018948D01*
X032488Y018948D02*
X032488Y018428D01*
X033488Y018428D02*
X033488Y018948D01*
X033488Y015948D02*
X033488Y015428D01*
X032488Y015428D02*
X032488Y015948D01*
X031488Y015948D02*
X031488Y015428D01*
X030488Y015428D02*
X030488Y015948D01*
X029488Y015948D02*
X029488Y015428D01*
X028488Y015428D02*
X028488Y015948D01*
X027488Y015948D02*
X027488Y015428D01*
X026488Y015428D02*
X026488Y015948D01*
X024488Y015948D02*
X024488Y015428D01*
X023488Y015428D02*
X023488Y015948D01*
X022488Y015948D02*
X022488Y015428D01*
X021488Y015428D02*
X021488Y015948D01*
X020488Y015948D02*
X020488Y015428D01*
X019488Y015428D02*
X019488Y015948D01*
X018488Y015948D02*
X018488Y015428D01*
X017488Y015428D02*
X017488Y015948D01*
X014748Y016188D02*
X014228Y016188D01*
X014228Y015188D02*
X014748Y015188D01*
X014748Y014188D02*
X014228Y014188D01*
X011748Y014188D02*
X011228Y014188D01*
X011228Y015188D02*
X011748Y015188D01*
X011748Y016188D02*
X011228Y016188D01*
X011228Y017188D02*
X011748Y017188D01*
X011748Y018188D02*
X011228Y018188D01*
X011228Y019188D02*
X011748Y019188D01*
X011748Y020188D02*
X011228Y020188D01*
X011228Y021188D02*
X011748Y021188D01*
X011748Y022188D02*
X011228Y022188D01*
X011228Y023188D02*
X011748Y023188D01*
X014228Y023188D02*
X014748Y023188D01*
X014748Y022188D02*
X014228Y022188D01*
X014228Y021188D02*
X014748Y021188D01*
X014748Y020188D02*
X014228Y020188D01*
X014228Y019188D02*
X014748Y019188D01*
X014748Y018188D02*
X014228Y018188D01*
X014228Y017188D02*
X014748Y017188D01*
D12*
X007988Y017688D03*
X011238Y011688D03*
X012238Y011688D03*
X013238Y011688D03*
X014238Y011688D03*
X013738Y010688D03*
X012738Y010688D03*
X011738Y010688D03*
X028738Y011688D03*
X029738Y011688D03*
X030738Y011688D03*
X031738Y011688D03*
X031238Y010688D03*
X030238Y010688D03*
X029238Y010688D03*
X029488Y027188D03*
X028488Y027188D03*
X027488Y027188D03*
X026488Y027188D03*
X023488Y027188D03*
X022488Y027188D03*
X021488Y027188D03*
X020488Y027188D03*
X019488Y027188D03*
X018488Y027188D03*
X017488Y027188D03*
X030488Y027188D03*
X031488Y027188D03*
X032488Y027188D03*
D13*
X033488Y027188D03*
X024488Y027188D03*
X028238Y010688D03*
X010738Y010688D03*
D14*
X016988Y011688D03*
X020988Y011688D03*
D15*
X023288Y011688D03*
X023988Y011688D03*
X024688Y011688D03*
D16*
X025488Y008788D03*
X022988Y008788D03*
X033988Y010688D03*
X035488Y010688D03*
X035488Y013688D03*
X033988Y013688D03*
X014488Y024688D03*
X013488Y024688D03*
X009488Y023188D03*
X007988Y023188D03*
X007988Y020188D03*
X008988Y020188D03*
X009988Y016588D03*
X007988Y015438D03*
X007488Y014688D03*
X008488Y014688D03*
X009988Y013588D03*
X009488Y026188D03*
X007988Y026188D03*
D17*
X022988Y009588D03*
X025488Y009588D03*
D18*
X020957Y009657D03*
X019973Y009657D03*
X018004Y009657D03*
X017020Y009657D03*
X018988Y007688D03*
D19*
X008488Y012318D02*
X008488Y013058D01*
X007488Y013058D02*
X007488Y012318D01*
D20*
X008808Y011834D02*
X008808Y011352D01*
X008808Y011288D01*
X008818Y011111D01*
X008897Y010766D01*
X009050Y010448D01*
X009271Y010171D01*
X009548Y009950D01*
X009866Y009797D01*
X010019Y009762D01*
X009730Y010051D01*
X009730Y010051D01*
X009651Y010130D01*
X009608Y010233D01*
X009608Y011433D01*
X009608Y011544D01*
X009651Y011647D01*
X011752Y013748D01*
X011489Y013748D01*
X011489Y014188D01*
X011489Y014189D01*
X011488Y014189D01*
X011488Y014628D01*
X011194Y014628D01*
X011125Y014617D01*
X011059Y014596D01*
X010998Y014565D01*
X010942Y014524D01*
X010893Y014475D01*
X010852Y014419D01*
X010821Y014357D01*
X010799Y014291D01*
X010788Y014223D01*
X010788Y014189D01*
X011488Y014189D01*
X011488Y014188D01*
X011489Y014188D01*
X012188Y014188D01*
X012188Y014184D01*
X012608Y014604D01*
X012608Y021144D01*
X012651Y021247D01*
X012730Y021326D01*
X012730Y021326D01*
X013751Y022347D01*
X013828Y022424D01*
X013838Y022449D01*
X013968Y022578D01*
X014137Y022648D01*
X014840Y022648D01*
X015009Y022578D01*
X015138Y022449D01*
X015208Y022280D01*
X015208Y022097D01*
X015138Y021928D01*
X015009Y021798D01*
X014840Y021728D01*
X014137Y021728D01*
X013987Y021791D01*
X013168Y020972D01*
X013168Y019664D01*
X013768Y020264D01*
X013768Y020280D01*
X013838Y020449D01*
X013968Y020578D01*
X014137Y020648D01*
X014840Y020648D01*
X015009Y020578D01*
X015138Y020449D01*
X015208Y020280D01*
X015208Y020097D01*
X015138Y019928D01*
X015009Y019798D01*
X014840Y019728D01*
X014137Y019728D01*
X014057Y019761D01*
X013468Y019172D01*
X013468Y014344D01*
X013468Y014233D01*
X013426Y014130D01*
X012764Y013468D01*
X012825Y013443D01*
X012899Y013368D01*
X012972Y013368D01*
X013768Y014164D01*
X013768Y014280D01*
X013838Y014449D01*
X013968Y014578D01*
X014137Y014648D01*
X014840Y014648D01*
X015009Y014578D01*
X015138Y014449D01*
X015208Y014280D01*
X015208Y014097D01*
X015138Y013928D01*
X015009Y013798D01*
X014840Y013728D01*
X014137Y013728D01*
X014128Y013732D01*
X013326Y012930D01*
X013247Y012851D01*
X013144Y012808D01*
X012899Y012808D01*
X012825Y012734D01*
X012671Y012671D01*
X012505Y012671D01*
X012352Y012734D01*
X012234Y012852D01*
X012209Y012913D01*
X011518Y012222D01*
X011518Y012189D01*
X011561Y012172D01*
X011722Y012011D01*
X011750Y011942D01*
X011768Y011977D01*
X011819Y012047D01*
X011880Y012108D01*
X011950Y012159D01*
X012027Y012198D01*
X012110Y012225D01*
X012195Y012238D01*
X012220Y012238D01*
X012220Y011707D01*
X012257Y011707D01*
X012257Y012238D01*
X012282Y012238D01*
X012367Y012225D01*
X012449Y012198D01*
X012527Y012159D01*
X012597Y012108D01*
X012658Y012047D01*
X012709Y011977D01*
X012726Y011942D01*
X012755Y012011D01*
X012915Y012172D01*
X013125Y012258D01*
X013352Y012258D01*
X013561Y012172D01*
X013722Y012011D01*
X013738Y011971D01*
X013755Y012011D01*
X013915Y012172D01*
X014125Y012258D01*
X014352Y012258D01*
X014561Y012172D01*
X014722Y012011D01*
X014808Y011802D01*
X014808Y011575D01*
X014722Y011365D01*
X014561Y011205D01*
X014352Y011118D01*
X014125Y011118D01*
X014107Y011126D01*
X014222Y011011D01*
X014308Y010802D01*
X014308Y010575D01*
X014222Y010365D01*
X014061Y010205D01*
X013852Y010118D01*
X013625Y010118D01*
X013415Y010205D01*
X013255Y010365D01*
X013226Y010435D01*
X013209Y010400D01*
X013158Y010330D01*
X013097Y010269D01*
X013027Y010218D01*
X012949Y010179D01*
X012867Y010152D01*
X012782Y010138D01*
X012757Y010138D01*
X012757Y010670D01*
X012720Y010670D01*
X012720Y010138D01*
X012695Y010138D01*
X012610Y010152D01*
X012527Y010179D01*
X012450Y010218D01*
X012380Y010269D01*
X012319Y010330D01*
X012268Y010400D01*
X012250Y010435D01*
X012222Y010365D01*
X012061Y010205D01*
X011852Y010118D01*
X011814Y010118D01*
X011404Y009708D01*
X014425Y009708D01*
X014488Y009708D01*
X014595Y009717D01*
X014797Y009782D01*
X014969Y009907D01*
X015094Y010080D01*
X015160Y010282D01*
X015168Y010388D01*
X015168Y011852D01*
X015168Y011982D01*
X015168Y011982D01*
X015288Y012349D01*
X015288Y012349D01*
X015515Y012662D01*
X015515Y012662D01*
X015515Y012662D01*
X015828Y012889D01*
X015828Y012889D01*
X016195Y013008D01*
X016195Y013008D01*
X016325Y013008D01*
X016441Y013008D01*
X016452Y013008D01*
X016688Y013008D01*
X016763Y013014D01*
X016906Y013061D01*
X017028Y013149D01*
X017116Y013270D01*
X017162Y013413D01*
X017168Y013488D01*
X017168Y014225D01*
X017168Y014340D01*
X017168Y014352D01*
X017168Y015098D01*
X017098Y015168D01*
X017028Y015337D01*
X017028Y016040D01*
X017098Y016209D01*
X017168Y016279D01*
X017168Y018098D01*
X017098Y018168D01*
X017028Y018337D01*
X017028Y019040D01*
X017098Y019209D01*
X017228Y019338D01*
X017397Y019408D01*
X017580Y019408D01*
X017749Y019338D01*
X017878Y019209D01*
X017948Y019040D01*
X017948Y018337D01*
X017891Y018198D01*
X017978Y018078D01*
X018125Y017972D01*
X018298Y017915D01*
X018388Y017908D01*
X018452Y017908D01*
X025688Y017908D01*
X025763Y017914D01*
X025906Y017961D01*
X026028Y018049D01*
X026108Y018159D01*
X026098Y018168D01*
X026028Y018337D01*
X026028Y019040D01*
X026098Y019209D01*
X026228Y019338D01*
X026397Y019408D01*
X026580Y019408D01*
X026749Y019338D01*
X026878Y019209D01*
X026948Y019040D01*
X026948Y018337D01*
X026878Y018168D01*
X026754Y018043D01*
X026699Y017874D01*
X026699Y017874D01*
X026490Y017587D01*
X026490Y017587D01*
X026490Y017587D01*
X026203Y017378D01*
X026203Y017378D01*
X025866Y017268D01*
X025866Y017268D01*
X025752Y017268D01*
X025752Y017268D01*
X018452Y017268D01*
X018388Y017268D01*
X018325Y017268D01*
X018195Y017268D01*
X018195Y017268D01*
X017828Y017388D01*
X017828Y017388D01*
X017808Y017402D01*
X017808Y016279D01*
X017878Y016209D01*
X017948Y016040D01*
X017948Y015337D01*
X017878Y015168D01*
X017808Y015098D01*
X017808Y014352D01*
X017808Y014340D01*
X017808Y014288D01*
X017812Y014245D01*
X017839Y014161D01*
X017890Y014090D01*
X017961Y014039D01*
X018045Y014012D01*
X018088Y014008D01*
X023325Y014008D01*
X025425Y014008D01*
X025488Y014008D01*
X025595Y014017D01*
X025797Y014082D01*
X025969Y014207D01*
X026094Y014380D01*
X026160Y014582D01*
X026168Y014688D01*
X026168Y015098D01*
X026098Y015168D01*
X026028Y015337D01*
X026028Y016040D01*
X026098Y016209D01*
X026228Y016338D01*
X026397Y016408D01*
X026580Y016408D01*
X026749Y016338D01*
X026878Y016209D01*
X026948Y016040D01*
X026948Y015337D01*
X026878Y015168D01*
X026808Y015098D01*
X026808Y014625D01*
X026808Y014625D01*
X026808Y014479D01*
X026808Y014479D01*
X026679Y014082D01*
X026679Y014082D01*
X026626Y014008D01*
X033658Y014008D01*
X033798Y014148D01*
X034179Y014148D01*
X034319Y014008D01*
X035158Y014008D01*
X035298Y014148D01*
X035679Y014148D01*
X035948Y013879D01*
X035948Y013498D01*
X035679Y013228D01*
X035298Y013228D01*
X035158Y013368D01*
X034319Y013368D01*
X034179Y013228D01*
X033798Y013228D01*
X033658Y013368D01*
X025425Y013368D01*
X024693Y013368D01*
X024898Y013014D01*
X024898Y013014D01*
X025008Y012602D01*
X025008Y012602D01*
X025008Y012452D01*
X025008Y012015D01*
X025076Y011947D01*
X025146Y011779D01*
X025146Y011597D01*
X025076Y011429D01*
X025008Y011361D01*
X025008Y010388D01*
X025014Y010313D01*
X025061Y010170D01*
X025149Y010049D01*
X025239Y009983D01*
X025397Y010048D01*
X025580Y010048D01*
X025749Y009978D01*
X025878Y009849D01*
X025948Y009680D01*
X025948Y009497D01*
X025878Y009328D01*
X025749Y009198D01*
X025715Y009184D01*
X025928Y008971D01*
X025928Y008789D01*
X025489Y008789D01*
X025489Y008788D01*
X025928Y008788D01*
X025928Y008606D01*
X025671Y008348D01*
X025489Y008348D01*
X025489Y008788D01*
X025488Y008788D01*
X025488Y008348D01*
X025306Y008348D01*
X025048Y008606D01*
X025048Y008788D01*
X025488Y008788D01*
X025488Y008789D01*
X025048Y008789D01*
X025048Y008971D01*
X025262Y009184D01*
X025228Y009198D01*
X025098Y009328D01*
X025094Y009339D01*
X024974Y009378D01*
X024974Y009378D01*
X024687Y009587D01*
X024687Y009587D01*
X024687Y009587D01*
X024478Y009874D01*
X024478Y009874D01*
X024368Y010211D01*
X024368Y010211D01*
X024368Y010325D01*
X024368Y010325D01*
X024368Y011361D01*
X024348Y011381D01*
X024348Y011317D01*
X024348Y011237D01*
X024348Y011237D01*
X024233Y010958D01*
X024233Y010958D01*
X024019Y010744D01*
X024019Y010744D01*
X023740Y010628D01*
X023739Y010628D01*
X023660Y010628D01*
X023588Y010628D01*
X023551Y010625D01*
X023479Y010602D01*
X023419Y010558D01*
X023374Y010497D01*
X023351Y010426D01*
X023348Y010388D01*
X023348Y009879D01*
X023378Y009849D01*
X023448Y009680D01*
X023448Y009497D01*
X023378Y009328D01*
X023249Y009198D01*
X023215Y009184D01*
X023428Y008971D01*
X023428Y008789D01*
X022989Y008789D01*
X022989Y008788D01*
X023428Y008788D01*
X023428Y008606D01*
X023171Y008348D01*
X022989Y008348D01*
X022989Y008788D01*
X022988Y008788D01*
X022988Y008348D01*
X022806Y008348D01*
X022548Y008606D01*
X022548Y008788D01*
X022988Y008788D01*
X022988Y008789D01*
X022548Y008789D01*
X022548Y008971D01*
X022762Y009184D01*
X022728Y009198D01*
X022598Y009328D01*
X022528Y009497D01*
X022528Y009680D01*
X022598Y009849D01*
X022628Y009879D01*
X022628Y010460D01*
X022628Y010460D01*
X022628Y010540D01*
X022628Y010540D01*
X022657Y010628D01*
X022348Y010628D01*
X022348Y010535D01*
X022348Y010517D01*
X022348Y008788D01*
X022359Y008605D01*
X022440Y008247D01*
X022600Y007916D01*
X022829Y007629D01*
X023116Y007400D01*
X023447Y007240D01*
X023805Y007159D01*
X023988Y007148D01*
X027331Y007148D01*
X027310Y007154D01*
X027057Y007300D01*
X026850Y007507D01*
X026704Y007760D01*
X026628Y008042D01*
X026628Y008334D01*
X026704Y008617D01*
X026850Y008870D01*
X027057Y009076D01*
X027310Y009223D01*
X027592Y009298D01*
X027884Y009298D01*
X028167Y009223D01*
X028420Y009076D01*
X028626Y008870D01*
X028773Y008617D01*
X028848Y008334D01*
X028848Y008042D01*
X028773Y007760D01*
X028626Y007507D01*
X028420Y007300D01*
X028167Y007154D01*
X028145Y007148D01*
X029017Y007148D01*
X029038Y007148D01*
X029088Y007148D01*
X029250Y007157D01*
X029564Y007229D01*
X029854Y007369D01*
X030107Y007570D01*
X030308Y007822D01*
X030448Y008113D01*
X030519Y008427D01*
X030528Y008588D01*
X030528Y008588D01*
X030528Y008598D01*
X030528Y008660D01*
X030528Y008660D01*
X030528Y008807D01*
X030528Y008807D01*
X030641Y009229D01*
X030641Y009229D01*
X030860Y009608D01*
X030860Y009608D01*
X031169Y009917D01*
X031169Y009917D01*
X031548Y010135D01*
X031548Y010135D01*
X031970Y010248D01*
X031970Y010248D01*
X032117Y010248D01*
X032117Y010248D01*
X033778Y010248D01*
X033528Y010498D01*
X033528Y010879D01*
X033798Y011148D01*
X034179Y011148D01*
X034448Y010879D01*
X034448Y010498D01*
X034199Y010248D01*
X035278Y010248D01*
X035028Y010498D01*
X035028Y010879D01*
X035298Y011148D01*
X035679Y011148D01*
X035948Y010879D01*
X035948Y010498D01*
X035699Y010248D01*
X035817Y010248D01*
X035826Y010248D01*
X035888Y010248D01*
X035941Y010252D01*
X036043Y010285D01*
X036129Y010348D01*
X036191Y010434D01*
X036224Y010535D01*
X036228Y010588D01*
X036228Y022617D01*
X036228Y022660D01*
X036228Y022688D01*
X036224Y022741D01*
X036191Y022843D01*
X036129Y022929D01*
X036043Y022991D01*
X035941Y023024D01*
X035888Y023028D01*
X033617Y023028D01*
X026860Y023028D01*
X018217Y023028D01*
X018105Y023028D01*
X018105Y023028D01*
X017755Y023142D01*
X017755Y023142D01*
X017458Y023358D01*
X017458Y023358D01*
X017458Y023358D01*
X017242Y023655D01*
X017242Y023655D01*
X017128Y024005D01*
X017128Y024005D01*
X017128Y024117D01*
X017128Y024245D01*
X017128Y024260D01*
X017128Y026742D01*
X017005Y026865D01*
X016918Y027075D01*
X016918Y027302D01*
X017005Y027511D01*
X017165Y027672D01*
X017375Y027758D01*
X017602Y027758D01*
X017811Y027672D01*
X017972Y027511D01*
X017988Y027471D01*
X018005Y027511D01*
X018165Y027672D01*
X018375Y027758D01*
X018602Y027758D01*
X018811Y027672D01*
X018972Y027511D01*
X018988Y027471D01*
X019005Y027511D01*
X019165Y027672D01*
X019375Y027758D01*
X019602Y027758D01*
X019811Y027672D01*
X019972Y027511D01*
X019988Y027471D01*
X020005Y027511D01*
X020165Y027672D01*
X020375Y027758D01*
X020602Y027758D01*
X020811Y027672D01*
X020972Y027511D01*
X020988Y027471D01*
X021005Y027511D01*
X021165Y027672D01*
X021375Y027758D01*
X021602Y027758D01*
X021811Y027672D01*
X021972Y027511D01*
X021988Y027471D01*
X022005Y027511D01*
X022165Y027672D01*
X022375Y027758D01*
X022602Y027758D01*
X022811Y027672D01*
X022972Y027511D01*
X022988Y027471D01*
X023005Y027511D01*
X023165Y027672D01*
X023375Y027758D01*
X023602Y027758D01*
X023811Y027672D01*
X023918Y027564D01*
X023918Y027641D01*
X024035Y027758D01*
X024941Y027758D01*
X025058Y027641D01*
X025058Y026735D01*
X024941Y026618D01*
X024035Y026618D01*
X023918Y026735D01*
X023918Y026812D01*
X023811Y026705D01*
X023602Y026618D01*
X023375Y026618D01*
X023165Y026705D01*
X023005Y026865D01*
X022988Y026906D01*
X022972Y026865D01*
X022811Y026705D01*
X022602Y026618D01*
X022375Y026618D01*
X022165Y026705D01*
X022005Y026865D01*
X021988Y026906D01*
X021972Y026865D01*
X021811Y026705D01*
X021602Y026618D01*
X021375Y026618D01*
X021165Y026705D01*
X021005Y026865D01*
X020988Y026906D01*
X020972Y026865D01*
X020811Y026705D01*
X020602Y026618D01*
X020375Y026618D01*
X020165Y026705D01*
X020005Y026865D01*
X019988Y026906D01*
X019972Y026865D01*
X019811Y026705D01*
X019602Y026618D01*
X019375Y026618D01*
X019165Y026705D01*
X019005Y026865D01*
X018988Y026906D01*
X018972Y026865D01*
X018811Y026705D01*
X018602Y026618D01*
X018375Y026618D01*
X018165Y026705D01*
X018005Y026865D01*
X017988Y026906D01*
X017972Y026865D01*
X017848Y026742D01*
X017848Y024260D01*
X017848Y024246D01*
X017848Y024188D01*
X017854Y024120D01*
X017896Y023989D01*
X017977Y023877D01*
X018089Y023796D01*
X018220Y023754D01*
X018288Y023748D01*
X025414Y023748D01*
X025253Y024028D01*
X025228Y024038D01*
X025098Y024168D01*
X025028Y024337D01*
X025028Y025040D01*
X025098Y025209D01*
X025128Y025239D01*
X025128Y026260D01*
X025128Y026260D01*
X025128Y026404D01*
X025261Y026813D01*
X025261Y026813D01*
X025515Y027162D01*
X025515Y027162D01*
X025863Y027415D01*
X025863Y027415D01*
X025981Y027453D01*
X026005Y027511D01*
X026165Y027672D01*
X026375Y027758D01*
X026602Y027758D01*
X026811Y027672D01*
X026972Y027511D01*
X026988Y027471D01*
X027005Y027511D01*
X027165Y027672D01*
X027375Y027758D01*
X027602Y027758D01*
X027811Y027672D01*
X027972Y027511D01*
X027988Y027471D01*
X028005Y027511D01*
X028165Y027672D01*
X028375Y027758D01*
X028602Y027758D01*
X028811Y027672D01*
X028972Y027511D01*
X028988Y027471D01*
X029005Y027511D01*
X029165Y027672D01*
X029375Y027758D01*
X029602Y027758D01*
X029811Y027672D01*
X029972Y027511D01*
X029988Y027471D01*
X030005Y027511D01*
X030165Y027672D01*
X030375Y027758D01*
X030602Y027758D01*
X030811Y027672D01*
X030972Y027511D01*
X030988Y027471D01*
X031005Y027511D01*
X031165Y027672D01*
X031375Y027758D01*
X031602Y027758D01*
X031811Y027672D01*
X031972Y027511D01*
X031988Y027471D01*
X032005Y027511D01*
X032165Y027672D01*
X032375Y027758D01*
X032602Y027758D01*
X032811Y027672D01*
X032918Y027564D01*
X032918Y027641D01*
X033035Y027758D01*
X033941Y027758D01*
X034058Y027641D01*
X034058Y026735D01*
X033941Y026618D01*
X033035Y026618D01*
X032918Y026735D01*
X032918Y026812D01*
X032811Y026705D01*
X032602Y026618D01*
X032375Y026618D01*
X032165Y026705D01*
X032005Y026865D01*
X031988Y026906D01*
X031972Y026865D01*
X031811Y026705D01*
X031602Y026618D01*
X031375Y026618D01*
X031165Y026705D01*
X031005Y026865D01*
X030988Y026906D01*
X030972Y026865D01*
X030811Y026705D01*
X030602Y026618D01*
X030375Y026618D01*
X030165Y026705D01*
X030005Y026865D01*
X029988Y026906D01*
X029972Y026865D01*
X029811Y026705D01*
X029602Y026618D01*
X029375Y026618D01*
X029165Y026705D01*
X029005Y026865D01*
X028988Y026906D01*
X028972Y026865D01*
X028811Y026705D01*
X028602Y026618D01*
X028375Y026618D01*
X028165Y026705D01*
X028005Y026865D01*
X027988Y026906D01*
X027972Y026865D01*
X027811Y026705D01*
X027602Y026618D01*
X027375Y026618D01*
X027165Y026705D01*
X027005Y026865D01*
X026988Y026906D01*
X026972Y026865D01*
X026811Y026705D01*
X026602Y026618D01*
X026375Y026618D01*
X026165Y026705D01*
X026148Y026722D01*
X026036Y026641D01*
X025918Y026479D01*
X025856Y026288D01*
X025856Y026288D01*
X025848Y026189D01*
X025848Y025239D01*
X025878Y025209D01*
X025948Y025040D01*
X025948Y024337D01*
X025934Y024303D01*
X026043Y024116D01*
X026216Y023943D01*
X026429Y023820D01*
X026666Y023756D01*
X026788Y023748D01*
X026860Y023748D01*
X033617Y023748D01*
X033688Y023748D01*
X033757Y023754D01*
X033888Y023796D01*
X033999Y023877D01*
X034080Y023989D01*
X034123Y024119D01*
X034125Y024141D01*
X034098Y024168D01*
X034028Y024337D01*
X034028Y025040D01*
X034098Y025209D01*
X034228Y025338D01*
X034397Y025408D01*
X034580Y025408D01*
X034749Y025338D01*
X034878Y025209D01*
X034948Y025040D01*
X034948Y024337D01*
X034878Y024168D01*
X034848Y024138D01*
X034848Y024005D01*
X034848Y024005D01*
X034765Y023748D01*
X035960Y023748D01*
X035960Y023748D01*
X036056Y023748D01*
X036056Y023748D01*
X036376Y023645D01*
X036376Y023645D01*
X036647Y023447D01*
X036647Y023447D01*
X036647Y023447D01*
X036678Y023404D01*
X036678Y026980D01*
X036582Y026884D01*
X036324Y026735D01*
X036037Y026658D01*
X035740Y026658D01*
X035452Y026735D01*
X035194Y026884D01*
X034984Y027094D01*
X034835Y027352D01*
X034758Y027640D01*
X034758Y027937D01*
X034835Y028224D01*
X034984Y028482D01*
X035106Y028604D01*
X008270Y028604D01*
X008393Y028482D01*
X008541Y028224D01*
X008618Y027937D01*
X008618Y027640D01*
X008541Y027352D01*
X008393Y027094D01*
X008182Y026884D01*
X007924Y026735D01*
X007637Y026658D01*
X007340Y026658D01*
X007052Y026735D01*
X006794Y026884D01*
X006668Y027010D01*
X006668Y015564D01*
X008308Y017204D01*
X008102Y017118D01*
X007875Y017118D01*
X007665Y017205D01*
X007505Y017365D01*
X007418Y017575D01*
X007418Y017802D01*
X007505Y018011D01*
X007665Y018172D01*
X007875Y018258D01*
X008102Y018258D01*
X008311Y018172D01*
X008472Y018011D01*
X008558Y017802D01*
X008558Y017575D01*
X008473Y017369D01*
X008530Y017426D01*
X008633Y017468D01*
X010858Y017468D01*
X010968Y017578D01*
X011137Y017648D01*
X011840Y017648D01*
X012009Y017578D01*
X012138Y017449D01*
X012208Y017280D01*
X012208Y017097D01*
X012138Y016928D01*
X012009Y016798D01*
X011840Y016728D01*
X011137Y016728D01*
X010968Y016798D01*
X010858Y016908D01*
X010319Y016908D01*
X010448Y016779D01*
X010448Y016398D01*
X010179Y016128D01*
X009798Y016128D01*
X009528Y016398D01*
X009528Y016779D01*
X009658Y016908D01*
X008804Y016908D01*
X006968Y015072D01*
X006968Y013292D01*
X007005Y013381D01*
X007165Y013542D01*
X007375Y013628D01*
X007602Y013628D01*
X007811Y013542D01*
X007972Y013381D01*
X007988Y013341D01*
X008005Y013381D01*
X008165Y013542D01*
X008375Y013628D01*
X008602Y013628D01*
X008811Y013542D01*
X008972Y013381D01*
X009058Y013172D01*
X009058Y012205D01*
X008972Y011995D01*
X008811Y011835D01*
X008808Y011834D01*
X008872Y011896D02*
X009900Y011896D01*
X010059Y012054D02*
X008996Y012054D01*
X009058Y012213D02*
X010217Y012213D01*
X010376Y012372D02*
X009058Y012372D01*
X009058Y012530D02*
X010534Y012530D01*
X010693Y012689D02*
X009058Y012689D01*
X009058Y012847D02*
X010851Y012847D01*
X011010Y013006D02*
X009058Y013006D01*
X009058Y013164D02*
X009762Y013164D01*
X009798Y013128D02*
X010179Y013128D01*
X010448Y013398D01*
X010448Y013779D01*
X010179Y014048D01*
X009798Y014048D01*
X009528Y013779D01*
X009528Y013398D01*
X009798Y013128D01*
X009603Y013323D02*
X008996Y013323D01*
X008871Y013481D02*
X009528Y013481D01*
X009528Y013640D02*
X006968Y013640D01*
X006968Y013798D02*
X009548Y013798D01*
X009706Y013957D02*
X006968Y013957D01*
X006968Y014116D02*
X010794Y014116D01*
X010799Y014085D02*
X010821Y014019D01*
X010852Y013958D01*
X010893Y013902D01*
X010942Y013853D01*
X010998Y013812D01*
X011059Y013781D01*
X011125Y013759D01*
X011194Y013748D01*
X011488Y013748D01*
X011488Y014188D01*
X010788Y014188D01*
X010788Y014154D01*
X010799Y014085D01*
X010853Y013957D02*
X010270Y013957D01*
X010429Y013798D02*
X011024Y013798D01*
X011488Y013798D02*
X011489Y013798D01*
X011488Y013957D02*
X011489Y013957D01*
X011488Y014116D02*
X011489Y014116D01*
X011489Y014189D02*
X012188Y014189D01*
X012188Y014223D01*
X012177Y014291D01*
X012156Y014357D01*
X012125Y014419D01*
X012084Y014475D01*
X012035Y014524D01*
X011979Y014565D01*
X011917Y014596D01*
X011851Y014617D01*
X011783Y014628D01*
X011489Y014628D01*
X011489Y014189D01*
X011488Y014274D02*
X011489Y014274D01*
X011488Y014433D02*
X011489Y014433D01*
X011488Y014591D02*
X011489Y014591D01*
X011840Y014728D02*
X011137Y014728D01*
X010968Y014798D01*
X010838Y014928D01*
X010768Y015097D01*
X010768Y015280D01*
X010838Y015449D01*
X010968Y015578D01*
X011137Y015648D01*
X011840Y015648D01*
X012009Y015578D01*
X012138Y015449D01*
X012208Y015280D01*
X012208Y015097D01*
X012138Y014928D01*
X012009Y014798D01*
X011840Y014728D01*
X011891Y014750D02*
X012608Y014750D01*
X012608Y014908D02*
X012119Y014908D01*
X012196Y015067D02*
X012608Y015067D01*
X012608Y015225D02*
X012208Y015225D01*
X012165Y015384D02*
X012608Y015384D01*
X012608Y015542D02*
X012045Y015542D01*
X012009Y015798D02*
X012138Y015928D01*
X012208Y016097D01*
X012208Y016280D01*
X012138Y016449D01*
X012009Y016578D01*
X011840Y016648D01*
X011137Y016648D01*
X010968Y016578D01*
X010838Y016449D01*
X010768Y016280D01*
X010768Y016097D01*
X010838Y015928D01*
X010968Y015798D01*
X011137Y015728D01*
X011840Y015728D01*
X012009Y015798D01*
X012070Y015859D02*
X012608Y015859D01*
X012608Y015701D02*
X008376Y015701D01*
X008448Y015629D02*
X008179Y015898D01*
X007798Y015898D01*
X007528Y015629D01*
X007528Y015248D01*
X007628Y015148D01*
X007298Y015148D01*
X007028Y014879D01*
X007028Y014498D01*
X007298Y014228D01*
X007679Y014228D01*
X007948Y014498D01*
X007948Y014879D01*
X007849Y014978D01*
X008156Y014978D01*
X008048Y014871D01*
X008048Y014689D01*
X008488Y014689D01*
X008488Y015128D01*
X008329Y015128D01*
X008448Y015248D01*
X008448Y015629D01*
X008448Y015542D02*
X010932Y015542D01*
X010811Y015384D02*
X008448Y015384D01*
X008426Y015225D02*
X010768Y015225D01*
X010781Y015067D02*
X008732Y015067D01*
X008671Y015128D02*
X008489Y015128D01*
X008489Y014689D01*
X008928Y014689D01*
X008928Y014871D01*
X008671Y015128D01*
X008489Y015067D02*
X008488Y015067D01*
X008488Y014908D02*
X008489Y014908D01*
X008488Y014750D02*
X008489Y014750D01*
X008489Y014689D02*
X008488Y014689D01*
X008488Y014688D01*
X008489Y014688D01*
X008489Y014689D01*
X008489Y014688D02*
X008928Y014688D01*
X008928Y014506D01*
X008671Y014248D01*
X008489Y014248D01*
X008489Y014688D01*
X008488Y014688D02*
X008488Y014248D01*
X008306Y014248D01*
X008048Y014506D01*
X008048Y014688D01*
X008488Y014688D01*
X008488Y014591D02*
X008489Y014591D01*
X008488Y014433D02*
X008489Y014433D01*
X008488Y014274D02*
X008489Y014274D01*
X008696Y014274D02*
X010796Y014274D01*
X010862Y014433D02*
X008855Y014433D01*
X008928Y014591D02*
X011050Y014591D01*
X011085Y014750D02*
X008928Y014750D01*
X008891Y014908D02*
X010858Y014908D01*
X011927Y014591D02*
X012595Y014591D01*
X012437Y014433D02*
X012115Y014433D01*
X012180Y014274D02*
X012278Y014274D01*
X012888Y014488D02*
X012888Y021088D01*
X013988Y022188D01*
X014488Y022188D01*
X014137Y021648D02*
X013968Y021578D01*
X013838Y021449D01*
X013768Y021280D01*
X013768Y021097D01*
X013838Y020928D01*
X013968Y020798D01*
X014137Y020728D01*
X014840Y020728D01*
X015009Y020798D01*
X015119Y020908D01*
X015133Y020908D01*
X015244Y020908D01*
X015347Y020951D01*
X015808Y021412D01*
X015808Y020304D01*
X015046Y019542D01*
X015009Y019578D01*
X014840Y019648D01*
X014137Y019648D01*
X013968Y019578D01*
X013838Y019449D01*
X013768Y019280D01*
X013768Y019097D01*
X013838Y018928D01*
X013968Y018798D01*
X014137Y018728D01*
X014840Y018728D01*
X015009Y018798D01*
X015119Y018908D01*
X015144Y018908D01*
X015247Y018951D01*
X016247Y019951D01*
X016326Y020030D01*
X016368Y020133D01*
X016368Y026433D01*
X016368Y026544D01*
X016326Y026647D01*
X015426Y027547D01*
X015347Y027626D01*
X015244Y027668D01*
X015019Y027668D01*
X014909Y027778D01*
X014740Y027848D01*
X014037Y027848D01*
X013868Y027778D01*
X013738Y027649D01*
X013668Y027480D01*
X013668Y027297D01*
X013738Y027128D01*
X013868Y026998D01*
X014037Y026928D01*
X014740Y026928D01*
X014909Y026998D01*
X015019Y027108D01*
X015072Y027108D01*
X015808Y026372D01*
X015808Y026164D01*
X015426Y026547D01*
X015347Y026626D01*
X015244Y026668D01*
X015019Y026668D01*
X014909Y026778D01*
X014740Y026848D01*
X014037Y026848D01*
X013868Y026778D01*
X013738Y026649D01*
X013668Y026480D01*
X013668Y026297D01*
X013738Y026128D01*
X013868Y025998D01*
X014037Y025928D01*
X014740Y025928D01*
X014909Y025998D01*
X015019Y026108D01*
X015072Y026108D01*
X015508Y025672D01*
X015508Y021904D01*
X015096Y021492D01*
X015009Y021578D01*
X014840Y021648D01*
X014137Y021648D01*
X013957Y021567D02*
X013763Y021567D01*
X013822Y021409D02*
X013604Y021409D01*
X013446Y021250D02*
X013768Y021250D01*
X013771Y021091D02*
X013287Y021091D01*
X013168Y020933D02*
X013836Y020933D01*
X014026Y020774D02*
X013168Y020774D01*
X013168Y020616D02*
X014058Y020616D01*
X013847Y020457D02*
X013168Y020457D01*
X013168Y020299D02*
X013776Y020299D01*
X013644Y020140D02*
X013168Y020140D01*
X013168Y019982D02*
X013486Y019982D01*
X013327Y019823D02*
X013168Y019823D01*
X013168Y019665D02*
X013169Y019665D01*
X013188Y019288D02*
X013188Y014288D01*
X011238Y012338D01*
X011238Y011688D01*
X010707Y011896D02*
X010692Y011896D01*
X010718Y011922D02*
X010668Y011802D01*
X010668Y011575D01*
X010755Y011365D01*
X010882Y011238D01*
X010757Y011238D01*
X010757Y010707D01*
X010720Y010707D01*
X010720Y011238D01*
X010345Y011238D01*
X010299Y011226D01*
X010258Y011202D01*
X010224Y011169D01*
X010201Y011128D01*
X010188Y011082D01*
X010188Y010707D01*
X010720Y010707D01*
X010720Y010670D01*
X010757Y010670D01*
X010757Y010138D01*
X011042Y010138D01*
X010972Y010068D01*
X010504Y010068D01*
X010434Y010138D01*
X010720Y010138D01*
X010720Y010670D01*
X010188Y010670D01*
X010188Y010384D01*
X010168Y010404D01*
X010168Y011372D01*
X010718Y011922D01*
X010668Y011737D02*
X010533Y011737D01*
X010668Y011579D02*
X010375Y011579D01*
X010216Y011420D02*
X010732Y011420D01*
X010859Y011262D02*
X010168Y011262D01*
X010168Y011103D02*
X010194Y011103D01*
X010188Y010945D02*
X010168Y010945D01*
X010168Y010786D02*
X010188Y010786D01*
X010188Y010628D02*
X010168Y010628D01*
X010168Y010469D02*
X010188Y010469D01*
X009888Y010288D02*
X009888Y011488D01*
X012888Y014488D01*
X013411Y014116D02*
X013720Y014116D01*
X013768Y014274D02*
X013468Y014274D01*
X013468Y014433D02*
X013832Y014433D01*
X013999Y014591D02*
X013468Y014591D01*
X013468Y014750D02*
X014085Y014750D01*
X014137Y014728D02*
X014840Y014728D01*
X015009Y014798D01*
X015138Y014928D01*
X015208Y015097D01*
X015208Y015280D01*
X015138Y015449D01*
X015009Y015578D01*
X014840Y015648D01*
X014137Y015648D01*
X013968Y015578D01*
X013838Y015449D01*
X013768Y015280D01*
X013768Y015097D01*
X013838Y014928D01*
X013968Y014798D01*
X014137Y014728D01*
X013858Y014908D02*
X013468Y014908D01*
X013468Y015067D02*
X013781Y015067D01*
X013768Y015225D02*
X013468Y015225D01*
X013468Y015384D02*
X013811Y015384D01*
X013932Y015542D02*
X013468Y015542D01*
X013468Y015701D02*
X017028Y015701D01*
X017028Y015859D02*
X015070Y015859D01*
X015009Y015798D02*
X015138Y015928D01*
X015208Y016097D01*
X015208Y016280D01*
X015138Y016449D01*
X015009Y016578D01*
X014840Y016648D01*
X014137Y016648D01*
X013968Y016578D01*
X013838Y016449D01*
X013768Y016280D01*
X013768Y016097D01*
X013838Y015928D01*
X013968Y015798D01*
X014137Y015728D01*
X014840Y015728D01*
X015009Y015798D01*
X015045Y015542D02*
X017028Y015542D01*
X017028Y015384D02*
X015165Y015384D01*
X015208Y015225D02*
X017075Y015225D01*
X017168Y015067D02*
X015196Y015067D01*
X015119Y014908D02*
X017168Y014908D01*
X017168Y014750D02*
X014891Y014750D01*
X014978Y014591D02*
X017168Y014591D01*
X017168Y014433D02*
X015145Y014433D01*
X015208Y014274D02*
X017168Y014274D01*
X017168Y014116D02*
X015208Y014116D01*
X015150Y013957D02*
X017168Y013957D01*
X017168Y013798D02*
X015009Y013798D01*
X014488Y014188D02*
X014188Y014188D01*
X013088Y013088D01*
X012588Y013088D01*
X012462Y012689D02*
X011985Y012689D01*
X012143Y012847D02*
X012239Y012847D01*
X012715Y012689D02*
X015552Y012689D01*
X015419Y012530D02*
X011826Y012530D01*
X011667Y012372D02*
X015304Y012372D01*
X015244Y012213D02*
X014461Y012213D01*
X014678Y012054D02*
X015192Y012054D01*
X015168Y011896D02*
X014769Y011896D01*
X014808Y011737D02*
X015168Y011737D01*
X015168Y011579D02*
X014808Y011579D01*
X014744Y011420D02*
X015168Y011420D01*
X015168Y011262D02*
X014618Y011262D01*
X014249Y010945D02*
X015168Y010945D01*
X015168Y011103D02*
X014130Y011103D01*
X014308Y010786D02*
X015168Y010786D01*
X015168Y010628D02*
X014308Y010628D01*
X014264Y010469D02*
X015168Y010469D01*
X015162Y010310D02*
X014167Y010310D01*
X013933Y010152D02*
X015118Y010152D01*
X015032Y009993D02*
X011689Y009993D01*
X011531Y009835D02*
X014869Y009835D01*
X015433Y009443D02*
X015679Y009782D01*
X015808Y010179D01*
X015808Y010325D01*
X015808Y010325D01*
X015808Y011788D01*
X015815Y011879D01*
X015872Y012052D01*
X015978Y012198D01*
X016125Y012305D01*
X016298Y012361D01*
X016388Y012368D01*
X016441Y012368D01*
X016452Y012368D01*
X016752Y012368D01*
X016752Y012368D01*
X016866Y012368D01*
X017203Y012478D01*
X017203Y012478D01*
X017490Y012687D01*
X017699Y012974D01*
X017808Y013311D01*
X017808Y013412D01*
X017943Y013368D01*
X018025Y013368D01*
X023325Y013368D01*
X023389Y013368D01*
X023516Y013360D01*
X023763Y013294D01*
X023985Y013166D01*
X023985Y013166D01*
X024166Y012985D01*
X024294Y012763D01*
X024360Y012516D01*
X024368Y012388D01*
X024368Y012015D01*
X024338Y011985D01*
X024247Y012076D01*
X024079Y012146D01*
X023897Y012146D01*
X023729Y012076D01*
X023624Y011971D01*
X023622Y011973D01*
X023573Y012022D01*
X023518Y012062D01*
X023456Y012094D01*
X023391Y012115D01*
X023323Y012126D01*
X023289Y012126D01*
X023289Y011689D01*
X023288Y011689D01*
X023288Y012126D01*
X023254Y012126D01*
X023186Y012115D01*
X023120Y012094D01*
X023059Y012062D01*
X023003Y012022D01*
X022955Y011973D01*
X022914Y011918D01*
X022883Y011856D01*
X022862Y011791D01*
X022851Y011723D01*
X022851Y011689D01*
X023288Y011689D01*
X023288Y011688D01*
X022851Y011688D01*
X022851Y011654D01*
X022862Y011586D01*
X022883Y011520D01*
X022914Y011459D01*
X022955Y011403D01*
X023003Y011355D01*
X023012Y011348D01*
X021660Y011348D01*
X021398Y011348D01*
X021438Y011388D01*
X021518Y011583D01*
X021518Y011794D01*
X021438Y011989D01*
X021289Y012138D01*
X021094Y012218D01*
X020883Y012218D01*
X020688Y012138D01*
X020539Y011989D01*
X020458Y011794D01*
X020458Y011583D01*
X020539Y011388D01*
X020628Y011299D01*
X020628Y011017D01*
X020628Y010965D01*
X020752Y010752D01*
X020965Y010628D01*
X021017Y010628D01*
X021099Y010628D01*
X021160Y010628D01*
X021588Y010628D01*
X021596Y010628D01*
X015808Y010628D01*
X015808Y010786D02*
X020732Y010786D01*
X020752Y010752D02*
X020752Y010752D01*
X020752Y010752D01*
X020640Y010945D02*
X015808Y010945D01*
X015808Y011103D02*
X020628Y011103D01*
X020628Y010965D02*
X020628Y010965D01*
X020628Y011262D02*
X017311Y011262D01*
X017289Y011239D02*
X017438Y011388D01*
X017518Y011583D01*
X017518Y011794D01*
X017438Y011989D01*
X017289Y012138D01*
X017094Y012218D01*
X016883Y012218D01*
X016688Y012138D01*
X016539Y011989D01*
X016458Y011794D01*
X016458Y011583D01*
X016539Y011388D01*
X016688Y011239D01*
X016883Y011158D01*
X017094Y011158D01*
X017289Y011239D01*
X017451Y011420D02*
X020526Y011420D01*
X020460Y011579D02*
X017517Y011579D01*
X017518Y011737D02*
X020458Y011737D01*
X020501Y011896D02*
X017476Y011896D01*
X017372Y012054D02*
X020605Y012054D01*
X020870Y012213D02*
X017107Y012213D01*
X016870Y012213D02*
X015998Y012213D01*
X015874Y012054D02*
X016605Y012054D01*
X016501Y011896D02*
X015821Y011896D01*
X015808Y011737D02*
X016458Y011737D01*
X016460Y011579D02*
X015808Y011579D01*
X015808Y011420D02*
X016526Y011420D01*
X016665Y011262D02*
X015808Y011262D01*
X015808Y010469D02*
X021628Y010469D01*
X021628Y010517D02*
X021628Y009852D01*
X021546Y010051D01*
X021351Y010246D01*
X021095Y010352D01*
X020819Y010352D01*
X020563Y010246D01*
X020465Y010148D01*
X020366Y010246D01*
X020111Y010352D01*
X019834Y010352D01*
X019579Y010246D01*
X019495Y010163D01*
X019394Y010264D01*
X019131Y010373D01*
X018846Y010373D01*
X018583Y010264D01*
X018481Y010163D01*
X018398Y010246D01*
X018142Y010352D01*
X017866Y010352D01*
X017610Y010246D01*
X017498Y010133D01*
X017466Y010165D01*
X017396Y010219D01*
X017319Y010264D01*
X017237Y010297D01*
X017152Y010320D01*
X017100Y010327D01*
X017100Y009737D01*
X016940Y009737D01*
X016940Y010327D01*
X016888Y010320D01*
X016802Y010297D01*
X016721Y010264D01*
X016644Y010219D01*
X016574Y010165D01*
X016511Y010103D01*
X016457Y010033D01*
X016413Y009956D01*
X016379Y009874D01*
X016356Y009789D01*
X016350Y009737D01*
X016940Y009737D01*
X016940Y009577D01*
X017100Y009577D01*
X017100Y008987D01*
X017152Y008993D01*
X017237Y009016D01*
X017319Y009050D01*
X017396Y009094D01*
X017466Y009148D01*
X017498Y009180D01*
X017610Y009068D01*
X017850Y008968D01*
X016933Y008968D01*
X016830Y008926D01*
X016751Y008847D01*
X015812Y007908D01*
X015848Y008042D01*
X015848Y008334D01*
X015773Y008617D01*
X015626Y008870D01*
X015420Y009076D01*
X015167Y009223D01*
X015139Y009230D01*
X015433Y009443D01*
X015433Y009443D01*
X015487Y009518D02*
X016358Y009518D01*
X016356Y009525D02*
X016379Y009439D01*
X016413Y009358D01*
X016457Y009281D01*
X016511Y009211D01*
X016574Y009148D01*
X016644Y009094D01*
X016721Y009050D01*
X016802Y009016D01*
X016888Y008993D01*
X016940Y008987D01*
X016940Y009577D01*
X016350Y009577D01*
X016356Y009525D01*
X016412Y009359D02*
X015317Y009359D01*
X015205Y009201D02*
X016521Y009201D01*
X016740Y009042D02*
X015454Y009042D01*
X015613Y008884D02*
X016788Y008884D01*
X016940Y009042D02*
X017100Y009042D01*
X017100Y009201D02*
X016940Y009201D01*
X016940Y009359D02*
X017100Y009359D01*
X017100Y009518D02*
X016940Y009518D01*
X016940Y009676D02*
X015602Y009676D01*
X015679Y009782D02*
X015679Y009782D01*
X015696Y009835D02*
X016369Y009835D01*
X016435Y009993D02*
X015748Y009993D01*
X015799Y010152D02*
X016560Y010152D01*
X016851Y010310D02*
X015808Y010310D01*
X016940Y010310D02*
X017100Y010310D01*
X017188Y010310D02*
X017766Y010310D01*
X017516Y010152D02*
X017479Y010152D01*
X017100Y010152D02*
X016940Y010152D01*
X016940Y009993D02*
X017100Y009993D01*
X017100Y009835D02*
X016940Y009835D01*
X017300Y009042D02*
X017672Y009042D01*
X016988Y008688D02*
X020488Y008688D01*
X020957Y009157D01*
X020957Y009657D01*
X021445Y010152D02*
X021628Y010152D01*
X021628Y010310D02*
X021195Y010310D01*
X020965Y010628D02*
X020965Y010628D01*
X020719Y010310D02*
X020211Y010310D01*
X020460Y010152D02*
X020469Y010152D01*
X019735Y010310D02*
X019282Y010310D01*
X018695Y010310D02*
X018242Y010310D01*
X016988Y008688D02*
X015088Y006788D01*
X009988Y006788D01*
X008788Y007988D01*
X008788Y009088D01*
X006688Y011188D01*
X006688Y015188D01*
X008688Y017188D01*
X011488Y017188D01*
X011029Y017603D02*
X008558Y017603D01*
X008558Y017762D02*
X011056Y017762D01*
X011137Y017728D02*
X010968Y017798D01*
X010838Y017928D01*
X010768Y018097D01*
X010768Y018280D01*
X010838Y018449D01*
X010968Y018578D01*
X011137Y018648D01*
X011840Y018648D01*
X012009Y018578D01*
X012138Y018449D01*
X012208Y018280D01*
X012208Y018097D01*
X012138Y017928D01*
X012009Y017798D01*
X011840Y017728D01*
X011137Y017728D01*
X010846Y017921D02*
X008509Y017921D01*
X008404Y018079D02*
X010776Y018079D01*
X010768Y018238D02*
X008152Y018238D01*
X007825Y018238D02*
X006668Y018238D01*
X006668Y018396D02*
X010817Y018396D01*
X010944Y018555D02*
X006668Y018555D01*
X006668Y018713D02*
X012608Y018713D01*
X012608Y018555D02*
X012032Y018555D01*
X012160Y018396D02*
X012608Y018396D01*
X012608Y018238D02*
X012208Y018238D01*
X012201Y018079D02*
X012608Y018079D01*
X012608Y017921D02*
X012131Y017921D01*
X011921Y017762D02*
X012608Y017762D01*
X012608Y017603D02*
X011948Y017603D01*
X012140Y017445D02*
X012608Y017445D01*
X012608Y017286D02*
X012206Y017286D01*
X012208Y017128D02*
X012608Y017128D01*
X012608Y016969D02*
X012155Y016969D01*
X012021Y016811D02*
X012608Y016811D01*
X012608Y016652D02*
X010448Y016652D01*
X010448Y016494D02*
X010883Y016494D01*
X010791Y016335D02*
X010386Y016335D01*
X010227Y016177D02*
X010768Y016177D01*
X010801Y016018D02*
X007914Y016018D01*
X007759Y015859D02*
X007755Y015859D01*
X007600Y015701D02*
X007597Y015701D01*
X007528Y015542D02*
X007438Y015542D01*
X007528Y015384D02*
X007280Y015384D01*
X007121Y015225D02*
X007551Y015225D01*
X007216Y015067D02*
X006968Y015067D01*
X006968Y014908D02*
X007058Y014908D01*
X007028Y014750D02*
X006968Y014750D01*
X006968Y014591D02*
X007028Y014591D01*
X006968Y014433D02*
X007094Y014433D01*
X006968Y014274D02*
X007252Y014274D01*
X007725Y014274D02*
X008280Y014274D01*
X008122Y014433D02*
X007883Y014433D01*
X007948Y014591D02*
X008048Y014591D01*
X008048Y014750D02*
X007948Y014750D01*
X007919Y014908D02*
X008086Y014908D01*
X008218Y015859D02*
X010907Y015859D01*
X009750Y016177D02*
X008073Y016177D01*
X008231Y016335D02*
X009591Y016335D01*
X009528Y016494D02*
X008390Y016494D01*
X008548Y016652D02*
X009528Y016652D01*
X009560Y016811D02*
X008707Y016811D01*
X008232Y017128D02*
X008125Y017128D01*
X008073Y016969D02*
X006668Y016969D01*
X006668Y016811D02*
X007915Y016811D01*
X007756Y016652D02*
X006668Y016652D01*
X006668Y016494D02*
X007598Y016494D01*
X007439Y016335D02*
X006668Y016335D01*
X006668Y016177D02*
X007281Y016177D01*
X007122Y016018D02*
X006668Y016018D01*
X006668Y015859D02*
X006964Y015859D01*
X006805Y015701D02*
X006668Y015701D01*
X006668Y017128D02*
X007852Y017128D01*
X007584Y017286D02*
X006668Y017286D01*
X006668Y017445D02*
X007472Y017445D01*
X007418Y017603D02*
X006668Y017603D01*
X006668Y017762D02*
X007418Y017762D01*
X007468Y017921D02*
X006668Y017921D01*
X006668Y018079D02*
X007573Y018079D01*
X008504Y017445D02*
X008576Y017445D01*
X010416Y016811D02*
X010955Y016811D01*
X012094Y016494D02*
X012608Y016494D01*
X012608Y016335D02*
X012185Y016335D01*
X012208Y016177D02*
X012608Y016177D01*
X012608Y016018D02*
X012176Y016018D01*
X013468Y016018D02*
X013801Y016018D01*
X013768Y016177D02*
X013468Y016177D01*
X013468Y016335D02*
X013791Y016335D01*
X013883Y016494D02*
X013468Y016494D01*
X013468Y016652D02*
X017168Y016652D01*
X017168Y016494D02*
X015094Y016494D01*
X015185Y016335D02*
X017168Y016335D01*
X017085Y016177D02*
X015208Y016177D01*
X015176Y016018D02*
X017028Y016018D01*
X017168Y016811D02*
X015021Y016811D01*
X015009Y016798D02*
X015138Y016928D01*
X015208Y017097D01*
X015208Y017280D01*
X015138Y017449D01*
X015009Y017578D01*
X014840Y017648D01*
X014137Y017648D01*
X013968Y017578D01*
X013838Y017449D01*
X013768Y017280D01*
X013768Y017097D01*
X013838Y016928D01*
X013968Y016798D01*
X014137Y016728D01*
X014840Y016728D01*
X015009Y016798D01*
X015155Y016969D02*
X017168Y016969D01*
X017168Y017128D02*
X015208Y017128D01*
X015206Y017286D02*
X017168Y017286D01*
X017168Y017445D02*
X015140Y017445D01*
X014948Y017603D02*
X017168Y017603D01*
X017168Y017762D02*
X014921Y017762D01*
X014840Y017728D02*
X015009Y017798D01*
X015138Y017928D01*
X015208Y018097D01*
X015208Y018280D01*
X015138Y018449D01*
X015009Y018578D01*
X014840Y018648D01*
X014137Y018648D01*
X013968Y018578D01*
X013838Y018449D01*
X013768Y018280D01*
X013768Y018097D01*
X013838Y017928D01*
X013968Y017798D01*
X014137Y017728D01*
X014840Y017728D01*
X015131Y017921D02*
X017168Y017921D01*
X017168Y018079D02*
X015201Y018079D01*
X015208Y018238D02*
X017069Y018238D01*
X017028Y018396D02*
X015160Y018396D01*
X015032Y018555D02*
X017028Y018555D01*
X017028Y018713D02*
X013468Y018713D01*
X013468Y018555D02*
X013944Y018555D01*
X013817Y018396D02*
X013468Y018396D01*
X013468Y018238D02*
X013768Y018238D01*
X013776Y018079D02*
X013468Y018079D01*
X013468Y017921D02*
X013846Y017921D01*
X014056Y017762D02*
X013468Y017762D01*
X013468Y017603D02*
X014029Y017603D01*
X013837Y017445D02*
X013468Y017445D01*
X013468Y017286D02*
X013771Y017286D01*
X013768Y017128D02*
X013468Y017128D01*
X013468Y016969D02*
X013821Y016969D01*
X013955Y016811D02*
X013468Y016811D01*
X013468Y015859D02*
X013907Y015859D01*
X013561Y013957D02*
X013253Y013957D01*
X013402Y013798D02*
X013094Y013798D01*
X013244Y013640D02*
X012936Y013640D01*
X013085Y013481D02*
X012777Y013481D01*
X013238Y012847D02*
X015770Y012847D01*
X016187Y013006D02*
X013402Y013006D01*
X013560Y013164D02*
X017039Y013164D01*
X017133Y013323D02*
X013719Y013323D01*
X013877Y013481D02*
X017168Y013481D01*
X017168Y013640D02*
X014036Y013640D01*
X014016Y012213D02*
X013461Y012213D01*
X013678Y012054D02*
X013798Y012054D01*
X013016Y012213D02*
X012403Y012213D01*
X012257Y012213D02*
X012220Y012213D01*
X012073Y012213D02*
X011518Y012213D01*
X011678Y012054D02*
X011827Y012054D01*
X012220Y012054D02*
X012257Y012054D01*
X012257Y011896D02*
X012220Y011896D01*
X012220Y011737D02*
X012257Y011737D01*
X012257Y011670D02*
X012257Y011138D01*
X012282Y011138D01*
X012367Y011152D01*
X012449Y011179D01*
X012527Y011218D01*
X012597Y011269D01*
X012658Y011330D01*
X012709Y011400D01*
X012726Y011435D01*
X012755Y011365D01*
X012910Y011211D01*
X012867Y011225D01*
X012782Y011238D01*
X012757Y011238D01*
X012757Y010707D01*
X012720Y010707D01*
X012720Y011238D01*
X012695Y011238D01*
X012610Y011225D01*
X012527Y011198D01*
X012450Y011159D01*
X012380Y011108D01*
X012319Y011047D01*
X012268Y010977D01*
X012250Y010942D01*
X012222Y011011D01*
X012067Y011166D01*
X012110Y011152D01*
X012195Y011138D01*
X012220Y011138D01*
X012220Y011670D01*
X012257Y011670D01*
X012257Y011579D02*
X012220Y011579D01*
X012220Y011420D02*
X012257Y011420D01*
X012257Y011262D02*
X012220Y011262D01*
X012130Y011103D02*
X012375Y011103D01*
X012252Y010945D02*
X012249Y010945D01*
X012587Y011262D02*
X012859Y011262D01*
X012757Y011103D02*
X012720Y011103D01*
X012720Y010945D02*
X012757Y010945D01*
X012757Y010786D02*
X012720Y010786D01*
X012720Y010628D02*
X012757Y010628D01*
X012757Y010469D02*
X012720Y010469D01*
X012720Y010310D02*
X012757Y010310D01*
X012757Y010152D02*
X012720Y010152D01*
X012609Y010152D02*
X011933Y010152D01*
X012167Y010310D02*
X012338Y010310D01*
X012867Y010152D02*
X013544Y010152D01*
X013310Y010310D02*
X013138Y010310D01*
X012732Y011420D02*
X012719Y011420D01*
X012650Y012054D02*
X012798Y012054D01*
X011327Y013323D02*
X010373Y013323D01*
X010448Y013481D02*
X011485Y013481D01*
X011644Y013640D02*
X010448Y013640D01*
X010215Y013164D02*
X011168Y013164D01*
X009741Y011737D02*
X008808Y011737D01*
X008808Y011579D02*
X009623Y011579D01*
X009608Y011420D02*
X008808Y011420D01*
X008810Y011262D02*
X009608Y011262D01*
X009608Y011103D02*
X008820Y011103D01*
X008856Y010945D02*
X009608Y010945D01*
X009608Y010786D02*
X008893Y010786D01*
X008964Y010628D02*
X009608Y010628D01*
X009608Y010469D02*
X009040Y010469D01*
X009160Y010310D02*
X009608Y010310D01*
X009642Y010152D02*
X009295Y010152D01*
X009494Y009993D02*
X009787Y009993D01*
X009788Y009835D02*
X009946Y009835D01*
X010388Y009788D02*
X009888Y010288D01*
X010388Y009788D02*
X011088Y009788D01*
X011738Y010438D01*
X011738Y010688D01*
X010757Y010628D02*
X010720Y010628D01*
X010720Y010786D02*
X010757Y010786D01*
X010757Y010945D02*
X010720Y010945D01*
X010720Y011103D02*
X010757Y011103D01*
X010757Y010469D02*
X010720Y010469D01*
X010720Y010310D02*
X010757Y010310D01*
X010757Y010152D02*
X010720Y010152D01*
X006981Y013323D02*
X006968Y013323D01*
X006968Y013481D02*
X007105Y013481D01*
X007871Y013481D02*
X008105Y013481D01*
X006668Y018872D02*
X010894Y018872D01*
X010838Y018928D02*
X010968Y018798D01*
X011137Y018728D01*
X011840Y018728D01*
X012009Y018798D01*
X012138Y018928D01*
X012208Y019097D01*
X012208Y019280D01*
X012138Y019449D01*
X012009Y019578D01*
X011840Y019648D01*
X011137Y019648D01*
X010968Y019578D01*
X010838Y019449D01*
X010768Y019280D01*
X010768Y019097D01*
X010838Y018928D01*
X010796Y019030D02*
X006668Y019030D01*
X006668Y019189D02*
X010768Y019189D01*
X010796Y019347D02*
X006668Y019347D01*
X006668Y019506D02*
X010895Y019506D01*
X010968Y019798D02*
X011137Y019728D01*
X011840Y019728D01*
X012009Y019798D01*
X012138Y019928D01*
X012208Y020097D01*
X012208Y020280D01*
X012138Y020449D01*
X012009Y020578D01*
X011840Y020648D01*
X011137Y020648D01*
X010968Y020578D01*
X010838Y020449D01*
X010768Y020280D01*
X010768Y020097D01*
X010838Y019928D01*
X010968Y019798D01*
X010943Y019823D02*
X009274Y019823D01*
X009179Y019728D02*
X009448Y019998D01*
X009448Y020379D01*
X009179Y020648D01*
X008798Y020648D01*
X008528Y020379D01*
X008528Y019998D01*
X008798Y019728D01*
X009179Y019728D01*
X009432Y019982D02*
X010816Y019982D01*
X010768Y020140D02*
X009448Y020140D01*
X009448Y020299D02*
X010776Y020299D01*
X010847Y020457D02*
X009370Y020457D01*
X009211Y020616D02*
X011058Y020616D01*
X011137Y020728D02*
X010968Y020798D01*
X010838Y020928D01*
X010768Y021097D01*
X010768Y021280D01*
X010838Y021449D01*
X010968Y021578D01*
X011137Y021648D01*
X011840Y021648D01*
X012009Y021578D01*
X012138Y021449D01*
X012208Y021280D01*
X012208Y021097D01*
X012138Y020928D01*
X012009Y020798D01*
X011840Y020728D01*
X011137Y020728D01*
X011026Y020774D02*
X006668Y020774D01*
X006668Y020616D02*
X007765Y020616D01*
X007798Y020648D02*
X007528Y020379D01*
X007528Y019998D01*
X007798Y019728D01*
X008179Y019728D01*
X008448Y019998D01*
X008448Y020379D01*
X008179Y020648D01*
X007798Y020648D01*
X007607Y020457D02*
X006668Y020457D01*
X006668Y020299D02*
X007528Y020299D01*
X007528Y020140D02*
X006668Y020140D01*
X006668Y019982D02*
X007545Y019982D01*
X007703Y019823D02*
X006668Y019823D01*
X006668Y019665D02*
X012608Y019665D01*
X012608Y019823D02*
X012034Y019823D01*
X012161Y019982D02*
X012608Y019982D01*
X012608Y020140D02*
X012208Y020140D01*
X012201Y020299D02*
X012608Y020299D01*
X012608Y020457D02*
X012130Y020457D01*
X011918Y020616D02*
X012608Y020616D01*
X012608Y020774D02*
X011951Y020774D01*
X012140Y020933D02*
X012608Y020933D01*
X012608Y021091D02*
X012206Y021091D01*
X012208Y021250D02*
X012654Y021250D01*
X012813Y021409D02*
X012155Y021409D01*
X012020Y021567D02*
X012971Y021567D01*
X013130Y021726D02*
X006668Y021726D01*
X006668Y021884D02*
X010882Y021884D01*
X010838Y021928D02*
X010968Y021798D01*
X011137Y021728D01*
X011840Y021728D01*
X012009Y021798D01*
X012138Y021928D01*
X012208Y022097D01*
X012208Y022280D01*
X012138Y022449D01*
X012009Y022578D01*
X011840Y022648D01*
X011137Y022648D01*
X010968Y022578D01*
X010838Y022449D01*
X010768Y022280D01*
X010768Y022097D01*
X010838Y021928D01*
X010791Y022043D02*
X006668Y022043D01*
X006668Y022201D02*
X010768Y022201D01*
X010801Y022360D02*
X006668Y022360D01*
X006668Y022518D02*
X010908Y022518D01*
X010968Y022798D02*
X011137Y022728D01*
X011840Y022728D01*
X012009Y022798D01*
X012138Y022928D01*
X012208Y023097D01*
X012208Y023280D01*
X012138Y023449D01*
X012009Y023578D01*
X011840Y023648D01*
X011137Y023648D01*
X010968Y023578D01*
X010838Y023449D01*
X010768Y023280D01*
X010768Y023097D01*
X010838Y022928D01*
X010968Y022798D01*
X010931Y022835D02*
X009786Y022835D01*
X009679Y022728D02*
X009948Y022998D01*
X009948Y023379D01*
X009679Y023648D01*
X009298Y023648D01*
X009028Y023379D01*
X009028Y022998D01*
X009298Y022728D01*
X009679Y022728D01*
X009944Y022994D02*
X010811Y022994D01*
X010768Y023152D02*
X009948Y023152D01*
X009948Y023311D02*
X010781Y023311D01*
X010859Y023470D02*
X009858Y023470D01*
X009699Y023628D02*
X011088Y023628D01*
X011889Y023628D02*
X014088Y023628D01*
X014137Y023648D02*
X013968Y023578D01*
X013838Y023449D01*
X013768Y023280D01*
X013768Y023097D01*
X013838Y022928D01*
X013968Y022798D01*
X014137Y022728D01*
X014840Y022728D01*
X015009Y022798D01*
X015138Y022928D01*
X015208Y023097D01*
X015208Y023280D01*
X015138Y023449D01*
X015009Y023578D01*
X014840Y023648D01*
X014137Y023648D01*
X013859Y023470D02*
X012118Y023470D01*
X012195Y023311D02*
X013781Y023311D01*
X013768Y023152D02*
X012208Y023152D01*
X012166Y022994D02*
X013811Y022994D01*
X013931Y022835D02*
X012046Y022835D01*
X012069Y022518D02*
X013908Y022518D01*
X013764Y022360D02*
X012175Y022360D01*
X012208Y022201D02*
X013605Y022201D01*
X013447Y022043D02*
X012186Y022043D01*
X012095Y021884D02*
X013288Y021884D01*
X013921Y021726D02*
X015330Y021726D01*
X015488Y021884D02*
X015095Y021884D01*
X015186Y022043D02*
X015508Y022043D01*
X015508Y022201D02*
X015208Y022201D01*
X015175Y022360D02*
X015508Y022360D01*
X015508Y022518D02*
X015069Y022518D01*
X015046Y022835D02*
X015508Y022835D01*
X015508Y022677D02*
X006668Y022677D01*
X006668Y022835D02*
X007691Y022835D01*
X007798Y022728D02*
X008179Y022728D01*
X008448Y022998D01*
X008448Y023379D01*
X008179Y023648D01*
X007798Y023648D01*
X007528Y023379D01*
X007528Y022998D01*
X007798Y022728D01*
X007532Y022994D02*
X006668Y022994D01*
X006668Y023152D02*
X007528Y023152D01*
X007528Y023311D02*
X006668Y023311D01*
X006668Y023470D02*
X007619Y023470D01*
X007778Y023628D02*
X006668Y023628D01*
X006668Y023787D02*
X015508Y023787D01*
X015508Y023945D02*
X006668Y023945D01*
X006668Y024104D02*
X015508Y024104D01*
X015508Y024262D02*
X014713Y024262D01*
X014679Y024228D02*
X014948Y024498D01*
X014948Y024879D01*
X014679Y025148D01*
X014298Y025148D01*
X014028Y024879D01*
X014028Y024498D01*
X014298Y024228D01*
X014679Y024228D01*
X014871Y024421D02*
X015508Y024421D01*
X015508Y024579D02*
X014948Y024579D01*
X014948Y024738D02*
X015508Y024738D01*
X015508Y024896D02*
X014931Y024896D01*
X014772Y025055D02*
X015508Y025055D01*
X015508Y025214D02*
X006668Y025214D01*
X006668Y025372D02*
X015508Y025372D01*
X015508Y025531D02*
X006668Y025531D01*
X006668Y025689D02*
X015492Y025689D01*
X015333Y025848D02*
X009798Y025848D01*
X009679Y025728D02*
X009948Y025998D01*
X009948Y026379D01*
X009679Y026648D01*
X009298Y026648D01*
X009028Y026379D01*
X009028Y025998D01*
X009298Y025728D01*
X009679Y025728D01*
X009948Y026006D02*
X010909Y026006D01*
X010898Y026012D02*
X010959Y025981D01*
X011025Y025959D01*
X011094Y025948D01*
X011388Y025948D01*
X011388Y026388D01*
X011389Y026388D01*
X011389Y026389D01*
X011388Y026389D01*
X011388Y026828D01*
X011094Y026828D01*
X011025Y026817D01*
X010959Y026796D01*
X010898Y026765D01*
X010842Y026724D01*
X010793Y026675D01*
X010752Y026619D01*
X010721Y026557D01*
X010699Y026491D01*
X010688Y026423D01*
X010688Y026389D01*
X011388Y026389D01*
X011388Y026388D01*
X010688Y026388D01*
X010688Y026354D01*
X010699Y026285D01*
X010721Y026219D01*
X010752Y026158D01*
X010793Y026102D01*
X010842Y026053D01*
X010898Y026012D01*
X010748Y026165D02*
X009948Y026165D01*
X009948Y026323D02*
X010693Y026323D01*
X010698Y026482D02*
X009845Y026482D01*
X009687Y026640D02*
X010768Y026640D01*
X010968Y026799D02*
X008035Y026799D01*
X008179Y026648D02*
X007798Y026648D01*
X007528Y026379D01*
X007528Y025998D01*
X007798Y025728D01*
X008179Y025728D01*
X008448Y025998D01*
X008448Y026379D01*
X008179Y026648D01*
X008187Y026640D02*
X009290Y026640D01*
X009131Y026482D02*
X008345Y026482D01*
X008448Y026323D02*
X009028Y026323D01*
X009028Y026165D02*
X008448Y026165D01*
X008448Y026006D02*
X009028Y026006D01*
X009178Y025848D02*
X008298Y025848D01*
X007678Y025848D02*
X006668Y025848D01*
X006668Y026006D02*
X007528Y026006D01*
X007528Y026165D02*
X006668Y026165D01*
X006668Y026323D02*
X007528Y026323D01*
X007631Y026482D02*
X006668Y026482D01*
X006668Y026640D02*
X007790Y026640D01*
X008256Y026958D02*
X011036Y026958D01*
X011025Y026959D02*
X011094Y026948D01*
X011388Y026948D01*
X011388Y027388D01*
X011389Y027388D01*
X011389Y027389D01*
X011388Y027389D01*
X011388Y027828D01*
X011094Y027828D01*
X011025Y027817D01*
X010959Y027796D01*
X010898Y027765D01*
X010842Y027724D01*
X010793Y027675D01*
X010752Y027619D01*
X010721Y027557D01*
X010699Y027491D01*
X010688Y027423D01*
X010688Y027389D01*
X011388Y027389D01*
X011388Y027388D01*
X010688Y027388D01*
X010688Y027354D01*
X010699Y027285D01*
X010721Y027219D01*
X010752Y027158D01*
X010793Y027102D01*
X010842Y027053D01*
X010898Y027012D01*
X010959Y026981D01*
X011025Y026959D01*
X010782Y027116D02*
X008405Y027116D01*
X008496Y027275D02*
X010703Y027275D01*
X010690Y027433D02*
X008563Y027433D01*
X008605Y027592D02*
X010738Y027592D01*
X010878Y027750D02*
X008618Y027750D01*
X008618Y027909D02*
X034758Y027909D01*
X034758Y027750D02*
X033949Y027750D01*
X034058Y027592D02*
X034771Y027592D01*
X034814Y027433D02*
X034058Y027433D01*
X034058Y027275D02*
X034880Y027275D01*
X034972Y027116D02*
X034058Y027116D01*
X034058Y026958D02*
X035121Y026958D01*
X035342Y026799D02*
X034058Y026799D01*
X033963Y026640D02*
X036678Y026640D01*
X036678Y026482D02*
X025920Y026482D01*
X025868Y026323D02*
X036678Y026323D01*
X036678Y026165D02*
X025848Y026165D01*
X025848Y026006D02*
X036678Y026006D01*
X036678Y025848D02*
X025848Y025848D01*
X025848Y025689D02*
X036678Y025689D01*
X036678Y025531D02*
X025848Y025531D01*
X025848Y025372D02*
X027309Y025372D01*
X027228Y025338D02*
X027098Y025209D01*
X027028Y025040D01*
X027028Y024337D01*
X027098Y024168D01*
X027228Y024038D01*
X027397Y023968D01*
X027580Y023968D01*
X027749Y024038D01*
X027878Y024168D01*
X027948Y024337D01*
X027948Y025040D01*
X027878Y025209D01*
X027749Y025338D01*
X027580Y025408D01*
X027397Y025408D01*
X027228Y025338D01*
X027103Y025214D02*
X025874Y025214D01*
X025942Y025055D02*
X027035Y025055D01*
X027028Y024896D02*
X025948Y024896D01*
X025948Y024738D02*
X027028Y024738D01*
X027028Y024579D02*
X025948Y024579D01*
X025948Y024421D02*
X027028Y024421D01*
X027059Y024262D02*
X025958Y024262D01*
X026055Y024104D02*
X027162Y024104D01*
X027814Y024104D02*
X028162Y024104D01*
X028098Y024168D02*
X028228Y024038D01*
X028397Y023968D01*
X028580Y023968D01*
X028749Y024038D01*
X028878Y024168D01*
X028948Y024337D01*
X028948Y025040D01*
X028878Y025209D01*
X028749Y025338D01*
X028580Y025408D01*
X028397Y025408D01*
X028228Y025338D01*
X028098Y025209D01*
X028028Y025040D01*
X028028Y024337D01*
X028098Y024168D01*
X028059Y024262D02*
X027917Y024262D01*
X027948Y024421D02*
X028028Y024421D01*
X028028Y024579D02*
X027948Y024579D01*
X027948Y024738D02*
X028028Y024738D01*
X028028Y024896D02*
X027948Y024896D01*
X027942Y025055D02*
X028035Y025055D01*
X028103Y025214D02*
X027874Y025214D01*
X027667Y025372D02*
X028309Y025372D01*
X028667Y025372D02*
X029309Y025372D01*
X029228Y025338D02*
X029098Y025209D01*
X029028Y025040D01*
X029028Y024337D01*
X029098Y024168D01*
X029228Y024038D01*
X029397Y023968D01*
X029580Y023968D01*
X029749Y024038D01*
X029878Y024168D01*
X029948Y024337D01*
X029948Y025040D01*
X029878Y025209D01*
X029749Y025338D01*
X029580Y025408D01*
X029397Y025408D01*
X029228Y025338D01*
X029103Y025214D02*
X028874Y025214D01*
X028942Y025055D02*
X029035Y025055D01*
X029028Y024896D02*
X028948Y024896D01*
X028948Y024738D02*
X029028Y024738D01*
X029028Y024579D02*
X028948Y024579D01*
X028948Y024421D02*
X029028Y024421D01*
X029059Y024262D02*
X028917Y024262D01*
X028814Y024104D02*
X029162Y024104D01*
X029814Y024104D02*
X030162Y024104D01*
X030098Y024168D02*
X030228Y024038D01*
X030397Y023968D01*
X030580Y023968D01*
X030749Y024038D01*
X030878Y024168D01*
X030948Y024337D01*
X030948Y025040D01*
X030878Y025209D01*
X030749Y025338D01*
X030580Y025408D01*
X030397Y025408D01*
X030228Y025338D01*
X030098Y025209D01*
X030028Y025040D01*
X030028Y024337D01*
X030098Y024168D01*
X030059Y024262D02*
X029917Y024262D01*
X029948Y024421D02*
X030028Y024421D01*
X030028Y024579D02*
X029948Y024579D01*
X029948Y024738D02*
X030028Y024738D01*
X030028Y024896D02*
X029948Y024896D01*
X029942Y025055D02*
X030035Y025055D01*
X030103Y025214D02*
X029874Y025214D01*
X029667Y025372D02*
X030309Y025372D01*
X030667Y025372D02*
X031309Y025372D01*
X031228Y025338D02*
X031098Y025209D01*
X031028Y025040D01*
X031028Y024337D01*
X031098Y024168D01*
X031228Y024038D01*
X031397Y023968D01*
X031580Y023968D01*
X031749Y024038D01*
X031878Y024168D01*
X031948Y024337D01*
X031948Y025040D01*
X031878Y025209D01*
X031749Y025338D01*
X031580Y025408D01*
X031397Y025408D01*
X031228Y025338D01*
X031103Y025214D02*
X030874Y025214D01*
X030942Y025055D02*
X031035Y025055D01*
X031028Y024896D02*
X030948Y024896D01*
X030948Y024738D02*
X031028Y024738D01*
X031028Y024579D02*
X030948Y024579D01*
X030948Y024421D02*
X031028Y024421D01*
X031059Y024262D02*
X030917Y024262D01*
X030814Y024104D02*
X031162Y024104D01*
X031814Y024104D02*
X032162Y024104D01*
X032098Y024168D02*
X032228Y024038D01*
X032397Y023968D01*
X032580Y023968D01*
X032749Y024038D01*
X032878Y024168D01*
X032948Y024337D01*
X032948Y025040D01*
X032878Y025209D01*
X032749Y025338D01*
X032580Y025408D01*
X032397Y025408D01*
X032228Y025338D01*
X032098Y025209D01*
X032028Y025040D01*
X032028Y024337D01*
X032098Y024168D01*
X032059Y024262D02*
X031917Y024262D01*
X031948Y024421D02*
X032028Y024421D01*
X032028Y024579D02*
X031948Y024579D01*
X031948Y024738D02*
X032028Y024738D01*
X032028Y024896D02*
X031948Y024896D01*
X031942Y025055D02*
X032035Y025055D01*
X032103Y025214D02*
X031874Y025214D01*
X031667Y025372D02*
X032309Y025372D01*
X032667Y025372D02*
X033309Y025372D01*
X033228Y025338D02*
X033098Y025209D01*
X033028Y025040D01*
X033028Y024337D01*
X033098Y024168D01*
X033228Y024038D01*
X033397Y023968D01*
X033580Y023968D01*
X033749Y024038D01*
X033878Y024168D01*
X033948Y024337D01*
X033948Y025040D01*
X033878Y025209D01*
X033749Y025338D01*
X033580Y025408D01*
X033397Y025408D01*
X033228Y025338D01*
X033103Y025214D02*
X032874Y025214D01*
X032942Y025055D02*
X033035Y025055D01*
X033028Y024896D02*
X032948Y024896D01*
X032948Y024738D02*
X033028Y024738D01*
X033028Y024579D02*
X032948Y024579D01*
X032948Y024421D02*
X033028Y024421D01*
X033059Y024262D02*
X032917Y024262D01*
X032814Y024104D02*
X033162Y024104D01*
X033814Y024104D02*
X034118Y024104D01*
X034059Y024262D02*
X033917Y024262D01*
X033948Y024421D02*
X034028Y024421D01*
X034028Y024579D02*
X033948Y024579D01*
X033948Y024738D02*
X034028Y024738D01*
X034028Y024896D02*
X033948Y024896D01*
X033942Y025055D02*
X034035Y025055D01*
X034103Y025214D02*
X033874Y025214D01*
X033667Y025372D02*
X034309Y025372D01*
X034667Y025372D02*
X036678Y025372D01*
X036678Y025214D02*
X034874Y025214D01*
X034942Y025055D02*
X036678Y025055D01*
X036678Y024896D02*
X034948Y024896D01*
X034948Y024738D02*
X036678Y024738D01*
X036678Y024579D02*
X034948Y024579D01*
X034948Y024421D02*
X036678Y024421D01*
X036678Y024262D02*
X034917Y024262D01*
X034848Y024104D02*
X036678Y024104D01*
X036678Y023945D02*
X034829Y023945D01*
X034777Y023787D02*
X036678Y023787D01*
X036678Y023628D02*
X036398Y023628D01*
X036616Y023470D02*
X036678Y023470D01*
X036194Y022835D02*
X016368Y022835D01*
X016368Y022677D02*
X036228Y022677D01*
X036228Y022518D02*
X016368Y022518D01*
X016368Y022360D02*
X018280Y022360D01*
X018228Y022338D02*
X018098Y022209D01*
X018028Y022040D01*
X018028Y021337D01*
X018098Y021168D01*
X018228Y021038D01*
X018397Y020968D01*
X018580Y020968D01*
X018749Y021038D01*
X018878Y021168D01*
X018948Y021337D01*
X018948Y022040D01*
X018878Y022209D01*
X018749Y022338D01*
X018580Y022408D01*
X018397Y022408D01*
X018228Y022338D01*
X018095Y022201D02*
X016368Y022201D01*
X016368Y022043D02*
X018030Y022043D01*
X018028Y021884D02*
X016368Y021884D01*
X016368Y021726D02*
X018028Y021726D01*
X018028Y021567D02*
X016368Y021567D01*
X016368Y021409D02*
X018028Y021409D01*
X018064Y021250D02*
X016368Y021250D01*
X016368Y021091D02*
X018175Y021091D01*
X018802Y021091D02*
X019175Y021091D01*
X019185Y021081D02*
X018251Y020147D01*
X018208Y020044D01*
X018208Y019933D01*
X018208Y019319D01*
X018098Y019209D01*
X018028Y019040D01*
X018028Y018337D01*
X018098Y018168D01*
X018228Y018038D01*
X018397Y017968D01*
X018580Y017968D01*
X018749Y018038D01*
X018878Y018168D01*
X018948Y018337D01*
X018948Y019040D01*
X018878Y019209D01*
X018768Y019319D01*
X018768Y019872D01*
X019747Y020851D01*
X019826Y020930D01*
X019868Y021033D01*
X019868Y021158D01*
X019878Y021168D01*
X019948Y021337D01*
X019948Y022040D01*
X019878Y022209D01*
X019749Y022338D01*
X019580Y022408D01*
X019397Y022408D01*
X019228Y022338D01*
X019098Y022209D01*
X019028Y022040D01*
X019028Y021337D01*
X019098Y021168D01*
X019185Y021081D01*
X019064Y021250D02*
X018912Y021250D01*
X018948Y021409D02*
X019028Y021409D01*
X019028Y021567D02*
X018948Y021567D01*
X018948Y021726D02*
X019028Y021726D01*
X019028Y021884D02*
X018948Y021884D01*
X018947Y022043D02*
X019030Y022043D01*
X019095Y022201D02*
X018881Y022201D01*
X018697Y022360D02*
X019280Y022360D01*
X019697Y022360D02*
X020280Y022360D01*
X020228Y022338D02*
X020098Y022209D01*
X020028Y022040D01*
X020028Y021337D01*
X020098Y021168D01*
X020228Y021038D01*
X020397Y020968D01*
X020580Y020968D01*
X020749Y021038D01*
X020878Y021168D01*
X020948Y021337D01*
X020948Y022040D01*
X020878Y022209D01*
X020749Y022338D01*
X020580Y022408D01*
X020397Y022408D01*
X020228Y022338D01*
X020095Y022201D02*
X019881Y022201D01*
X019947Y022043D02*
X020030Y022043D01*
X020028Y021884D02*
X019948Y021884D01*
X019948Y021726D02*
X020028Y021726D01*
X020028Y021567D02*
X019948Y021567D01*
X019948Y021409D02*
X020028Y021409D01*
X020064Y021250D02*
X019912Y021250D01*
X019868Y021091D02*
X020175Y021091D01*
X019827Y020933D02*
X027937Y020933D01*
X027802Y021091D02*
X028095Y021091D01*
X028135Y021131D02*
X027251Y020247D01*
X027208Y020144D01*
X027208Y020033D01*
X027208Y019319D01*
X027098Y019209D01*
X027028Y019040D01*
X027028Y018337D01*
X027098Y018168D01*
X027228Y018038D01*
X027397Y017968D01*
X027580Y017968D01*
X027749Y018038D01*
X027878Y018168D01*
X027948Y018337D01*
X027948Y019040D01*
X027878Y019209D01*
X027768Y019319D01*
X027768Y019972D01*
X028647Y020851D01*
X028726Y020930D01*
X028768Y021033D01*
X028768Y021058D01*
X028878Y021168D01*
X028948Y021337D01*
X028948Y022040D01*
X028878Y022209D01*
X028749Y022338D01*
X028580Y022408D01*
X028397Y022408D01*
X028228Y022338D01*
X028098Y022209D01*
X028028Y022040D01*
X028028Y021337D01*
X028098Y021168D01*
X028135Y021131D01*
X028064Y021250D02*
X027912Y021250D01*
X027878Y021168D02*
X027948Y021337D01*
X027948Y022040D01*
X027878Y022209D01*
X027749Y022338D01*
X027580Y022408D01*
X027397Y022408D01*
X027228Y022338D01*
X027098Y022209D01*
X027028Y022040D01*
X027028Y021337D01*
X027098Y021168D01*
X027228Y021038D01*
X027397Y020968D01*
X027580Y020968D01*
X027749Y021038D01*
X027878Y021168D01*
X027948Y021409D02*
X028028Y021409D01*
X028028Y021567D02*
X027948Y021567D01*
X027948Y021726D02*
X028028Y021726D01*
X028028Y021884D02*
X027948Y021884D01*
X027947Y022043D02*
X028030Y022043D01*
X028095Y022201D02*
X027881Y022201D01*
X027697Y022360D02*
X028280Y022360D01*
X028697Y022360D02*
X029280Y022360D01*
X029228Y022338D02*
X029098Y022209D01*
X029028Y022040D01*
X029028Y021337D01*
X029098Y021168D01*
X029228Y021038D01*
X029397Y020968D01*
X029580Y020968D01*
X029749Y021038D01*
X029878Y021168D01*
X029948Y021337D01*
X029948Y022040D01*
X029878Y022209D01*
X029749Y022338D01*
X029580Y022408D01*
X029397Y022408D01*
X029228Y022338D01*
X029095Y022201D02*
X028881Y022201D01*
X028947Y022043D02*
X029030Y022043D01*
X029028Y021884D02*
X028948Y021884D01*
X028948Y021726D02*
X029028Y021726D01*
X029028Y021567D02*
X028948Y021567D01*
X028948Y021409D02*
X029028Y021409D01*
X029064Y021250D02*
X028912Y021250D01*
X028802Y021091D02*
X029175Y021091D01*
X028727Y020933D02*
X036228Y020933D01*
X036228Y021091D02*
X034773Y021091D01*
X034775Y021093D02*
X034824Y021142D01*
X034865Y021198D01*
X034896Y021259D01*
X034917Y021325D01*
X034928Y021394D01*
X034928Y021688D01*
X034489Y021688D01*
X034489Y021689D01*
X034928Y021689D01*
X034928Y021983D01*
X034917Y022051D01*
X034896Y022117D01*
X034865Y022179D01*
X034824Y022235D01*
X034775Y022284D01*
X034719Y022325D01*
X034657Y022356D01*
X034591Y022377D01*
X034523Y022388D01*
X034489Y022388D01*
X034489Y021689D01*
X034488Y021689D01*
X034488Y022388D01*
X034454Y022388D01*
X034385Y022377D01*
X034319Y022356D01*
X034258Y022325D01*
X034202Y022284D01*
X034153Y022235D01*
X034112Y022179D01*
X034081Y022117D01*
X034059Y022051D01*
X034048Y021983D01*
X034048Y021689D01*
X034488Y021689D01*
X034488Y021688D01*
X034489Y021688D01*
X034489Y020988D01*
X034523Y020988D01*
X034591Y020999D01*
X034657Y021021D01*
X034719Y021052D01*
X034775Y021093D01*
X034891Y021250D02*
X036228Y021250D01*
X036228Y021409D02*
X034928Y021409D01*
X034928Y021567D02*
X036228Y021567D01*
X036228Y021726D02*
X034928Y021726D01*
X034928Y021884D02*
X036228Y021884D01*
X036228Y022043D02*
X034919Y022043D01*
X034848Y022201D02*
X036228Y022201D01*
X036228Y022360D02*
X034646Y022360D01*
X034489Y022360D02*
X034488Y022360D01*
X034331Y022360D02*
X033697Y022360D01*
X033749Y022338D02*
X033580Y022408D01*
X033397Y022408D01*
X033228Y022338D01*
X033098Y022209D01*
X033028Y022040D01*
X033028Y021337D01*
X033098Y021168D01*
X033228Y021038D01*
X033397Y020968D01*
X033580Y020968D01*
X033749Y021038D01*
X033878Y021168D01*
X033948Y021337D01*
X033948Y022040D01*
X033878Y022209D01*
X033749Y022338D01*
X033881Y022201D02*
X034128Y022201D01*
X034058Y022043D02*
X033947Y022043D01*
X033948Y021884D02*
X034048Y021884D01*
X034048Y021726D02*
X033948Y021726D01*
X034048Y021688D02*
X034048Y021394D01*
X034059Y021325D01*
X034081Y021259D01*
X034112Y021198D01*
X034153Y021142D01*
X034202Y021093D01*
X034258Y021052D01*
X034319Y021021D01*
X034385Y020999D01*
X034454Y020988D01*
X034488Y020988D01*
X034488Y021688D01*
X034048Y021688D01*
X034048Y021567D02*
X033948Y021567D01*
X033948Y021409D02*
X034048Y021409D01*
X034085Y021250D02*
X033912Y021250D01*
X033802Y021091D02*
X034203Y021091D01*
X034488Y021091D02*
X034489Y021091D01*
X034488Y021250D02*
X034489Y021250D01*
X034488Y021409D02*
X034489Y021409D01*
X034488Y021567D02*
X034489Y021567D01*
X034488Y021726D02*
X034489Y021726D01*
X034488Y021884D02*
X034489Y021884D01*
X034488Y022043D02*
X034489Y022043D01*
X034488Y022201D02*
X034489Y022201D01*
X033280Y022360D02*
X032697Y022360D01*
X032749Y022338D02*
X032580Y022408D01*
X032397Y022408D01*
X032228Y022338D01*
X032098Y022209D01*
X032028Y022040D01*
X032028Y021337D01*
X032098Y021168D01*
X032228Y021038D01*
X032397Y020968D01*
X032580Y020968D01*
X032749Y021038D01*
X032878Y021168D01*
X032948Y021337D01*
X032948Y022040D01*
X032878Y022209D01*
X032749Y022338D01*
X032881Y022201D02*
X033095Y022201D01*
X033030Y022043D02*
X032947Y022043D01*
X032948Y021884D02*
X033028Y021884D01*
X033028Y021726D02*
X032948Y021726D01*
X032948Y021567D02*
X033028Y021567D01*
X033028Y021409D02*
X032948Y021409D01*
X032912Y021250D02*
X033064Y021250D01*
X033175Y021091D02*
X032802Y021091D01*
X032175Y021091D02*
X031802Y021091D01*
X031749Y021038D02*
X031878Y021168D01*
X031948Y021337D01*
X031948Y022040D01*
X031878Y022209D01*
X031749Y022338D01*
X031580Y022408D01*
X031397Y022408D01*
X031228Y022338D01*
X031098Y022209D01*
X031028Y022040D01*
X031028Y021337D01*
X031098Y021168D01*
X031228Y021038D01*
X031397Y020968D01*
X031580Y020968D01*
X031749Y021038D01*
X031912Y021250D02*
X032064Y021250D01*
X032028Y021409D02*
X031948Y021409D01*
X031948Y021567D02*
X032028Y021567D01*
X032028Y021726D02*
X031948Y021726D01*
X031948Y021884D02*
X032028Y021884D01*
X032030Y022043D02*
X031947Y022043D01*
X031881Y022201D02*
X032095Y022201D01*
X032280Y022360D02*
X031697Y022360D01*
X031280Y022360D02*
X030697Y022360D01*
X030749Y022338D02*
X030580Y022408D01*
X030397Y022408D01*
X030228Y022338D01*
X030098Y022209D01*
X030028Y022040D01*
X030028Y021337D01*
X030098Y021168D01*
X030228Y021038D01*
X030397Y020968D01*
X030580Y020968D01*
X030749Y021038D01*
X030878Y021168D01*
X030948Y021337D01*
X030948Y022040D01*
X030878Y022209D01*
X030749Y022338D01*
X030881Y022201D02*
X031095Y022201D01*
X031030Y022043D02*
X030947Y022043D01*
X030948Y021884D02*
X031028Y021884D01*
X031028Y021726D02*
X030948Y021726D01*
X030948Y021567D02*
X031028Y021567D01*
X031028Y021409D02*
X030948Y021409D01*
X030912Y021250D02*
X031064Y021250D01*
X031175Y021091D02*
X030802Y021091D01*
X030175Y021091D02*
X029802Y021091D01*
X029912Y021250D02*
X030064Y021250D01*
X030028Y021409D02*
X029948Y021409D01*
X029948Y021567D02*
X030028Y021567D01*
X030028Y021726D02*
X029948Y021726D01*
X029948Y021884D02*
X030028Y021884D01*
X030030Y022043D02*
X029947Y022043D01*
X029881Y022201D02*
X030095Y022201D01*
X030280Y022360D02*
X029697Y022360D01*
X028488Y021688D02*
X028488Y021088D01*
X027488Y020088D01*
X027488Y018688D01*
X027028Y018713D02*
X026948Y018713D01*
X026948Y018555D02*
X027028Y018555D01*
X027028Y018396D02*
X026948Y018396D01*
X026907Y018238D02*
X027069Y018238D01*
X027187Y018079D02*
X026790Y018079D01*
X026714Y017921D02*
X036228Y017921D01*
X036228Y018079D02*
X033790Y018079D01*
X033749Y018038D02*
X033878Y018168D01*
X033948Y018337D01*
X033948Y019040D01*
X033878Y019209D01*
X033749Y019338D01*
X033580Y019408D01*
X033397Y019408D01*
X033228Y019338D01*
X033098Y019209D01*
X033028Y019040D01*
X033028Y018337D01*
X033098Y018168D01*
X033228Y018038D01*
X033397Y017968D01*
X033580Y017968D01*
X033749Y018038D01*
X033907Y018238D02*
X036228Y018238D01*
X036228Y018396D02*
X033948Y018396D01*
X033948Y018555D02*
X036228Y018555D01*
X036228Y018713D02*
X033948Y018713D01*
X033948Y018872D02*
X036228Y018872D01*
X036228Y019030D02*
X033948Y019030D01*
X033887Y019189D02*
X036228Y019189D01*
X036228Y019347D02*
X033727Y019347D01*
X033250Y019347D02*
X032727Y019347D01*
X032749Y019338D02*
X032580Y019408D01*
X032397Y019408D01*
X032228Y019338D01*
X032098Y019209D01*
X032028Y019040D01*
X032028Y018337D01*
X032098Y018168D01*
X032228Y018038D01*
X032397Y017968D01*
X032580Y017968D01*
X032749Y018038D01*
X032878Y018168D01*
X032948Y018337D01*
X032948Y019040D01*
X032878Y019209D01*
X032749Y019338D01*
X032887Y019189D02*
X033090Y019189D01*
X033028Y019030D02*
X032948Y019030D01*
X032948Y018872D02*
X033028Y018872D01*
X033028Y018713D02*
X032948Y018713D01*
X032948Y018555D02*
X033028Y018555D01*
X033028Y018396D02*
X032948Y018396D01*
X032907Y018238D02*
X033069Y018238D01*
X033187Y018079D02*
X032790Y018079D01*
X032187Y018079D02*
X031790Y018079D01*
X031749Y018038D02*
X031878Y018168D01*
X031948Y018337D01*
X031948Y019040D01*
X031878Y019209D01*
X031749Y019338D01*
X031580Y019408D01*
X031397Y019408D01*
X031228Y019338D01*
X031098Y019209D01*
X031028Y019040D01*
X031028Y018337D01*
X031098Y018168D01*
X031228Y018038D01*
X031397Y017968D01*
X031580Y017968D01*
X031749Y018038D01*
X031907Y018238D02*
X032069Y018238D01*
X032028Y018396D02*
X031948Y018396D01*
X031948Y018555D02*
X032028Y018555D01*
X032028Y018713D02*
X031948Y018713D01*
X031948Y018872D02*
X032028Y018872D01*
X032028Y019030D02*
X031948Y019030D01*
X031887Y019189D02*
X032090Y019189D01*
X032250Y019347D02*
X031727Y019347D01*
X031250Y019347D02*
X030727Y019347D01*
X030749Y019338D02*
X030580Y019408D01*
X030397Y019408D01*
X030228Y019338D01*
X030098Y019209D01*
X030028Y019040D01*
X030028Y018337D01*
X030098Y018168D01*
X030228Y018038D01*
X030397Y017968D01*
X030580Y017968D01*
X030749Y018038D01*
X030878Y018168D01*
X030948Y018337D01*
X030948Y019040D01*
X030878Y019209D01*
X030749Y019338D01*
X030887Y019189D02*
X031090Y019189D01*
X031028Y019030D02*
X030948Y019030D01*
X030948Y018872D02*
X031028Y018872D01*
X031028Y018713D02*
X030948Y018713D01*
X030948Y018555D02*
X031028Y018555D01*
X031028Y018396D02*
X030948Y018396D01*
X030907Y018238D02*
X031069Y018238D01*
X031187Y018079D02*
X030790Y018079D01*
X030187Y018079D02*
X029790Y018079D01*
X029749Y018038D02*
X029878Y018168D01*
X029948Y018337D01*
X029948Y019040D01*
X029878Y019209D01*
X029749Y019338D01*
X029580Y019408D01*
X029397Y019408D01*
X029228Y019338D01*
X029098Y019209D01*
X029028Y019040D01*
X029028Y018337D01*
X029098Y018168D01*
X029228Y018038D01*
X029397Y017968D01*
X029580Y017968D01*
X029749Y018038D01*
X029907Y018238D02*
X030069Y018238D01*
X030028Y018396D02*
X029948Y018396D01*
X029948Y018555D02*
X030028Y018555D01*
X030028Y018713D02*
X029948Y018713D01*
X029948Y018872D02*
X030028Y018872D01*
X030028Y019030D02*
X029948Y019030D01*
X029887Y019189D02*
X030090Y019189D01*
X030250Y019347D02*
X029727Y019347D01*
X029250Y019347D02*
X028727Y019347D01*
X028749Y019338D02*
X028580Y019408D01*
X028397Y019408D01*
X028228Y019338D01*
X028098Y019209D01*
X028028Y019040D01*
X028028Y018337D01*
X028098Y018168D01*
X028228Y018038D01*
X028397Y017968D01*
X028580Y017968D01*
X028749Y018038D01*
X028878Y018168D01*
X028948Y018337D01*
X028948Y019040D01*
X028878Y019209D01*
X028749Y019338D01*
X028887Y019189D02*
X029090Y019189D01*
X029028Y019030D02*
X028948Y019030D01*
X028948Y018872D02*
X029028Y018872D01*
X029028Y018713D02*
X028948Y018713D01*
X028948Y018555D02*
X029028Y018555D01*
X029028Y018396D02*
X028948Y018396D01*
X028907Y018238D02*
X029069Y018238D01*
X029187Y018079D02*
X028790Y018079D01*
X028187Y018079D02*
X027790Y018079D01*
X027907Y018238D02*
X028069Y018238D01*
X028028Y018396D02*
X027948Y018396D01*
X027948Y018555D02*
X028028Y018555D01*
X028028Y018713D02*
X027948Y018713D01*
X027948Y018872D02*
X028028Y018872D01*
X028028Y019030D02*
X027948Y019030D01*
X027887Y019189D02*
X028090Y019189D01*
X028250Y019347D02*
X027768Y019347D01*
X027768Y019506D02*
X036228Y019506D01*
X036228Y019665D02*
X027768Y019665D01*
X027768Y019823D02*
X036228Y019823D01*
X036228Y019982D02*
X027778Y019982D01*
X027936Y020140D02*
X036228Y020140D01*
X036228Y020299D02*
X028095Y020299D01*
X028253Y020457D02*
X036228Y020457D01*
X036228Y020616D02*
X028412Y020616D01*
X028570Y020774D02*
X036228Y020774D01*
X036035Y022994D02*
X016368Y022994D01*
X016368Y023152D02*
X017741Y023152D01*
X017522Y023311D02*
X016368Y023311D01*
X016368Y023470D02*
X017377Y023470D01*
X017261Y023628D02*
X016368Y023628D01*
X016368Y023787D02*
X017199Y023787D01*
X017148Y023945D02*
X016368Y023945D01*
X016368Y024104D02*
X017128Y024104D01*
X017128Y024262D02*
X016368Y024262D01*
X016368Y024421D02*
X017128Y024421D01*
X017128Y024579D02*
X016368Y024579D01*
X016368Y024738D02*
X017128Y024738D01*
X017128Y024896D02*
X016368Y024896D01*
X016368Y025055D02*
X017128Y025055D01*
X017128Y025214D02*
X016368Y025214D01*
X016368Y025372D02*
X017128Y025372D01*
X017128Y025531D02*
X016368Y025531D01*
X016368Y025689D02*
X017128Y025689D01*
X017128Y025848D02*
X016368Y025848D01*
X016368Y026006D02*
X017128Y026006D01*
X017128Y026165D02*
X016368Y026165D01*
X016368Y026323D02*
X017128Y026323D01*
X017128Y026482D02*
X016368Y026482D01*
X016328Y026640D02*
X017128Y026640D01*
X017072Y026799D02*
X016174Y026799D01*
X016015Y026958D02*
X016967Y026958D01*
X016918Y027116D02*
X015857Y027116D01*
X015698Y027275D02*
X016918Y027275D01*
X016973Y027433D02*
X015539Y027433D01*
X015381Y027592D02*
X017086Y027592D01*
X017355Y027750D02*
X014937Y027750D01*
X015188Y027388D02*
X014388Y027388D01*
X013966Y026958D02*
X011741Y026958D01*
X011751Y026959D02*
X011817Y026981D01*
X011879Y027012D01*
X011935Y027053D01*
X011984Y027102D01*
X012025Y027158D01*
X012056Y027219D01*
X012077Y027285D01*
X012088Y027354D01*
X012088Y027388D01*
X011389Y027388D01*
X011389Y026948D01*
X011683Y026948D01*
X011751Y026959D01*
X011751Y026817D02*
X011683Y026828D01*
X011389Y026828D01*
X011389Y026389D01*
X012088Y026389D01*
X012088Y026423D01*
X012077Y026491D01*
X012056Y026557D01*
X012025Y026619D01*
X011984Y026675D01*
X011935Y026724D01*
X011879Y026765D01*
X011817Y026796D01*
X011751Y026817D01*
X011808Y026799D02*
X013918Y026799D01*
X013735Y026640D02*
X012009Y026640D01*
X012079Y026482D02*
X013669Y026482D01*
X013668Y026323D02*
X012084Y026323D01*
X012088Y026354D02*
X012088Y026388D01*
X011389Y026388D01*
X011389Y025948D01*
X011683Y025948D01*
X011751Y025959D01*
X011817Y025981D01*
X011879Y026012D01*
X011935Y026053D01*
X011984Y026102D01*
X012025Y026158D01*
X012056Y026219D01*
X012077Y026285D01*
X012088Y026354D01*
X012028Y026165D02*
X013723Y026165D01*
X013860Y026006D02*
X011868Y026006D01*
X011389Y026006D02*
X011388Y026006D01*
X011388Y026165D02*
X011389Y026165D01*
X011388Y026323D02*
X011389Y026323D01*
X011388Y026482D02*
X011389Y026482D01*
X011388Y026640D02*
X011389Y026640D01*
X011388Y026799D02*
X011389Y026799D01*
X011388Y026958D02*
X011389Y026958D01*
X011388Y027116D02*
X011389Y027116D01*
X011388Y027275D02*
X011389Y027275D01*
X011389Y027389D02*
X012088Y027389D01*
X012088Y027423D01*
X012077Y027491D01*
X012056Y027557D01*
X012025Y027619D01*
X011984Y027675D01*
X011935Y027724D01*
X011879Y027765D01*
X011817Y027796D01*
X011751Y027817D01*
X011683Y027828D01*
X011389Y027828D01*
X011389Y027389D01*
X011388Y027433D02*
X011389Y027433D01*
X011388Y027592D02*
X011389Y027592D01*
X011388Y027750D02*
X011389Y027750D01*
X011899Y027750D02*
X013840Y027750D01*
X013715Y027592D02*
X012039Y027592D01*
X012087Y027433D02*
X013668Y027433D01*
X013678Y027275D02*
X012074Y027275D01*
X011994Y027116D02*
X013750Y027116D01*
X014388Y026388D02*
X015188Y026388D01*
X015788Y025788D01*
X015788Y021788D01*
X015188Y021188D01*
X014488Y021188D01*
X014951Y020774D02*
X015808Y020774D01*
X015808Y020616D02*
X014918Y020616D01*
X015130Y020457D02*
X015808Y020457D01*
X015803Y020299D02*
X015201Y020299D01*
X015208Y020140D02*
X015644Y020140D01*
X015486Y019982D02*
X015161Y019982D01*
X015034Y019823D02*
X015327Y019823D01*
X015169Y019665D02*
X013960Y019665D01*
X013895Y019506D02*
X013802Y019506D01*
X013796Y019347D02*
X013643Y019347D01*
X013768Y019189D02*
X013485Y019189D01*
X013468Y019030D02*
X013796Y019030D01*
X013894Y018872D02*
X013468Y018872D01*
X013188Y019288D02*
X014088Y020188D01*
X014488Y020188D01*
X015303Y020933D02*
X015808Y020933D01*
X015808Y021091D02*
X015487Y021091D01*
X015646Y021250D02*
X015808Y021250D01*
X015804Y021409D02*
X015808Y021409D01*
X016368Y020933D02*
X019037Y020933D01*
X018878Y020774D02*
X016368Y020774D01*
X016368Y020616D02*
X018720Y020616D01*
X018561Y020457D02*
X016368Y020457D01*
X016368Y020299D02*
X018403Y020299D01*
X018248Y020140D02*
X016368Y020140D01*
X016278Y019982D02*
X018208Y019982D01*
X018208Y019823D02*
X016119Y019823D01*
X016247Y019951D02*
X016247Y019951D01*
X016088Y020188D02*
X016088Y026488D01*
X015188Y027388D01*
X015223Y026958D02*
X014810Y026958D01*
X014859Y026799D02*
X015382Y026799D01*
X015311Y026640D02*
X015540Y026640D01*
X015491Y026482D02*
X015699Y026482D01*
X015649Y026323D02*
X015808Y026323D01*
X015808Y026165D02*
X015808Y026165D01*
X015174Y026006D02*
X014917Y026006D01*
X014204Y025055D02*
X013744Y025055D01*
X013671Y025128D02*
X013489Y025128D01*
X013489Y024689D01*
X013928Y024689D01*
X013928Y024871D01*
X013671Y025128D01*
X013488Y025128D02*
X013306Y025128D01*
X013048Y024871D01*
X013048Y024689D01*
X013488Y024689D01*
X013488Y025128D01*
X013488Y025055D02*
X013489Y025055D01*
X013488Y024896D02*
X013489Y024896D01*
X013488Y024738D02*
X013489Y024738D01*
X013489Y024689D02*
X013488Y024689D01*
X013488Y024688D01*
X013489Y024688D01*
X013489Y024689D01*
X013489Y024688D02*
X013928Y024688D01*
X013928Y024506D01*
X013671Y024248D01*
X013489Y024248D01*
X013489Y024688D01*
X013488Y024688D02*
X013488Y024248D01*
X013306Y024248D01*
X013048Y024506D01*
X013048Y024688D01*
X013488Y024688D01*
X013488Y024579D02*
X013489Y024579D01*
X013488Y024421D02*
X013489Y024421D01*
X013488Y024262D02*
X013489Y024262D01*
X013684Y024262D02*
X014264Y024262D01*
X014105Y024421D02*
X013843Y024421D01*
X013928Y024579D02*
X014028Y024579D01*
X014028Y024738D02*
X013928Y024738D01*
X013902Y024896D02*
X014046Y024896D01*
X013233Y025055D02*
X006668Y025055D01*
X006668Y024896D02*
X013074Y024896D01*
X013048Y024738D02*
X006668Y024738D01*
X006668Y024579D02*
X013048Y024579D01*
X013134Y024421D02*
X006668Y024421D01*
X006668Y024262D02*
X013292Y024262D01*
X014889Y023628D02*
X015508Y023628D01*
X015508Y023470D02*
X015118Y023470D01*
X015195Y023311D02*
X015508Y023311D01*
X015508Y023152D02*
X015208Y023152D01*
X015166Y022994D02*
X015508Y022994D01*
X015171Y021567D02*
X015020Y021567D01*
X016088Y020188D02*
X015088Y019188D01*
X014488Y019188D01*
X015082Y018872D02*
X017028Y018872D01*
X017028Y019030D02*
X015326Y019030D01*
X015485Y019189D02*
X017090Y019189D01*
X017250Y019347D02*
X015643Y019347D01*
X015802Y019506D02*
X018208Y019506D01*
X018208Y019347D02*
X017727Y019347D01*
X017887Y019189D02*
X018090Y019189D01*
X018028Y019030D02*
X017948Y019030D01*
X017948Y018872D02*
X018028Y018872D01*
X018028Y018713D02*
X017948Y018713D01*
X017948Y018555D02*
X018028Y018555D01*
X018028Y018396D02*
X017948Y018396D01*
X017907Y018238D02*
X018069Y018238D01*
X017978Y018079D02*
X018187Y018079D01*
X018282Y017921D02*
X025783Y017921D01*
X026050Y018079D02*
X024790Y018079D01*
X024749Y018038D02*
X024878Y018168D01*
X024948Y018337D01*
X024948Y019040D01*
X024878Y019209D01*
X024749Y019338D01*
X024580Y019408D01*
X024397Y019408D01*
X024228Y019338D01*
X024098Y019209D01*
X024028Y019040D01*
X024028Y018337D01*
X024098Y018168D01*
X024228Y018038D01*
X024397Y017968D01*
X024580Y017968D01*
X024749Y018038D01*
X024907Y018238D02*
X026069Y018238D01*
X026028Y018396D02*
X024948Y018396D01*
X024948Y018555D02*
X026028Y018555D01*
X026028Y018713D02*
X024948Y018713D01*
X024948Y018872D02*
X026028Y018872D01*
X026028Y019030D02*
X024948Y019030D01*
X024887Y019189D02*
X026090Y019189D01*
X026250Y019347D02*
X024727Y019347D01*
X024250Y019347D02*
X023727Y019347D01*
X023749Y019338D02*
X023580Y019408D01*
X023397Y019408D01*
X023228Y019338D01*
X023098Y019209D01*
X023028Y019040D01*
X023028Y018337D01*
X023098Y018168D01*
X023228Y018038D01*
X023397Y017968D01*
X023580Y017968D01*
X023749Y018038D01*
X023878Y018168D01*
X023948Y018337D01*
X023948Y019040D01*
X023878Y019209D01*
X023749Y019338D01*
X023887Y019189D02*
X024090Y019189D01*
X024028Y019030D02*
X023948Y019030D01*
X023948Y018872D02*
X024028Y018872D01*
X024028Y018713D02*
X023948Y018713D01*
X023948Y018555D02*
X024028Y018555D01*
X024028Y018396D02*
X023948Y018396D01*
X023907Y018238D02*
X024069Y018238D01*
X024187Y018079D02*
X023790Y018079D01*
X023187Y018079D02*
X022790Y018079D01*
X022749Y018038D02*
X022878Y018168D01*
X022948Y018337D01*
X022948Y019040D01*
X022878Y019209D01*
X022749Y019338D01*
X022580Y019408D01*
X022397Y019408D01*
X022228Y019338D01*
X022098Y019209D01*
X022028Y019040D01*
X022028Y018337D01*
X022098Y018168D01*
X022228Y018038D01*
X022397Y017968D01*
X022580Y017968D01*
X022749Y018038D01*
X022907Y018238D02*
X023069Y018238D01*
X023028Y018396D02*
X022948Y018396D01*
X022948Y018555D02*
X023028Y018555D01*
X023028Y018713D02*
X022948Y018713D01*
X022948Y018872D02*
X023028Y018872D01*
X023028Y019030D02*
X022948Y019030D01*
X022887Y019189D02*
X023090Y019189D01*
X023250Y019347D02*
X022727Y019347D01*
X022250Y019347D02*
X021727Y019347D01*
X021749Y019338D02*
X021580Y019408D01*
X021397Y019408D01*
X021228Y019338D01*
X021098Y019209D01*
X021028Y019040D01*
X021028Y018337D01*
X021098Y018168D01*
X021228Y018038D01*
X021397Y017968D01*
X021580Y017968D01*
X021749Y018038D01*
X021878Y018168D01*
X021948Y018337D01*
X021948Y019040D01*
X021878Y019209D01*
X021749Y019338D01*
X021887Y019189D02*
X022090Y019189D01*
X022028Y019030D02*
X021948Y019030D01*
X021948Y018872D02*
X022028Y018872D01*
X022028Y018713D02*
X021948Y018713D01*
X021948Y018555D02*
X022028Y018555D01*
X022028Y018396D02*
X021948Y018396D01*
X021907Y018238D02*
X022069Y018238D01*
X022187Y018079D02*
X021790Y018079D01*
X021187Y018079D02*
X020790Y018079D01*
X020749Y018038D02*
X020878Y018168D01*
X020948Y018337D01*
X020948Y019040D01*
X020878Y019209D01*
X020749Y019338D01*
X020580Y019408D01*
X020397Y019408D01*
X020228Y019338D01*
X020098Y019209D01*
X020028Y019040D01*
X020028Y018337D01*
X020098Y018168D01*
X020228Y018038D01*
X020397Y017968D01*
X020580Y017968D01*
X020749Y018038D01*
X020907Y018238D02*
X021069Y018238D01*
X021028Y018396D02*
X020948Y018396D01*
X020948Y018555D02*
X021028Y018555D01*
X021028Y018713D02*
X020948Y018713D01*
X020948Y018872D02*
X021028Y018872D01*
X021028Y019030D02*
X020948Y019030D01*
X020887Y019189D02*
X021090Y019189D01*
X021250Y019347D02*
X020727Y019347D01*
X020250Y019347D02*
X019727Y019347D01*
X019749Y019338D02*
X019580Y019408D01*
X019397Y019408D01*
X019228Y019338D01*
X019098Y019209D01*
X019028Y019040D01*
X019028Y018337D01*
X019098Y018168D01*
X019228Y018038D01*
X019397Y017968D01*
X019580Y017968D01*
X019749Y018038D01*
X019878Y018168D01*
X019948Y018337D01*
X019948Y019040D01*
X019878Y019209D01*
X019749Y019338D01*
X019887Y019189D02*
X020090Y019189D01*
X020028Y019030D02*
X019948Y019030D01*
X019948Y018872D02*
X020028Y018872D01*
X020028Y018713D02*
X019948Y018713D01*
X019948Y018555D02*
X020028Y018555D01*
X020028Y018396D02*
X019948Y018396D01*
X019907Y018238D02*
X020069Y018238D01*
X020187Y018079D02*
X019790Y018079D01*
X019187Y018079D02*
X018790Y018079D01*
X018907Y018238D02*
X019069Y018238D01*
X019028Y018396D02*
X018948Y018396D01*
X018948Y018555D02*
X019028Y018555D01*
X019028Y018713D02*
X018948Y018713D01*
X018948Y018872D02*
X019028Y018872D01*
X019028Y019030D02*
X018948Y019030D01*
X018887Y019189D02*
X019090Y019189D01*
X019250Y019347D02*
X018768Y019347D01*
X018768Y019506D02*
X027208Y019506D01*
X027208Y019347D02*
X026727Y019347D01*
X026887Y019189D02*
X027090Y019189D01*
X027028Y019030D02*
X026948Y019030D01*
X026948Y018872D02*
X027028Y018872D01*
X027208Y019665D02*
X018768Y019665D01*
X018768Y019823D02*
X027208Y019823D01*
X027208Y019982D02*
X018878Y019982D01*
X019036Y020140D02*
X027208Y020140D01*
X027303Y020299D02*
X019195Y020299D01*
X019353Y020457D02*
X027461Y020457D01*
X027620Y020616D02*
X019512Y020616D01*
X019670Y020774D02*
X027778Y020774D01*
X027175Y021091D02*
X025773Y021091D01*
X025775Y021093D02*
X025824Y021142D01*
X025865Y021198D01*
X025896Y021259D01*
X025917Y021325D01*
X025928Y021394D01*
X025928Y021688D01*
X025489Y021688D01*
X025489Y021689D01*
X025928Y021689D01*
X025928Y021983D01*
X025917Y022051D01*
X025896Y022117D01*
X025865Y022179D01*
X025824Y022235D01*
X025775Y022284D01*
X025719Y022325D01*
X025657Y022356D01*
X025591Y022377D01*
X025523Y022388D01*
X025489Y022388D01*
X025489Y021689D01*
X025488Y021689D01*
X025488Y022388D01*
X025454Y022388D01*
X025385Y022377D01*
X025319Y022356D01*
X025258Y022325D01*
X025202Y022284D01*
X025153Y022235D01*
X025112Y022179D01*
X025081Y022117D01*
X025059Y022051D01*
X025048Y021983D01*
X025048Y021689D01*
X025488Y021689D01*
X025488Y021688D01*
X025489Y021688D01*
X025489Y020988D01*
X025523Y020988D01*
X025591Y020999D01*
X025657Y021021D01*
X025719Y021052D01*
X025775Y021093D01*
X025891Y021250D02*
X027064Y021250D01*
X027028Y021409D02*
X025928Y021409D01*
X025928Y021567D02*
X027028Y021567D01*
X027028Y021726D02*
X025928Y021726D01*
X025928Y021884D02*
X027028Y021884D01*
X027030Y022043D02*
X025919Y022043D01*
X025848Y022201D02*
X027095Y022201D01*
X027280Y022360D02*
X025646Y022360D01*
X025489Y022360D02*
X025488Y022360D01*
X025331Y022360D02*
X024697Y022360D01*
X024749Y022338D02*
X024580Y022408D01*
X024397Y022408D01*
X024228Y022338D01*
X024098Y022209D01*
X024028Y022040D01*
X024028Y021337D01*
X024098Y021168D01*
X024228Y021038D01*
X024397Y020968D01*
X024580Y020968D01*
X024749Y021038D01*
X024878Y021168D01*
X024948Y021337D01*
X024948Y022040D01*
X024878Y022209D01*
X024749Y022338D01*
X024881Y022201D02*
X025128Y022201D01*
X025058Y022043D02*
X024947Y022043D01*
X024948Y021884D02*
X025048Y021884D01*
X025048Y021726D02*
X024948Y021726D01*
X025048Y021688D02*
X025048Y021394D01*
X025059Y021325D01*
X025081Y021259D01*
X025112Y021198D01*
X025153Y021142D01*
X025202Y021093D01*
X025258Y021052D01*
X025319Y021021D01*
X025385Y020999D01*
X025454Y020988D01*
X025488Y020988D01*
X025488Y021688D01*
X025048Y021688D01*
X025048Y021567D02*
X024948Y021567D01*
X024948Y021409D02*
X025048Y021409D01*
X025085Y021250D02*
X024912Y021250D01*
X024802Y021091D02*
X025203Y021091D01*
X025488Y021091D02*
X025489Y021091D01*
X025488Y021250D02*
X025489Y021250D01*
X025488Y021409D02*
X025489Y021409D01*
X025488Y021567D02*
X025489Y021567D01*
X025488Y021726D02*
X025489Y021726D01*
X025488Y021884D02*
X025489Y021884D01*
X025488Y022043D02*
X025489Y022043D01*
X025488Y022201D02*
X025489Y022201D01*
X024280Y022360D02*
X023697Y022360D01*
X023749Y022338D02*
X023580Y022408D01*
X023397Y022408D01*
X023228Y022338D01*
X023098Y022209D01*
X023028Y022040D01*
X023028Y021337D01*
X023098Y021168D01*
X023228Y021038D01*
X023397Y020968D01*
X023580Y020968D01*
X023749Y021038D01*
X023878Y021168D01*
X023948Y021337D01*
X023948Y022040D01*
X023878Y022209D01*
X023749Y022338D01*
X023881Y022201D02*
X024095Y022201D01*
X024030Y022043D02*
X023947Y022043D01*
X023948Y021884D02*
X024028Y021884D01*
X024028Y021726D02*
X023948Y021726D01*
X023948Y021567D02*
X024028Y021567D01*
X024028Y021409D02*
X023948Y021409D01*
X023912Y021250D02*
X024064Y021250D01*
X024175Y021091D02*
X023802Y021091D01*
X023175Y021091D02*
X022802Y021091D01*
X022749Y021038D02*
X022878Y021168D01*
X022948Y021337D01*
X022948Y022040D01*
X022878Y022209D01*
X022749Y022338D01*
X022580Y022408D01*
X022397Y022408D01*
X022228Y022338D01*
X022098Y022209D01*
X022028Y022040D01*
X022028Y021337D01*
X022098Y021168D01*
X022228Y021038D01*
X022397Y020968D01*
X022580Y020968D01*
X022749Y021038D01*
X022912Y021250D02*
X023064Y021250D01*
X023028Y021409D02*
X022948Y021409D01*
X022948Y021567D02*
X023028Y021567D01*
X023028Y021726D02*
X022948Y021726D01*
X022948Y021884D02*
X023028Y021884D01*
X023030Y022043D02*
X022947Y022043D01*
X022881Y022201D02*
X023095Y022201D01*
X023280Y022360D02*
X022697Y022360D01*
X022280Y022360D02*
X021697Y022360D01*
X021749Y022338D02*
X021580Y022408D01*
X021397Y022408D01*
X021228Y022338D01*
X021098Y022209D01*
X021028Y022040D01*
X021028Y021337D01*
X021098Y021168D01*
X021228Y021038D01*
X021397Y020968D01*
X021580Y020968D01*
X021749Y021038D01*
X021878Y021168D01*
X021948Y021337D01*
X021948Y022040D01*
X021878Y022209D01*
X021749Y022338D01*
X021881Y022201D02*
X022095Y022201D01*
X022030Y022043D02*
X021947Y022043D01*
X021948Y021884D02*
X022028Y021884D01*
X022028Y021726D02*
X021948Y021726D01*
X021948Y021567D02*
X022028Y021567D01*
X022028Y021409D02*
X021948Y021409D01*
X021912Y021250D02*
X022064Y021250D01*
X022175Y021091D02*
X021802Y021091D01*
X021175Y021091D02*
X020802Y021091D01*
X020912Y021250D02*
X021064Y021250D01*
X021028Y021409D02*
X020948Y021409D01*
X020948Y021567D02*
X021028Y021567D01*
X021028Y021726D02*
X020948Y021726D01*
X020948Y021884D02*
X021028Y021884D01*
X021030Y022043D02*
X020947Y022043D01*
X020881Y022201D02*
X021095Y022201D01*
X021280Y022360D02*
X020697Y022360D01*
X019588Y021588D02*
X019488Y021688D01*
X019588Y021588D02*
X019588Y021088D01*
X018488Y019988D01*
X018488Y018688D01*
X018208Y019665D02*
X015960Y019665D01*
X017808Y017286D02*
X018140Y017286D01*
X017808Y017128D02*
X036228Y017128D01*
X036228Y017286D02*
X025921Y017286D01*
X026295Y017445D02*
X036228Y017445D01*
X036228Y017603D02*
X026502Y017603D01*
X026618Y017762D02*
X036228Y017762D01*
X036228Y016969D02*
X017808Y016969D01*
X017808Y016811D02*
X023615Y016811D01*
X023651Y016847D02*
X023251Y016447D01*
X023208Y016344D01*
X023208Y016319D01*
X023098Y016209D01*
X023028Y016040D01*
X023028Y015337D01*
X023098Y015168D01*
X023228Y015038D01*
X023397Y014968D01*
X023580Y014968D01*
X023749Y015038D01*
X023878Y015168D01*
X023948Y015337D01*
X023948Y016040D01*
X023878Y016209D01*
X023842Y016246D01*
X024004Y016408D01*
X031872Y016408D01*
X032091Y016190D01*
X032028Y016040D01*
X032028Y015337D01*
X032098Y015168D01*
X032228Y015038D01*
X032397Y014968D01*
X032580Y014968D01*
X032749Y015038D01*
X032878Y015168D01*
X032948Y015337D01*
X032948Y016040D01*
X032878Y016209D01*
X032749Y016338D01*
X032724Y016349D01*
X032647Y016426D01*
X032147Y016926D01*
X032044Y016968D01*
X031933Y016968D01*
X023833Y016968D01*
X023730Y016926D01*
X023651Y016847D01*
X023456Y016652D02*
X017808Y016652D01*
X017808Y016494D02*
X023298Y016494D01*
X023208Y016335D02*
X022698Y016335D01*
X022719Y016325D02*
X022657Y016356D01*
X022591Y016377D01*
X022523Y016388D01*
X022489Y016388D01*
X022489Y015689D01*
X022928Y015689D01*
X022928Y015983D01*
X022917Y016051D01*
X022896Y016117D01*
X022865Y016179D01*
X022824Y016235D01*
X022775Y016284D01*
X022719Y016325D01*
X022866Y016177D02*
X023085Y016177D01*
X023028Y016018D02*
X022923Y016018D01*
X022928Y015859D02*
X023028Y015859D01*
X023028Y015701D02*
X022928Y015701D01*
X022928Y015688D02*
X022489Y015688D01*
X022489Y015689D01*
X022488Y015689D01*
X022488Y016388D01*
X022454Y016388D01*
X022385Y016377D01*
X022319Y016356D01*
X022258Y016325D01*
X022202Y016284D01*
X022153Y016235D01*
X022112Y016179D01*
X022081Y016117D01*
X022059Y016051D01*
X022048Y015983D01*
X022048Y015689D01*
X022488Y015689D01*
X022488Y015688D01*
X022489Y015688D01*
X022489Y014988D01*
X022523Y014988D01*
X022591Y014999D01*
X022657Y015021D01*
X022719Y015052D01*
X022775Y015093D01*
X022824Y015142D01*
X022865Y015198D01*
X022896Y015259D01*
X022917Y015325D01*
X022928Y015394D01*
X022928Y015688D01*
X022928Y015542D02*
X023028Y015542D01*
X023028Y015384D02*
X022927Y015384D01*
X022879Y015225D02*
X023075Y015225D01*
X023199Y015067D02*
X022739Y015067D01*
X022489Y015067D02*
X022488Y015067D01*
X022488Y014988D02*
X022488Y015688D01*
X022048Y015688D01*
X022048Y015394D01*
X022059Y015325D01*
X022081Y015259D01*
X022112Y015198D01*
X022153Y015142D01*
X022202Y015093D01*
X022258Y015052D01*
X022319Y015021D01*
X022385Y014999D01*
X022454Y014988D01*
X022488Y014988D01*
X022488Y015225D02*
X022489Y015225D01*
X022488Y015384D02*
X022489Y015384D01*
X022488Y015542D02*
X022489Y015542D01*
X022488Y015701D02*
X022489Y015701D01*
X022488Y015859D02*
X022489Y015859D01*
X022488Y016018D02*
X022489Y016018D01*
X022488Y016177D02*
X022489Y016177D01*
X022488Y016335D02*
X022489Y016335D01*
X022278Y016335D02*
X021752Y016335D01*
X021749Y016338D02*
X021580Y016408D01*
X021397Y016408D01*
X021228Y016338D01*
X021098Y016209D01*
X021028Y016040D01*
X021028Y015337D01*
X021098Y015168D01*
X021228Y015038D01*
X021397Y014968D01*
X021580Y014968D01*
X021749Y015038D01*
X021878Y015168D01*
X021948Y015337D01*
X021948Y016040D01*
X021878Y016209D01*
X021749Y016338D01*
X021892Y016177D02*
X022111Y016177D01*
X022054Y016018D02*
X021948Y016018D01*
X021948Y015859D02*
X022048Y015859D01*
X022048Y015701D02*
X021948Y015701D01*
X021948Y015542D02*
X022048Y015542D01*
X022050Y015384D02*
X021948Y015384D01*
X021902Y015225D02*
X022098Y015225D01*
X022237Y015067D02*
X021777Y015067D01*
X021199Y015067D02*
X020777Y015067D01*
X020749Y015038D02*
X020878Y015168D01*
X020948Y015337D01*
X020948Y016040D01*
X020878Y016209D01*
X020749Y016338D01*
X020580Y016408D01*
X020397Y016408D01*
X020228Y016338D01*
X020098Y016209D01*
X020028Y016040D01*
X020028Y015337D01*
X020098Y015168D01*
X020228Y015038D01*
X020397Y014968D01*
X020580Y014968D01*
X020749Y015038D01*
X020902Y015225D02*
X021075Y015225D01*
X021028Y015384D02*
X020948Y015384D01*
X020948Y015542D02*
X021028Y015542D01*
X021028Y015701D02*
X020948Y015701D01*
X020948Y015859D02*
X021028Y015859D01*
X021028Y016018D02*
X020948Y016018D01*
X020892Y016177D02*
X021085Y016177D01*
X021225Y016335D02*
X020752Y016335D01*
X020225Y016335D02*
X019752Y016335D01*
X019749Y016338D02*
X019580Y016408D01*
X019397Y016408D01*
X019228Y016338D01*
X019098Y016209D01*
X019028Y016040D01*
X019028Y015337D01*
X019098Y015168D01*
X019228Y015038D01*
X019397Y014968D01*
X019580Y014968D01*
X019749Y015038D01*
X019878Y015168D01*
X019948Y015337D01*
X019948Y016040D01*
X019878Y016209D01*
X019749Y016338D01*
X019892Y016177D02*
X020085Y016177D01*
X020028Y016018D02*
X019948Y016018D01*
X019948Y015859D02*
X020028Y015859D01*
X020028Y015701D02*
X019948Y015701D01*
X019948Y015542D02*
X020028Y015542D01*
X020028Y015384D02*
X019948Y015384D01*
X019902Y015225D02*
X020075Y015225D01*
X020199Y015067D02*
X019777Y015067D01*
X019199Y015067D02*
X018777Y015067D01*
X018749Y015038D02*
X018878Y015168D01*
X018948Y015337D01*
X018948Y016040D01*
X018878Y016209D01*
X018749Y016338D01*
X018580Y016408D01*
X018397Y016408D01*
X018228Y016338D01*
X018098Y016209D01*
X018028Y016040D01*
X018028Y015337D01*
X018098Y015168D01*
X018228Y015038D01*
X018397Y014968D01*
X018580Y014968D01*
X018749Y015038D01*
X018902Y015225D02*
X019075Y015225D01*
X019028Y015384D02*
X018948Y015384D01*
X018948Y015542D02*
X019028Y015542D01*
X019028Y015701D02*
X018948Y015701D01*
X018948Y015859D02*
X019028Y015859D01*
X019028Y016018D02*
X018948Y016018D01*
X018892Y016177D02*
X019085Y016177D01*
X019225Y016335D02*
X018752Y016335D01*
X018225Y016335D02*
X017808Y016335D01*
X017892Y016177D02*
X018085Y016177D01*
X018028Y016018D02*
X017948Y016018D01*
X017948Y015859D02*
X018028Y015859D01*
X018028Y015701D02*
X017948Y015701D01*
X017948Y015542D02*
X018028Y015542D01*
X018028Y015384D02*
X017948Y015384D01*
X017902Y015225D02*
X018075Y015225D01*
X018199Y015067D02*
X017808Y015067D01*
X017808Y014908D02*
X026168Y014908D01*
X026168Y014750D02*
X017808Y014750D01*
X017808Y014591D02*
X026161Y014591D01*
X026111Y014433D02*
X017808Y014433D01*
X017809Y014274D02*
X026018Y014274D01*
X025843Y014116D02*
X017872Y014116D01*
X017943Y013368D02*
X017943Y013368D01*
X017808Y013323D02*
X023655Y013323D01*
X023986Y013164D02*
X017761Y013164D01*
X017808Y013311D02*
X017808Y013311D01*
X017709Y013006D02*
X024145Y013006D01*
X024245Y012847D02*
X017607Y012847D01*
X017699Y012974D02*
X017699Y012974D01*
X017492Y012689D02*
X024314Y012689D01*
X024356Y012530D02*
X017275Y012530D01*
X017490Y012687D02*
X017490Y012687D01*
X017490Y012687D01*
X016875Y012372D02*
X024368Y012372D01*
X024368Y012213D02*
X021107Y012213D01*
X021372Y012054D02*
X023048Y012054D01*
X022903Y011896D02*
X021476Y011896D01*
X021518Y011737D02*
X022853Y011737D01*
X022864Y011579D02*
X021517Y011579D01*
X021451Y011420D02*
X022942Y011420D01*
X023288Y011737D02*
X023289Y011737D01*
X023288Y011896D02*
X023289Y011896D01*
X023288Y012054D02*
X023289Y012054D01*
X023529Y012054D02*
X023708Y012054D01*
X024269Y012054D02*
X024368Y012054D01*
X025008Y012054D02*
X026945Y012054D01*
X026787Y011896D02*
X025098Y011896D01*
X025146Y011737D02*
X026628Y011737D01*
X026470Y011579D02*
X025138Y011579D01*
X025067Y011420D02*
X026311Y011420D01*
X026153Y011262D02*
X025008Y011262D01*
X025008Y011103D02*
X025994Y011103D01*
X025991Y011100D02*
X025852Y011043D01*
X025734Y010925D01*
X025671Y010771D01*
X025671Y010605D01*
X025734Y010452D01*
X025852Y010334D01*
X026005Y010271D01*
X026171Y010271D01*
X026325Y010334D01*
X026443Y010452D01*
X026500Y010591D01*
X028237Y012328D01*
X029589Y012328D01*
X029681Y012236D01*
X029610Y012225D01*
X029527Y012198D01*
X029450Y012159D01*
X029380Y012108D01*
X029319Y012047D01*
X029268Y011977D01*
X029250Y011942D01*
X029222Y012011D01*
X029061Y012172D01*
X028852Y012258D01*
X028625Y012258D01*
X028415Y012172D01*
X028255Y012011D01*
X028168Y011802D01*
X028168Y011575D01*
X028255Y011365D01*
X028382Y011238D01*
X028257Y011238D01*
X028257Y010707D01*
X028220Y010707D01*
X028220Y011238D01*
X027845Y011238D01*
X027799Y011226D01*
X027758Y011202D01*
X027724Y011169D01*
X027701Y011128D01*
X027688Y011082D01*
X027688Y010707D01*
X028220Y010707D01*
X028220Y010670D01*
X028257Y010670D01*
X028257Y010138D01*
X028632Y010138D01*
X028678Y010151D01*
X028719Y010174D01*
X028752Y010208D01*
X028776Y010249D01*
X028788Y010295D01*
X028788Y010332D01*
X028915Y010205D01*
X029125Y010118D01*
X029352Y010118D01*
X029561Y010205D01*
X029722Y010365D01*
X029750Y010435D01*
X029768Y010400D01*
X029819Y010330D01*
X029880Y010269D01*
X029950Y010218D01*
X030027Y010179D01*
X030110Y010152D01*
X030195Y010138D01*
X030220Y010138D01*
X030220Y010670D01*
X030257Y010670D01*
X030257Y010138D01*
X030282Y010138D01*
X030367Y010152D01*
X030449Y010179D01*
X030527Y010218D01*
X030597Y010269D01*
X030658Y010330D01*
X030709Y010400D01*
X030726Y010435D01*
X030755Y010365D01*
X030915Y010205D01*
X031125Y010118D01*
X031352Y010118D01*
X031561Y010205D01*
X031722Y010365D01*
X031808Y010575D01*
X031808Y010802D01*
X031722Y011011D01*
X031646Y011087D01*
X031677Y011118D01*
X031852Y011118D01*
X032061Y011205D01*
X032222Y011365D01*
X032308Y011575D01*
X032308Y011802D01*
X032222Y012011D01*
X032061Y012172D01*
X031852Y012258D01*
X031625Y012258D01*
X031415Y012172D01*
X031255Y012011D01*
X031238Y011971D01*
X031222Y012011D01*
X031061Y012172D01*
X030852Y012258D01*
X030677Y012258D01*
X029942Y012994D01*
X029810Y013048D01*
X029667Y013048D01*
X028160Y013048D01*
X028017Y013048D01*
X027884Y012994D01*
X025991Y011100D01*
X025754Y010945D02*
X025008Y010945D01*
X025008Y010786D02*
X025677Y010786D01*
X025671Y010628D02*
X025008Y010628D01*
X025008Y010469D02*
X025727Y010469D01*
X025909Y010310D02*
X025015Y010310D01*
X025074Y010152D02*
X027797Y010152D01*
X027799Y010151D02*
X027845Y010138D01*
X028220Y010138D01*
X028220Y010670D01*
X027688Y010670D01*
X027688Y010295D01*
X027701Y010249D01*
X027724Y010208D01*
X027758Y010174D01*
X027799Y010151D01*
X027688Y010310D02*
X026268Y010310D01*
X026450Y010469D02*
X027688Y010469D01*
X027688Y010628D02*
X026537Y010628D01*
X026695Y010786D02*
X027688Y010786D01*
X027688Y010945D02*
X026854Y010945D01*
X027012Y011103D02*
X027694Y011103D01*
X027329Y011420D02*
X028232Y011420D01*
X028168Y011579D02*
X027488Y011579D01*
X027646Y011737D02*
X028168Y011737D01*
X028207Y011896D02*
X027805Y011896D01*
X027964Y012054D02*
X028298Y012054D01*
X028122Y012213D02*
X028516Y012213D01*
X028961Y012213D02*
X029573Y012213D01*
X029327Y012054D02*
X029178Y012054D01*
X029720Y011670D02*
X029757Y011670D01*
X029757Y011138D01*
X029782Y011138D01*
X029867Y011152D01*
X029949Y011179D01*
X030027Y011218D01*
X030097Y011269D01*
X030158Y011330D01*
X030209Y011400D01*
X030226Y011435D01*
X030255Y011365D01*
X030410Y011211D01*
X030367Y011225D01*
X030282Y011238D01*
X030257Y011238D01*
X030257Y010707D01*
X030220Y010707D01*
X030220Y011238D01*
X030195Y011238D01*
X030110Y011225D01*
X030027Y011198D01*
X029950Y011159D01*
X029880Y011108D01*
X029819Y011047D01*
X029768Y010977D01*
X029750Y010942D01*
X029722Y011011D01*
X029567Y011166D01*
X029610Y011152D01*
X029695Y011138D01*
X029720Y011138D01*
X029720Y011670D01*
X029720Y011579D02*
X029757Y011579D01*
X029757Y011420D02*
X029720Y011420D01*
X029720Y011262D02*
X029757Y011262D01*
X029875Y011103D02*
X029630Y011103D01*
X029749Y010945D02*
X029752Y010945D01*
X030087Y011262D02*
X030359Y011262D01*
X030257Y011103D02*
X030220Y011103D01*
X030220Y010945D02*
X030257Y010945D01*
X030257Y010786D02*
X030220Y010786D01*
X030220Y010628D02*
X030257Y010628D01*
X030257Y010469D02*
X030220Y010469D01*
X030220Y010310D02*
X030257Y010310D01*
X030257Y010152D02*
X030220Y010152D01*
X030109Y010152D02*
X029433Y010152D01*
X029667Y010310D02*
X029838Y010310D01*
X030367Y010152D02*
X031044Y010152D01*
X030810Y010310D02*
X030638Y010310D01*
X031087Y009835D02*
X025884Y009835D01*
X025948Y009676D02*
X030929Y009676D01*
X030808Y009518D02*
X025948Y009518D01*
X025891Y009359D02*
X030717Y009359D01*
X030634Y009201D02*
X028205Y009201D01*
X028454Y009042D02*
X030591Y009042D01*
X030549Y008884D02*
X028613Y008884D01*
X028710Y008725D02*
X030528Y008725D01*
X030527Y008566D02*
X028786Y008566D01*
X028829Y008408D02*
X030515Y008408D01*
X030479Y008249D02*
X028848Y008249D01*
X028848Y008091D02*
X030437Y008091D01*
X030361Y007932D02*
X028819Y007932D01*
X028776Y007774D02*
X030269Y007774D01*
X030143Y007615D02*
X028689Y007615D01*
X028576Y007457D02*
X029964Y007457D01*
X029707Y007298D02*
X028416Y007298D01*
X027060Y007298D02*
X023327Y007298D01*
X023044Y007457D02*
X026900Y007457D01*
X026788Y007615D02*
X022846Y007615D01*
X022713Y007774D02*
X026700Y007774D01*
X026658Y007932D02*
X022592Y007932D01*
X022515Y008091D02*
X026628Y008091D01*
X026628Y008249D02*
X022440Y008249D01*
X022404Y008408D02*
X022746Y008408D01*
X022588Y008566D02*
X022367Y008566D01*
X022352Y008725D02*
X022548Y008725D01*
X022548Y008884D02*
X022348Y008884D01*
X022348Y009042D02*
X022620Y009042D01*
X022725Y009201D02*
X022348Y009201D01*
X022348Y009359D02*
X022585Y009359D01*
X022528Y009518D02*
X022348Y009518D01*
X022348Y009676D02*
X022528Y009676D01*
X022593Y009835D02*
X022348Y009835D01*
X022348Y009993D02*
X022628Y009993D01*
X022628Y010152D02*
X022348Y010152D01*
X022348Y010310D02*
X022628Y010310D01*
X022628Y010469D02*
X022348Y010469D01*
X022348Y010628D02*
X022657Y010628D01*
X023365Y010469D02*
X024368Y010469D01*
X024368Y010310D02*
X023348Y010310D01*
X023348Y010152D02*
X024388Y010152D01*
X024439Y009993D02*
X023348Y009993D01*
X023384Y009835D02*
X024506Y009835D01*
X024621Y009676D02*
X023448Y009676D01*
X023448Y009518D02*
X024781Y009518D01*
X025031Y009359D02*
X023391Y009359D01*
X023251Y009201D02*
X025225Y009201D01*
X025120Y009042D02*
X023357Y009042D01*
X023428Y008884D02*
X025048Y008884D01*
X025048Y008725D02*
X023428Y008725D01*
X023389Y008566D02*
X025088Y008566D01*
X025246Y008408D02*
X023230Y008408D01*
X022989Y008408D02*
X022988Y008408D01*
X022988Y008566D02*
X022989Y008566D01*
X022988Y008725D02*
X022989Y008725D01*
X021628Y009993D02*
X021570Y009993D01*
X021628Y010517D02*
X021628Y010535D01*
X021628Y010588D01*
X021628Y010596D01*
X021622Y010611D01*
X021611Y010622D01*
X021596Y010628D01*
X023578Y010628D02*
X024368Y010628D01*
X024368Y010786D02*
X024061Y010786D01*
X024219Y010945D02*
X024368Y010945D01*
X024368Y011103D02*
X024293Y011103D01*
X024348Y011262D02*
X024368Y011262D01*
X025008Y012213D02*
X027104Y012213D01*
X027262Y012372D02*
X025008Y012372D01*
X025008Y012530D02*
X027421Y012530D01*
X027580Y012689D02*
X024985Y012689D01*
X024943Y012847D02*
X027738Y012847D01*
X027914Y013006D02*
X024900Y013006D01*
X024811Y013164D02*
X036228Y013164D01*
X036228Y013006D02*
X029913Y013006D01*
X030089Y012847D02*
X036228Y012847D01*
X036228Y012689D02*
X030247Y012689D01*
X030406Y012530D02*
X036228Y012530D01*
X036228Y012372D02*
X030564Y012372D01*
X030961Y012213D02*
X031516Y012213D01*
X031298Y012054D02*
X031178Y012054D01*
X031961Y012213D02*
X036228Y012213D01*
X036228Y012054D02*
X032178Y012054D01*
X032269Y011896D02*
X036228Y011896D01*
X036228Y011737D02*
X032308Y011737D01*
X032308Y011579D02*
X036228Y011579D01*
X036228Y011420D02*
X032244Y011420D01*
X032118Y011262D02*
X036228Y011262D01*
X036228Y011103D02*
X035724Y011103D01*
X035883Y010945D02*
X036228Y010945D01*
X036228Y010786D02*
X035948Y010786D01*
X035948Y010628D02*
X036228Y010628D01*
X036203Y010469D02*
X035919Y010469D01*
X035761Y010310D02*
X036077Y010310D01*
X035216Y010310D02*
X034261Y010310D01*
X034419Y010469D02*
X035057Y010469D01*
X035028Y010628D02*
X034448Y010628D01*
X034448Y010786D02*
X035028Y010786D01*
X035094Y010945D02*
X034383Y010945D01*
X034224Y011103D02*
X035253Y011103D01*
X033753Y011103D02*
X031662Y011103D01*
X031749Y010945D02*
X033594Y010945D01*
X033528Y010786D02*
X031808Y010786D01*
X031808Y010628D02*
X033528Y010628D01*
X033557Y010469D02*
X031764Y010469D01*
X031667Y010310D02*
X033716Y010310D01*
X031610Y010152D02*
X031433Y010152D01*
X031302Y009993D02*
X025712Y009993D01*
X025264Y009993D02*
X025225Y009993D01*
X025751Y009201D02*
X027272Y009201D01*
X027022Y009042D02*
X025857Y009042D01*
X025928Y008884D02*
X026864Y008884D01*
X026767Y008725D02*
X025928Y008725D01*
X025889Y008566D02*
X026691Y008566D01*
X026648Y008408D02*
X025730Y008408D01*
X025489Y008408D02*
X025488Y008408D01*
X025488Y008566D02*
X025489Y008566D01*
X025488Y008725D02*
X025489Y008725D01*
X028220Y010152D02*
X028257Y010152D01*
X028257Y010310D02*
X028220Y010310D01*
X028220Y010469D02*
X028257Y010469D01*
X028257Y010628D02*
X028220Y010628D01*
X028220Y010786D02*
X028257Y010786D01*
X028257Y010945D02*
X028220Y010945D01*
X028220Y011103D02*
X028257Y011103D01*
X028359Y011262D02*
X027171Y011262D01*
X028680Y010152D02*
X029044Y010152D01*
X028810Y010310D02*
X028788Y010310D01*
X030219Y011420D02*
X030232Y011420D01*
X033703Y013323D02*
X024719Y013323D01*
X026690Y014116D02*
X033765Y014116D01*
X034212Y014116D02*
X035265Y014116D01*
X035712Y014116D02*
X036228Y014116D01*
X036228Y014274D02*
X026742Y014274D01*
X026793Y014433D02*
X036228Y014433D01*
X036228Y014591D02*
X026808Y014591D01*
X026808Y014750D02*
X036228Y014750D01*
X036228Y014908D02*
X026808Y014908D01*
X026808Y015067D02*
X027199Y015067D01*
X027228Y015038D02*
X027397Y014968D01*
X027580Y014968D01*
X027749Y015038D01*
X027878Y015168D01*
X027948Y015337D01*
X027948Y016040D01*
X027878Y016209D01*
X027749Y016338D01*
X027580Y016408D01*
X027397Y016408D01*
X027228Y016338D01*
X027098Y016209D01*
X027028Y016040D01*
X027028Y015337D01*
X027098Y015168D01*
X027228Y015038D01*
X027075Y015225D02*
X026902Y015225D01*
X026948Y015384D02*
X027028Y015384D01*
X027028Y015542D02*
X026948Y015542D01*
X026948Y015701D02*
X027028Y015701D01*
X027028Y015859D02*
X026948Y015859D01*
X026948Y016018D02*
X027028Y016018D01*
X027085Y016177D02*
X026892Y016177D01*
X026752Y016335D02*
X027225Y016335D01*
X027752Y016335D02*
X028225Y016335D01*
X028228Y016338D02*
X028098Y016209D01*
X028028Y016040D01*
X028028Y015337D01*
X028098Y015168D01*
X028228Y015038D01*
X028397Y014968D01*
X028580Y014968D01*
X028749Y015038D01*
X028878Y015168D01*
X028948Y015337D01*
X028948Y016040D01*
X028878Y016209D01*
X028749Y016338D01*
X028580Y016408D01*
X028397Y016408D01*
X028228Y016338D01*
X028085Y016177D02*
X027892Y016177D01*
X027948Y016018D02*
X028028Y016018D01*
X028028Y015859D02*
X027948Y015859D01*
X027948Y015701D02*
X028028Y015701D01*
X028028Y015542D02*
X027948Y015542D01*
X027948Y015384D02*
X028028Y015384D01*
X028075Y015225D02*
X027902Y015225D01*
X027777Y015067D02*
X028199Y015067D01*
X028777Y015067D02*
X029199Y015067D01*
X029228Y015038D02*
X029098Y015168D01*
X029028Y015337D01*
X029028Y016040D01*
X029098Y016209D01*
X029228Y016338D01*
X029397Y016408D01*
X029580Y016408D01*
X029749Y016338D01*
X029878Y016209D01*
X029948Y016040D01*
X029948Y015337D01*
X029878Y015168D01*
X029749Y015038D01*
X029580Y014968D01*
X029397Y014968D01*
X029228Y015038D01*
X029075Y015225D02*
X028902Y015225D01*
X028948Y015384D02*
X029028Y015384D01*
X029028Y015542D02*
X028948Y015542D01*
X028948Y015701D02*
X029028Y015701D01*
X029028Y015859D02*
X028948Y015859D01*
X028948Y016018D02*
X029028Y016018D01*
X029085Y016177D02*
X028892Y016177D01*
X028752Y016335D02*
X029225Y016335D01*
X029752Y016335D02*
X030225Y016335D01*
X030228Y016338D02*
X030098Y016209D01*
X030028Y016040D01*
X030028Y015337D01*
X030098Y015168D01*
X030228Y015038D01*
X030397Y014968D01*
X030580Y014968D01*
X030749Y015038D01*
X030878Y015168D01*
X030948Y015337D01*
X030948Y016040D01*
X030878Y016209D01*
X030749Y016338D01*
X030580Y016408D01*
X030397Y016408D01*
X030228Y016338D01*
X030085Y016177D02*
X029892Y016177D01*
X029948Y016018D02*
X030028Y016018D01*
X030028Y015859D02*
X029948Y015859D01*
X029948Y015701D02*
X030028Y015701D01*
X030028Y015542D02*
X029948Y015542D01*
X029948Y015384D02*
X030028Y015384D01*
X030075Y015225D02*
X029902Y015225D01*
X029777Y015067D02*
X030199Y015067D01*
X030777Y015067D02*
X031237Y015067D01*
X031258Y015052D02*
X031319Y015021D01*
X031385Y014999D01*
X031454Y014988D01*
X031488Y014988D01*
X031488Y015688D01*
X031489Y015688D01*
X031489Y015689D01*
X031928Y015689D01*
X031928Y015983D01*
X031917Y016051D01*
X031896Y016117D01*
X031865Y016179D01*
X031824Y016235D01*
X031775Y016284D01*
X031719Y016325D01*
X031657Y016356D01*
X031591Y016377D01*
X031523Y016388D01*
X031489Y016388D01*
X031489Y015689D01*
X031488Y015689D01*
X031488Y016388D01*
X031454Y016388D01*
X031385Y016377D01*
X031319Y016356D01*
X031258Y016325D01*
X031202Y016284D01*
X031153Y016235D01*
X031112Y016179D01*
X031081Y016117D01*
X031059Y016051D01*
X031048Y015983D01*
X031048Y015689D01*
X031488Y015689D01*
X031488Y015688D01*
X031048Y015688D01*
X031048Y015394D01*
X031059Y015325D01*
X031081Y015259D01*
X031112Y015198D01*
X031153Y015142D01*
X031202Y015093D01*
X031258Y015052D01*
X031488Y015067D02*
X031489Y015067D01*
X031489Y014988D02*
X031523Y014988D01*
X031591Y014999D01*
X031657Y015021D01*
X031719Y015052D01*
X031775Y015093D01*
X031824Y015142D01*
X031865Y015198D01*
X031896Y015259D01*
X031917Y015325D01*
X031928Y015394D01*
X031928Y015688D01*
X031489Y015688D01*
X031489Y014988D01*
X031488Y015225D02*
X031489Y015225D01*
X031488Y015384D02*
X031489Y015384D01*
X031488Y015542D02*
X031489Y015542D01*
X031488Y015701D02*
X031489Y015701D01*
X031488Y015859D02*
X031489Y015859D01*
X031488Y016018D02*
X031489Y016018D01*
X031488Y016177D02*
X031489Y016177D01*
X031488Y016335D02*
X031489Y016335D01*
X031698Y016335D02*
X031946Y016335D01*
X031866Y016177D02*
X032085Y016177D01*
X032028Y016018D02*
X031923Y016018D01*
X031928Y015859D02*
X032028Y015859D01*
X032028Y015701D02*
X031928Y015701D01*
X031928Y015542D02*
X032028Y015542D01*
X032028Y015384D02*
X031927Y015384D01*
X031879Y015225D02*
X032075Y015225D01*
X032199Y015067D02*
X031739Y015067D01*
X031098Y015225D02*
X030902Y015225D01*
X030948Y015384D02*
X031050Y015384D01*
X031048Y015542D02*
X030948Y015542D01*
X030948Y015701D02*
X031048Y015701D01*
X031048Y015859D02*
X030948Y015859D01*
X030948Y016018D02*
X031054Y016018D01*
X031111Y016177D02*
X030892Y016177D01*
X030752Y016335D02*
X031278Y016335D01*
X031988Y016688D02*
X032488Y016188D01*
X032488Y015688D01*
X032948Y015701D02*
X033048Y015701D01*
X033048Y015689D02*
X033488Y015689D01*
X033488Y016388D01*
X033454Y016388D01*
X033385Y016377D01*
X033319Y016356D01*
X033258Y016325D01*
X033202Y016284D01*
X033153Y016235D01*
X033112Y016179D01*
X033081Y016117D01*
X033059Y016051D01*
X033048Y015983D01*
X033048Y015689D01*
X033048Y015688D02*
X033048Y015394D01*
X033059Y015325D01*
X033081Y015259D01*
X033112Y015198D01*
X033153Y015142D01*
X033202Y015093D01*
X033258Y015052D01*
X033319Y015021D01*
X033385Y014999D01*
X033454Y014988D01*
X033488Y014988D01*
X033488Y015688D01*
X033489Y015688D01*
X033489Y015689D01*
X033928Y015689D01*
X033928Y015983D01*
X033917Y016051D01*
X033896Y016117D01*
X033865Y016179D01*
X033824Y016235D01*
X033775Y016284D01*
X033719Y016325D01*
X033657Y016356D01*
X033591Y016377D01*
X033523Y016388D01*
X033489Y016388D01*
X033489Y015689D01*
X033488Y015689D01*
X033488Y015688D01*
X033048Y015688D01*
X033048Y015542D02*
X032948Y015542D01*
X032948Y015384D02*
X033050Y015384D01*
X033098Y015225D02*
X032902Y015225D01*
X032777Y015067D02*
X033237Y015067D01*
X033488Y015067D02*
X033489Y015067D01*
X033489Y014988D02*
X033523Y014988D01*
X033591Y014999D01*
X033657Y015021D01*
X033719Y015052D01*
X033775Y015093D01*
X033824Y015142D01*
X033865Y015198D01*
X033896Y015259D01*
X033917Y015325D01*
X033928Y015394D01*
X033928Y015688D01*
X033489Y015688D01*
X033489Y014988D01*
X033488Y015225D02*
X033489Y015225D01*
X033488Y015384D02*
X033489Y015384D01*
X033488Y015542D02*
X033489Y015542D01*
X033488Y015701D02*
X033489Y015701D01*
X033488Y015859D02*
X033489Y015859D01*
X033488Y016018D02*
X033489Y016018D01*
X033488Y016177D02*
X033489Y016177D01*
X033488Y016335D02*
X033489Y016335D01*
X033698Y016335D02*
X036228Y016335D01*
X036228Y016177D02*
X033866Y016177D01*
X033923Y016018D02*
X036228Y016018D01*
X036228Y015859D02*
X033928Y015859D01*
X033928Y015701D02*
X036228Y015701D01*
X036228Y015542D02*
X033928Y015542D01*
X033927Y015384D02*
X036228Y015384D01*
X036228Y015225D02*
X033879Y015225D01*
X033739Y015067D02*
X036228Y015067D01*
X036228Y013957D02*
X035870Y013957D01*
X035948Y013798D02*
X036228Y013798D01*
X036228Y013640D02*
X035948Y013640D01*
X035932Y013481D02*
X036228Y013481D01*
X036228Y013323D02*
X035773Y013323D01*
X035203Y013323D02*
X034273Y013323D01*
X033048Y015859D02*
X032948Y015859D01*
X032948Y016018D02*
X033054Y016018D01*
X033111Y016177D02*
X032892Y016177D01*
X032752Y016335D02*
X033278Y016335D01*
X032579Y016494D02*
X036228Y016494D01*
X036228Y016652D02*
X032420Y016652D01*
X032262Y016811D02*
X036228Y016811D01*
X031988Y016688D02*
X023888Y016688D01*
X023488Y016288D01*
X023488Y015688D01*
X023948Y015701D02*
X024048Y015701D01*
X024048Y015689D02*
X024488Y015689D01*
X024488Y016388D01*
X024454Y016388D01*
X024385Y016377D01*
X024319Y016356D01*
X024258Y016325D01*
X024202Y016284D01*
X024153Y016235D01*
X024112Y016179D01*
X024081Y016117D01*
X024059Y016051D01*
X024048Y015983D01*
X024048Y015689D01*
X024048Y015688D02*
X024048Y015394D01*
X024059Y015325D01*
X024081Y015259D01*
X024112Y015198D01*
X024153Y015142D01*
X024202Y015093D01*
X024258Y015052D01*
X024319Y015021D01*
X024385Y014999D01*
X024454Y014988D01*
X024488Y014988D01*
X024488Y015688D01*
X024489Y015688D01*
X024489Y015689D01*
X024928Y015689D01*
X024928Y015983D01*
X024917Y016051D01*
X024896Y016117D01*
X024865Y016179D01*
X024824Y016235D01*
X024775Y016284D01*
X024719Y016325D01*
X024657Y016356D01*
X024591Y016377D01*
X024523Y016388D01*
X024489Y016388D01*
X024489Y015689D01*
X024488Y015689D01*
X024488Y015688D01*
X024048Y015688D01*
X024048Y015542D02*
X023948Y015542D01*
X023948Y015384D02*
X024050Y015384D01*
X024098Y015225D02*
X023902Y015225D01*
X023777Y015067D02*
X024237Y015067D01*
X024488Y015067D02*
X024489Y015067D01*
X024489Y014988D02*
X024523Y014988D01*
X024591Y014999D01*
X024657Y015021D01*
X024719Y015052D01*
X024775Y015093D01*
X024824Y015142D01*
X024865Y015198D01*
X024896Y015259D01*
X024917Y015325D01*
X024928Y015394D01*
X024928Y015688D01*
X024489Y015688D01*
X024489Y014988D01*
X024488Y015225D02*
X024489Y015225D01*
X024488Y015384D02*
X024489Y015384D01*
X024488Y015542D02*
X024489Y015542D01*
X024488Y015701D02*
X024489Y015701D01*
X024488Y015859D02*
X024489Y015859D01*
X024488Y016018D02*
X024489Y016018D01*
X024488Y016177D02*
X024489Y016177D01*
X024488Y016335D02*
X024489Y016335D01*
X024698Y016335D02*
X026225Y016335D01*
X026085Y016177D02*
X024866Y016177D01*
X024923Y016018D02*
X026028Y016018D01*
X026028Y015859D02*
X024928Y015859D01*
X024928Y015701D02*
X026028Y015701D01*
X026028Y015542D02*
X024928Y015542D01*
X024927Y015384D02*
X026028Y015384D01*
X026075Y015225D02*
X024879Y015225D01*
X024739Y015067D02*
X026168Y015067D01*
X024278Y016335D02*
X023931Y016335D01*
X023892Y016177D02*
X024111Y016177D01*
X024054Y016018D02*
X023948Y016018D01*
X023948Y015859D02*
X024048Y015859D01*
X016866Y012368D02*
X016866Y012368D01*
X016629Y008725D02*
X015710Y008725D01*
X015786Y008566D02*
X016471Y008566D01*
X016312Y008408D02*
X015829Y008408D01*
X015848Y008249D02*
X016154Y008249D01*
X015995Y008091D02*
X015848Y008091D01*
X015836Y007932D02*
X015819Y007932D01*
X012608Y018872D02*
X012082Y018872D01*
X012181Y019030D02*
X012608Y019030D01*
X012608Y019189D02*
X012208Y019189D01*
X012180Y019347D02*
X012608Y019347D01*
X012608Y019506D02*
X012081Y019506D01*
X010836Y020933D02*
X006668Y020933D01*
X006668Y021091D02*
X010771Y021091D01*
X010768Y021250D02*
X006668Y021250D01*
X006668Y021409D02*
X010822Y021409D01*
X010957Y021567D02*
X006668Y021567D01*
X008211Y020616D02*
X008765Y020616D01*
X008607Y020457D02*
X008370Y020457D01*
X008448Y020299D02*
X008528Y020299D01*
X008528Y020140D02*
X008448Y020140D01*
X008432Y019982D02*
X008545Y019982D01*
X008703Y019823D02*
X008274Y019823D01*
X008286Y022835D02*
X009191Y022835D01*
X009032Y022994D02*
X008444Y022994D01*
X008448Y023152D02*
X009028Y023152D01*
X009028Y023311D02*
X008448Y023311D01*
X008358Y023470D02*
X009119Y023470D01*
X009278Y023628D02*
X008199Y023628D01*
X006942Y026799D02*
X006668Y026799D01*
X006668Y026958D02*
X006721Y026958D01*
X008583Y028067D02*
X034793Y028067D01*
X034836Y028226D02*
X008541Y028226D01*
X008449Y028384D02*
X034928Y028384D01*
X035045Y028543D02*
X008332Y028543D01*
X017621Y027750D02*
X018355Y027750D01*
X018621Y027750D02*
X019355Y027750D01*
X019621Y027750D02*
X020355Y027750D01*
X020621Y027750D02*
X021355Y027750D01*
X021621Y027750D02*
X022355Y027750D01*
X022621Y027750D02*
X023355Y027750D01*
X023621Y027750D02*
X024027Y027750D01*
X023918Y027592D02*
X023891Y027592D01*
X023905Y026799D02*
X023918Y026799D01*
X024013Y026640D02*
X023655Y026640D01*
X023322Y026640D02*
X022655Y026640D01*
X022905Y026799D02*
X023072Y026799D01*
X022322Y026640D02*
X021655Y026640D01*
X021905Y026799D02*
X022072Y026799D01*
X021322Y026640D02*
X020655Y026640D01*
X020905Y026799D02*
X021072Y026799D01*
X020322Y026640D02*
X019655Y026640D01*
X019905Y026799D02*
X020072Y026799D01*
X019322Y026640D02*
X018655Y026640D01*
X018905Y026799D02*
X019072Y026799D01*
X018322Y026640D02*
X017848Y026640D01*
X017848Y026482D02*
X025154Y026482D01*
X025128Y026323D02*
X017848Y026323D01*
X017848Y026165D02*
X025128Y026165D01*
X025128Y026006D02*
X017848Y026006D01*
X017848Y025848D02*
X025128Y025848D01*
X025128Y025689D02*
X017848Y025689D01*
X017848Y025531D02*
X025128Y025531D01*
X025128Y025372D02*
X024667Y025372D01*
X024749Y025338D02*
X024580Y025408D01*
X024397Y025408D01*
X024228Y025338D01*
X024098Y025209D01*
X024028Y025040D01*
X024028Y024337D01*
X024098Y024168D01*
X024228Y024038D01*
X024397Y023968D01*
X024580Y023968D01*
X024749Y024038D01*
X024878Y024168D01*
X024948Y024337D01*
X024948Y025040D01*
X024878Y025209D01*
X024749Y025338D01*
X024874Y025214D02*
X025103Y025214D01*
X025035Y025055D02*
X024942Y025055D01*
X024948Y024896D02*
X025028Y024896D01*
X025028Y024738D02*
X024948Y024738D01*
X024948Y024579D02*
X025028Y024579D01*
X025028Y024421D02*
X024948Y024421D01*
X024917Y024262D02*
X025059Y024262D01*
X025162Y024104D02*
X024814Y024104D01*
X025301Y023945D02*
X017928Y023945D01*
X017859Y024104D02*
X018162Y024104D01*
X018098Y024168D02*
X018228Y024038D01*
X018397Y023968D01*
X018580Y023968D01*
X018749Y024038D01*
X018878Y024168D01*
X018948Y024337D01*
X018948Y025040D01*
X018878Y025209D01*
X018749Y025338D01*
X018580Y025408D01*
X018397Y025408D01*
X018228Y025338D01*
X018098Y025209D01*
X018028Y025040D01*
X018028Y024337D01*
X018098Y024168D01*
X018059Y024262D02*
X017848Y024262D01*
X017848Y024421D02*
X018028Y024421D01*
X018028Y024579D02*
X017848Y024579D01*
X017848Y024738D02*
X018028Y024738D01*
X018028Y024896D02*
X017848Y024896D01*
X017848Y025055D02*
X018035Y025055D01*
X018103Y025214D02*
X017848Y025214D01*
X017848Y025372D02*
X018309Y025372D01*
X018667Y025372D02*
X019309Y025372D01*
X019228Y025338D02*
X019098Y025209D01*
X019028Y025040D01*
X019028Y024337D01*
X019098Y024168D01*
X019228Y024038D01*
X019397Y023968D01*
X019580Y023968D01*
X019749Y024038D01*
X019878Y024168D01*
X019948Y024337D01*
X019948Y025040D01*
X019878Y025209D01*
X019749Y025338D01*
X019580Y025408D01*
X019397Y025408D01*
X019228Y025338D01*
X019103Y025214D02*
X018874Y025214D01*
X018942Y025055D02*
X019035Y025055D01*
X019028Y024896D02*
X018948Y024896D01*
X018948Y024738D02*
X019028Y024738D01*
X019028Y024579D02*
X018948Y024579D01*
X018948Y024421D02*
X019028Y024421D01*
X019059Y024262D02*
X018917Y024262D01*
X018814Y024104D02*
X019162Y024104D01*
X019814Y024104D02*
X020162Y024104D01*
X020098Y024168D02*
X020228Y024038D01*
X020397Y023968D01*
X020580Y023968D01*
X020749Y024038D01*
X020878Y024168D01*
X020948Y024337D01*
X020948Y025040D01*
X020878Y025209D01*
X020749Y025338D01*
X020580Y025408D01*
X020397Y025408D01*
X020228Y025338D01*
X020098Y025209D01*
X020028Y025040D01*
X020028Y024337D01*
X020098Y024168D01*
X020059Y024262D02*
X019917Y024262D01*
X019948Y024421D02*
X020028Y024421D01*
X020028Y024579D02*
X019948Y024579D01*
X019948Y024738D02*
X020028Y024738D01*
X020028Y024896D02*
X019948Y024896D01*
X019942Y025055D02*
X020035Y025055D01*
X020103Y025214D02*
X019874Y025214D01*
X019667Y025372D02*
X020309Y025372D01*
X020667Y025372D02*
X021309Y025372D01*
X021228Y025338D02*
X021098Y025209D01*
X021028Y025040D01*
X021028Y024337D01*
X021098Y024168D01*
X021228Y024038D01*
X021397Y023968D01*
X021580Y023968D01*
X021749Y024038D01*
X021878Y024168D01*
X021948Y024337D01*
X021948Y025040D01*
X021878Y025209D01*
X021749Y025338D01*
X021580Y025408D01*
X021397Y025408D01*
X021228Y025338D01*
X021103Y025214D02*
X020874Y025214D01*
X020942Y025055D02*
X021035Y025055D01*
X021028Y024896D02*
X020948Y024896D01*
X020948Y024738D02*
X021028Y024738D01*
X021028Y024579D02*
X020948Y024579D01*
X020948Y024421D02*
X021028Y024421D01*
X021059Y024262D02*
X020917Y024262D01*
X020814Y024104D02*
X021162Y024104D01*
X021814Y024104D02*
X022162Y024104D01*
X022098Y024168D02*
X022228Y024038D01*
X022397Y023968D01*
X022580Y023968D01*
X022749Y024038D01*
X022878Y024168D01*
X022948Y024337D01*
X022948Y025040D01*
X022878Y025209D01*
X022749Y025338D01*
X022580Y025408D01*
X022397Y025408D01*
X022228Y025338D01*
X022098Y025209D01*
X022028Y025040D01*
X022028Y024337D01*
X022098Y024168D01*
X022059Y024262D02*
X021917Y024262D01*
X021948Y024421D02*
X022028Y024421D01*
X022028Y024579D02*
X021948Y024579D01*
X021948Y024738D02*
X022028Y024738D01*
X022028Y024896D02*
X021948Y024896D01*
X021942Y025055D02*
X022035Y025055D01*
X022103Y025214D02*
X021874Y025214D01*
X021667Y025372D02*
X022309Y025372D01*
X022667Y025372D02*
X023309Y025372D01*
X023228Y025338D02*
X023098Y025209D01*
X023028Y025040D01*
X023028Y024337D01*
X023098Y024168D01*
X023228Y024038D01*
X023397Y023968D01*
X023580Y023968D01*
X023749Y024038D01*
X023878Y024168D01*
X023948Y024337D01*
X023948Y025040D01*
X023878Y025209D01*
X023749Y025338D01*
X023580Y025408D01*
X023397Y025408D01*
X023228Y025338D01*
X023103Y025214D02*
X022874Y025214D01*
X022942Y025055D02*
X023035Y025055D01*
X023028Y024896D02*
X022948Y024896D01*
X022948Y024738D02*
X023028Y024738D01*
X023028Y024579D02*
X022948Y024579D01*
X022948Y024421D02*
X023028Y024421D01*
X023059Y024262D02*
X022917Y024262D01*
X022814Y024104D02*
X023162Y024104D01*
X023814Y024104D02*
X024162Y024104D01*
X024059Y024262D02*
X023917Y024262D01*
X023948Y024421D02*
X024028Y024421D01*
X024028Y024579D02*
X023948Y024579D01*
X023948Y024738D02*
X024028Y024738D01*
X024028Y024896D02*
X023948Y024896D01*
X023942Y025055D02*
X024035Y025055D01*
X024103Y025214D02*
X023874Y025214D01*
X023667Y025372D02*
X024309Y025372D01*
X024963Y026640D02*
X025205Y026640D01*
X025257Y026799D02*
X025058Y026799D01*
X025058Y026958D02*
X025366Y026958D01*
X025481Y027116D02*
X025058Y027116D01*
X025058Y027275D02*
X025670Y027275D01*
X025515Y027162D02*
X025515Y027162D01*
X025919Y027433D02*
X025058Y027433D01*
X025058Y027592D02*
X026086Y027592D01*
X026355Y027750D02*
X024949Y027750D01*
X026035Y026640D02*
X026322Y026640D01*
X026655Y026640D02*
X027322Y026640D01*
X027072Y026799D02*
X026905Y026799D01*
X027655Y026640D02*
X028322Y026640D01*
X028072Y026799D02*
X027905Y026799D01*
X028655Y026640D02*
X029322Y026640D01*
X029072Y026799D02*
X028905Y026799D01*
X029655Y026640D02*
X030322Y026640D01*
X030072Y026799D02*
X029905Y026799D01*
X030655Y026640D02*
X031322Y026640D01*
X031072Y026799D02*
X030905Y026799D01*
X031655Y026640D02*
X032322Y026640D01*
X032072Y026799D02*
X031905Y026799D01*
X032655Y026640D02*
X033013Y026640D01*
X032918Y026799D02*
X032905Y026799D01*
X032891Y027592D02*
X032918Y027592D01*
X033027Y027750D02*
X032621Y027750D01*
X032355Y027750D02*
X031621Y027750D01*
X031355Y027750D02*
X030621Y027750D01*
X030355Y027750D02*
X029621Y027750D01*
X029355Y027750D02*
X028621Y027750D01*
X028355Y027750D02*
X027621Y027750D01*
X027355Y027750D02*
X026621Y027750D01*
X026891Y027592D02*
X027086Y027592D01*
X027891Y027592D02*
X028086Y027592D01*
X028891Y027592D02*
X029086Y027592D01*
X029891Y027592D02*
X030086Y027592D01*
X030891Y027592D02*
X031086Y027592D01*
X031891Y027592D02*
X032086Y027592D01*
X036435Y026799D02*
X036678Y026799D01*
X036678Y026958D02*
X036656Y026958D01*
X034049Y023945D02*
X026213Y023945D01*
X026553Y023787D02*
X033859Y023787D01*
X025392Y023787D02*
X018118Y023787D01*
X018072Y026799D02*
X017905Y026799D01*
X017891Y027592D02*
X018086Y027592D01*
X018891Y027592D02*
X019086Y027592D01*
X019891Y027592D02*
X020086Y027592D01*
X020891Y027592D02*
X021086Y027592D01*
X021891Y027592D02*
X022086Y027592D01*
X022891Y027592D02*
X023086Y027592D01*
D21*
X025488Y026188D02*
X025488Y024688D01*
X025490Y024618D01*
X025496Y024547D01*
X025505Y024478D01*
X025518Y024409D01*
X025535Y024340D01*
X025556Y024273D01*
X025580Y024207D01*
X025608Y024142D01*
X025639Y024079D01*
X025674Y024018D01*
X025712Y023958D01*
X025753Y023901D01*
X025797Y023846D01*
X025844Y023794D01*
X025894Y023744D01*
X025946Y023697D01*
X026001Y023653D01*
X026058Y023612D01*
X026118Y023574D01*
X026179Y023539D01*
X026242Y023508D01*
X026307Y023480D01*
X026373Y023456D01*
X026440Y023435D01*
X026509Y023418D01*
X026578Y023405D01*
X026647Y023396D01*
X026718Y023390D01*
X026788Y023388D01*
X018288Y023388D01*
X018233Y023390D01*
X018179Y023395D01*
X018125Y023405D01*
X018072Y023418D01*
X018020Y023434D01*
X017969Y023454D01*
X017920Y023478D01*
X017872Y023504D01*
X017827Y023534D01*
X017783Y023567D01*
X017742Y023603D01*
X017703Y023642D01*
X017667Y023683D01*
X017634Y023727D01*
X017604Y023772D01*
X017578Y023820D01*
X017554Y023869D01*
X017534Y023920D01*
X017518Y023972D01*
X017505Y024025D01*
X017495Y024079D01*
X017490Y024133D01*
X017488Y024188D01*
X017488Y027188D01*
X025488Y026188D02*
X025490Y026248D01*
X025495Y026309D01*
X025504Y026368D01*
X025517Y026427D01*
X025533Y026486D01*
X025553Y026543D01*
X025576Y026598D01*
X025603Y026653D01*
X025632Y026705D01*
X025665Y026756D01*
X025701Y026805D01*
X025739Y026851D01*
X025781Y026895D01*
X025825Y026937D01*
X025871Y026975D01*
X025920Y027011D01*
X025971Y027044D01*
X026023Y027073D01*
X026078Y027100D01*
X026133Y027123D01*
X026190Y027143D01*
X026249Y027159D01*
X026308Y027172D01*
X026367Y027181D01*
X026428Y027186D01*
X026488Y027188D01*
X026788Y023388D02*
X033688Y023388D01*
X035888Y023388D01*
X035938Y023386D01*
X035988Y023381D01*
X036037Y023372D01*
X036085Y023360D01*
X036133Y023344D01*
X036179Y023325D01*
X036223Y023302D01*
X036266Y023277D01*
X036307Y023248D01*
X036346Y023217D01*
X036383Y023183D01*
X036417Y023146D01*
X036448Y023107D01*
X036477Y023066D01*
X036502Y023023D01*
X036525Y022979D01*
X036544Y022933D01*
X036560Y022885D01*
X036572Y022837D01*
X036581Y022788D01*
X036586Y022738D01*
X036588Y022688D01*
X036588Y010588D01*
X036586Y010538D01*
X036581Y010488D01*
X036572Y010439D01*
X036560Y010391D01*
X036544Y010343D01*
X036525Y010297D01*
X036502Y010253D01*
X036477Y010210D01*
X036448Y010169D01*
X036417Y010130D01*
X036383Y010093D01*
X036346Y010059D01*
X036307Y010028D01*
X036266Y009999D01*
X036223Y009974D01*
X036179Y009951D01*
X036133Y009932D01*
X036085Y009916D01*
X036037Y009904D01*
X035988Y009895D01*
X035938Y009890D01*
X035888Y009888D01*
X032188Y009888D01*
X031238Y010688D02*
X031238Y011188D01*
X030738Y011688D01*
X029738Y012688D01*
X028088Y012688D01*
X026088Y010688D01*
X023988Y011388D02*
X023988Y011688D01*
X023988Y011388D02*
X023986Y011349D01*
X023980Y011310D01*
X023971Y011272D01*
X023958Y011235D01*
X023941Y011199D01*
X023921Y011166D01*
X023897Y011134D01*
X023871Y011105D01*
X023842Y011079D01*
X023810Y011055D01*
X023777Y011035D01*
X023741Y011018D01*
X023704Y011005D01*
X023666Y010996D01*
X023627Y010990D01*
X023588Y010988D01*
X021588Y010988D01*
X021088Y010988D01*
X021071Y010990D01*
X021054Y010994D01*
X021038Y011001D01*
X021024Y011011D01*
X021011Y011024D01*
X021001Y011038D01*
X020994Y011054D01*
X020990Y011071D01*
X020988Y011088D01*
X020988Y011688D01*
X021588Y010988D02*
X021627Y010986D01*
X021666Y010980D01*
X021704Y010971D01*
X021741Y010958D01*
X021777Y010941D01*
X021810Y010921D01*
X021842Y010897D01*
X021871Y010871D01*
X021897Y010842D01*
X021921Y010810D01*
X021941Y010777D01*
X021958Y010741D01*
X021971Y010704D01*
X021980Y010666D01*
X021986Y010627D01*
X021988Y010588D01*
X021988Y008788D01*
X022988Y009588D02*
X022988Y010388D01*
X022990Y010435D01*
X022995Y010482D01*
X023005Y010528D01*
X023017Y010573D01*
X023034Y010618D01*
X023053Y010660D01*
X023076Y010701D01*
X023103Y010741D01*
X023132Y010778D01*
X023164Y010812D01*
X023198Y010844D01*
X023235Y010873D01*
X023275Y010900D01*
X023316Y010923D01*
X023358Y010942D01*
X023403Y010959D01*
X023448Y010971D01*
X023494Y010981D01*
X023541Y010986D01*
X023588Y010988D01*
X021988Y008788D02*
X021990Y008693D01*
X021997Y008598D01*
X022008Y008503D01*
X022024Y008409D01*
X022044Y008316D01*
X022069Y008225D01*
X022098Y008134D01*
X022131Y008045D01*
X022169Y007957D01*
X022210Y007872D01*
X022256Y007788D01*
X022305Y007707D01*
X022359Y007628D01*
X022416Y007552D01*
X022477Y007478D01*
X022541Y007408D01*
X022608Y007341D01*
X022678Y007277D01*
X022752Y007216D01*
X022828Y007159D01*
X022907Y007105D01*
X022988Y007056D01*
X023072Y007010D01*
X023157Y006969D01*
X023245Y006931D01*
X023334Y006898D01*
X023425Y006869D01*
X023516Y006844D01*
X023609Y006824D01*
X023703Y006808D01*
X023798Y006797D01*
X023893Y006790D01*
X023988Y006788D01*
X029088Y006788D01*
X029174Y006790D01*
X029259Y006796D01*
X029344Y006806D01*
X029429Y006821D01*
X029512Y006839D01*
X029595Y006861D01*
X029677Y006887D01*
X029757Y006917D01*
X029836Y006951D01*
X029913Y006988D01*
X029988Y007029D01*
X030061Y007074D01*
X030132Y007122D01*
X030201Y007173D01*
X030267Y007228D01*
X030330Y007285D01*
X030391Y007346D01*
X030448Y007409D01*
X030503Y007475D01*
X030554Y007544D01*
X030602Y007615D01*
X030647Y007688D01*
X030688Y007763D01*
X030725Y007840D01*
X030759Y007919D01*
X030789Y007999D01*
X030815Y008081D01*
X030837Y008164D01*
X030855Y008247D01*
X030870Y008332D01*
X030880Y008417D01*
X030886Y008502D01*
X030888Y008588D01*
X030890Y008658D01*
X030896Y008729D01*
X030905Y008798D01*
X030918Y008867D01*
X030935Y008936D01*
X030956Y009003D01*
X030980Y009069D01*
X031008Y009134D01*
X031039Y009197D01*
X031074Y009258D01*
X031112Y009318D01*
X031153Y009375D01*
X031197Y009430D01*
X031244Y009482D01*
X031294Y009532D01*
X031346Y009579D01*
X031401Y009623D01*
X031458Y009664D01*
X031518Y009702D01*
X031579Y009737D01*
X031642Y009768D01*
X031707Y009796D01*
X031773Y009820D01*
X031840Y009841D01*
X031909Y009858D01*
X031978Y009871D01*
X032047Y009880D01*
X032118Y009886D01*
X032188Y009888D01*
X031238Y011188D02*
X031738Y011688D01*
X033688Y023388D02*
X033743Y023390D01*
X033797Y023395D01*
X033851Y023405D01*
X033904Y023418D01*
X033956Y023434D01*
X034007Y023454D01*
X034056Y023478D01*
X034104Y023504D01*
X034149Y023534D01*
X034193Y023567D01*
X034234Y023603D01*
X034273Y023642D01*
X034309Y023683D01*
X034342Y023727D01*
X034372Y023772D01*
X034398Y023820D01*
X034422Y023869D01*
X034442Y023920D01*
X034458Y023972D01*
X034471Y024025D01*
X034481Y024079D01*
X034486Y024133D01*
X034488Y024188D01*
X034488Y024688D01*
D22*
X026088Y010688D03*
X012588Y013088D03*
D23*
X010388Y009388D02*
X010298Y009390D01*
X010207Y009397D01*
X010118Y009407D01*
X010028Y009422D01*
X009940Y009442D01*
X009853Y009465D01*
X009767Y009492D01*
X009682Y009524D01*
X009599Y009560D01*
X009517Y009599D01*
X009438Y009643D01*
X009361Y009690D01*
X009286Y009740D01*
X009213Y009794D01*
X009144Y009852D01*
X009077Y009913D01*
X009013Y009977D01*
X008952Y010044D01*
X008894Y010113D01*
X008840Y010186D01*
X008790Y010261D01*
X008743Y010338D01*
X008699Y010417D01*
X008660Y010499D01*
X008624Y010582D01*
X008592Y010667D01*
X008565Y010753D01*
X008542Y010840D01*
X008522Y010928D01*
X008507Y011018D01*
X008497Y011107D01*
X008490Y011198D01*
X008488Y011288D01*
X008488Y012688D01*
X010388Y009388D02*
X014488Y009388D01*
X014548Y009390D01*
X014609Y009395D01*
X014668Y009404D01*
X014727Y009417D01*
X014786Y009433D01*
X014843Y009453D01*
X014898Y009476D01*
X014953Y009503D01*
X015005Y009532D01*
X015056Y009565D01*
X015105Y009601D01*
X015151Y009639D01*
X015195Y009681D01*
X015237Y009725D01*
X015275Y009771D01*
X015311Y009820D01*
X015344Y009871D01*
X015373Y009923D01*
X015400Y009978D01*
X015423Y010033D01*
X015443Y010090D01*
X015459Y010149D01*
X015472Y010208D01*
X015481Y010267D01*
X015486Y010328D01*
X015488Y010388D01*
X015488Y011788D01*
X015490Y011847D01*
X015496Y011905D01*
X015505Y011964D01*
X015519Y012021D01*
X015536Y012077D01*
X015557Y012132D01*
X015581Y012186D01*
X015609Y012238D01*
X015640Y012288D01*
X015674Y012336D01*
X015711Y012381D01*
X015752Y012424D01*
X015795Y012465D01*
X015840Y012502D01*
X015888Y012536D01*
X015938Y012567D01*
X015990Y012595D01*
X016044Y012619D01*
X016099Y012640D01*
X016155Y012657D01*
X016212Y012671D01*
X016271Y012680D01*
X016329Y012686D01*
X016388Y012688D01*
X016688Y012688D01*
X016743Y012690D01*
X016797Y012695D01*
X016851Y012705D01*
X016904Y012718D01*
X016956Y012734D01*
X017007Y012754D01*
X017056Y012778D01*
X017104Y012804D01*
X017149Y012834D01*
X017193Y012867D01*
X017234Y012903D01*
X017273Y012942D01*
X017309Y012983D01*
X017342Y013027D01*
X017372Y013072D01*
X017398Y013120D01*
X017422Y013169D01*
X017442Y013220D01*
X017458Y013272D01*
X017471Y013325D01*
X017481Y013379D01*
X017486Y013433D01*
X017488Y013488D01*
X017488Y014288D01*
X017488Y015688D01*
X017488Y018488D01*
X017488Y018688D01*
X017488Y018488D02*
X017490Y018429D01*
X017496Y018371D01*
X017505Y018312D01*
X017519Y018255D01*
X017536Y018199D01*
X017557Y018144D01*
X017581Y018090D01*
X017609Y018038D01*
X017640Y017988D01*
X017674Y017940D01*
X017711Y017895D01*
X017752Y017852D01*
X017795Y017811D01*
X017840Y017774D01*
X017888Y017740D01*
X017938Y017709D01*
X017990Y017681D01*
X018044Y017657D01*
X018099Y017636D01*
X018155Y017619D01*
X018212Y017605D01*
X018271Y017596D01*
X018329Y017590D01*
X018388Y017588D01*
X025688Y017588D01*
X025743Y017590D01*
X025797Y017595D01*
X025851Y017605D01*
X025904Y017618D01*
X025956Y017634D01*
X026007Y017654D01*
X026056Y017678D01*
X026104Y017704D01*
X026149Y017734D01*
X026193Y017767D01*
X026234Y017803D01*
X026273Y017842D01*
X026309Y017883D01*
X026342Y017927D01*
X026372Y017972D01*
X026398Y018020D01*
X026422Y018069D01*
X026442Y018120D01*
X026458Y018172D01*
X026471Y018225D01*
X026481Y018279D01*
X026486Y018333D01*
X026488Y018388D01*
X026488Y018688D01*
X026488Y015688D02*
X026488Y014688D01*
X026486Y014628D01*
X026481Y014567D01*
X026472Y014508D01*
X026459Y014449D01*
X026443Y014390D01*
X026423Y014333D01*
X026400Y014278D01*
X026373Y014223D01*
X026344Y014171D01*
X026311Y014120D01*
X026275Y014071D01*
X026237Y014025D01*
X026195Y013981D01*
X026151Y013939D01*
X026105Y013901D01*
X026056Y013865D01*
X026005Y013832D01*
X025953Y013803D01*
X025898Y013776D01*
X025843Y013753D01*
X025786Y013733D01*
X025727Y013717D01*
X025668Y013704D01*
X025609Y013695D01*
X025548Y013690D01*
X025488Y013688D01*
X033988Y013688D01*
X035488Y013688D01*
X025488Y013688D02*
X023388Y013688D01*
X018088Y013688D01*
X018041Y013690D01*
X017994Y013695D01*
X017948Y013705D01*
X017903Y013717D01*
X017858Y013734D01*
X017816Y013753D01*
X017775Y013776D01*
X017735Y013803D01*
X017698Y013832D01*
X017664Y013864D01*
X017632Y013898D01*
X017603Y013935D01*
X017576Y013975D01*
X017553Y014016D01*
X017534Y014058D01*
X017517Y014103D01*
X017505Y014148D01*
X017495Y014194D01*
X017490Y014241D01*
X017488Y014288D01*
X023388Y013688D02*
X023458Y013686D01*
X023529Y013680D01*
X023598Y013671D01*
X023667Y013658D01*
X023736Y013641D01*
X023803Y013620D01*
X023869Y013596D01*
X023934Y013568D01*
X023997Y013537D01*
X024058Y013502D01*
X024118Y013464D01*
X024175Y013423D01*
X024230Y013379D01*
X024282Y013332D01*
X024332Y013282D01*
X024379Y013230D01*
X024423Y013175D01*
X024464Y013118D01*
X024502Y013058D01*
X024537Y012997D01*
X024568Y012934D01*
X024596Y012869D01*
X024620Y012803D01*
X024641Y012736D01*
X024658Y012667D01*
X024671Y012598D01*
X024680Y012529D01*
X024686Y012458D01*
X024688Y012388D01*
X024688Y011688D01*
X024688Y010388D01*
X024690Y010333D01*
X024695Y010279D01*
X024705Y010225D01*
X024718Y010172D01*
X024734Y010120D01*
X024754Y010069D01*
X024778Y010020D01*
X024804Y009972D01*
X024834Y009927D01*
X024867Y009883D01*
X024903Y009842D01*
X024942Y009803D01*
X024983Y009767D01*
X025027Y009734D01*
X025072Y009704D01*
X025120Y009678D01*
X025169Y009654D01*
X025220Y009634D01*
X025272Y009618D01*
X025325Y009605D01*
X025379Y009595D01*
X025433Y009590D01*
X025488Y009588D01*
M02*
