G75*
G70*
%OFA0B0*%
%FSLAX24Y24*%
%IPPOS*%
%LPD*%
%AMOC8*
5,1,8,0,0,1.08239X$1,22.5*
%
%ADD10C,0.0000*%
%ADD11C,0.0040*%
%ADD12C,0.0520*%
%ADD13C,0.0740*%
%ADD14R,0.0740X0.0740*%
%ADD15C,0.0660*%
%ADD16C,0.0515*%
%ADD17OC8,0.0520*%
%ADD18C,0.0520*%
%ADD19C,0.0990*%
%ADD20C,0.0740*%
%ADD21C,0.0160*%
%ADD22C,0.0436*%
%ADD23C,0.0240*%
D10*
X006188Y006188D02*
X006188Y029084D01*
X037158Y029084D01*
X037158Y006188D01*
X006188Y006188D01*
X006838Y007588D02*
X006840Y007638D01*
X006846Y007688D01*
X006856Y007738D01*
X006869Y007786D01*
X006886Y007834D01*
X006907Y007880D01*
X006931Y007924D01*
X006959Y007966D01*
X006990Y008006D01*
X007024Y008043D01*
X007061Y008078D01*
X007100Y008109D01*
X007141Y008138D01*
X007185Y008163D01*
X007231Y008185D01*
X007278Y008203D01*
X007326Y008217D01*
X007375Y008228D01*
X007425Y008235D01*
X007475Y008238D01*
X007526Y008237D01*
X007576Y008232D01*
X007626Y008223D01*
X007674Y008211D01*
X007722Y008194D01*
X007768Y008174D01*
X007813Y008151D01*
X007856Y008124D01*
X007896Y008094D01*
X007934Y008061D01*
X007969Y008025D01*
X008002Y007986D01*
X008031Y007945D01*
X008057Y007902D01*
X008080Y007857D01*
X008099Y007810D01*
X008114Y007762D01*
X008126Y007713D01*
X008134Y007663D01*
X008138Y007613D01*
X008138Y007563D01*
X008134Y007513D01*
X008126Y007463D01*
X008114Y007414D01*
X008099Y007366D01*
X008080Y007319D01*
X008057Y007274D01*
X008031Y007231D01*
X008002Y007190D01*
X007969Y007151D01*
X007934Y007115D01*
X007896Y007082D01*
X007856Y007052D01*
X007813Y007025D01*
X007768Y007002D01*
X007722Y006982D01*
X007674Y006965D01*
X007626Y006953D01*
X007576Y006944D01*
X007526Y006939D01*
X007475Y006938D01*
X007425Y006941D01*
X007375Y006948D01*
X007326Y006959D01*
X007278Y006973D01*
X007231Y006991D01*
X007185Y007013D01*
X007141Y007038D01*
X007100Y007067D01*
X007061Y007098D01*
X007024Y007133D01*
X006990Y007170D01*
X006959Y007210D01*
X006931Y007252D01*
X006907Y007296D01*
X006886Y007342D01*
X006869Y007390D01*
X006856Y007438D01*
X006846Y007488D01*
X006840Y007538D01*
X006838Y007588D01*
X009608Y008188D02*
X009610Y008238D01*
X009616Y008288D01*
X009626Y008337D01*
X009640Y008385D01*
X009657Y008432D01*
X009678Y008477D01*
X009703Y008521D01*
X009731Y008562D01*
X009763Y008601D01*
X009797Y008638D01*
X009834Y008672D01*
X009874Y008702D01*
X009916Y008729D01*
X009960Y008753D01*
X010006Y008774D01*
X010053Y008790D01*
X010101Y008803D01*
X010151Y008812D01*
X010200Y008817D01*
X010251Y008818D01*
X010301Y008815D01*
X010350Y008808D01*
X010399Y008797D01*
X010447Y008782D01*
X010493Y008764D01*
X010538Y008742D01*
X010581Y008716D01*
X010622Y008687D01*
X010661Y008655D01*
X010697Y008620D01*
X010729Y008582D01*
X010759Y008542D01*
X010786Y008499D01*
X010809Y008455D01*
X010828Y008409D01*
X010844Y008361D01*
X010856Y008312D01*
X010864Y008263D01*
X010868Y008213D01*
X010868Y008163D01*
X010864Y008113D01*
X010856Y008064D01*
X010844Y008015D01*
X010828Y007967D01*
X010809Y007921D01*
X010786Y007877D01*
X010759Y007834D01*
X010729Y007794D01*
X010697Y007756D01*
X010661Y007721D01*
X010622Y007689D01*
X010581Y007660D01*
X010538Y007634D01*
X010493Y007612D01*
X010447Y007594D01*
X010399Y007579D01*
X010350Y007568D01*
X010301Y007561D01*
X010251Y007558D01*
X010200Y007559D01*
X010151Y007564D01*
X010101Y007573D01*
X010053Y007586D01*
X010006Y007602D01*
X009960Y007623D01*
X009916Y007647D01*
X009874Y007674D01*
X009834Y007704D01*
X009797Y007738D01*
X009763Y007775D01*
X009731Y007814D01*
X009703Y007855D01*
X009678Y007899D01*
X009657Y007944D01*
X009640Y007991D01*
X009626Y008039D01*
X009616Y008088D01*
X009610Y008138D01*
X009608Y008188D01*
X014108Y008188D02*
X014110Y008238D01*
X014116Y008288D01*
X014126Y008337D01*
X014140Y008385D01*
X014157Y008432D01*
X014178Y008477D01*
X014203Y008521D01*
X014231Y008562D01*
X014263Y008601D01*
X014297Y008638D01*
X014334Y008672D01*
X014374Y008702D01*
X014416Y008729D01*
X014460Y008753D01*
X014506Y008774D01*
X014553Y008790D01*
X014601Y008803D01*
X014651Y008812D01*
X014700Y008817D01*
X014751Y008818D01*
X014801Y008815D01*
X014850Y008808D01*
X014899Y008797D01*
X014947Y008782D01*
X014993Y008764D01*
X015038Y008742D01*
X015081Y008716D01*
X015122Y008687D01*
X015161Y008655D01*
X015197Y008620D01*
X015229Y008582D01*
X015259Y008542D01*
X015286Y008499D01*
X015309Y008455D01*
X015328Y008409D01*
X015344Y008361D01*
X015356Y008312D01*
X015364Y008263D01*
X015368Y008213D01*
X015368Y008163D01*
X015364Y008113D01*
X015356Y008064D01*
X015344Y008015D01*
X015328Y007967D01*
X015309Y007921D01*
X015286Y007877D01*
X015259Y007834D01*
X015229Y007794D01*
X015197Y007756D01*
X015161Y007721D01*
X015122Y007689D01*
X015081Y007660D01*
X015038Y007634D01*
X014993Y007612D01*
X014947Y007594D01*
X014899Y007579D01*
X014850Y007568D01*
X014801Y007561D01*
X014751Y007558D01*
X014700Y007559D01*
X014651Y007564D01*
X014601Y007573D01*
X014553Y007586D01*
X014506Y007602D01*
X014460Y007623D01*
X014416Y007647D01*
X014374Y007674D01*
X014334Y007704D01*
X014297Y007738D01*
X014263Y007775D01*
X014231Y007814D01*
X014203Y007855D01*
X014178Y007899D01*
X014157Y007944D01*
X014140Y007991D01*
X014126Y008039D01*
X014116Y008088D01*
X014110Y008138D01*
X014108Y008188D01*
X016784Y007688D02*
X016786Y007718D01*
X016792Y007748D01*
X016801Y007777D01*
X016814Y007804D01*
X016831Y007829D01*
X016850Y007852D01*
X016873Y007873D01*
X016898Y007890D01*
X016924Y007904D01*
X016953Y007914D01*
X016982Y007921D01*
X017012Y007924D01*
X017043Y007923D01*
X017073Y007918D01*
X017102Y007909D01*
X017129Y007897D01*
X017155Y007882D01*
X017179Y007863D01*
X017200Y007841D01*
X017218Y007817D01*
X017233Y007790D01*
X017244Y007762D01*
X017252Y007733D01*
X017256Y007703D01*
X017256Y007673D01*
X017252Y007643D01*
X017244Y007614D01*
X017233Y007586D01*
X017218Y007559D01*
X017200Y007535D01*
X017179Y007513D01*
X017155Y007494D01*
X017129Y007479D01*
X017102Y007467D01*
X017073Y007458D01*
X017043Y007453D01*
X017012Y007452D01*
X016982Y007455D01*
X016953Y007462D01*
X016924Y007472D01*
X016898Y007486D01*
X016873Y007503D01*
X016850Y007524D01*
X016831Y007547D01*
X016814Y007572D01*
X016801Y007599D01*
X016792Y007628D01*
X016786Y007658D01*
X016784Y007688D01*
X016784Y006704D02*
X016786Y006734D01*
X016792Y006764D01*
X016801Y006793D01*
X016814Y006820D01*
X016831Y006845D01*
X016850Y006868D01*
X016873Y006889D01*
X016898Y006906D01*
X016924Y006920D01*
X016953Y006930D01*
X016982Y006937D01*
X017012Y006940D01*
X017043Y006939D01*
X017073Y006934D01*
X017102Y006925D01*
X017129Y006913D01*
X017155Y006898D01*
X017179Y006879D01*
X017200Y006857D01*
X017218Y006833D01*
X017233Y006806D01*
X017244Y006778D01*
X017252Y006749D01*
X017256Y006719D01*
X017256Y006689D01*
X017252Y006659D01*
X017244Y006630D01*
X017233Y006602D01*
X017218Y006575D01*
X017200Y006551D01*
X017179Y006529D01*
X017155Y006510D01*
X017129Y006495D01*
X017102Y006483D01*
X017073Y006474D01*
X017043Y006469D01*
X017012Y006468D01*
X016982Y006471D01*
X016953Y006478D01*
X016924Y006488D01*
X016898Y006502D01*
X016873Y006519D01*
X016850Y006540D01*
X016831Y006563D01*
X016814Y006588D01*
X016801Y006615D01*
X016792Y006644D01*
X016786Y006674D01*
X016784Y006704D01*
X018752Y009657D02*
X018754Y009687D01*
X018760Y009717D01*
X018769Y009746D01*
X018782Y009773D01*
X018799Y009798D01*
X018818Y009821D01*
X018841Y009842D01*
X018866Y009859D01*
X018892Y009873D01*
X018921Y009883D01*
X018950Y009890D01*
X018980Y009893D01*
X019011Y009892D01*
X019041Y009887D01*
X019070Y009878D01*
X019097Y009866D01*
X019123Y009851D01*
X019147Y009832D01*
X019168Y009810D01*
X019186Y009786D01*
X019201Y009759D01*
X019212Y009731D01*
X019220Y009702D01*
X019224Y009672D01*
X019224Y009642D01*
X019220Y009612D01*
X019212Y009583D01*
X019201Y009555D01*
X019186Y009528D01*
X019168Y009504D01*
X019147Y009482D01*
X019123Y009463D01*
X019097Y009448D01*
X019070Y009436D01*
X019041Y009427D01*
X019011Y009422D01*
X018980Y009421D01*
X018950Y009424D01*
X018921Y009431D01*
X018892Y009441D01*
X018866Y009455D01*
X018841Y009472D01*
X018818Y009493D01*
X018799Y009516D01*
X018782Y009541D01*
X018769Y009568D01*
X018760Y009597D01*
X018754Y009627D01*
X018752Y009657D01*
X020721Y007688D02*
X020723Y007718D01*
X020729Y007748D01*
X020738Y007777D01*
X020751Y007804D01*
X020768Y007829D01*
X020787Y007852D01*
X020810Y007873D01*
X020835Y007890D01*
X020861Y007904D01*
X020890Y007914D01*
X020919Y007921D01*
X020949Y007924D01*
X020980Y007923D01*
X021010Y007918D01*
X021039Y007909D01*
X021066Y007897D01*
X021092Y007882D01*
X021116Y007863D01*
X021137Y007841D01*
X021155Y007817D01*
X021170Y007790D01*
X021181Y007762D01*
X021189Y007733D01*
X021193Y007703D01*
X021193Y007673D01*
X021189Y007643D01*
X021181Y007614D01*
X021170Y007586D01*
X021155Y007559D01*
X021137Y007535D01*
X021116Y007513D01*
X021092Y007494D01*
X021066Y007479D01*
X021039Y007467D01*
X021010Y007458D01*
X020980Y007453D01*
X020949Y007452D01*
X020919Y007455D01*
X020890Y007462D01*
X020861Y007472D01*
X020835Y007486D01*
X020810Y007503D01*
X020787Y007524D01*
X020768Y007547D01*
X020751Y007572D01*
X020738Y007599D01*
X020729Y007628D01*
X020723Y007658D01*
X020721Y007688D01*
X020721Y006704D02*
X020723Y006734D01*
X020729Y006764D01*
X020738Y006793D01*
X020751Y006820D01*
X020768Y006845D01*
X020787Y006868D01*
X020810Y006889D01*
X020835Y006906D01*
X020861Y006920D01*
X020890Y006930D01*
X020919Y006937D01*
X020949Y006940D01*
X020980Y006939D01*
X021010Y006934D01*
X021039Y006925D01*
X021066Y006913D01*
X021092Y006898D01*
X021116Y006879D01*
X021137Y006857D01*
X021155Y006833D01*
X021170Y006806D01*
X021181Y006778D01*
X021189Y006749D01*
X021193Y006719D01*
X021193Y006689D01*
X021189Y006659D01*
X021181Y006630D01*
X021170Y006602D01*
X021155Y006575D01*
X021137Y006551D01*
X021116Y006529D01*
X021092Y006510D01*
X021066Y006495D01*
X021039Y006483D01*
X021010Y006474D01*
X020980Y006469D01*
X020949Y006468D01*
X020919Y006471D01*
X020890Y006478D01*
X020861Y006488D01*
X020835Y006502D01*
X020810Y006519D01*
X020787Y006540D01*
X020768Y006563D01*
X020751Y006588D01*
X020738Y006615D01*
X020729Y006644D01*
X020723Y006674D01*
X020721Y006704D01*
X027108Y008188D02*
X027110Y008238D01*
X027116Y008288D01*
X027126Y008337D01*
X027140Y008385D01*
X027157Y008432D01*
X027178Y008477D01*
X027203Y008521D01*
X027231Y008562D01*
X027263Y008601D01*
X027297Y008638D01*
X027334Y008672D01*
X027374Y008702D01*
X027416Y008729D01*
X027460Y008753D01*
X027506Y008774D01*
X027553Y008790D01*
X027601Y008803D01*
X027651Y008812D01*
X027700Y008817D01*
X027751Y008818D01*
X027801Y008815D01*
X027850Y008808D01*
X027899Y008797D01*
X027947Y008782D01*
X027993Y008764D01*
X028038Y008742D01*
X028081Y008716D01*
X028122Y008687D01*
X028161Y008655D01*
X028197Y008620D01*
X028229Y008582D01*
X028259Y008542D01*
X028286Y008499D01*
X028309Y008455D01*
X028328Y008409D01*
X028344Y008361D01*
X028356Y008312D01*
X028364Y008263D01*
X028368Y008213D01*
X028368Y008163D01*
X028364Y008113D01*
X028356Y008064D01*
X028344Y008015D01*
X028328Y007967D01*
X028309Y007921D01*
X028286Y007877D01*
X028259Y007834D01*
X028229Y007794D01*
X028197Y007756D01*
X028161Y007721D01*
X028122Y007689D01*
X028081Y007660D01*
X028038Y007634D01*
X027993Y007612D01*
X027947Y007594D01*
X027899Y007579D01*
X027850Y007568D01*
X027801Y007561D01*
X027751Y007558D01*
X027700Y007559D01*
X027651Y007564D01*
X027601Y007573D01*
X027553Y007586D01*
X027506Y007602D01*
X027460Y007623D01*
X027416Y007647D01*
X027374Y007674D01*
X027334Y007704D01*
X027297Y007738D01*
X027263Y007775D01*
X027231Y007814D01*
X027203Y007855D01*
X027178Y007899D01*
X027157Y007944D01*
X027140Y007991D01*
X027126Y008039D01*
X027116Y008088D01*
X027110Y008138D01*
X027108Y008188D01*
X031608Y008188D02*
X031610Y008238D01*
X031616Y008288D01*
X031626Y008337D01*
X031640Y008385D01*
X031657Y008432D01*
X031678Y008477D01*
X031703Y008521D01*
X031731Y008562D01*
X031763Y008601D01*
X031797Y008638D01*
X031834Y008672D01*
X031874Y008702D01*
X031916Y008729D01*
X031960Y008753D01*
X032006Y008774D01*
X032053Y008790D01*
X032101Y008803D01*
X032151Y008812D01*
X032200Y008817D01*
X032251Y008818D01*
X032301Y008815D01*
X032350Y008808D01*
X032399Y008797D01*
X032447Y008782D01*
X032493Y008764D01*
X032538Y008742D01*
X032581Y008716D01*
X032622Y008687D01*
X032661Y008655D01*
X032697Y008620D01*
X032729Y008582D01*
X032759Y008542D01*
X032786Y008499D01*
X032809Y008455D01*
X032828Y008409D01*
X032844Y008361D01*
X032856Y008312D01*
X032864Y008263D01*
X032868Y008213D01*
X032868Y008163D01*
X032864Y008113D01*
X032856Y008064D01*
X032844Y008015D01*
X032828Y007967D01*
X032809Y007921D01*
X032786Y007877D01*
X032759Y007834D01*
X032729Y007794D01*
X032697Y007756D01*
X032661Y007721D01*
X032622Y007689D01*
X032581Y007660D01*
X032538Y007634D01*
X032493Y007612D01*
X032447Y007594D01*
X032399Y007579D01*
X032350Y007568D01*
X032301Y007561D01*
X032251Y007558D01*
X032200Y007559D01*
X032151Y007564D01*
X032101Y007573D01*
X032053Y007586D01*
X032006Y007602D01*
X031960Y007623D01*
X031916Y007647D01*
X031874Y007674D01*
X031834Y007704D01*
X031797Y007738D01*
X031763Y007775D01*
X031731Y007814D01*
X031703Y007855D01*
X031678Y007899D01*
X031657Y007944D01*
X031640Y007991D01*
X031626Y008039D01*
X031616Y008088D01*
X031610Y008138D01*
X031608Y008188D01*
X035238Y007588D02*
X035240Y007638D01*
X035246Y007688D01*
X035256Y007738D01*
X035269Y007786D01*
X035286Y007834D01*
X035307Y007880D01*
X035331Y007924D01*
X035359Y007966D01*
X035390Y008006D01*
X035424Y008043D01*
X035461Y008078D01*
X035500Y008109D01*
X035541Y008138D01*
X035585Y008163D01*
X035631Y008185D01*
X035678Y008203D01*
X035726Y008217D01*
X035775Y008228D01*
X035825Y008235D01*
X035875Y008238D01*
X035926Y008237D01*
X035976Y008232D01*
X036026Y008223D01*
X036074Y008211D01*
X036122Y008194D01*
X036168Y008174D01*
X036213Y008151D01*
X036256Y008124D01*
X036296Y008094D01*
X036334Y008061D01*
X036369Y008025D01*
X036402Y007986D01*
X036431Y007945D01*
X036457Y007902D01*
X036480Y007857D01*
X036499Y007810D01*
X036514Y007762D01*
X036526Y007713D01*
X036534Y007663D01*
X036538Y007613D01*
X036538Y007563D01*
X036534Y007513D01*
X036526Y007463D01*
X036514Y007414D01*
X036499Y007366D01*
X036480Y007319D01*
X036457Y007274D01*
X036431Y007231D01*
X036402Y007190D01*
X036369Y007151D01*
X036334Y007115D01*
X036296Y007082D01*
X036256Y007052D01*
X036213Y007025D01*
X036168Y007002D01*
X036122Y006982D01*
X036074Y006965D01*
X036026Y006953D01*
X035976Y006944D01*
X035926Y006939D01*
X035875Y006938D01*
X035825Y006941D01*
X035775Y006948D01*
X035726Y006959D01*
X035678Y006973D01*
X035631Y006991D01*
X035585Y007013D01*
X035541Y007038D01*
X035500Y007067D01*
X035461Y007098D01*
X035424Y007133D01*
X035390Y007170D01*
X035359Y007210D01*
X035331Y007252D01*
X035307Y007296D01*
X035286Y007342D01*
X035269Y007390D01*
X035256Y007438D01*
X035246Y007488D01*
X035240Y007538D01*
X035238Y007588D01*
X035238Y027788D02*
X035240Y027838D01*
X035246Y027888D01*
X035256Y027938D01*
X035269Y027986D01*
X035286Y028034D01*
X035307Y028080D01*
X035331Y028124D01*
X035359Y028166D01*
X035390Y028206D01*
X035424Y028243D01*
X035461Y028278D01*
X035500Y028309D01*
X035541Y028338D01*
X035585Y028363D01*
X035631Y028385D01*
X035678Y028403D01*
X035726Y028417D01*
X035775Y028428D01*
X035825Y028435D01*
X035875Y028438D01*
X035926Y028437D01*
X035976Y028432D01*
X036026Y028423D01*
X036074Y028411D01*
X036122Y028394D01*
X036168Y028374D01*
X036213Y028351D01*
X036256Y028324D01*
X036296Y028294D01*
X036334Y028261D01*
X036369Y028225D01*
X036402Y028186D01*
X036431Y028145D01*
X036457Y028102D01*
X036480Y028057D01*
X036499Y028010D01*
X036514Y027962D01*
X036526Y027913D01*
X036534Y027863D01*
X036538Y027813D01*
X036538Y027763D01*
X036534Y027713D01*
X036526Y027663D01*
X036514Y027614D01*
X036499Y027566D01*
X036480Y027519D01*
X036457Y027474D01*
X036431Y027431D01*
X036402Y027390D01*
X036369Y027351D01*
X036334Y027315D01*
X036296Y027282D01*
X036256Y027252D01*
X036213Y027225D01*
X036168Y027202D01*
X036122Y027182D01*
X036074Y027165D01*
X036026Y027153D01*
X035976Y027144D01*
X035926Y027139D01*
X035875Y027138D01*
X035825Y027141D01*
X035775Y027148D01*
X035726Y027159D01*
X035678Y027173D01*
X035631Y027191D01*
X035585Y027213D01*
X035541Y027238D01*
X035500Y027267D01*
X035461Y027298D01*
X035424Y027333D01*
X035390Y027370D01*
X035359Y027410D01*
X035331Y027452D01*
X035307Y027496D01*
X035286Y027542D01*
X035269Y027590D01*
X035256Y027638D01*
X035246Y027688D01*
X035240Y027738D01*
X035238Y027788D01*
X006838Y027788D02*
X006840Y027838D01*
X006846Y027888D01*
X006856Y027938D01*
X006869Y027986D01*
X006886Y028034D01*
X006907Y028080D01*
X006931Y028124D01*
X006959Y028166D01*
X006990Y028206D01*
X007024Y028243D01*
X007061Y028278D01*
X007100Y028309D01*
X007141Y028338D01*
X007185Y028363D01*
X007231Y028385D01*
X007278Y028403D01*
X007326Y028417D01*
X007375Y028428D01*
X007425Y028435D01*
X007475Y028438D01*
X007526Y028437D01*
X007576Y028432D01*
X007626Y028423D01*
X007674Y028411D01*
X007722Y028394D01*
X007768Y028374D01*
X007813Y028351D01*
X007856Y028324D01*
X007896Y028294D01*
X007934Y028261D01*
X007969Y028225D01*
X008002Y028186D01*
X008031Y028145D01*
X008057Y028102D01*
X008080Y028057D01*
X008099Y028010D01*
X008114Y027962D01*
X008126Y027913D01*
X008134Y027863D01*
X008138Y027813D01*
X008138Y027763D01*
X008134Y027713D01*
X008126Y027663D01*
X008114Y027614D01*
X008099Y027566D01*
X008080Y027519D01*
X008057Y027474D01*
X008031Y027431D01*
X008002Y027390D01*
X007969Y027351D01*
X007934Y027315D01*
X007896Y027282D01*
X007856Y027252D01*
X007813Y027225D01*
X007768Y027202D01*
X007722Y027182D01*
X007674Y027165D01*
X007626Y027153D01*
X007576Y027144D01*
X007526Y027139D01*
X007475Y027138D01*
X007425Y027141D01*
X007375Y027148D01*
X007326Y027159D01*
X007278Y027173D01*
X007231Y027191D01*
X007185Y027213D01*
X007141Y027238D01*
X007100Y027267D01*
X007061Y027298D01*
X007024Y027333D01*
X006990Y027370D01*
X006959Y027410D01*
X006931Y027452D01*
X006907Y027496D01*
X006886Y027542D01*
X006869Y027590D01*
X006856Y027638D01*
X006846Y027688D01*
X006840Y027738D01*
X006838Y027788D01*
D11*
X011036Y028269D02*
X011209Y028269D01*
X011379Y028269D02*
X011553Y028269D01*
X011721Y028269D02*
X011808Y028355D01*
X011982Y028355D01*
X012068Y028269D01*
X012068Y028095D01*
X011982Y028008D01*
X011808Y028008D01*
X011721Y028095D01*
X011721Y028269D01*
X011466Y028442D02*
X011379Y028529D01*
X011466Y028442D02*
X011466Y028008D01*
X011122Y028008D02*
X011122Y028442D01*
X011036Y028529D01*
X013806Y028269D02*
X013806Y028008D01*
X013806Y028269D02*
X013893Y028355D01*
X014153Y028355D01*
X014153Y028008D01*
X014321Y028095D02*
X014321Y028269D01*
X014408Y028355D01*
X014582Y028355D01*
X014668Y028269D01*
X014668Y028095D01*
X014582Y028008D01*
X014408Y028008D01*
X014321Y028095D01*
X015495Y027729D02*
X015495Y027208D01*
X015668Y027208D02*
X015321Y027208D01*
X015408Y026729D02*
X015582Y026729D01*
X015668Y026642D01*
X015408Y026729D02*
X015321Y026642D01*
X015321Y026555D01*
X015668Y026208D01*
X015321Y026208D01*
X015668Y027555D02*
X015495Y027729D01*
X034608Y019065D02*
X034608Y018718D01*
X034608Y018549D02*
X034608Y018202D01*
X034608Y018376D02*
X035129Y018376D01*
X034955Y018202D01*
X035042Y018033D02*
X034695Y018033D01*
X034608Y017947D01*
X034608Y017773D01*
X034695Y017686D01*
X035042Y018033D01*
X035129Y017947D01*
X035129Y017773D01*
X035042Y017686D01*
X034695Y017686D01*
X034608Y017518D02*
X034608Y017171D01*
X034955Y017518D01*
X035042Y017518D01*
X035129Y017431D01*
X035129Y017258D01*
X035042Y017171D01*
X034955Y017002D02*
X034608Y016829D01*
X034955Y016655D01*
X034869Y016487D02*
X034955Y016400D01*
X034955Y016226D01*
X034869Y016140D01*
X034695Y016140D01*
X034608Y016226D01*
X034608Y016400D01*
X034695Y016487D01*
X034869Y016487D01*
X035448Y016485D02*
X035795Y016485D01*
X035795Y016745D01*
X035709Y016832D01*
X035448Y016832D01*
X035448Y016314D02*
X035448Y016141D01*
X035448Y016228D02*
X035795Y016228D01*
X035795Y016141D01*
X035709Y015972D02*
X035448Y015972D01*
X035448Y015712D01*
X035535Y015625D01*
X035622Y015712D01*
X035622Y015972D01*
X035709Y015972D02*
X035795Y015886D01*
X035795Y015712D01*
X035969Y015457D02*
X035448Y015457D01*
X035129Y015455D02*
X035129Y015108D01*
X034869Y015108D01*
X034955Y015282D01*
X034955Y015369D01*
X034869Y015455D01*
X034695Y015455D01*
X034608Y015369D01*
X034608Y015195D01*
X034695Y015108D01*
X034608Y015624D02*
X035129Y015624D01*
X034608Y015971D01*
X035129Y015971D01*
X035969Y016228D02*
X036056Y016228D01*
X035969Y015457D02*
X035795Y015283D01*
X035969Y015110D01*
X035448Y015110D01*
X035448Y017516D02*
X035448Y017776D01*
X035535Y017863D01*
X035622Y017863D01*
X035709Y017776D01*
X035709Y017516D01*
X035969Y017516D02*
X035969Y017776D01*
X035882Y017863D01*
X035795Y017863D01*
X035709Y017776D01*
X035709Y018032D02*
X035535Y018032D01*
X035448Y018118D01*
X035448Y018292D01*
X035535Y018379D01*
X035709Y018379D01*
X035795Y018292D01*
X035795Y018118D01*
X035709Y018032D01*
X035535Y018547D02*
X035622Y018634D01*
X035622Y018894D01*
X035709Y018894D02*
X035448Y018894D01*
X035448Y018634D01*
X035535Y018547D01*
X035795Y018634D02*
X035795Y018807D01*
X035709Y018894D01*
X035795Y019063D02*
X035448Y019063D01*
X035622Y019063D02*
X035795Y019236D01*
X035795Y019323D01*
X035709Y019493D02*
X035795Y019579D01*
X035795Y019840D01*
X035969Y019840D02*
X035448Y019840D01*
X035448Y019579D01*
X035535Y019493D01*
X035709Y019493D01*
X035129Y018891D02*
X034608Y018891D01*
X034955Y018718D02*
X035129Y018891D01*
X035448Y017516D02*
X035969Y017516D01*
D12*
X033488Y018428D02*
X033488Y018948D01*
X032488Y018948D02*
X032488Y018428D01*
X031488Y018428D02*
X031488Y018948D01*
X030488Y018948D02*
X030488Y018428D01*
X029488Y018428D02*
X029488Y018948D01*
X028488Y018948D02*
X028488Y018428D01*
X027488Y018428D02*
X027488Y018948D01*
X026488Y018948D02*
X026488Y018428D01*
X024488Y018428D02*
X024488Y018948D01*
X023488Y018948D02*
X023488Y018428D01*
X022488Y018428D02*
X022488Y018948D01*
X021488Y018948D02*
X021488Y018428D01*
X020488Y018428D02*
X020488Y018948D01*
X019488Y018948D02*
X019488Y018428D01*
X018488Y018428D02*
X018488Y018948D01*
X017488Y018948D02*
X017488Y018428D01*
X014748Y018188D02*
X014228Y018188D01*
X014228Y019188D02*
X014748Y019188D01*
X014748Y020188D02*
X014228Y020188D01*
X014228Y021188D02*
X014748Y021188D01*
X014748Y022188D02*
X014228Y022188D01*
X014228Y023188D02*
X014748Y023188D01*
X011748Y023188D02*
X011228Y023188D01*
X011228Y022188D02*
X011748Y022188D01*
X011748Y021188D02*
X011228Y021188D01*
X011228Y020188D02*
X011748Y020188D01*
X011748Y019188D02*
X011228Y019188D01*
X011228Y018188D02*
X011748Y018188D01*
X011748Y017188D02*
X011228Y017188D01*
X011228Y016188D02*
X011748Y016188D01*
X011748Y015188D02*
X011228Y015188D01*
X011228Y014188D02*
X011748Y014188D01*
X014228Y014188D02*
X014748Y014188D01*
X014748Y015188D02*
X014228Y015188D01*
X014228Y016188D02*
X014748Y016188D01*
X014748Y017188D02*
X014228Y017188D01*
X017488Y015948D02*
X017488Y015428D01*
X018488Y015428D02*
X018488Y015948D01*
X019488Y015948D02*
X019488Y015428D01*
X020488Y015428D02*
X020488Y015948D01*
X021488Y015948D02*
X021488Y015428D01*
X022488Y015428D02*
X022488Y015948D01*
X023488Y015948D02*
X023488Y015428D01*
X024488Y015428D02*
X024488Y015948D01*
X026488Y015948D02*
X026488Y015428D01*
X027488Y015428D02*
X027488Y015948D01*
X028488Y015948D02*
X028488Y015428D01*
X029488Y015428D02*
X029488Y015948D01*
X030488Y015948D02*
X030488Y015428D01*
X031488Y015428D02*
X031488Y015948D01*
X032488Y015948D02*
X032488Y015428D01*
X033488Y015428D02*
X033488Y015948D01*
X033488Y021428D02*
X033488Y021948D01*
X032488Y021948D02*
X032488Y021428D01*
X031488Y021428D02*
X031488Y021948D01*
X030488Y021948D02*
X030488Y021428D01*
X029488Y021428D02*
X029488Y021948D01*
X028488Y021948D02*
X028488Y021428D01*
X027488Y021428D02*
X027488Y021948D01*
X025488Y021948D02*
X025488Y021428D01*
X024488Y021428D02*
X024488Y021948D01*
X023488Y021948D02*
X023488Y021428D01*
X022488Y021428D02*
X022488Y021948D01*
X021488Y021948D02*
X021488Y021428D01*
X020488Y021428D02*
X020488Y021948D01*
X019488Y021948D02*
X019488Y021428D01*
X018488Y021428D02*
X018488Y021948D01*
X018488Y024428D02*
X018488Y024948D01*
X019488Y024948D02*
X019488Y024428D01*
X020488Y024428D02*
X020488Y024948D01*
X021488Y024948D02*
X021488Y024428D01*
X022488Y024428D02*
X022488Y024948D01*
X023488Y024948D02*
X023488Y024428D01*
X024488Y024428D02*
X024488Y024948D01*
X025488Y024948D02*
X025488Y024428D01*
X027488Y024428D02*
X027488Y024948D01*
X028488Y024948D02*
X028488Y024428D01*
X029488Y024428D02*
X029488Y024948D01*
X030488Y024948D02*
X030488Y024428D01*
X031488Y024428D02*
X031488Y024948D01*
X032488Y024948D02*
X032488Y024428D01*
X033488Y024428D02*
X033488Y024948D01*
X034488Y024948D02*
X034488Y024428D01*
X034488Y021948D02*
X034488Y021428D01*
X014648Y026388D02*
X014128Y026388D01*
X014128Y027388D02*
X014648Y027388D01*
X011648Y027388D02*
X011128Y027388D01*
X011128Y026388D02*
X011648Y026388D01*
D13*
X017488Y027188D03*
X018488Y027188D03*
X019488Y027188D03*
X020488Y027188D03*
X021488Y027188D03*
X022488Y027188D03*
X023488Y027188D03*
X026488Y027188D03*
X027488Y027188D03*
X028488Y027188D03*
X029488Y027188D03*
X030488Y027188D03*
X031488Y027188D03*
X032488Y027188D03*
X031738Y011688D03*
X030738Y011688D03*
X029738Y011688D03*
X028738Y011688D03*
X029238Y010688D03*
X030238Y010688D03*
X031238Y010688D03*
X014238Y011688D03*
X013238Y011688D03*
X012238Y011688D03*
X011238Y011688D03*
X011738Y010688D03*
X012738Y010688D03*
X013738Y010688D03*
X007988Y017688D03*
D14*
X010738Y010688D03*
X028238Y010688D03*
X024488Y027188D03*
X033488Y027188D03*
D15*
X020988Y011688D03*
X016988Y011688D03*
D16*
X023288Y011688D03*
X023988Y011688D03*
X024688Y011688D03*
D17*
X025488Y008788D03*
X022988Y008788D03*
X033988Y010688D03*
X035488Y010688D03*
X035488Y013688D03*
X033988Y013688D03*
X014488Y024688D03*
X013488Y024688D03*
X009488Y023188D03*
X007988Y023188D03*
X007988Y020188D03*
X008988Y020188D03*
X009988Y016588D03*
X007988Y015438D03*
X007488Y014688D03*
X008488Y014688D03*
X009988Y013588D03*
X009488Y026188D03*
X007988Y026188D03*
D18*
X022988Y009588D03*
X025488Y009588D03*
D19*
X020957Y009657D03*
X019973Y009657D03*
X018004Y009657D03*
X017020Y009657D03*
X018988Y007688D03*
D20*
X008488Y012318D02*
X008488Y013058D01*
X007488Y013058D02*
X007488Y012318D01*
D21*
X007105Y011896D02*
X006668Y011896D01*
X006668Y012054D02*
X006981Y012054D01*
X007005Y011995D02*
X007165Y011835D01*
X007375Y011748D01*
X007602Y011748D01*
X007811Y011835D01*
X007972Y011995D01*
X007988Y012036D01*
X008005Y011995D01*
X008165Y011835D01*
X008375Y011748D01*
X008602Y011748D01*
X008811Y011835D01*
X008972Y011995D01*
X009058Y012205D01*
X009058Y013172D01*
X008972Y013381D01*
X008811Y013542D01*
X008602Y013628D01*
X008375Y013628D01*
X008165Y013542D01*
X008005Y013381D01*
X007988Y013341D01*
X007972Y013381D01*
X007811Y013542D01*
X007808Y013543D01*
X007808Y014358D01*
X007948Y014498D01*
X007948Y014879D01*
X007849Y014978D01*
X008156Y014978D01*
X008048Y014871D01*
X008048Y014689D01*
X008488Y014689D01*
X008488Y015128D01*
X008329Y015128D01*
X008448Y015248D01*
X008448Y015502D01*
X009254Y016308D01*
X009618Y016308D01*
X009798Y016128D01*
X010179Y016128D01*
X010448Y016398D01*
X010448Y016779D01*
X010179Y017048D01*
X009798Y017048D01*
X009618Y016868D01*
X009083Y016868D01*
X008980Y016826D01*
X008901Y016747D01*
X008052Y015898D01*
X007798Y015898D01*
X007528Y015629D01*
X007528Y015248D01*
X007628Y015148D01*
X007298Y015148D01*
X007028Y014879D01*
X007028Y014498D01*
X007168Y014358D01*
X007168Y013543D01*
X007165Y013542D01*
X007005Y013381D01*
X006918Y013172D01*
X006918Y012205D01*
X007005Y011995D01*
X006918Y012213D02*
X006668Y012213D01*
X006668Y012372D02*
X006918Y012372D01*
X006918Y012530D02*
X006668Y012530D01*
X006668Y012689D02*
X006918Y012689D01*
X006918Y012847D02*
X006668Y012847D01*
X006668Y013006D02*
X006918Y013006D01*
X006918Y013164D02*
X006668Y013164D01*
X006668Y013323D02*
X006981Y013323D01*
X007105Y013481D02*
X006668Y013481D01*
X006668Y013640D02*
X007168Y013640D01*
X007168Y013798D02*
X006668Y013798D01*
X006668Y013957D02*
X007168Y013957D01*
X007168Y014116D02*
X006668Y014116D01*
X006668Y014274D02*
X007168Y014274D01*
X007094Y014433D02*
X006668Y014433D01*
X006668Y014591D02*
X007028Y014591D01*
X007028Y014750D02*
X006668Y014750D01*
X006668Y014908D02*
X007058Y014908D01*
X007216Y015067D02*
X006668Y015067D01*
X006668Y015225D02*
X007551Y015225D01*
X007528Y015384D02*
X006668Y015384D01*
X006668Y015542D02*
X007528Y015542D01*
X007600Y015701D02*
X006668Y015701D01*
X006668Y015859D02*
X007759Y015859D01*
X008172Y016018D02*
X006668Y016018D01*
X006668Y016177D02*
X008331Y016177D01*
X008489Y016335D02*
X006668Y016335D01*
X006668Y016494D02*
X008648Y016494D01*
X008806Y016652D02*
X006668Y016652D01*
X006668Y016811D02*
X008965Y016811D01*
X009138Y016588D02*
X009988Y016588D01*
X010448Y016652D02*
X013308Y016652D01*
X013308Y016494D02*
X012094Y016494D01*
X012119Y016468D02*
X012009Y016578D01*
X011840Y016648D01*
X011137Y016648D01*
X010968Y016578D01*
X010838Y016449D01*
X010768Y016280D01*
X010768Y016097D01*
X010838Y015928D01*
X010968Y015798D01*
X011137Y015728D01*
X011840Y015728D01*
X012009Y015798D01*
X012119Y015908D01*
X012172Y015908D01*
X013008Y015072D01*
X013008Y014864D01*
X012447Y015426D01*
X012344Y015468D01*
X012233Y015468D01*
X012119Y015468D01*
X012009Y015578D01*
X011840Y015648D01*
X011137Y015648D01*
X010968Y015578D01*
X010838Y015449D01*
X010768Y015280D01*
X010768Y015097D01*
X010838Y014928D01*
X010968Y014798D01*
X011137Y014728D01*
X011840Y014728D01*
X012009Y014798D01*
X012119Y014908D01*
X012172Y014908D01*
X012708Y014372D01*
X012708Y013491D01*
X012671Y013506D01*
X012505Y013506D01*
X012352Y013443D01*
X012277Y013368D01*
X010604Y013368D01*
X010448Y013524D01*
X010448Y013779D01*
X010179Y014048D01*
X009798Y014048D01*
X009528Y013779D01*
X009528Y013398D01*
X009798Y013128D01*
X010052Y013128D01*
X010330Y012851D01*
X010433Y012808D01*
X010544Y012808D01*
X011612Y012808D01*
X011018Y012214D01*
X010915Y012172D01*
X010755Y012011D01*
X010668Y011802D01*
X010668Y011575D01*
X010755Y011365D01*
X010882Y011238D01*
X010757Y011238D01*
X010757Y010707D01*
X010720Y010707D01*
X010720Y011238D01*
X010345Y011238D01*
X010299Y011226D01*
X010258Y011202D01*
X010224Y011169D01*
X010201Y011128D01*
X010188Y011082D01*
X010188Y010707D01*
X010720Y010707D01*
X010720Y010670D01*
X010757Y010670D01*
X010757Y010138D01*
X011132Y010138D01*
X011178Y010151D01*
X011219Y010174D01*
X011252Y010208D01*
X011276Y010249D01*
X011288Y010295D01*
X011288Y010332D01*
X011415Y010205D01*
X011518Y010163D01*
X012430Y009251D01*
X012533Y009208D01*
X012644Y009208D01*
X014285Y009208D01*
X014057Y009076D01*
X013850Y008870D01*
X013704Y008617D01*
X013628Y008334D01*
X013628Y008042D01*
X013704Y007760D01*
X013850Y007507D01*
X014057Y007300D01*
X014310Y007154D01*
X014592Y007078D01*
X014884Y007078D01*
X015167Y007154D01*
X015420Y007300D01*
X015626Y007507D01*
X015773Y007760D01*
X015848Y008042D01*
X015848Y008334D01*
X015773Y008617D01*
X015626Y008870D01*
X015420Y009076D01*
X015191Y009208D01*
X015572Y009208D01*
X016330Y008451D01*
X016433Y008408D01*
X016544Y008408D01*
X021972Y008408D01*
X022730Y007651D01*
X022833Y007608D01*
X022944Y007608D01*
X025533Y007608D01*
X025644Y007608D01*
X025747Y007651D01*
X026701Y008605D01*
X026628Y008334D01*
X026628Y008042D01*
X026704Y007760D01*
X026850Y007507D01*
X027057Y007300D01*
X027310Y007154D01*
X027592Y007078D01*
X027884Y007078D01*
X028167Y007154D01*
X028420Y007300D01*
X028626Y007507D01*
X028773Y007760D01*
X028848Y008042D01*
X028848Y008334D01*
X028773Y008617D01*
X028626Y008870D01*
X028420Y009076D01*
X028167Y009223D01*
X027884Y009298D01*
X027592Y009298D01*
X027322Y009226D01*
X027704Y009608D01*
X029233Y009608D01*
X029344Y009608D01*
X035144Y009608D01*
X035247Y009651D01*
X035326Y009730D01*
X035726Y010130D01*
X035768Y010233D01*
X035768Y010318D01*
X035948Y010498D01*
X035948Y010879D01*
X035679Y011148D01*
X035298Y011148D01*
X035028Y010879D01*
X035028Y010498D01*
X035165Y010361D01*
X034972Y010168D01*
X031472Y010168D01*
X031561Y010205D01*
X031722Y010365D01*
X031808Y010575D01*
X031808Y010802D01*
X031722Y011011D01*
X031607Y011126D01*
X031625Y011118D01*
X031852Y011118D01*
X032061Y011205D01*
X032222Y011365D01*
X032308Y011575D01*
X032308Y011802D01*
X032222Y012011D01*
X032061Y012172D01*
X031852Y012258D01*
X031625Y012258D01*
X031415Y012172D01*
X031255Y012011D01*
X031238Y011971D01*
X031222Y012011D01*
X031061Y012172D01*
X030852Y012258D01*
X030625Y012258D01*
X030415Y012172D01*
X030255Y012011D01*
X030238Y011971D01*
X030222Y012011D01*
X030061Y012172D01*
X029852Y012258D01*
X029625Y012258D01*
X029415Y012172D01*
X029255Y012011D01*
X029238Y011971D01*
X029222Y012011D01*
X029068Y012164D01*
X029068Y012308D01*
X033372Y012308D01*
X033708Y011972D01*
X033708Y011059D01*
X033528Y010879D01*
X033528Y010498D01*
X033798Y010228D01*
X034179Y010228D01*
X034448Y010498D01*
X034448Y010879D01*
X034268Y011059D01*
X034268Y012144D01*
X034226Y012247D01*
X034147Y012326D01*
X033647Y012826D01*
X033544Y012868D01*
X033433Y012868D01*
X030664Y012868D01*
X032726Y014930D01*
X032768Y015033D01*
X032768Y015058D01*
X032878Y015168D01*
X032948Y015337D01*
X032948Y016040D01*
X032878Y016209D01*
X032749Y016338D01*
X032580Y016408D01*
X032397Y016408D01*
X032228Y016338D01*
X032098Y016209D01*
X032028Y016040D01*
X032028Y015337D01*
X032098Y015168D01*
X032135Y015131D01*
X030172Y013168D01*
X028064Y013168D01*
X029726Y014830D01*
X029768Y014933D01*
X029768Y015044D01*
X029768Y015058D01*
X029878Y015168D01*
X029948Y015337D01*
X029948Y016040D01*
X029878Y016209D01*
X029749Y016338D01*
X029580Y016408D01*
X029397Y016408D01*
X029228Y016338D01*
X029098Y016209D01*
X029028Y016040D01*
X029028Y015337D01*
X029098Y015168D01*
X029185Y015081D01*
X027572Y013468D01*
X026264Y013468D01*
X027647Y014851D01*
X027726Y014930D01*
X027768Y015033D01*
X027768Y015058D01*
X027878Y015168D01*
X027948Y015337D01*
X027948Y016040D01*
X027878Y016209D01*
X027749Y016338D01*
X027580Y016408D01*
X027397Y016408D01*
X027228Y016338D01*
X027098Y016209D01*
X027028Y016040D01*
X027028Y015337D01*
X027098Y015168D01*
X027135Y015131D01*
X025772Y013768D01*
X021064Y013768D01*
X021726Y014430D01*
X021768Y014533D01*
X021768Y014644D01*
X021768Y015058D01*
X021878Y015168D01*
X021948Y015337D01*
X021948Y016040D01*
X021878Y016209D01*
X021749Y016338D01*
X021580Y016408D01*
X021397Y016408D01*
X021228Y016338D01*
X021098Y016209D01*
X021028Y016040D01*
X021028Y015337D01*
X021098Y015168D01*
X021208Y015058D01*
X021208Y014704D01*
X020572Y014068D01*
X019364Y014068D01*
X019726Y014430D01*
X019768Y014533D01*
X019768Y014644D01*
X019768Y015058D01*
X019878Y015168D01*
X019948Y015337D01*
X019948Y016040D01*
X019878Y016208D01*
X019972Y016208D01*
X020061Y016119D01*
X020028Y016040D01*
X020028Y015337D01*
X020098Y015168D01*
X020228Y015038D01*
X020397Y014968D01*
X020580Y014968D01*
X020749Y015038D01*
X020878Y015168D01*
X020948Y015337D01*
X020948Y016040D01*
X020878Y016209D01*
X020749Y016338D01*
X020580Y016408D01*
X020564Y016408D01*
X020464Y016508D01*
X027772Y016508D01*
X028091Y016190D01*
X028028Y016040D01*
X028028Y015337D01*
X028098Y015168D01*
X028228Y015038D01*
X028397Y014968D01*
X028580Y014968D01*
X028749Y015038D01*
X028878Y015168D01*
X028948Y015337D01*
X028948Y016040D01*
X028878Y016209D01*
X028749Y016338D01*
X028724Y016349D01*
X028647Y016426D01*
X028264Y016808D01*
X029572Y016808D01*
X030135Y016246D01*
X030098Y016209D01*
X030028Y016040D01*
X030028Y015337D01*
X030098Y015168D01*
X030228Y015038D01*
X030397Y014968D01*
X030580Y014968D01*
X030749Y015038D01*
X030878Y015168D01*
X030948Y015337D01*
X030948Y016040D01*
X030878Y016209D01*
X030768Y016319D01*
X030768Y016344D01*
X030726Y016447D01*
X030647Y016526D01*
X029847Y017326D01*
X029744Y017368D01*
X029633Y017368D01*
X017204Y017368D01*
X015968Y018604D01*
X015968Y019144D01*
X015926Y019247D01*
X015847Y019326D01*
X015326Y019847D01*
X015247Y019926D01*
X015153Y019964D01*
X015208Y020097D01*
X015208Y020280D01*
X015138Y020449D01*
X015009Y020578D01*
X014840Y020648D01*
X014137Y020648D01*
X013968Y020578D01*
X013838Y020449D01*
X013768Y020280D01*
X013768Y020204D01*
X013768Y020844D01*
X013726Y020947D01*
X013647Y021026D01*
X012247Y022426D01*
X012144Y022468D01*
X012119Y022468D01*
X012009Y022578D01*
X011840Y022648D01*
X011137Y022648D01*
X010968Y022578D01*
X010838Y022449D01*
X010768Y022280D01*
X010768Y022097D01*
X010838Y021928D01*
X010968Y021798D01*
X011137Y021728D01*
X011840Y021728D01*
X012009Y021798D01*
X012046Y021835D01*
X013208Y020672D01*
X013208Y020464D01*
X012247Y021426D01*
X012144Y021468D01*
X012119Y021468D01*
X012009Y021578D01*
X011840Y021648D01*
X011137Y021648D01*
X010968Y021578D01*
X010838Y021449D01*
X010768Y021280D01*
X010768Y021097D01*
X010838Y020928D01*
X010968Y020798D01*
X011137Y020728D01*
X011840Y020728D01*
X012009Y020798D01*
X012046Y020835D01*
X012808Y020072D01*
X012808Y019444D01*
X012808Y019333D01*
X012851Y019230D01*
X013551Y018530D01*
X013630Y018451D01*
X013733Y018408D01*
X013822Y018408D01*
X013768Y018280D01*
X013768Y018097D01*
X013838Y017928D01*
X013968Y017798D01*
X014137Y017728D01*
X014840Y017728D01*
X014990Y017791D01*
X016451Y016330D01*
X016451Y016330D01*
X016530Y016251D01*
X016633Y016208D01*
X017098Y016208D01*
X017028Y016040D01*
X017028Y015337D01*
X017098Y015168D01*
X017228Y015038D01*
X017397Y014968D01*
X017580Y014968D01*
X017749Y015038D01*
X017878Y015168D01*
X017948Y015337D01*
X017948Y016040D01*
X017878Y016208D01*
X018098Y016208D01*
X018028Y016040D01*
X018028Y015337D01*
X018098Y015168D01*
X018208Y015058D01*
X018208Y014904D01*
X017972Y014668D01*
X016904Y014668D01*
X015868Y015704D01*
X015868Y016644D01*
X015826Y016747D01*
X015747Y016826D01*
X015226Y017347D01*
X015149Y017424D01*
X015138Y017449D01*
X015009Y017578D01*
X014840Y017648D01*
X014137Y017648D01*
X013968Y017578D01*
X013838Y017449D01*
X013768Y017280D01*
X013768Y017204D01*
X013747Y017226D01*
X012547Y018426D01*
X012444Y018468D01*
X012333Y018468D01*
X012119Y018468D01*
X012009Y018578D01*
X011840Y018648D01*
X011137Y018648D01*
X010968Y018578D01*
X010838Y018449D01*
X010768Y018280D01*
X010768Y018097D01*
X010838Y017928D01*
X010968Y017798D01*
X011137Y017728D01*
X011840Y017728D01*
X012009Y017798D01*
X012119Y017908D01*
X012272Y017908D01*
X013308Y016872D01*
X013308Y015564D01*
X012447Y016426D01*
X012344Y016468D01*
X012233Y016468D01*
X012119Y016468D01*
X012288Y016188D02*
X013288Y015188D01*
X013288Y013688D01*
X013788Y013188D01*
X027688Y013188D01*
X029488Y014988D01*
X029488Y015688D01*
X029028Y015701D02*
X028948Y015701D01*
X028948Y015859D02*
X029028Y015859D01*
X029028Y016018D02*
X028948Y016018D01*
X028892Y016177D02*
X029085Y016177D01*
X029225Y016335D02*
X028752Y016335D01*
X028647Y016426D02*
X028647Y016426D01*
X028579Y016494D02*
X029887Y016494D01*
X029752Y016335D02*
X030046Y016335D01*
X030085Y016177D02*
X029892Y016177D01*
X029948Y016018D02*
X030028Y016018D01*
X030028Y015859D02*
X029948Y015859D01*
X029948Y015701D02*
X030028Y015701D01*
X030028Y015542D02*
X029948Y015542D01*
X029948Y015384D02*
X030028Y015384D01*
X030075Y015225D02*
X029902Y015225D01*
X029777Y015067D02*
X030199Y015067D01*
X029758Y014908D02*
X031912Y014908D01*
X031754Y014750D02*
X029646Y014750D01*
X029487Y014591D02*
X031595Y014591D01*
X031437Y014433D02*
X029329Y014433D01*
X029170Y014274D02*
X031278Y014274D01*
X031120Y014116D02*
X029011Y014116D01*
X028853Y013957D02*
X030961Y013957D01*
X030802Y013798D02*
X028694Y013798D01*
X028536Y013640D02*
X030644Y013640D01*
X030485Y013481D02*
X028377Y013481D01*
X028219Y013323D02*
X030327Y013323D01*
X030288Y012888D02*
X013388Y012888D01*
X012988Y013288D01*
X012988Y014488D01*
X012288Y015188D01*
X011488Y015188D01*
X011488Y014628D02*
X011194Y014628D01*
X011125Y014617D01*
X011059Y014596D01*
X010998Y014565D01*
X010942Y014524D01*
X010893Y014475D01*
X010852Y014419D01*
X010821Y014357D01*
X010799Y014291D01*
X010788Y014223D01*
X010788Y014189D01*
X011488Y014189D01*
X011488Y014628D01*
X011489Y014628D02*
X011489Y014189D01*
X011488Y014189D01*
X011488Y014188D01*
X011489Y014188D01*
X011489Y014189D01*
X012188Y014189D01*
X012188Y014223D01*
X012177Y014291D01*
X012156Y014357D01*
X012125Y014419D01*
X012084Y014475D01*
X012035Y014524D01*
X011979Y014565D01*
X011917Y014596D01*
X011851Y014617D01*
X011783Y014628D01*
X011489Y014628D01*
X011488Y014591D02*
X011489Y014591D01*
X011488Y014433D02*
X011489Y014433D01*
X011488Y014274D02*
X011489Y014274D01*
X011488Y014188D02*
X010788Y014188D01*
X010788Y014154D01*
X010799Y014085D01*
X010821Y014019D01*
X010852Y013958D01*
X010893Y013902D01*
X010942Y013853D01*
X010998Y013812D01*
X011059Y013781D01*
X011125Y013759D01*
X011194Y013748D01*
X011488Y013748D01*
X011488Y014188D01*
X011489Y014188D02*
X011489Y013748D01*
X011783Y013748D01*
X011851Y013759D01*
X011917Y013781D01*
X011979Y013812D01*
X012035Y013853D01*
X012084Y013902D01*
X012125Y013958D01*
X012156Y014019D01*
X012177Y014085D01*
X012188Y014154D01*
X012188Y014188D01*
X011489Y014188D01*
X011488Y014116D02*
X011489Y014116D01*
X011488Y013957D02*
X011489Y013957D01*
X011488Y013798D02*
X011489Y013798D01*
X011952Y013798D02*
X012708Y013798D01*
X012708Y013640D02*
X010448Y013640D01*
X010429Y013798D02*
X011024Y013798D01*
X010853Y013957D02*
X010270Y013957D01*
X009988Y013588D02*
X010488Y013088D01*
X012588Y013088D01*
X012445Y013481D02*
X010491Y013481D01*
X010794Y014116D02*
X007808Y014116D01*
X007808Y014274D02*
X008280Y014274D01*
X008306Y014248D02*
X008488Y014248D01*
X008488Y014688D01*
X008489Y014688D01*
X008489Y014689D01*
X008928Y014689D01*
X008928Y014871D01*
X008671Y015128D01*
X008489Y015128D01*
X008489Y014689D01*
X008488Y014689D01*
X008488Y014688D01*
X008048Y014688D01*
X008048Y014506D01*
X008306Y014248D01*
X008489Y014248D02*
X008489Y014688D01*
X008928Y014688D01*
X008928Y014506D01*
X008671Y014248D01*
X008489Y014248D01*
X008488Y014274D02*
X008489Y014274D01*
X008488Y014433D02*
X008489Y014433D01*
X008488Y014591D02*
X008489Y014591D01*
X008488Y014750D02*
X008489Y014750D01*
X008488Y014908D02*
X008489Y014908D01*
X008488Y015067D02*
X008489Y015067D01*
X008426Y015225D02*
X010768Y015225D01*
X010781Y015067D02*
X008732Y015067D01*
X008891Y014908D02*
X010858Y014908D01*
X011085Y014750D02*
X008928Y014750D01*
X008928Y014591D02*
X011050Y014591D01*
X010862Y014433D02*
X008855Y014433D01*
X008696Y014274D02*
X010796Y014274D01*
X011927Y014591D02*
X012490Y014591D01*
X012648Y014433D02*
X012115Y014433D01*
X012180Y014274D02*
X012708Y014274D01*
X012708Y014116D02*
X012182Y014116D01*
X012124Y013957D02*
X012708Y013957D01*
X012331Y014750D02*
X011891Y014750D01*
X012119Y014908D02*
X012172Y014908D01*
X012647Y015225D02*
X012855Y015225D01*
X012806Y015067D02*
X013008Y015067D01*
X013008Y014908D02*
X012964Y014908D01*
X012697Y015384D02*
X012489Y015384D01*
X012538Y015542D02*
X012045Y015542D01*
X012070Y015859D02*
X012221Y015859D01*
X012380Y015701D02*
X008647Y015701D01*
X008805Y015859D02*
X010907Y015859D01*
X010801Y016018D02*
X008964Y016018D01*
X009123Y016177D02*
X009750Y016177D01*
X010227Y016177D02*
X010768Y016177D01*
X010791Y016335D02*
X010386Y016335D01*
X010448Y016494D02*
X010883Y016494D01*
X010968Y016798D02*
X011137Y016728D01*
X011840Y016728D01*
X012009Y016798D01*
X012138Y016928D01*
X012208Y017097D01*
X012208Y017280D01*
X012138Y017449D01*
X012009Y017578D01*
X011840Y017648D01*
X011137Y017648D01*
X010968Y017578D01*
X010838Y017449D01*
X010768Y017280D01*
X010768Y017097D01*
X010838Y016928D01*
X010968Y016798D01*
X010955Y016811D02*
X010416Y016811D01*
X010258Y016969D02*
X010821Y016969D01*
X010768Y017128D02*
X008125Y017128D01*
X008102Y017118D02*
X008311Y017205D01*
X008472Y017365D01*
X008558Y017575D01*
X008558Y017802D01*
X008541Y017845D01*
X009604Y018908D01*
X010858Y018908D01*
X010968Y018798D01*
X011137Y018728D01*
X011840Y018728D01*
X012009Y018798D01*
X012138Y018928D01*
X012208Y019097D01*
X012208Y019280D01*
X012138Y019449D01*
X012009Y019578D01*
X011840Y019648D01*
X011137Y019648D01*
X010968Y019578D01*
X010858Y019468D01*
X009433Y019468D01*
X009330Y019426D01*
X009251Y019347D01*
X008145Y018241D01*
X008102Y018258D01*
X007875Y018258D01*
X007665Y018172D01*
X007505Y018011D01*
X007418Y017802D01*
X007418Y017575D01*
X007505Y017365D01*
X007665Y017205D01*
X007875Y017118D01*
X008102Y017118D01*
X007852Y017128D02*
X006668Y017128D01*
X006668Y017286D02*
X007584Y017286D01*
X007472Y017445D02*
X006668Y017445D01*
X006668Y017603D02*
X007418Y017603D01*
X007418Y017762D02*
X006668Y017762D01*
X006668Y017921D02*
X007468Y017921D01*
X007573Y018079D02*
X006668Y018079D01*
X006668Y018238D02*
X007825Y018238D01*
X008300Y018396D02*
X006668Y018396D01*
X006668Y018555D02*
X008459Y018555D01*
X008617Y018713D02*
X006668Y018713D01*
X006668Y018872D02*
X008776Y018872D01*
X008934Y019030D02*
X006668Y019030D01*
X006668Y019189D02*
X009093Y019189D01*
X009251Y019347D02*
X006668Y019347D01*
X006668Y019506D02*
X010895Y019506D01*
X010968Y019798D02*
X011137Y019728D01*
X011840Y019728D01*
X012009Y019798D01*
X012138Y019928D01*
X012208Y020097D01*
X012208Y020280D01*
X012138Y020449D01*
X012009Y020578D01*
X011840Y020648D01*
X011137Y020648D01*
X010968Y020578D01*
X010858Y020468D01*
X009359Y020468D01*
X009179Y020648D01*
X008798Y020648D01*
X008528Y020379D01*
X008528Y019998D01*
X008798Y019728D01*
X009179Y019728D01*
X009359Y019908D01*
X010858Y019908D01*
X010968Y019798D01*
X010943Y019823D02*
X009274Y019823D01*
X008988Y020188D02*
X011488Y020188D01*
X011058Y020616D02*
X009211Y020616D01*
X008765Y020616D02*
X008268Y020616D01*
X008268Y020559D02*
X008268Y022818D01*
X008448Y022998D01*
X008448Y023379D01*
X008179Y023648D01*
X007798Y023648D01*
X007528Y023379D01*
X007528Y022998D01*
X007708Y022818D01*
X007708Y020559D01*
X007528Y020379D01*
X007528Y019998D01*
X007798Y019728D01*
X008179Y019728D01*
X008448Y019998D01*
X008448Y020379D01*
X008268Y020559D01*
X008370Y020457D02*
X008607Y020457D01*
X008528Y020299D02*
X008448Y020299D01*
X008448Y020140D02*
X008528Y020140D01*
X008545Y019982D02*
X008432Y019982D01*
X008274Y019823D02*
X008703Y019823D01*
X007988Y020188D02*
X007988Y023188D01*
X007528Y023152D02*
X006668Y023152D01*
X006668Y022994D02*
X007532Y022994D01*
X007691Y022835D02*
X006668Y022835D01*
X006668Y022677D02*
X007708Y022677D01*
X007708Y022518D02*
X006668Y022518D01*
X006668Y022360D02*
X007708Y022360D01*
X007708Y022201D02*
X006668Y022201D01*
X006668Y022043D02*
X007708Y022043D01*
X007708Y021884D02*
X006668Y021884D01*
X006668Y021726D02*
X007708Y021726D01*
X007708Y021567D02*
X006668Y021567D01*
X006668Y021409D02*
X007708Y021409D01*
X007708Y021250D02*
X006668Y021250D01*
X006668Y021091D02*
X007708Y021091D01*
X007708Y020933D02*
X006668Y020933D01*
X006668Y020774D02*
X007708Y020774D01*
X007708Y020616D02*
X006668Y020616D01*
X006668Y020457D02*
X007607Y020457D01*
X007528Y020299D02*
X006668Y020299D01*
X006668Y020140D02*
X007528Y020140D01*
X007545Y019982D02*
X006668Y019982D01*
X006668Y019823D02*
X007703Y019823D01*
X006668Y019665D02*
X012808Y019665D01*
X012808Y019823D02*
X012034Y019823D01*
X012161Y019982D02*
X012808Y019982D01*
X012741Y020140D02*
X012208Y020140D01*
X012201Y020299D02*
X012582Y020299D01*
X012423Y020457D02*
X012130Y020457D01*
X012265Y020616D02*
X011918Y020616D01*
X011951Y020774D02*
X012106Y020774D01*
X012088Y021188D02*
X013088Y020188D01*
X013088Y019388D01*
X013788Y018688D01*
X014988Y018688D01*
X016888Y016788D01*
X027888Y016788D01*
X028488Y016188D01*
X028488Y015688D01*
X028028Y015701D02*
X027948Y015701D01*
X027948Y015859D02*
X028028Y015859D01*
X028028Y016018D02*
X027948Y016018D01*
X027892Y016177D02*
X028085Y016177D01*
X027946Y016335D02*
X027752Y016335D01*
X027787Y016494D02*
X020479Y016494D01*
X020752Y016335D02*
X021225Y016335D01*
X021085Y016177D02*
X020892Y016177D01*
X020948Y016018D02*
X021028Y016018D01*
X021028Y015859D02*
X020948Y015859D01*
X020948Y015701D02*
X021028Y015701D01*
X021028Y015542D02*
X020948Y015542D01*
X020948Y015384D02*
X021028Y015384D01*
X021075Y015225D02*
X020902Y015225D01*
X020777Y015067D02*
X021199Y015067D01*
X021208Y014908D02*
X019768Y014908D01*
X019768Y014750D02*
X021208Y014750D01*
X021095Y014591D02*
X019768Y014591D01*
X019727Y014433D02*
X020937Y014433D01*
X020778Y014274D02*
X019570Y014274D01*
X019411Y014116D02*
X020620Y014116D01*
X020688Y013788D02*
X016388Y013788D01*
X014988Y015188D01*
X014488Y015188D01*
X015188Y015488D02*
X016588Y014088D01*
X018988Y014088D01*
X019488Y014588D01*
X019488Y015688D01*
X019948Y015701D02*
X020028Y015701D01*
X020028Y015859D02*
X019948Y015859D01*
X019948Y016018D02*
X020028Y016018D01*
X020004Y016177D02*
X019892Y016177D01*
X020088Y016488D02*
X020488Y016088D01*
X020488Y015688D01*
X020028Y015542D02*
X019948Y015542D01*
X019948Y015384D02*
X020028Y015384D01*
X020075Y015225D02*
X019902Y015225D01*
X019777Y015067D02*
X020199Y015067D01*
X020688Y013788D02*
X021488Y014588D01*
X021488Y015688D01*
X021948Y015701D02*
X022048Y015701D01*
X022048Y015689D02*
X022488Y015689D01*
X022488Y016388D01*
X022454Y016388D01*
X022385Y016377D01*
X022319Y016356D01*
X022258Y016325D01*
X022202Y016284D01*
X022153Y016235D01*
X022112Y016179D01*
X022081Y016117D01*
X022059Y016051D01*
X022048Y015983D01*
X022048Y015689D01*
X022048Y015688D02*
X022048Y015394D01*
X022059Y015325D01*
X022081Y015259D01*
X022112Y015198D01*
X022153Y015142D01*
X022202Y015093D01*
X022258Y015052D01*
X022319Y015021D01*
X022385Y014999D01*
X022454Y014988D01*
X022488Y014988D01*
X022488Y015688D01*
X022489Y015688D01*
X022489Y015689D01*
X022928Y015689D01*
X022928Y015983D01*
X022917Y016051D01*
X022896Y016117D01*
X022865Y016179D01*
X022824Y016235D01*
X022775Y016284D01*
X022719Y016325D01*
X022657Y016356D01*
X022591Y016377D01*
X022523Y016388D01*
X022489Y016388D01*
X022489Y015689D01*
X022488Y015689D01*
X022488Y015688D01*
X022048Y015688D01*
X022048Y015542D02*
X021948Y015542D01*
X021948Y015384D02*
X022050Y015384D01*
X022098Y015225D02*
X021902Y015225D01*
X021777Y015067D02*
X022237Y015067D01*
X022488Y015067D02*
X022489Y015067D01*
X022489Y014988D02*
X022523Y014988D01*
X022591Y014999D01*
X022657Y015021D01*
X022719Y015052D01*
X022775Y015093D01*
X022824Y015142D01*
X022865Y015198D01*
X022896Y015259D01*
X022917Y015325D01*
X022928Y015394D01*
X022928Y015688D01*
X022489Y015688D01*
X022489Y014988D01*
X022488Y015225D02*
X022489Y015225D01*
X022488Y015384D02*
X022489Y015384D01*
X022488Y015542D02*
X022489Y015542D01*
X022488Y015701D02*
X022489Y015701D01*
X022488Y015859D02*
X022489Y015859D01*
X022488Y016018D02*
X022489Y016018D01*
X022488Y016177D02*
X022489Y016177D01*
X022488Y016335D02*
X022489Y016335D01*
X022698Y016335D02*
X023225Y016335D01*
X023228Y016338D02*
X023098Y016209D01*
X023028Y016040D01*
X023028Y015337D01*
X023098Y015168D01*
X023228Y015038D01*
X023397Y014968D01*
X023580Y014968D01*
X023749Y015038D01*
X023878Y015168D01*
X023948Y015337D01*
X023948Y016040D01*
X023878Y016209D01*
X023749Y016338D01*
X023580Y016408D01*
X023397Y016408D01*
X023228Y016338D01*
X023085Y016177D02*
X022866Y016177D01*
X022923Y016018D02*
X023028Y016018D01*
X023028Y015859D02*
X022928Y015859D01*
X022928Y015701D02*
X023028Y015701D01*
X023028Y015542D02*
X022928Y015542D01*
X022927Y015384D02*
X023028Y015384D01*
X023075Y015225D02*
X022879Y015225D01*
X022739Y015067D02*
X023199Y015067D01*
X023777Y015067D02*
X024237Y015067D01*
X024258Y015052D02*
X024319Y015021D01*
X024385Y014999D01*
X024454Y014988D01*
X024488Y014988D01*
X024488Y015688D01*
X024489Y015688D01*
X024489Y015689D01*
X024928Y015689D01*
X024928Y015983D01*
X024917Y016051D01*
X024896Y016117D01*
X024865Y016179D01*
X024824Y016235D01*
X024775Y016284D01*
X024719Y016325D01*
X024657Y016356D01*
X024591Y016377D01*
X024523Y016388D01*
X024489Y016388D01*
X024489Y015689D01*
X024488Y015689D01*
X024488Y016388D01*
X024454Y016388D01*
X024385Y016377D01*
X024319Y016356D01*
X024258Y016325D01*
X024202Y016284D01*
X024153Y016235D01*
X024112Y016179D01*
X024081Y016117D01*
X024059Y016051D01*
X024048Y015983D01*
X024048Y015689D01*
X024488Y015689D01*
X024488Y015688D01*
X024048Y015688D01*
X024048Y015394D01*
X024059Y015325D01*
X024081Y015259D01*
X024112Y015198D01*
X024153Y015142D01*
X024202Y015093D01*
X024258Y015052D01*
X024488Y015067D02*
X024489Y015067D01*
X024489Y014988D02*
X024523Y014988D01*
X024591Y014999D01*
X024657Y015021D01*
X024719Y015052D01*
X024775Y015093D01*
X024824Y015142D01*
X024865Y015198D01*
X024896Y015259D01*
X024917Y015325D01*
X024928Y015394D01*
X024928Y015688D01*
X024489Y015688D01*
X024489Y014988D01*
X024488Y015225D02*
X024489Y015225D01*
X024488Y015384D02*
X024489Y015384D01*
X024488Y015542D02*
X024489Y015542D01*
X024488Y015701D02*
X024489Y015701D01*
X024488Y015859D02*
X024489Y015859D01*
X024488Y016018D02*
X024489Y016018D01*
X024488Y016177D02*
X024489Y016177D01*
X024488Y016335D02*
X024489Y016335D01*
X024698Y016335D02*
X026225Y016335D01*
X026228Y016338D02*
X026098Y016209D01*
X026028Y016040D01*
X026028Y015337D01*
X026098Y015168D01*
X026228Y015038D01*
X026397Y014968D01*
X026580Y014968D01*
X026749Y015038D01*
X026878Y015168D01*
X026948Y015337D01*
X026948Y016040D01*
X026878Y016209D01*
X026749Y016338D01*
X026580Y016408D01*
X026397Y016408D01*
X026228Y016338D01*
X026085Y016177D02*
X024866Y016177D01*
X024923Y016018D02*
X026028Y016018D01*
X026028Y015859D02*
X024928Y015859D01*
X024928Y015701D02*
X026028Y015701D01*
X026028Y015542D02*
X024928Y015542D01*
X024927Y015384D02*
X026028Y015384D01*
X026075Y015225D02*
X024879Y015225D01*
X024739Y015067D02*
X026199Y015067D01*
X026777Y015067D02*
X027071Y015067D01*
X027075Y015225D02*
X026902Y015225D01*
X026948Y015384D02*
X027028Y015384D01*
X027028Y015542D02*
X026948Y015542D01*
X026948Y015701D02*
X027028Y015701D01*
X027028Y015859D02*
X026948Y015859D01*
X026948Y016018D02*
X027028Y016018D01*
X027085Y016177D02*
X026892Y016177D01*
X026752Y016335D02*
X027225Y016335D01*
X027488Y015688D02*
X027488Y015088D01*
X025888Y013488D01*
X014088Y013488D01*
X013588Y013988D01*
X013588Y016988D01*
X012388Y018188D01*
X011488Y018188D01*
X010944Y018555D02*
X009251Y018555D01*
X009409Y018713D02*
X013367Y018713D01*
X013209Y018872D02*
X012082Y018872D01*
X012181Y019030D02*
X013050Y019030D01*
X012892Y019189D02*
X012208Y019189D01*
X012180Y019347D02*
X012808Y019347D01*
X012808Y019506D02*
X012081Y019506D01*
X011488Y019188D02*
X009488Y019188D01*
X007988Y017688D01*
X008392Y017286D02*
X010771Y017286D01*
X010837Y017445D02*
X008504Y017445D01*
X008558Y017603D02*
X011029Y017603D01*
X011056Y017762D02*
X008558Y017762D01*
X008616Y017921D02*
X010846Y017921D01*
X010776Y018079D02*
X008775Y018079D01*
X008934Y018238D02*
X010768Y018238D01*
X010817Y018396D02*
X009092Y018396D01*
X009568Y018872D02*
X010894Y018872D01*
X012032Y018555D02*
X013526Y018555D01*
X013817Y018396D02*
X012576Y018396D01*
X012735Y018238D02*
X013768Y018238D01*
X013776Y018079D02*
X012894Y018079D01*
X013052Y017921D02*
X013846Y017921D01*
X014056Y017762D02*
X013211Y017762D01*
X013369Y017603D02*
X014029Y017603D01*
X013837Y017445D02*
X013528Y017445D01*
X013686Y017286D02*
X013771Y017286D01*
X013211Y016969D02*
X012155Y016969D01*
X012208Y017128D02*
X013053Y017128D01*
X012894Y017286D02*
X012206Y017286D01*
X012140Y017445D02*
X012736Y017445D01*
X012577Y017603D02*
X011948Y017603D01*
X011921Y017762D02*
X012419Y017762D01*
X012021Y016811D02*
X013308Y016811D01*
X013308Y016335D02*
X012537Y016335D01*
X012696Y016177D02*
X013308Y016177D01*
X013308Y016018D02*
X012855Y016018D01*
X013013Y015859D02*
X013308Y015859D01*
X013308Y015701D02*
X013172Y015701D01*
X012288Y016188D02*
X011488Y016188D01*
X010932Y015542D02*
X008488Y015542D01*
X008448Y015384D02*
X010811Y015384D01*
X009706Y013957D02*
X007808Y013957D01*
X007808Y013798D02*
X009548Y013798D01*
X009528Y013640D02*
X007808Y013640D01*
X007871Y013481D02*
X008105Y013481D01*
X008871Y013481D02*
X009528Y013481D01*
X009603Y013323D02*
X008996Y013323D01*
X009058Y013164D02*
X009762Y013164D01*
X010175Y013006D02*
X009058Y013006D01*
X009058Y012847D02*
X010339Y012847D01*
X010798Y012054D02*
X008996Y012054D01*
X009058Y012213D02*
X011016Y012213D01*
X011176Y012372D02*
X009058Y012372D01*
X009058Y012530D02*
X011334Y012530D01*
X011493Y012689D02*
X009058Y012689D01*
X008872Y011896D02*
X010707Y011896D01*
X010668Y011737D02*
X006668Y011737D01*
X006668Y011579D02*
X010668Y011579D01*
X010732Y011420D02*
X006668Y011420D01*
X006668Y011262D02*
X010859Y011262D01*
X010757Y011103D02*
X010720Y011103D01*
X010720Y010945D02*
X010757Y010945D01*
X010757Y010786D02*
X010720Y010786D01*
X010720Y010670D02*
X010188Y010670D01*
X010188Y010295D01*
X010201Y010249D01*
X010224Y010208D01*
X010258Y010174D01*
X010299Y010151D01*
X010345Y010138D01*
X010720Y010138D01*
X010720Y010670D01*
X010720Y010628D02*
X010757Y010628D01*
X010757Y010469D02*
X010720Y010469D01*
X010720Y010310D02*
X010757Y010310D01*
X010757Y010152D02*
X010720Y010152D01*
X010297Y010152D02*
X006668Y010152D01*
X006668Y010310D02*
X010188Y010310D01*
X010188Y010469D02*
X006668Y010469D01*
X006668Y010628D02*
X010188Y010628D01*
X010188Y010786D02*
X006668Y010786D01*
X006668Y010945D02*
X010188Y010945D01*
X010194Y011103D02*
X006668Y011103D01*
X007872Y011896D02*
X008105Y011896D01*
X006668Y009993D02*
X011687Y009993D01*
X011846Y009835D02*
X006668Y009835D01*
X006668Y009676D02*
X012004Y009676D01*
X012163Y009518D02*
X006668Y009518D01*
X006668Y009359D02*
X012321Y009359D01*
X012588Y009488D02*
X011738Y010338D01*
X011738Y010688D01*
X011310Y010310D02*
X011288Y010310D01*
X011180Y010152D02*
X011529Y010152D01*
X012164Y010308D02*
X012222Y010365D01*
X012238Y010406D01*
X012255Y010365D01*
X012415Y010205D01*
X012625Y010118D01*
X012852Y010118D01*
X013061Y010205D01*
X013222Y010365D01*
X013238Y010406D01*
X013255Y010365D01*
X013415Y010205D01*
X013625Y010118D01*
X013852Y010118D01*
X014061Y010205D01*
X014222Y010365D01*
X014308Y010575D01*
X014308Y010802D01*
X014222Y011011D01*
X014107Y011126D01*
X014125Y011118D01*
X014352Y011118D01*
X014561Y011205D01*
X014722Y011365D01*
X014808Y011575D01*
X014808Y011802D01*
X014722Y012011D01*
X014561Y012172D01*
X014352Y012258D01*
X014125Y012258D01*
X013915Y012172D01*
X013755Y012011D01*
X013738Y011971D01*
X013722Y012011D01*
X013561Y012172D01*
X013352Y012258D01*
X013125Y012258D01*
X012915Y012172D01*
X012755Y012011D01*
X012738Y011971D01*
X012722Y012011D01*
X012561Y012172D01*
X012352Y012258D01*
X012125Y012258D01*
X011915Y012172D01*
X011755Y012011D01*
X011738Y011971D01*
X011722Y012011D01*
X011664Y012068D01*
X011904Y012308D01*
X028508Y012308D01*
X028508Y012210D01*
X028415Y012172D01*
X028255Y012011D01*
X028168Y011802D01*
X028168Y011575D01*
X028255Y011365D01*
X028382Y011238D01*
X028257Y011238D01*
X028257Y010707D01*
X028220Y010707D01*
X028220Y011238D01*
X027845Y011238D01*
X027799Y011226D01*
X027758Y011202D01*
X027724Y011169D01*
X027701Y011128D01*
X027688Y011082D01*
X027688Y010707D01*
X028220Y010707D01*
X028220Y010670D01*
X027688Y010670D01*
X027688Y010295D01*
X027701Y010249D01*
X027724Y010208D01*
X027758Y010174D01*
X027768Y010168D01*
X027644Y010168D01*
X027533Y010168D01*
X027430Y010126D01*
X025928Y008624D01*
X025928Y008788D01*
X025489Y008788D01*
X025489Y008789D01*
X025928Y008789D01*
X025928Y008971D01*
X025715Y009184D01*
X025749Y009198D01*
X025878Y009328D01*
X025948Y009497D01*
X025948Y009680D01*
X025878Y009849D01*
X025749Y009978D01*
X025580Y010048D01*
X025397Y010048D01*
X025228Y009978D01*
X025098Y009849D01*
X025028Y009680D01*
X025028Y009497D01*
X025098Y009328D01*
X025228Y009198D01*
X025262Y009184D01*
X025048Y008971D01*
X025048Y008789D01*
X025488Y008789D01*
X025488Y008788D01*
X025489Y008788D01*
X025489Y008348D01*
X025652Y008348D01*
X025472Y008168D01*
X023004Y008168D01*
X022824Y008348D01*
X022988Y008348D01*
X022988Y008788D01*
X022548Y008788D01*
X022548Y008624D01*
X022247Y008926D01*
X022144Y008968D01*
X022033Y008968D01*
X021111Y008968D01*
X021351Y009068D01*
X021546Y009263D01*
X021652Y009519D01*
X021652Y009795D01*
X021546Y010051D01*
X021351Y010246D01*
X021095Y010352D01*
X020819Y010352D01*
X020563Y010246D01*
X020465Y010148D01*
X020366Y010246D01*
X020111Y010352D01*
X019834Y010352D01*
X019579Y010246D01*
X019495Y010163D01*
X019394Y010264D01*
X019131Y010373D01*
X018846Y010373D01*
X018583Y010264D01*
X018481Y010163D01*
X018398Y010246D01*
X018142Y010352D01*
X017866Y010352D01*
X017610Y010246D01*
X017512Y010148D01*
X017414Y010246D01*
X017158Y010352D01*
X016882Y010352D01*
X016626Y010246D01*
X016431Y010051D01*
X016325Y009795D01*
X016325Y009519D01*
X016431Y009263D01*
X016626Y009068D01*
X016866Y008968D01*
X016604Y008968D01*
X015926Y009647D01*
X015847Y009726D01*
X015744Y009768D01*
X012704Y009768D01*
X012164Y010308D01*
X012167Y010310D02*
X012310Y010310D01*
X012321Y010152D02*
X012544Y010152D01*
X012479Y009993D02*
X016407Y009993D01*
X016341Y009835D02*
X012638Y009835D01*
X012588Y009488D02*
X015688Y009488D01*
X016488Y008688D01*
X022088Y008688D01*
X022888Y007888D01*
X025588Y007888D01*
X027588Y009888D01*
X029288Y009888D01*
X029238Y009938D01*
X029238Y010688D01*
X029288Y009888D02*
X035088Y009888D01*
X035488Y010288D01*
X035488Y010688D01*
X035028Y010628D02*
X034448Y010628D01*
X034448Y010786D02*
X035028Y010786D01*
X035094Y010945D02*
X034383Y010945D01*
X034268Y011103D02*
X035253Y011103D01*
X035724Y011103D02*
X036678Y011103D01*
X036678Y010945D02*
X035883Y010945D01*
X035948Y010786D02*
X036678Y010786D01*
X036678Y010628D02*
X035948Y010628D01*
X035920Y010469D02*
X036678Y010469D01*
X036678Y010310D02*
X035768Y010310D01*
X035735Y010152D02*
X036678Y010152D01*
X036678Y009993D02*
X035589Y009993D01*
X035431Y009835D02*
X036678Y009835D01*
X036678Y009676D02*
X035272Y009676D01*
X035115Y010310D02*
X034261Y010310D01*
X034420Y010469D02*
X035057Y010469D01*
X033988Y010688D02*
X033988Y012088D01*
X033488Y012588D01*
X028788Y012588D01*
X028788Y011738D01*
X028738Y011688D01*
X028207Y011896D02*
X025098Y011896D01*
X025076Y011947D02*
X024947Y012076D01*
X024779Y012146D01*
X024597Y012146D01*
X024429Y012076D01*
X024338Y011985D01*
X024247Y012076D01*
X024079Y012146D01*
X023897Y012146D01*
X023729Y012076D01*
X023624Y011971D01*
X023622Y011973D01*
X023573Y012022D01*
X023518Y012062D01*
X023456Y012094D01*
X023391Y012115D01*
X023323Y012126D01*
X023289Y012126D01*
X023289Y011689D01*
X023288Y011689D01*
X023288Y012126D01*
X023254Y012126D01*
X023186Y012115D01*
X023120Y012094D01*
X023059Y012062D01*
X023003Y012022D01*
X022955Y011973D01*
X022914Y011918D01*
X022883Y011856D01*
X022862Y011791D01*
X022851Y011723D01*
X022851Y011689D01*
X023288Y011689D01*
X023288Y011688D01*
X023289Y011688D01*
X023289Y011251D01*
X023323Y011251D01*
X023391Y011262D01*
X023823Y011262D01*
X023897Y011231D02*
X024079Y011231D01*
X024247Y011301D01*
X024338Y011391D01*
X024429Y011301D01*
X024597Y011231D01*
X024779Y011231D01*
X024947Y011301D01*
X025076Y011429D01*
X025146Y011597D01*
X025146Y011779D01*
X025076Y011947D01*
X024969Y012054D02*
X028298Y012054D01*
X028508Y012213D02*
X021107Y012213D01*
X021094Y012218D02*
X020883Y012218D01*
X020688Y012138D01*
X020539Y011989D01*
X020458Y011794D01*
X020458Y011583D01*
X020539Y011388D01*
X020688Y011239D01*
X020883Y011158D01*
X021094Y011158D01*
X021289Y011239D01*
X021438Y011388D01*
X021518Y011583D01*
X021518Y011794D01*
X021438Y011989D01*
X021289Y012138D01*
X021094Y012218D01*
X020870Y012213D02*
X017107Y012213D01*
X017094Y012218D02*
X016883Y012218D01*
X016688Y012138D01*
X016539Y011989D01*
X016458Y011794D01*
X016458Y011583D01*
X016539Y011388D01*
X016688Y011239D01*
X016883Y011158D01*
X017094Y011158D01*
X017289Y011239D01*
X017438Y011388D01*
X017518Y011583D01*
X017518Y011794D01*
X017438Y011989D01*
X017289Y012138D01*
X017094Y012218D01*
X016870Y012213D02*
X014461Y012213D01*
X014678Y012054D02*
X016605Y012054D01*
X016501Y011896D02*
X014769Y011896D01*
X014808Y011737D02*
X016458Y011737D01*
X016460Y011579D02*
X014808Y011579D01*
X014744Y011420D02*
X016526Y011420D01*
X016665Y011262D02*
X014618Y011262D01*
X014249Y010945D02*
X027688Y010945D01*
X027694Y011103D02*
X014130Y011103D01*
X014308Y010786D02*
X027688Y010786D01*
X027688Y010628D02*
X014308Y010628D01*
X014264Y010469D02*
X027688Y010469D01*
X027688Y010310D02*
X021195Y010310D01*
X021445Y010152D02*
X027493Y010152D01*
X027297Y009993D02*
X025712Y009993D01*
X025884Y009835D02*
X027139Y009835D01*
X026980Y009676D02*
X025948Y009676D01*
X025948Y009518D02*
X026822Y009518D01*
X026663Y009359D02*
X025891Y009359D01*
X025751Y009201D02*
X026505Y009201D01*
X026346Y009042D02*
X025857Y009042D01*
X025928Y008884D02*
X026188Y008884D01*
X026029Y008725D02*
X025928Y008725D01*
X025489Y008725D02*
X025488Y008725D01*
X025488Y008788D02*
X025488Y008348D01*
X025306Y008348D01*
X025048Y008606D01*
X025048Y008788D01*
X025488Y008788D01*
X025488Y008566D02*
X025489Y008566D01*
X025488Y008408D02*
X025489Y008408D01*
X025554Y008249D02*
X022923Y008249D01*
X022989Y008348D02*
X023171Y008348D01*
X023428Y008606D01*
X023428Y008788D01*
X022989Y008788D01*
X022989Y008789D01*
X023428Y008789D01*
X023428Y008971D01*
X023215Y009184D01*
X023249Y009198D01*
X023378Y009328D01*
X023448Y009497D01*
X023448Y009680D01*
X023378Y009849D01*
X023249Y009978D01*
X023080Y010048D01*
X022897Y010048D01*
X022728Y009978D01*
X022598Y009849D01*
X022528Y009680D01*
X022528Y009497D01*
X022598Y009328D01*
X022728Y009198D01*
X022762Y009184D01*
X022548Y008971D01*
X022548Y008789D01*
X022988Y008789D01*
X022988Y008788D01*
X022989Y008788D01*
X022989Y008348D01*
X022988Y008408D02*
X022989Y008408D01*
X022988Y008566D02*
X022989Y008566D01*
X022988Y008725D02*
X022989Y008725D01*
X023230Y008408D02*
X025246Y008408D01*
X025088Y008566D02*
X023389Y008566D01*
X023428Y008725D02*
X025048Y008725D01*
X025048Y008884D02*
X023428Y008884D01*
X023357Y009042D02*
X025120Y009042D01*
X025225Y009201D02*
X023251Y009201D01*
X023391Y009359D02*
X025085Y009359D01*
X025028Y009518D02*
X023448Y009518D01*
X023448Y009676D02*
X025028Y009676D01*
X025093Y009835D02*
X023384Y009835D01*
X023212Y009993D02*
X025264Y009993D01*
X024854Y011262D02*
X028359Y011262D01*
X028257Y011103D02*
X028220Y011103D01*
X028220Y010945D02*
X028257Y010945D01*
X028257Y010786D02*
X028220Y010786D01*
X028232Y011420D02*
X025067Y011420D01*
X025138Y011579D02*
X028168Y011579D01*
X028168Y011737D02*
X025146Y011737D01*
X024523Y011262D02*
X024154Y011262D01*
X023897Y011231D02*
X023729Y011301D01*
X023624Y011406D01*
X023622Y011403D01*
X023573Y011355D01*
X023518Y011314D01*
X023456Y011283D01*
X023391Y011262D01*
X023289Y011262D02*
X023288Y011262D01*
X023288Y011251D02*
X023288Y011688D01*
X022851Y011688D01*
X022851Y011654D01*
X022862Y011586D01*
X022883Y011520D01*
X022914Y011459D01*
X022955Y011403D01*
X023003Y011355D01*
X023059Y011314D01*
X023120Y011283D01*
X023186Y011262D01*
X023254Y011251D01*
X023288Y011251D01*
X023186Y011262D02*
X021311Y011262D01*
X021451Y011420D02*
X022942Y011420D01*
X022864Y011579D02*
X021517Y011579D01*
X021518Y011737D02*
X022853Y011737D01*
X022903Y011896D02*
X021476Y011896D01*
X021372Y012054D02*
X023048Y012054D01*
X023288Y012054D02*
X023289Y012054D01*
X023288Y011896D02*
X023289Y011896D01*
X023288Y011737D02*
X023289Y011737D01*
X023288Y011579D02*
X023289Y011579D01*
X023288Y011420D02*
X023289Y011420D01*
X023529Y012054D02*
X023707Y012054D01*
X024269Y012054D02*
X024407Y012054D01*
X025803Y013798D02*
X021094Y013798D01*
X021253Y013957D02*
X025961Y013957D01*
X026120Y014116D02*
X021411Y014116D01*
X021570Y014274D02*
X026278Y014274D01*
X026437Y014433D02*
X021727Y014433D01*
X021768Y014591D02*
X026595Y014591D01*
X026754Y014750D02*
X021768Y014750D01*
X021768Y014908D02*
X026912Y014908D01*
X027387Y014591D02*
X028695Y014591D01*
X028537Y014433D02*
X027229Y014433D01*
X027070Y014274D02*
X028378Y014274D01*
X028220Y014116D02*
X026911Y014116D01*
X026753Y013957D02*
X028061Y013957D01*
X027903Y013798D02*
X026594Y013798D01*
X026436Y013640D02*
X027744Y013640D01*
X027585Y013481D02*
X026277Y013481D01*
X027546Y014750D02*
X028854Y014750D01*
X029012Y014908D02*
X027704Y014908D01*
X027777Y015067D02*
X028199Y015067D01*
X028075Y015225D02*
X027902Y015225D01*
X027948Y015384D02*
X028028Y015384D01*
X028028Y015542D02*
X027948Y015542D01*
X028777Y015067D02*
X029171Y015067D01*
X029075Y015225D02*
X028902Y015225D01*
X028948Y015384D02*
X029028Y015384D01*
X029028Y015542D02*
X028948Y015542D01*
X028420Y016652D02*
X029729Y016652D01*
X029688Y017088D02*
X030488Y016288D01*
X030488Y015688D01*
X030948Y015701D02*
X031048Y015701D01*
X031048Y015689D02*
X031488Y015689D01*
X031488Y016388D01*
X031454Y016388D01*
X031385Y016377D01*
X031319Y016356D01*
X031258Y016325D01*
X031202Y016284D01*
X031153Y016235D01*
X031112Y016179D01*
X031081Y016117D01*
X031059Y016051D01*
X031048Y015983D01*
X031048Y015689D01*
X031048Y015688D02*
X031048Y015394D01*
X031059Y015325D01*
X031081Y015259D01*
X031112Y015198D01*
X031153Y015142D01*
X031202Y015093D01*
X031258Y015052D01*
X031319Y015021D01*
X031385Y014999D01*
X031454Y014988D01*
X031488Y014988D01*
X031488Y015688D01*
X031489Y015688D01*
X031489Y015689D01*
X031928Y015689D01*
X031928Y015983D01*
X031917Y016051D01*
X031896Y016117D01*
X031865Y016179D01*
X031824Y016235D01*
X031775Y016284D01*
X031719Y016325D01*
X031657Y016356D01*
X031591Y016377D01*
X031523Y016388D01*
X031489Y016388D01*
X031489Y015689D01*
X031488Y015689D01*
X031488Y015688D01*
X031048Y015688D01*
X031048Y015542D02*
X030948Y015542D01*
X030948Y015384D02*
X031050Y015384D01*
X031098Y015225D02*
X030902Y015225D01*
X030777Y015067D02*
X031237Y015067D01*
X031488Y015067D02*
X031489Y015067D01*
X031489Y014988D02*
X031523Y014988D01*
X031591Y014999D01*
X031657Y015021D01*
X031719Y015052D01*
X031775Y015093D01*
X031824Y015142D01*
X031865Y015198D01*
X031896Y015259D01*
X031917Y015325D01*
X031928Y015394D01*
X031928Y015688D01*
X031489Y015688D01*
X031489Y014988D01*
X031488Y015225D02*
X031489Y015225D01*
X031488Y015384D02*
X031489Y015384D01*
X031488Y015542D02*
X031489Y015542D01*
X031488Y015701D02*
X031489Y015701D01*
X031488Y015859D02*
X031489Y015859D01*
X031488Y016018D02*
X031489Y016018D01*
X031488Y016177D02*
X031489Y016177D01*
X031488Y016335D02*
X031489Y016335D01*
X031698Y016335D02*
X032225Y016335D01*
X032085Y016177D02*
X031866Y016177D01*
X031923Y016018D02*
X032028Y016018D01*
X032028Y015859D02*
X031928Y015859D01*
X031928Y015701D02*
X032028Y015701D01*
X032028Y015542D02*
X031928Y015542D01*
X031927Y015384D02*
X032028Y015384D01*
X032075Y015225D02*
X031879Y015225D01*
X031739Y015067D02*
X032071Y015067D01*
X032488Y015088D02*
X030288Y012888D01*
X030802Y013006D02*
X036678Y013006D01*
X036678Y013164D02*
X030960Y013164D01*
X031119Y013323D02*
X033703Y013323D01*
X033798Y013228D02*
X034179Y013228D01*
X034448Y013498D01*
X034448Y013879D01*
X034179Y014148D01*
X033798Y014148D01*
X033528Y013879D01*
X033528Y013498D01*
X033798Y013228D01*
X033545Y013481D02*
X031277Y013481D01*
X031436Y013640D02*
X033528Y013640D01*
X033528Y013798D02*
X031594Y013798D01*
X031753Y013957D02*
X033606Y013957D01*
X033765Y014116D02*
X031911Y014116D01*
X032070Y014274D02*
X036678Y014274D01*
X036678Y014116D02*
X035712Y014116D01*
X035679Y014148D02*
X035948Y013879D01*
X035948Y013498D01*
X035679Y013228D01*
X035298Y013228D01*
X035028Y013498D01*
X035028Y013879D01*
X035298Y014148D01*
X035679Y014148D01*
X035870Y013957D02*
X036678Y013957D01*
X036678Y013798D02*
X035948Y013798D01*
X035948Y013640D02*
X036678Y013640D01*
X036678Y013481D02*
X035932Y013481D01*
X035773Y013323D02*
X036678Y013323D01*
X036678Y012847D02*
X033595Y012847D01*
X033784Y012689D02*
X036678Y012689D01*
X036678Y012530D02*
X033943Y012530D01*
X034101Y012372D02*
X036678Y012372D01*
X036678Y012213D02*
X034240Y012213D01*
X034147Y012326D02*
X034147Y012326D01*
X034268Y012054D02*
X036678Y012054D01*
X036678Y011896D02*
X034268Y011896D01*
X034268Y011737D02*
X036678Y011737D01*
X036678Y011579D02*
X034268Y011579D01*
X034268Y011420D02*
X036678Y011420D01*
X036678Y011262D02*
X034268Y011262D01*
X033708Y011262D02*
X032118Y011262D01*
X032244Y011420D02*
X033708Y011420D01*
X033708Y011579D02*
X032308Y011579D01*
X032308Y011737D02*
X033708Y011737D01*
X033708Y011896D02*
X032269Y011896D01*
X032178Y012054D02*
X033626Y012054D01*
X033468Y012213D02*
X031961Y012213D01*
X031516Y012213D02*
X030961Y012213D01*
X031178Y012054D02*
X031298Y012054D01*
X030516Y012213D02*
X029961Y012213D01*
X030178Y012054D02*
X030298Y012054D01*
X029516Y012213D02*
X029068Y012213D01*
X029178Y012054D02*
X029298Y012054D01*
X028788Y012588D02*
X011788Y012588D01*
X011238Y012038D01*
X011238Y011688D01*
X011678Y012054D02*
X011798Y012054D01*
X011809Y012213D02*
X012016Y012213D01*
X012461Y012213D02*
X013016Y012213D01*
X012798Y012054D02*
X012678Y012054D01*
X013461Y012213D02*
X014016Y012213D01*
X013798Y012054D02*
X013678Y012054D01*
X013310Y010310D02*
X013167Y010310D01*
X012933Y010152D02*
X013544Y010152D01*
X013933Y010152D02*
X016532Y010152D01*
X016782Y010310D02*
X014167Y010310D01*
X014272Y009201D02*
X010705Y009201D01*
X010667Y009223D02*
X010384Y009298D01*
X010092Y009298D01*
X009810Y009223D01*
X009557Y009076D01*
X009350Y008870D01*
X009204Y008617D01*
X009128Y008334D01*
X009128Y008042D01*
X009204Y007760D01*
X009350Y007507D01*
X009557Y007300D01*
X009810Y007154D01*
X010092Y007078D01*
X010384Y007078D01*
X010667Y007154D01*
X010920Y007300D01*
X011126Y007507D01*
X011273Y007760D01*
X011348Y008042D01*
X011348Y008334D01*
X011273Y008617D01*
X011126Y008870D01*
X010920Y009076D01*
X010667Y009223D01*
X010954Y009042D02*
X014022Y009042D01*
X013864Y008884D02*
X011113Y008884D01*
X011210Y008725D02*
X013767Y008725D01*
X013691Y008566D02*
X011286Y008566D01*
X011329Y008408D02*
X013648Y008408D01*
X013628Y008249D02*
X011348Y008249D01*
X011348Y008091D02*
X013628Y008091D01*
X013658Y007932D02*
X011319Y007932D01*
X011276Y007774D02*
X013700Y007774D01*
X013788Y007615D02*
X011189Y007615D01*
X011076Y007457D02*
X013900Y007457D01*
X014060Y007298D02*
X010916Y007298D01*
X010613Y007140D02*
X014364Y007140D01*
X015113Y007140D02*
X016442Y007140D01*
X016413Y007110D02*
X016304Y006847D01*
X016304Y006668D01*
X008155Y006668D01*
X008182Y006684D01*
X008393Y006894D01*
X008541Y007152D01*
X008618Y007440D01*
X008618Y007737D01*
X008541Y008024D01*
X008393Y008282D01*
X008182Y008493D01*
X007924Y008641D01*
X007637Y008718D01*
X007340Y008718D01*
X007052Y008641D01*
X006794Y008493D01*
X006668Y008366D01*
X006668Y027010D01*
X006794Y026884D01*
X007052Y026735D01*
X007340Y026658D01*
X007637Y026658D01*
X007924Y026735D01*
X008182Y026884D01*
X008393Y027094D01*
X008541Y027352D01*
X008618Y027640D01*
X008618Y027937D01*
X008541Y028224D01*
X008393Y028482D01*
X008270Y028604D01*
X010816Y028604D01*
X010816Y028438D01*
X010855Y028399D01*
X010816Y028360D01*
X010816Y028177D01*
X010902Y028091D01*
X010902Y027917D01*
X011008Y027812D01*
X010959Y027796D01*
X010898Y027765D01*
X010842Y027724D01*
X010793Y027675D01*
X010752Y027619D01*
X010721Y027557D01*
X010699Y027491D01*
X010688Y027423D01*
X010688Y027389D01*
X011388Y027389D01*
X011388Y027388D01*
X011389Y027388D01*
X011389Y027389D01*
X012088Y027389D01*
X012088Y027423D01*
X012077Y027491D01*
X012056Y027557D01*
X012025Y027619D01*
X011984Y027675D01*
X011935Y027724D01*
X011879Y027765D01*
X011832Y027788D01*
X011890Y027788D01*
X012073Y027788D01*
X012288Y028004D01*
X012288Y028186D01*
X012288Y028360D01*
X012159Y028489D01*
X012073Y028575D01*
X011890Y028575D01*
X011717Y028575D01*
X011680Y028539D01*
X011615Y028604D01*
X035106Y028604D01*
X034984Y028482D01*
X034835Y028224D01*
X034758Y027937D01*
X034758Y027640D01*
X034835Y027352D01*
X034984Y027094D01*
X035194Y026884D01*
X035452Y026735D01*
X035740Y026658D01*
X036037Y026658D01*
X036324Y026735D01*
X036582Y026884D01*
X036678Y026980D01*
X036678Y008396D01*
X036582Y008493D01*
X036324Y008641D01*
X036037Y008718D01*
X035740Y008718D01*
X035452Y008641D01*
X035194Y008493D01*
X034984Y008282D01*
X034835Y008024D01*
X034758Y007737D01*
X034758Y007440D01*
X034835Y007152D01*
X034984Y006894D01*
X035194Y006684D01*
X035222Y006668D01*
X021673Y006668D01*
X021673Y006847D01*
X021564Y007110D01*
X021478Y007196D01*
X021564Y007283D01*
X021673Y007546D01*
X021673Y007831D01*
X021564Y008094D01*
X021363Y008296D01*
X021099Y008405D01*
X020814Y008405D01*
X020551Y008296D01*
X020350Y008094D01*
X020241Y007831D01*
X020241Y007546D01*
X020350Y007283D01*
X020436Y007196D01*
X020350Y007110D01*
X020241Y006847D01*
X020241Y006668D01*
X017736Y006668D01*
X017736Y006847D01*
X017627Y007110D01*
X017541Y007196D01*
X017627Y007283D01*
X017736Y007546D01*
X017736Y007831D01*
X017627Y008094D01*
X017426Y008296D01*
X017162Y008405D01*
X016877Y008405D01*
X016614Y008296D01*
X016413Y008094D01*
X016304Y007831D01*
X016304Y007546D01*
X016413Y007283D01*
X016499Y007196D01*
X016413Y007110D01*
X016359Y006981D02*
X008443Y006981D01*
X008534Y007140D02*
X009864Y007140D01*
X009560Y007298D02*
X008580Y007298D01*
X008618Y007457D02*
X009400Y007457D01*
X009288Y007615D02*
X008618Y007615D01*
X008609Y007774D02*
X009200Y007774D01*
X009158Y007932D02*
X008566Y007932D01*
X008503Y008091D02*
X009128Y008091D01*
X009128Y008249D02*
X008411Y008249D01*
X008267Y008408D02*
X009148Y008408D01*
X009191Y008566D02*
X008054Y008566D01*
X009267Y008725D02*
X006668Y008725D01*
X006668Y008566D02*
X006923Y008566D01*
X006710Y008408D02*
X006668Y008408D01*
X006668Y008884D02*
X009364Y008884D01*
X009522Y009042D02*
X006668Y009042D01*
X006668Y009201D02*
X009772Y009201D01*
X008321Y006823D02*
X016304Y006823D01*
X016406Y007298D02*
X015416Y007298D01*
X015576Y007457D02*
X016341Y007457D01*
X016304Y007615D02*
X015689Y007615D01*
X015776Y007774D02*
X016304Y007774D01*
X016346Y007932D02*
X015819Y007932D01*
X015848Y008091D02*
X016411Y008091D01*
X016568Y008249D02*
X015848Y008249D01*
X015829Y008408D02*
X021973Y008408D01*
X022131Y008249D02*
X021409Y008249D01*
X021565Y008091D02*
X022290Y008091D01*
X022448Y007932D02*
X021631Y007932D01*
X021673Y007774D02*
X022607Y007774D01*
X022816Y007615D02*
X021673Y007615D01*
X021636Y007457D02*
X026900Y007457D01*
X026788Y007615D02*
X025661Y007615D01*
X025870Y007774D02*
X026700Y007774D01*
X026658Y007932D02*
X026028Y007932D01*
X026187Y008091D02*
X026628Y008091D01*
X026628Y008249D02*
X026345Y008249D01*
X026504Y008408D02*
X026648Y008408D01*
X026662Y008566D02*
X026691Y008566D01*
X027455Y009359D02*
X036678Y009359D01*
X036678Y009201D02*
X032705Y009201D01*
X032667Y009223D02*
X032384Y009298D01*
X032092Y009298D01*
X031810Y009223D01*
X031557Y009076D01*
X031350Y008870D01*
X031204Y008617D01*
X031128Y008334D01*
X031128Y008042D01*
X031204Y007760D01*
X031350Y007507D01*
X031557Y007300D01*
X031810Y007154D01*
X032092Y007078D01*
X032384Y007078D01*
X032667Y007154D01*
X032920Y007300D01*
X033126Y007507D01*
X033273Y007760D01*
X033348Y008042D01*
X033348Y008334D01*
X033273Y008617D01*
X033126Y008870D01*
X032920Y009076D01*
X032667Y009223D01*
X032954Y009042D02*
X036678Y009042D01*
X036678Y008884D02*
X033113Y008884D01*
X033210Y008725D02*
X036678Y008725D01*
X036678Y008566D02*
X036454Y008566D01*
X036667Y008408D02*
X036678Y008408D01*
X036678Y009518D02*
X027614Y009518D01*
X028205Y009201D02*
X031772Y009201D01*
X031522Y009042D02*
X028454Y009042D01*
X028613Y008884D02*
X031364Y008884D01*
X031267Y008725D02*
X028710Y008725D01*
X028786Y008566D02*
X031191Y008566D01*
X031148Y008408D02*
X028829Y008408D01*
X028848Y008249D02*
X031128Y008249D01*
X031128Y008091D02*
X028848Y008091D01*
X028819Y007932D02*
X031158Y007932D01*
X031200Y007774D02*
X028776Y007774D01*
X028689Y007615D02*
X031288Y007615D01*
X031400Y007457D02*
X028576Y007457D01*
X028416Y007298D02*
X031560Y007298D01*
X031864Y007140D02*
X028113Y007140D01*
X027364Y007140D02*
X021534Y007140D01*
X021570Y007298D02*
X027060Y007298D01*
X022725Y009201D02*
X021484Y009201D01*
X021586Y009359D02*
X022585Y009359D01*
X022528Y009518D02*
X021651Y009518D01*
X021652Y009676D02*
X022528Y009676D01*
X022593Y009835D02*
X021635Y009835D01*
X021570Y009993D02*
X022764Y009993D01*
X022620Y009042D02*
X021289Y009042D01*
X020505Y008249D02*
X019366Y008249D01*
X019364Y008251D02*
X019288Y008295D01*
X019206Y008329D01*
X019120Y008352D01*
X019068Y008359D01*
X019068Y007769D01*
X018908Y007769D01*
X018908Y008359D01*
X018856Y008352D01*
X018771Y008329D01*
X018689Y008295D01*
X018613Y008251D01*
X018542Y008197D01*
X018480Y008134D01*
X018426Y008064D01*
X018382Y007988D01*
X018348Y007906D01*
X018325Y007820D01*
X018318Y007768D01*
X018908Y007768D01*
X018908Y007608D01*
X019068Y007608D01*
X019068Y007018D01*
X019120Y007025D01*
X019206Y007048D01*
X019288Y007082D01*
X019364Y007126D01*
X019434Y007180D01*
X019497Y007242D01*
X019551Y007313D01*
X019595Y007389D01*
X019629Y007471D01*
X019652Y007556D01*
X019659Y007608D01*
X019069Y007608D01*
X019069Y007768D01*
X019659Y007768D01*
X019652Y007820D01*
X019629Y007906D01*
X019595Y007988D01*
X019551Y008064D01*
X019497Y008134D01*
X019434Y008197D01*
X019364Y008251D01*
X019530Y008091D02*
X020348Y008091D01*
X020283Y007932D02*
X019618Y007932D01*
X019658Y007774D02*
X020241Y007774D01*
X020241Y007615D02*
X019069Y007615D01*
X019068Y007457D02*
X018908Y007457D01*
X018908Y007608D02*
X018908Y007018D01*
X018856Y007025D01*
X018771Y007048D01*
X018689Y007082D01*
X018613Y007126D01*
X018542Y007180D01*
X018480Y007242D01*
X018426Y007313D01*
X018382Y007389D01*
X018348Y007471D01*
X018325Y007556D01*
X018318Y007608D01*
X018908Y007608D01*
X018908Y007615D02*
X017736Y007615D01*
X017736Y007774D02*
X018319Y007774D01*
X018359Y007932D02*
X017694Y007932D01*
X017628Y008091D02*
X018446Y008091D01*
X018611Y008249D02*
X017472Y008249D01*
X017699Y007457D02*
X018354Y007457D01*
X018437Y007298D02*
X017633Y007298D01*
X017597Y007140D02*
X018595Y007140D01*
X018908Y007140D02*
X019068Y007140D01*
X019068Y007298D02*
X018908Y007298D01*
X018908Y007774D02*
X019068Y007774D01*
X019068Y007932D02*
X018908Y007932D01*
X018908Y008091D02*
X019068Y008091D01*
X019068Y008249D02*
X018908Y008249D01*
X019623Y007457D02*
X020278Y007457D01*
X020343Y007298D02*
X019540Y007298D01*
X019382Y007140D02*
X020380Y007140D01*
X020296Y006981D02*
X017680Y006981D01*
X017736Y006823D02*
X020241Y006823D01*
X021617Y006981D02*
X034934Y006981D01*
X034843Y007140D02*
X032613Y007140D01*
X032916Y007298D02*
X034796Y007298D01*
X034758Y007457D02*
X033076Y007457D01*
X033189Y007615D02*
X034758Y007615D01*
X034768Y007774D02*
X033276Y007774D01*
X033319Y007932D02*
X034811Y007932D01*
X034874Y008091D02*
X033348Y008091D01*
X033348Y008249D02*
X034965Y008249D01*
X035110Y008408D02*
X033329Y008408D01*
X033286Y008566D02*
X035323Y008566D01*
X035056Y006823D02*
X021673Y006823D01*
X022448Y008725D02*
X022548Y008725D01*
X022548Y008884D02*
X022289Y008884D01*
X020719Y010310D02*
X020211Y010310D01*
X020460Y010152D02*
X020469Y010152D01*
X019735Y010310D02*
X019282Y010310D01*
X018695Y010310D02*
X018242Y010310D01*
X017766Y010310D02*
X017258Y010310D01*
X017508Y010152D02*
X017516Y010152D01*
X016325Y009676D02*
X015896Y009676D01*
X016055Y009518D02*
X016325Y009518D01*
X016391Y009359D02*
X016213Y009359D01*
X016372Y009201D02*
X016493Y009201D01*
X016530Y009042D02*
X016688Y009042D01*
X016214Y008566D02*
X015786Y008566D01*
X015710Y008725D02*
X016056Y008725D01*
X015897Y008884D02*
X015613Y008884D01*
X015739Y009042D02*
X015454Y009042D01*
X015580Y009201D02*
X015205Y009201D01*
X017311Y011262D02*
X020665Y011262D01*
X020526Y011420D02*
X017451Y011420D01*
X017517Y011579D02*
X020460Y011579D01*
X020458Y011737D02*
X017518Y011737D01*
X017476Y011896D02*
X020501Y011896D01*
X020605Y012054D02*
X017372Y012054D01*
X016788Y014388D02*
X018088Y014388D01*
X018488Y014788D01*
X018488Y015688D01*
X018028Y015701D02*
X017948Y015701D01*
X017948Y015859D02*
X018028Y015859D01*
X018028Y016018D02*
X017948Y016018D01*
X017892Y016177D02*
X018085Y016177D01*
X018028Y015542D02*
X017948Y015542D01*
X017948Y015384D02*
X018028Y015384D01*
X018075Y015225D02*
X017902Y015225D01*
X017777Y015067D02*
X018199Y015067D01*
X018208Y014908D02*
X016664Y014908D01*
X016506Y015067D02*
X017199Y015067D01*
X017075Y015225D02*
X016347Y015225D01*
X016189Y015384D02*
X017028Y015384D01*
X017028Y015542D02*
X016030Y015542D01*
X015872Y015701D02*
X017028Y015701D01*
X017028Y015859D02*
X015868Y015859D01*
X015868Y016018D02*
X017028Y016018D01*
X017085Y016177D02*
X015868Y016177D01*
X015868Y016335D02*
X016446Y016335D01*
X016287Y016494D02*
X015868Y016494D01*
X015865Y016652D02*
X016129Y016652D01*
X015970Y016811D02*
X015762Y016811D01*
X015811Y016969D02*
X015603Y016969D01*
X015653Y017128D02*
X015445Y017128D01*
X015494Y017286D02*
X015286Y017286D01*
X015336Y017445D02*
X015140Y017445D01*
X015177Y017603D02*
X014948Y017603D01*
X014921Y017762D02*
X015019Y017762D01*
X014988Y017188D02*
X014488Y017188D01*
X014988Y017188D02*
X015588Y016588D01*
X015588Y015588D01*
X016788Y014388D01*
X016823Y014750D02*
X018054Y014750D01*
X016688Y016488D02*
X020088Y016488D01*
X021752Y016335D02*
X022278Y016335D01*
X022111Y016177D02*
X021892Y016177D01*
X021948Y016018D02*
X022054Y016018D01*
X022048Y015859D02*
X021948Y015859D01*
X023752Y016335D02*
X024278Y016335D01*
X024111Y016177D02*
X023892Y016177D01*
X023948Y016018D02*
X024054Y016018D01*
X024048Y015859D02*
X023948Y015859D01*
X023948Y015701D02*
X024048Y015701D01*
X024048Y015542D02*
X023948Y015542D01*
X023948Y015384D02*
X024050Y015384D01*
X024098Y015225D02*
X023902Y015225D01*
X023580Y017968D02*
X023749Y018038D01*
X023878Y018168D01*
X023948Y018337D01*
X023948Y019040D01*
X023878Y019209D01*
X023768Y019319D01*
X023768Y021058D01*
X023878Y021168D01*
X023948Y021337D01*
X023948Y022040D01*
X023878Y022209D01*
X023749Y022338D01*
X023580Y022408D01*
X023397Y022408D01*
X023228Y022338D01*
X023098Y022209D01*
X023028Y022040D01*
X023028Y021337D01*
X023098Y021168D01*
X023208Y021058D01*
X023208Y019319D01*
X023098Y019209D01*
X023028Y019040D01*
X023028Y018337D01*
X023098Y018168D01*
X023228Y018038D01*
X023397Y017968D01*
X023580Y017968D01*
X023790Y018079D02*
X024187Y018079D01*
X024228Y018038D02*
X024397Y017968D01*
X024580Y017968D01*
X024749Y018038D01*
X024878Y018168D01*
X024948Y018337D01*
X024948Y019040D01*
X024878Y019209D01*
X024768Y019319D01*
X024768Y021058D01*
X024878Y021168D01*
X024948Y021337D01*
X024948Y022040D01*
X024878Y022209D01*
X024749Y022338D01*
X024580Y022408D01*
X024397Y022408D01*
X024228Y022338D01*
X024098Y022209D01*
X024028Y022040D01*
X024028Y021337D01*
X024098Y021168D01*
X024208Y021058D01*
X024208Y019319D01*
X024098Y019209D01*
X024028Y019040D01*
X024028Y018337D01*
X024098Y018168D01*
X024228Y018038D01*
X024069Y018238D02*
X023907Y018238D01*
X023948Y018396D02*
X024028Y018396D01*
X024028Y018555D02*
X023948Y018555D01*
X023948Y018713D02*
X024028Y018713D01*
X024028Y018872D02*
X023948Y018872D01*
X023948Y019030D02*
X024028Y019030D01*
X024090Y019189D02*
X023887Y019189D01*
X023768Y019347D02*
X024208Y019347D01*
X024208Y019506D02*
X023768Y019506D01*
X023768Y019665D02*
X024208Y019665D01*
X024208Y019823D02*
X023768Y019823D01*
X023768Y019982D02*
X024208Y019982D01*
X024208Y020140D02*
X023768Y020140D01*
X023768Y020299D02*
X024208Y020299D01*
X024208Y020457D02*
X023768Y020457D01*
X023768Y020616D02*
X024208Y020616D01*
X024208Y020774D02*
X023768Y020774D01*
X023768Y020933D02*
X024208Y020933D01*
X024175Y021091D02*
X023802Y021091D01*
X023912Y021250D02*
X024064Y021250D01*
X024028Y021409D02*
X023948Y021409D01*
X023948Y021567D02*
X024028Y021567D01*
X024028Y021726D02*
X023948Y021726D01*
X023948Y021884D02*
X024028Y021884D01*
X024030Y022043D02*
X023947Y022043D01*
X023881Y022201D02*
X024095Y022201D01*
X024280Y022360D02*
X023697Y022360D01*
X023280Y022360D02*
X022697Y022360D01*
X022749Y022338D02*
X022580Y022408D01*
X022397Y022408D01*
X022228Y022338D01*
X022098Y022209D01*
X022028Y022040D01*
X022028Y021337D01*
X022098Y021168D01*
X022208Y021058D01*
X022208Y019319D01*
X022098Y019209D01*
X022028Y019040D01*
X022028Y018337D01*
X022098Y018168D01*
X022228Y018038D01*
X022397Y017968D01*
X022580Y017968D01*
X022749Y018038D01*
X022878Y018168D01*
X022948Y018337D01*
X022948Y019040D01*
X022878Y019209D01*
X022768Y019319D01*
X022768Y021058D01*
X022878Y021168D01*
X022948Y021337D01*
X022948Y022040D01*
X022878Y022209D01*
X022749Y022338D01*
X022881Y022201D02*
X023095Y022201D01*
X023030Y022043D02*
X022947Y022043D01*
X022948Y021884D02*
X023028Y021884D01*
X023028Y021726D02*
X022948Y021726D01*
X022948Y021567D02*
X023028Y021567D01*
X023028Y021409D02*
X022948Y021409D01*
X022912Y021250D02*
X023064Y021250D01*
X023175Y021091D02*
X022802Y021091D01*
X022768Y020933D02*
X023208Y020933D01*
X023208Y020774D02*
X022768Y020774D01*
X022768Y020616D02*
X023208Y020616D01*
X023208Y020457D02*
X022768Y020457D01*
X022768Y020299D02*
X023208Y020299D01*
X023208Y020140D02*
X022768Y020140D01*
X022768Y019982D02*
X023208Y019982D01*
X023208Y019823D02*
X022768Y019823D01*
X022768Y019665D02*
X023208Y019665D01*
X023208Y019506D02*
X022768Y019506D01*
X022768Y019347D02*
X023208Y019347D01*
X023090Y019189D02*
X022887Y019189D01*
X022948Y019030D02*
X023028Y019030D01*
X023028Y018872D02*
X022948Y018872D01*
X022948Y018713D02*
X023028Y018713D01*
X023028Y018555D02*
X022948Y018555D01*
X022948Y018396D02*
X023028Y018396D01*
X023069Y018238D02*
X022907Y018238D01*
X022790Y018079D02*
X023187Y018079D01*
X023488Y018688D02*
X023488Y021688D01*
X022488Y021688D02*
X022488Y018688D01*
X022028Y018713D02*
X021948Y018713D01*
X021948Y018555D02*
X022028Y018555D01*
X022028Y018396D02*
X021948Y018396D01*
X021948Y018337D02*
X021948Y019040D01*
X021878Y019209D01*
X021768Y019319D01*
X021768Y021058D01*
X021878Y021168D01*
X021948Y021337D01*
X021948Y022040D01*
X021878Y022209D01*
X021749Y022338D01*
X021580Y022408D01*
X021397Y022408D01*
X021228Y022338D01*
X021098Y022209D01*
X021028Y022040D01*
X021028Y021337D01*
X021098Y021168D01*
X021208Y021058D01*
X021208Y019319D01*
X021098Y019209D01*
X021028Y019040D01*
X021028Y018337D01*
X021098Y018168D01*
X021228Y018038D01*
X021397Y017968D01*
X021580Y017968D01*
X021749Y018038D01*
X021878Y018168D01*
X021948Y018337D01*
X021907Y018238D02*
X022069Y018238D01*
X022187Y018079D02*
X021790Y018079D01*
X021187Y018079D02*
X020790Y018079D01*
X020749Y018038D02*
X020878Y018168D01*
X020948Y018337D01*
X020948Y019040D01*
X020878Y019209D01*
X020768Y019319D01*
X020768Y021058D01*
X020878Y021168D01*
X020948Y021337D01*
X020948Y022040D01*
X020878Y022209D01*
X020749Y022338D01*
X020580Y022408D01*
X020397Y022408D01*
X020228Y022338D01*
X020098Y022209D01*
X020028Y022040D01*
X020028Y021337D01*
X020098Y021168D01*
X020208Y021058D01*
X020208Y019319D01*
X020098Y019209D01*
X020028Y019040D01*
X020028Y018337D01*
X020098Y018168D01*
X020228Y018038D01*
X020397Y017968D01*
X020580Y017968D01*
X020749Y018038D01*
X020907Y018238D02*
X021069Y018238D01*
X021028Y018396D02*
X020948Y018396D01*
X020948Y018555D02*
X021028Y018555D01*
X021028Y018713D02*
X020948Y018713D01*
X020948Y018872D02*
X021028Y018872D01*
X021028Y019030D02*
X020948Y019030D01*
X020887Y019189D02*
X021090Y019189D01*
X021208Y019347D02*
X020768Y019347D01*
X020768Y019506D02*
X021208Y019506D01*
X021208Y019665D02*
X020768Y019665D01*
X020768Y019823D02*
X021208Y019823D01*
X021208Y019982D02*
X020768Y019982D01*
X020768Y020140D02*
X021208Y020140D01*
X021208Y020299D02*
X020768Y020299D01*
X020768Y020457D02*
X021208Y020457D01*
X021208Y020616D02*
X020768Y020616D01*
X020768Y020774D02*
X021208Y020774D01*
X021208Y020933D02*
X020768Y020933D01*
X020802Y021091D02*
X021175Y021091D01*
X021064Y021250D02*
X020912Y021250D01*
X020948Y021409D02*
X021028Y021409D01*
X021028Y021567D02*
X020948Y021567D01*
X020948Y021726D02*
X021028Y021726D01*
X021028Y021884D02*
X020948Y021884D01*
X020947Y022043D02*
X021030Y022043D01*
X021095Y022201D02*
X020881Y022201D01*
X020697Y022360D02*
X021280Y022360D01*
X021697Y022360D02*
X022280Y022360D01*
X022095Y022201D02*
X021881Y022201D01*
X021947Y022043D02*
X022030Y022043D01*
X022028Y021884D02*
X021948Y021884D01*
X021948Y021726D02*
X022028Y021726D01*
X022028Y021567D02*
X021948Y021567D01*
X021948Y021409D02*
X022028Y021409D01*
X022064Y021250D02*
X021912Y021250D01*
X021802Y021091D02*
X022175Y021091D01*
X022208Y020933D02*
X021768Y020933D01*
X021768Y020774D02*
X022208Y020774D01*
X022208Y020616D02*
X021768Y020616D01*
X021768Y020457D02*
X022208Y020457D01*
X022208Y020299D02*
X021768Y020299D01*
X021768Y020140D02*
X022208Y020140D01*
X022208Y019982D02*
X021768Y019982D01*
X021768Y019823D02*
X022208Y019823D01*
X022208Y019665D02*
X021768Y019665D01*
X021768Y019506D02*
X022208Y019506D01*
X022208Y019347D02*
X021768Y019347D01*
X021887Y019189D02*
X022090Y019189D01*
X022028Y019030D02*
X021948Y019030D01*
X021948Y018872D02*
X022028Y018872D01*
X021488Y018688D02*
X021488Y021688D01*
X020488Y021688D02*
X020488Y018688D01*
X020028Y018713D02*
X019948Y018713D01*
X019948Y018555D02*
X020028Y018555D01*
X020028Y018396D02*
X019948Y018396D01*
X019948Y018337D02*
X019948Y019040D01*
X019878Y019209D01*
X019768Y019319D01*
X019768Y019933D01*
X019768Y020044D01*
X019726Y020147D01*
X018792Y021081D01*
X018878Y021168D01*
X018948Y021337D01*
X018948Y022040D01*
X018878Y022209D01*
X018749Y022338D01*
X018580Y022408D01*
X018397Y022408D01*
X018228Y022338D01*
X018098Y022209D01*
X018028Y022040D01*
X018028Y021337D01*
X018098Y021168D01*
X018208Y021058D01*
X018208Y020933D01*
X017808Y020933D01*
X017808Y021091D02*
X018175Y021091D01*
X018208Y020933D02*
X018251Y020830D01*
X018330Y020751D01*
X019208Y019872D01*
X019208Y019319D01*
X019098Y019209D01*
X019028Y019040D01*
X019028Y018337D01*
X019098Y018168D01*
X019228Y018038D01*
X019397Y017968D01*
X019580Y017968D01*
X019749Y018038D01*
X019878Y018168D01*
X019948Y018337D01*
X019907Y018238D02*
X020069Y018238D01*
X020187Y018079D02*
X019790Y018079D01*
X019187Y018079D02*
X018790Y018079D01*
X018749Y018038D02*
X018878Y018168D01*
X018948Y018337D01*
X018948Y019040D01*
X018878Y019209D01*
X018749Y019338D01*
X018580Y019408D01*
X018397Y019408D01*
X018228Y019338D01*
X018098Y019209D01*
X018028Y019040D01*
X018028Y018337D01*
X018098Y018168D01*
X018228Y018038D01*
X018397Y017968D01*
X018580Y017968D01*
X018749Y018038D01*
X018907Y018238D02*
X019069Y018238D01*
X019028Y018396D02*
X018948Y018396D01*
X018948Y018555D02*
X019028Y018555D01*
X019028Y018713D02*
X018948Y018713D01*
X018948Y018872D02*
X019028Y018872D01*
X019028Y019030D02*
X018948Y019030D01*
X018887Y019189D02*
X019090Y019189D01*
X019208Y019347D02*
X018727Y019347D01*
X018250Y019347D02*
X017808Y019347D01*
X017808Y019279D02*
X017808Y021925D01*
X017808Y021988D01*
X017808Y022188D01*
X017808Y022188D01*
X017705Y022575D01*
X017505Y022922D01*
X017222Y023205D01*
X016875Y023405D01*
X016488Y023508D01*
X016352Y023508D01*
X015079Y023508D01*
X015009Y023578D01*
X014840Y023648D01*
X014808Y023648D01*
X014808Y024358D01*
X014948Y024498D01*
X014948Y024879D01*
X014808Y025019D01*
X014808Y025050D01*
X014708Y025357D01*
X014519Y025619D01*
X014519Y025619D01*
X014519Y025619D01*
X014257Y025808D01*
X013950Y025908D01*
X013950Y025908D01*
X013852Y025908D01*
X013852Y025908D01*
X013830Y025908D01*
X013788Y025908D01*
X010152Y025908D01*
X010088Y025908D01*
X010044Y025912D01*
X009961Y025939D01*
X009920Y025969D01*
X009948Y025998D01*
X009948Y026379D01*
X009679Y026648D01*
X009298Y026648D01*
X009158Y026508D01*
X008319Y026508D01*
X008179Y026648D01*
X007798Y026648D01*
X007528Y026379D01*
X007528Y025998D01*
X007798Y025728D01*
X008179Y025728D01*
X008319Y025868D01*
X009158Y025868D01*
X009257Y025769D01*
X009258Y025765D01*
X009430Y025530D01*
X009430Y025530D01*
X009665Y025358D01*
X009665Y025358D01*
X009943Y025268D01*
X010088Y025268D01*
X010152Y025268D01*
X013788Y025268D01*
X013848Y025264D01*
X013961Y025227D01*
X014057Y025157D01*
X014127Y025061D01*
X014147Y024998D01*
X014028Y024879D01*
X014028Y024498D01*
X014168Y024358D01*
X014168Y023648D01*
X014137Y023648D01*
X013968Y023578D01*
X013838Y023449D01*
X013768Y023280D01*
X013768Y023097D01*
X013838Y022928D01*
X013968Y022798D01*
X014137Y022728D01*
X014840Y022728D01*
X015009Y022798D01*
X015079Y022868D01*
X016288Y022868D01*
X016403Y022861D01*
X016625Y022801D01*
X016824Y022686D01*
X016986Y022524D01*
X017101Y022325D01*
X017161Y022103D01*
X017168Y021988D01*
X017168Y021925D01*
X017168Y019279D01*
X017098Y019209D01*
X017028Y019040D01*
X017028Y018337D01*
X017098Y018168D01*
X017228Y018038D01*
X017397Y017968D01*
X017580Y017968D01*
X017749Y018038D01*
X017878Y018168D01*
X017948Y018337D01*
X017948Y019040D01*
X017878Y019209D01*
X017808Y019279D01*
X017887Y019189D02*
X018090Y019189D01*
X018028Y019030D02*
X017948Y019030D01*
X017948Y018872D02*
X018028Y018872D01*
X018028Y018713D02*
X017948Y018713D01*
X017948Y018555D02*
X018028Y018555D01*
X018028Y018396D02*
X017948Y018396D01*
X017907Y018238D02*
X018069Y018238D01*
X018187Y018079D02*
X017790Y018079D01*
X017187Y018079D02*
X016494Y018079D01*
X016652Y017921D02*
X034388Y017921D01*
X034388Y017864D02*
X034388Y017682D01*
X034425Y017646D01*
X034388Y017609D01*
X034388Y017262D01*
X034388Y017080D01*
X034458Y017010D01*
X034452Y017009D01*
X034444Y016993D01*
X034428Y016985D01*
X034405Y016913D01*
X034371Y016846D01*
X034376Y016829D01*
X034371Y016812D01*
X034405Y016744D01*
X034428Y016673D01*
X034444Y016665D01*
X034452Y016649D01*
X034523Y016625D01*
X034475Y016578D01*
X034388Y016491D01*
X034388Y016317D01*
X034388Y016135D01*
X034425Y016099D01*
X034388Y016062D01*
X034388Y016037D01*
X034375Y016017D01*
X034388Y015949D01*
X034388Y015880D01*
X034406Y015862D01*
X034410Y015838D01*
X034468Y015800D01*
X034471Y015797D01*
X034388Y015715D01*
X034388Y015533D01*
X034425Y015496D01*
X034388Y015460D01*
X034388Y015286D01*
X034388Y015104D01*
X034604Y014888D01*
X034786Y014888D01*
X034817Y014888D01*
X034852Y014871D01*
X034904Y014888D01*
X035220Y014888D01*
X035289Y014958D01*
X035357Y014890D01*
X035878Y014890D01*
X036060Y014890D01*
X036189Y015019D01*
X036189Y015201D01*
X036106Y015283D01*
X036189Y015366D01*
X036189Y015548D01*
X036187Y015550D01*
X036060Y015677D01*
X036015Y015677D01*
X036015Y015794D01*
X036015Y015977D01*
X035984Y016008D01*
X036147Y016008D01*
X036275Y016137D01*
X036275Y016319D01*
X036147Y016448D01*
X036015Y016448D01*
X036015Y016654D01*
X036015Y016836D01*
X035929Y016923D01*
X035800Y017052D01*
X035357Y017052D01*
X035228Y016923D01*
X035228Y016741D01*
X035311Y016658D01*
X035228Y016576D01*
X035228Y016394D01*
X035228Y016182D01*
X035220Y016191D01*
X035175Y016191D01*
X035175Y016317D01*
X035175Y016491D01*
X035138Y016528D01*
X035193Y016638D01*
X035135Y016811D01*
X035100Y016829D01*
X035135Y016846D01*
X035188Y017006D01*
X035349Y017166D01*
X035349Y017305D01*
X035357Y017296D01*
X035878Y017296D01*
X036060Y017296D01*
X036189Y017425D01*
X036189Y017685D01*
X036189Y017867D01*
X036102Y017954D01*
X036015Y018041D01*
X036015Y018209D01*
X036015Y018383D01*
X035935Y018463D01*
X036015Y018543D01*
X036015Y018716D01*
X036015Y018899D01*
X035979Y018935D01*
X036015Y018972D01*
X036015Y019145D01*
X036015Y019414D01*
X035978Y019451D01*
X036015Y019488D01*
X036015Y019620D01*
X036060Y019620D01*
X036189Y019748D01*
X036189Y019931D01*
X036060Y020059D01*
X035886Y020059D01*
X035704Y020059D01*
X035539Y020059D01*
X035357Y020059D01*
X035228Y019931D01*
X035228Y019670D01*
X035228Y019488D01*
X035315Y019401D01*
X035434Y019283D01*
X035357Y019283D01*
X035228Y019154D01*
X035228Y019103D01*
X035220Y019111D01*
X034828Y019111D01*
X034828Y019156D01*
X034699Y019285D01*
X034517Y019285D01*
X034388Y019156D01*
X034388Y018627D01*
X034388Y018111D01*
X034425Y018074D01*
X034388Y018038D01*
X034388Y017864D01*
X034388Y017762D02*
X016811Y017762D01*
X016969Y017603D02*
X034388Y017603D01*
X034388Y017445D02*
X017128Y017445D01*
X017088Y017088D02*
X029688Y017088D01*
X029886Y017286D02*
X034388Y017286D01*
X034388Y017128D02*
X030045Y017128D01*
X030203Y016969D02*
X034423Y016969D01*
X034371Y016811D02*
X030362Y016811D01*
X030520Y016652D02*
X034451Y016652D01*
X034391Y016494D02*
X030679Y016494D01*
X030768Y016335D02*
X031278Y016335D01*
X031111Y016177D02*
X030892Y016177D01*
X030948Y016018D02*
X031054Y016018D01*
X031048Y015859D02*
X030948Y015859D01*
X032387Y014591D02*
X036678Y014591D01*
X036678Y014433D02*
X032229Y014433D01*
X032546Y014750D02*
X036678Y014750D01*
X036678Y014908D02*
X036078Y014908D01*
X036189Y015067D02*
X036678Y015067D01*
X036678Y015225D02*
X036164Y015225D01*
X036189Y015366D02*
X036189Y015366D01*
X036189Y015384D02*
X036678Y015384D01*
X036678Y015542D02*
X036189Y015542D01*
X036060Y015677D02*
X036060Y015677D01*
X036015Y015701D02*
X036678Y015701D01*
X036678Y015859D02*
X036015Y015859D01*
X036157Y016018D02*
X036678Y016018D01*
X036678Y016177D02*
X036275Y016177D01*
X036259Y016335D02*
X036678Y016335D01*
X036678Y016494D02*
X036015Y016494D01*
X036015Y016652D02*
X036678Y016652D01*
X036678Y016811D02*
X036015Y016811D01*
X035882Y016969D02*
X036678Y016969D01*
X036678Y017128D02*
X035310Y017128D01*
X035275Y016969D02*
X035176Y016969D01*
X035135Y016811D02*
X035228Y016811D01*
X035188Y016652D02*
X035305Y016652D01*
X035228Y016494D02*
X035172Y016494D01*
X035175Y016335D02*
X035228Y016335D01*
X034388Y016335D02*
X033698Y016335D01*
X033719Y016325D02*
X033657Y016356D01*
X033591Y016377D01*
X033523Y016388D01*
X033489Y016388D01*
X033489Y015689D01*
X033928Y015689D01*
X033928Y015983D01*
X033917Y016051D01*
X033896Y016117D01*
X033865Y016179D01*
X033824Y016235D01*
X033775Y016284D01*
X033719Y016325D01*
X033866Y016177D02*
X034388Y016177D01*
X034375Y016018D02*
X033923Y016018D01*
X033928Y015859D02*
X034406Y015859D01*
X034388Y015701D02*
X033928Y015701D01*
X033928Y015688D02*
X033489Y015688D01*
X033489Y015689D01*
X033488Y015689D01*
X033488Y016388D01*
X033454Y016388D01*
X033385Y016377D01*
X033319Y016356D01*
X033258Y016325D01*
X033202Y016284D01*
X033153Y016235D01*
X033112Y016179D01*
X033081Y016117D01*
X033059Y016051D01*
X033048Y015983D01*
X033048Y015689D01*
X033488Y015689D01*
X033488Y015688D01*
X033489Y015688D01*
X033489Y014988D01*
X033523Y014988D01*
X033591Y014999D01*
X033657Y015021D01*
X033719Y015052D01*
X033775Y015093D01*
X033824Y015142D01*
X033865Y015198D01*
X033896Y015259D01*
X033917Y015325D01*
X033928Y015394D01*
X033928Y015688D01*
X033928Y015542D02*
X034388Y015542D01*
X034388Y015384D02*
X033927Y015384D01*
X033879Y015225D02*
X034388Y015225D01*
X034426Y015067D02*
X033739Y015067D01*
X033489Y015067D02*
X033488Y015067D01*
X033488Y014988D02*
X033488Y015688D01*
X033048Y015688D01*
X033048Y015394D01*
X033059Y015325D01*
X033081Y015259D01*
X033112Y015198D01*
X033153Y015142D01*
X033202Y015093D01*
X033258Y015052D01*
X033319Y015021D01*
X033385Y014999D01*
X033454Y014988D01*
X033488Y014988D01*
X033488Y015225D02*
X033489Y015225D01*
X033488Y015384D02*
X033489Y015384D01*
X033488Y015542D02*
X033489Y015542D01*
X033488Y015701D02*
X033489Y015701D01*
X033488Y015859D02*
X033489Y015859D01*
X033488Y016018D02*
X033489Y016018D01*
X033488Y016177D02*
X033489Y016177D01*
X033488Y016335D02*
X033489Y016335D01*
X033278Y016335D02*
X032752Y016335D01*
X032892Y016177D02*
X033111Y016177D01*
X033054Y016018D02*
X032948Y016018D01*
X032948Y015859D02*
X033048Y015859D01*
X033048Y015701D02*
X032948Y015701D01*
X032948Y015542D02*
X033048Y015542D01*
X033050Y015384D02*
X032948Y015384D01*
X032902Y015225D02*
X033098Y015225D01*
X033237Y015067D02*
X032777Y015067D01*
X032704Y014908D02*
X034584Y014908D01*
X035240Y014908D02*
X035339Y014908D01*
X035265Y014116D02*
X034212Y014116D01*
X034370Y013957D02*
X035106Y013957D01*
X035028Y013798D02*
X034448Y013798D01*
X034448Y013640D02*
X035028Y013640D01*
X035045Y013481D02*
X034432Y013481D01*
X034273Y013323D02*
X035203Y013323D01*
X032488Y015088D02*
X032488Y015688D01*
X032397Y017968D02*
X032580Y017968D01*
X032749Y018038D01*
X032878Y018168D01*
X032948Y018337D01*
X032948Y019040D01*
X032878Y019209D01*
X032768Y019319D01*
X032768Y021058D01*
X032878Y021168D01*
X032948Y021337D01*
X032948Y022040D01*
X032878Y022209D01*
X032749Y022338D01*
X032580Y022408D01*
X032397Y022408D01*
X032228Y022338D01*
X032098Y022209D01*
X032028Y022040D01*
X032028Y021337D01*
X032098Y021168D01*
X032208Y021058D01*
X032208Y019319D01*
X032098Y019209D01*
X032028Y019040D01*
X032028Y018337D01*
X032098Y018168D01*
X032228Y018038D01*
X032397Y017968D01*
X032187Y018079D02*
X031790Y018079D01*
X031749Y018038D02*
X031878Y018168D01*
X031948Y018337D01*
X031948Y019040D01*
X031878Y019209D01*
X031768Y019319D01*
X031768Y021058D01*
X031878Y021168D01*
X031948Y021337D01*
X031948Y022040D01*
X031878Y022209D01*
X031749Y022338D01*
X031580Y022408D01*
X031397Y022408D01*
X031228Y022338D01*
X031098Y022209D01*
X031028Y022040D01*
X031028Y021337D01*
X031098Y021168D01*
X031208Y021058D01*
X031208Y019319D01*
X031098Y019209D01*
X031028Y019040D01*
X031028Y018337D01*
X031098Y018168D01*
X031228Y018038D01*
X031397Y017968D01*
X031580Y017968D01*
X031749Y018038D01*
X031907Y018238D02*
X032069Y018238D01*
X032028Y018396D02*
X031948Y018396D01*
X031948Y018555D02*
X032028Y018555D01*
X032028Y018713D02*
X031948Y018713D01*
X031948Y018872D02*
X032028Y018872D01*
X032028Y019030D02*
X031948Y019030D01*
X031887Y019189D02*
X032090Y019189D01*
X032208Y019347D02*
X031768Y019347D01*
X031768Y019506D02*
X032208Y019506D01*
X032208Y019665D02*
X031768Y019665D01*
X031768Y019823D02*
X032208Y019823D01*
X032208Y019982D02*
X031768Y019982D01*
X031768Y020140D02*
X032208Y020140D01*
X032208Y020299D02*
X031768Y020299D01*
X031768Y020457D02*
X032208Y020457D01*
X032208Y020616D02*
X031768Y020616D01*
X031768Y020774D02*
X032208Y020774D01*
X032208Y020933D02*
X031768Y020933D01*
X031802Y021091D02*
X032175Y021091D01*
X032064Y021250D02*
X031912Y021250D01*
X031948Y021409D02*
X032028Y021409D01*
X032028Y021567D02*
X031948Y021567D01*
X031948Y021726D02*
X032028Y021726D01*
X032028Y021884D02*
X031948Y021884D01*
X031947Y022043D02*
X032030Y022043D01*
X032095Y022201D02*
X031881Y022201D01*
X031697Y022360D02*
X032280Y022360D01*
X032697Y022360D02*
X033280Y022360D01*
X033228Y022338D02*
X033098Y022209D01*
X033028Y022040D01*
X033028Y021337D01*
X033098Y021168D01*
X033208Y021058D01*
X033208Y019319D01*
X033098Y019209D01*
X033028Y019040D01*
X033028Y018337D01*
X033098Y018168D01*
X033228Y018038D01*
X033397Y017968D01*
X033580Y017968D01*
X033749Y018038D01*
X033878Y018168D01*
X033948Y018337D01*
X033948Y019040D01*
X033878Y019209D01*
X033768Y019319D01*
X033768Y021058D01*
X033878Y021168D01*
X033948Y021337D01*
X033948Y022040D01*
X033878Y022209D01*
X033749Y022338D01*
X033580Y022408D01*
X033397Y022408D01*
X033228Y022338D01*
X033095Y022201D02*
X032881Y022201D01*
X032947Y022043D02*
X033030Y022043D01*
X033028Y021884D02*
X032948Y021884D01*
X032948Y021726D02*
X033028Y021726D01*
X033028Y021567D02*
X032948Y021567D01*
X032948Y021409D02*
X033028Y021409D01*
X033064Y021250D02*
X032912Y021250D01*
X032802Y021091D02*
X033175Y021091D01*
X033208Y020933D02*
X032768Y020933D01*
X032768Y020774D02*
X033208Y020774D01*
X033208Y020616D02*
X032768Y020616D01*
X032768Y020457D02*
X033208Y020457D01*
X033208Y020299D02*
X032768Y020299D01*
X032768Y020140D02*
X033208Y020140D01*
X033208Y019982D02*
X032768Y019982D01*
X032768Y019823D02*
X033208Y019823D01*
X033208Y019665D02*
X032768Y019665D01*
X032768Y019506D02*
X033208Y019506D01*
X033208Y019347D02*
X032768Y019347D01*
X032887Y019189D02*
X033090Y019189D01*
X033028Y019030D02*
X032948Y019030D01*
X032948Y018872D02*
X033028Y018872D01*
X033028Y018713D02*
X032948Y018713D01*
X032948Y018555D02*
X033028Y018555D01*
X033028Y018396D02*
X032948Y018396D01*
X032907Y018238D02*
X033069Y018238D01*
X033187Y018079D02*
X032790Y018079D01*
X032488Y018688D02*
X032488Y021688D01*
X033488Y021688D02*
X033488Y018688D01*
X033948Y018713D02*
X034388Y018713D01*
X034388Y018555D02*
X033948Y018555D01*
X033948Y018396D02*
X034388Y018396D01*
X034388Y018238D02*
X033907Y018238D01*
X033790Y018079D02*
X034420Y018079D01*
X034388Y018872D02*
X033948Y018872D01*
X033948Y019030D02*
X034388Y019030D01*
X034421Y019189D02*
X033887Y019189D01*
X033768Y019347D02*
X035369Y019347D01*
X035263Y019189D02*
X034795Y019189D01*
X035220Y019111D02*
X035220Y019111D01*
X035228Y019506D02*
X033768Y019506D01*
X033768Y019665D02*
X035228Y019665D01*
X035228Y019823D02*
X033768Y019823D01*
X033768Y019982D02*
X035279Y019982D01*
X036138Y019982D02*
X036678Y019982D01*
X036678Y020140D02*
X033768Y020140D01*
X033768Y020299D02*
X036678Y020299D01*
X036678Y020457D02*
X033768Y020457D01*
X033768Y020616D02*
X036678Y020616D01*
X036678Y020774D02*
X033768Y020774D01*
X033768Y020933D02*
X036678Y020933D01*
X036678Y021091D02*
X034773Y021091D01*
X034775Y021093D02*
X034824Y021142D01*
X034865Y021198D01*
X034896Y021259D01*
X034917Y021325D01*
X034928Y021394D01*
X034928Y021688D01*
X034489Y021688D01*
X034489Y021689D01*
X034928Y021689D01*
X034928Y021983D01*
X034917Y022051D01*
X034896Y022117D01*
X034865Y022179D01*
X034824Y022235D01*
X034775Y022284D01*
X034719Y022325D01*
X034657Y022356D01*
X034591Y022377D01*
X034523Y022388D01*
X034489Y022388D01*
X034489Y021689D01*
X034488Y021689D01*
X034488Y022388D01*
X034454Y022388D01*
X034385Y022377D01*
X034319Y022356D01*
X034258Y022325D01*
X034202Y022284D01*
X034153Y022235D01*
X034112Y022179D01*
X034081Y022117D01*
X034059Y022051D01*
X034048Y021983D01*
X034048Y021689D01*
X034488Y021689D01*
X034488Y021688D01*
X034489Y021688D01*
X034489Y020988D01*
X034523Y020988D01*
X034591Y020999D01*
X034657Y021021D01*
X034719Y021052D01*
X034775Y021093D01*
X034891Y021250D02*
X036678Y021250D01*
X036678Y021409D02*
X034928Y021409D01*
X034928Y021567D02*
X036678Y021567D01*
X036678Y021726D02*
X034928Y021726D01*
X034928Y021884D02*
X036678Y021884D01*
X036678Y022043D02*
X034919Y022043D01*
X034848Y022201D02*
X036678Y022201D01*
X036678Y022360D02*
X034646Y022360D01*
X034489Y022360D02*
X034488Y022360D01*
X034331Y022360D02*
X033697Y022360D01*
X033881Y022201D02*
X034128Y022201D01*
X034058Y022043D02*
X033947Y022043D01*
X033948Y021884D02*
X034048Y021884D01*
X034048Y021726D02*
X033948Y021726D01*
X034048Y021688D02*
X034048Y021394D01*
X034059Y021325D01*
X034081Y021259D01*
X034112Y021198D01*
X034153Y021142D01*
X034202Y021093D01*
X034258Y021052D01*
X034319Y021021D01*
X034385Y020999D01*
X034454Y020988D01*
X034488Y020988D01*
X034488Y021688D01*
X034048Y021688D01*
X034048Y021567D02*
X033948Y021567D01*
X033948Y021409D02*
X034048Y021409D01*
X034085Y021250D02*
X033912Y021250D01*
X033802Y021091D02*
X034203Y021091D01*
X034488Y021091D02*
X034489Y021091D01*
X034488Y021250D02*
X034489Y021250D01*
X034488Y021409D02*
X034489Y021409D01*
X034488Y021567D02*
X034489Y021567D01*
X034488Y021726D02*
X034489Y021726D01*
X034488Y021884D02*
X034489Y021884D01*
X034488Y022043D02*
X034489Y022043D01*
X034488Y022201D02*
X034489Y022201D01*
X034580Y023968D02*
X034749Y024038D01*
X034878Y024168D01*
X034948Y024337D01*
X034948Y025040D01*
X034878Y025209D01*
X034749Y025338D01*
X034580Y025408D01*
X034397Y025408D01*
X034228Y025338D01*
X034098Y025209D01*
X034028Y025040D01*
X034028Y024337D01*
X034098Y024168D01*
X034228Y024038D01*
X034397Y023968D01*
X034580Y023968D01*
X034814Y024104D02*
X036678Y024104D01*
X036678Y024262D02*
X034917Y024262D01*
X034948Y024421D02*
X036678Y024421D01*
X036678Y024579D02*
X034948Y024579D01*
X034948Y024738D02*
X036678Y024738D01*
X036678Y024896D02*
X034948Y024896D01*
X034942Y025055D02*
X036678Y025055D01*
X036678Y025214D02*
X034874Y025214D01*
X034667Y025372D02*
X036678Y025372D01*
X036678Y025531D02*
X033768Y025531D01*
X033768Y025689D02*
X036678Y025689D01*
X036678Y025848D02*
X033768Y025848D01*
X033768Y026006D02*
X036678Y026006D01*
X036678Y026165D02*
X033768Y026165D01*
X033768Y026323D02*
X036678Y026323D01*
X036678Y026482D02*
X033768Y026482D01*
X033768Y026618D02*
X033941Y026618D01*
X034058Y026735D01*
X034058Y027641D01*
X033941Y027758D01*
X033035Y027758D01*
X032918Y027641D01*
X032918Y027564D01*
X032811Y027672D01*
X032602Y027758D01*
X032375Y027758D01*
X032165Y027672D01*
X032005Y027511D01*
X031988Y027471D01*
X031972Y027511D01*
X031811Y027672D01*
X031602Y027758D01*
X031375Y027758D01*
X031165Y027672D01*
X031005Y027511D01*
X030988Y027471D01*
X030972Y027511D01*
X030811Y027672D01*
X030602Y027758D01*
X030375Y027758D01*
X030165Y027672D01*
X030005Y027511D01*
X029988Y027471D01*
X029972Y027511D01*
X029811Y027672D01*
X029602Y027758D01*
X029375Y027758D01*
X029165Y027672D01*
X029005Y027511D01*
X028988Y027471D01*
X028972Y027511D01*
X028811Y027672D01*
X028602Y027758D01*
X028375Y027758D01*
X028165Y027672D01*
X028005Y027511D01*
X027988Y027471D01*
X027972Y027511D01*
X027811Y027672D01*
X027602Y027758D01*
X027375Y027758D01*
X027165Y027672D01*
X027005Y027511D01*
X026988Y027471D01*
X026972Y027511D01*
X026811Y027672D01*
X026602Y027758D01*
X026375Y027758D01*
X026165Y027672D01*
X026005Y027511D01*
X025918Y027302D01*
X025918Y027075D01*
X026005Y026865D01*
X026165Y026705D01*
X026375Y026618D01*
X026602Y026618D01*
X026811Y026705D01*
X026972Y026865D01*
X026988Y026906D01*
X027005Y026865D01*
X027165Y026705D01*
X027208Y026687D01*
X027208Y025319D01*
X027098Y025209D01*
X027028Y025040D01*
X027028Y024337D01*
X027098Y024168D01*
X027228Y024038D01*
X027397Y023968D01*
X027580Y023968D01*
X027749Y024038D01*
X027878Y024168D01*
X027948Y024337D01*
X027948Y025040D01*
X027878Y025209D01*
X027768Y025319D01*
X027768Y026687D01*
X027811Y026705D01*
X027972Y026865D01*
X027988Y026906D01*
X028005Y026865D01*
X028165Y026705D01*
X028208Y026687D01*
X028208Y025319D01*
X028098Y025209D01*
X028028Y025040D01*
X028028Y024337D01*
X028098Y024168D01*
X028228Y024038D01*
X028397Y023968D01*
X028580Y023968D01*
X028749Y024038D01*
X028878Y024168D01*
X028948Y024337D01*
X028948Y025040D01*
X028878Y025209D01*
X028768Y025319D01*
X028768Y026687D01*
X028811Y026705D01*
X028972Y026865D01*
X028988Y026906D01*
X029005Y026865D01*
X029165Y026705D01*
X029208Y026687D01*
X029208Y025319D01*
X029098Y025209D01*
X029028Y025040D01*
X029028Y024337D01*
X029098Y024168D01*
X029228Y024038D01*
X029397Y023968D01*
X029580Y023968D01*
X029749Y024038D01*
X029878Y024168D01*
X029948Y024337D01*
X029948Y025040D01*
X029878Y025209D01*
X029768Y025319D01*
X029768Y026687D01*
X029811Y026705D01*
X029972Y026865D01*
X029988Y026906D01*
X030005Y026865D01*
X030165Y026705D01*
X030208Y026687D01*
X030208Y025319D01*
X030098Y025209D01*
X030028Y025040D01*
X030028Y024337D01*
X030098Y024168D01*
X030228Y024038D01*
X030397Y023968D01*
X030580Y023968D01*
X030749Y024038D01*
X030878Y024168D01*
X030948Y024337D01*
X030948Y025040D01*
X030878Y025209D01*
X030768Y025319D01*
X030768Y026687D01*
X030811Y026705D01*
X030972Y026865D01*
X030988Y026906D01*
X031005Y026865D01*
X031165Y026705D01*
X031208Y026687D01*
X031208Y025319D01*
X031098Y025209D01*
X031028Y025040D01*
X031028Y024337D01*
X031098Y024168D01*
X031228Y024038D01*
X031397Y023968D01*
X031580Y023968D01*
X031749Y024038D01*
X031878Y024168D01*
X031948Y024337D01*
X031948Y025040D01*
X031878Y025209D01*
X031768Y025319D01*
X031768Y026687D01*
X031811Y026705D01*
X031972Y026865D01*
X031988Y026906D01*
X032005Y026865D01*
X032165Y026705D01*
X032208Y026687D01*
X032208Y025319D01*
X032098Y025209D01*
X032028Y025040D01*
X032028Y024337D01*
X032098Y024168D01*
X032228Y024038D01*
X032397Y023968D01*
X032580Y023968D01*
X032749Y024038D01*
X032878Y024168D01*
X032948Y024337D01*
X032948Y025040D01*
X032878Y025209D01*
X032768Y025319D01*
X032768Y026687D01*
X032811Y026705D01*
X032918Y026812D01*
X032918Y026735D01*
X033035Y026618D01*
X033208Y026618D01*
X033208Y025319D01*
X033098Y025209D01*
X033028Y025040D01*
X033028Y024337D01*
X033098Y024168D01*
X033228Y024038D01*
X033397Y023968D01*
X033580Y023968D01*
X033749Y024038D01*
X033878Y024168D01*
X033948Y024337D01*
X033948Y025040D01*
X033878Y025209D01*
X033768Y025319D01*
X033768Y026618D01*
X033963Y026640D02*
X036678Y026640D01*
X036678Y026799D02*
X036435Y026799D01*
X036656Y026958D02*
X036678Y026958D01*
X035342Y026799D02*
X034058Y026799D01*
X034058Y026958D02*
X035121Y026958D01*
X034972Y027116D02*
X034058Y027116D01*
X034058Y027275D02*
X034880Y027275D01*
X034814Y027433D02*
X034058Y027433D01*
X034058Y027592D02*
X034771Y027592D01*
X034758Y027750D02*
X033949Y027750D01*
X034758Y027909D02*
X015626Y027909D01*
X015586Y027949D02*
X015404Y027949D01*
X015402Y027947D01*
X015275Y027820D01*
X015275Y027820D01*
X015275Y027428D01*
X015230Y027428D01*
X015108Y027306D01*
X015108Y027480D01*
X015038Y027649D01*
X014909Y027778D01*
X014740Y027848D01*
X014733Y027848D01*
X014802Y027917D01*
X014888Y028004D01*
X014888Y028186D01*
X014888Y028360D01*
X014759Y028489D01*
X014673Y028575D01*
X014490Y028575D01*
X014317Y028575D01*
X014280Y028539D01*
X014244Y028575D01*
X013984Y028575D01*
X013801Y028575D01*
X013715Y028489D01*
X013586Y028360D01*
X013586Y027917D01*
X013715Y027788D01*
X013892Y027788D01*
X013868Y027778D01*
X013738Y027649D01*
X013668Y027480D01*
X013668Y027297D01*
X013738Y027128D01*
X013868Y026998D01*
X014037Y026928D01*
X014740Y026928D01*
X014909Y026998D01*
X015038Y027128D01*
X015101Y027280D01*
X015101Y027117D01*
X015230Y026988D01*
X015759Y026988D01*
X015888Y027117D01*
X015888Y027299D01*
X015806Y027382D01*
X015888Y027464D01*
X015888Y027646D01*
X015586Y027949D01*
X015586Y027949D01*
X015364Y027909D02*
X014793Y027909D01*
X014802Y027917D02*
X014802Y027917D01*
X014888Y028067D02*
X034793Y028067D01*
X034836Y028226D02*
X014888Y028226D01*
X014864Y028384D02*
X034928Y028384D01*
X035045Y028543D02*
X014705Y028543D01*
X014285Y028543D02*
X014276Y028543D01*
X013769Y028543D02*
X012105Y028543D01*
X012264Y028384D02*
X013611Y028384D01*
X013586Y028226D02*
X012288Y028226D01*
X012288Y028067D02*
X013586Y028067D01*
X013594Y027909D02*
X012193Y027909D01*
X011899Y027750D02*
X013840Y027750D01*
X013715Y027592D02*
X012039Y027592D01*
X012087Y027433D02*
X013668Y027433D01*
X013678Y027275D02*
X012074Y027275D01*
X012077Y027285D02*
X012088Y027354D01*
X012088Y027388D01*
X011389Y027388D01*
X011389Y026948D01*
X011683Y026948D01*
X011751Y026959D01*
X011817Y026981D01*
X011879Y027012D01*
X011935Y027053D01*
X011984Y027102D01*
X012025Y027158D01*
X012056Y027219D01*
X012077Y027285D01*
X011994Y027116D02*
X013750Y027116D01*
X013966Y026958D02*
X011741Y026958D01*
X011751Y026817D02*
X011683Y026828D01*
X011389Y026828D01*
X011389Y026389D01*
X011388Y026389D01*
X011388Y026828D01*
X011094Y026828D01*
X011025Y026817D01*
X010959Y026796D01*
X010898Y026765D01*
X010842Y026724D01*
X010793Y026675D01*
X010752Y026619D01*
X010721Y026557D01*
X010699Y026491D01*
X010688Y026423D01*
X010688Y026389D01*
X011388Y026389D01*
X011388Y026388D01*
X011389Y026388D01*
X011389Y026389D01*
X012088Y026389D01*
X012088Y026423D01*
X012077Y026491D01*
X012056Y026557D01*
X012025Y026619D01*
X011984Y026675D01*
X011935Y026724D01*
X011879Y026765D01*
X011817Y026796D01*
X011751Y026817D01*
X011808Y026799D02*
X013918Y026799D01*
X013868Y026778D02*
X014037Y026848D01*
X014740Y026848D01*
X014909Y026778D01*
X015038Y026649D01*
X015101Y026496D01*
X015101Y026551D01*
X015101Y026733D01*
X015188Y026820D01*
X015317Y026949D01*
X015490Y026949D01*
X015673Y026949D01*
X015888Y026733D01*
X015888Y026551D01*
X015763Y026425D01*
X015888Y026299D01*
X015888Y026117D01*
X015759Y025988D01*
X015577Y025988D01*
X015230Y025988D01*
X015101Y026117D01*
X015101Y026280D01*
X015038Y026128D01*
X014909Y025998D01*
X014740Y025928D01*
X014037Y025928D01*
X013868Y025998D01*
X013738Y026128D01*
X013668Y026297D01*
X013668Y026480D01*
X013738Y026649D01*
X013868Y026778D01*
X013735Y026640D02*
X012009Y026640D01*
X012079Y026482D02*
X013669Y026482D01*
X013668Y026323D02*
X012084Y026323D01*
X012088Y026354D02*
X012088Y026388D01*
X011389Y026388D01*
X011389Y025948D01*
X011683Y025948D01*
X011751Y025959D01*
X011817Y025981D01*
X011879Y026012D01*
X011935Y026053D01*
X011984Y026102D01*
X012025Y026158D01*
X012056Y026219D01*
X012077Y026285D01*
X012088Y026354D01*
X012028Y026165D02*
X013723Y026165D01*
X013860Y026006D02*
X011868Y026006D01*
X011389Y026006D02*
X011388Y026006D01*
X011388Y025948D02*
X011388Y026388D01*
X010688Y026388D01*
X010688Y026354D01*
X010699Y026285D01*
X010721Y026219D01*
X010752Y026158D01*
X010793Y026102D01*
X010842Y026053D01*
X010898Y026012D01*
X010959Y025981D01*
X011025Y025959D01*
X011094Y025948D01*
X011388Y025948D01*
X011388Y026165D02*
X011389Y026165D01*
X011388Y026323D02*
X011389Y026323D01*
X011388Y026482D02*
X011389Y026482D01*
X011388Y026640D02*
X011389Y026640D01*
X011388Y026799D02*
X011389Y026799D01*
X011388Y026948D02*
X011094Y026948D01*
X011025Y026959D01*
X010959Y026981D01*
X010898Y027012D01*
X010842Y027053D01*
X010793Y027102D01*
X010752Y027158D01*
X010721Y027219D01*
X010699Y027285D01*
X010688Y027354D01*
X010688Y027388D01*
X011388Y027388D01*
X011388Y026948D01*
X011388Y026958D02*
X011389Y026958D01*
X011388Y027116D02*
X011389Y027116D01*
X011388Y027275D02*
X011389Y027275D01*
X011036Y026958D02*
X008256Y026958D01*
X008405Y027116D02*
X010782Y027116D01*
X010703Y027275D02*
X008496Y027275D01*
X008563Y027433D02*
X010690Y027433D01*
X010738Y027592D02*
X008605Y027592D01*
X008618Y027750D02*
X010878Y027750D01*
X010911Y027909D02*
X008618Y027909D01*
X008583Y028067D02*
X010902Y028067D01*
X010816Y028226D02*
X008541Y028226D01*
X008449Y028384D02*
X010840Y028384D01*
X010816Y028543D02*
X008332Y028543D01*
X006721Y026958D02*
X006668Y026958D01*
X006668Y026799D02*
X006942Y026799D01*
X006668Y026640D02*
X007790Y026640D01*
X007631Y026482D02*
X006668Y026482D01*
X006668Y026323D02*
X007528Y026323D01*
X007528Y026165D02*
X006668Y026165D01*
X006668Y026006D02*
X007528Y026006D01*
X007678Y025848D02*
X006668Y025848D01*
X006668Y025689D02*
X009314Y025689D01*
X009258Y025765D02*
X009258Y025765D01*
X009178Y025848D02*
X008298Y025848D01*
X008187Y026640D02*
X009290Y026640D01*
X009687Y026640D02*
X010768Y026640D01*
X010698Y026482D02*
X009845Y026482D01*
X009948Y026323D02*
X010693Y026323D01*
X010748Y026165D02*
X009948Y026165D01*
X009948Y026006D02*
X010909Y026006D01*
X010968Y026799D02*
X008035Y026799D01*
X006668Y025531D02*
X009429Y025531D01*
X009647Y025372D02*
X006668Y025372D01*
X006668Y025214D02*
X013979Y025214D01*
X014129Y025055D02*
X013744Y025055D01*
X013671Y025128D02*
X013489Y025128D01*
X013489Y024689D01*
X013928Y024689D01*
X013928Y024871D01*
X013671Y025128D01*
X013488Y025128D02*
X013306Y025128D01*
X013048Y024871D01*
X013048Y024689D01*
X013488Y024689D01*
X013488Y025128D01*
X013488Y025055D02*
X013489Y025055D01*
X013488Y024896D02*
X013489Y024896D01*
X013488Y024738D02*
X013489Y024738D01*
X013489Y024689D02*
X013488Y024689D01*
X013488Y024688D01*
X013489Y024688D01*
X013489Y024689D01*
X013489Y024688D02*
X013928Y024688D01*
X013928Y024506D01*
X013671Y024248D01*
X013489Y024248D01*
X013489Y024688D01*
X013488Y024688D02*
X013488Y024248D01*
X013306Y024248D01*
X013048Y024506D01*
X013048Y024688D01*
X013488Y024688D01*
X013488Y024579D02*
X013489Y024579D01*
X013488Y024421D02*
X013489Y024421D01*
X013488Y024262D02*
X013489Y024262D01*
X013684Y024262D02*
X014168Y024262D01*
X014168Y024104D02*
X006668Y024104D01*
X006668Y024262D02*
X013292Y024262D01*
X013134Y024421D02*
X006668Y024421D01*
X006668Y024579D02*
X013048Y024579D01*
X013048Y024738D02*
X006668Y024738D01*
X006668Y024896D02*
X013074Y024896D01*
X013233Y025055D02*
X006668Y025055D01*
X006668Y023945D02*
X014168Y023945D01*
X014168Y023787D02*
X006668Y023787D01*
X006668Y023628D02*
X007778Y023628D01*
X007619Y023470D02*
X006668Y023470D01*
X006668Y023311D02*
X007528Y023311D01*
X008199Y023628D02*
X009278Y023628D01*
X009298Y023648D02*
X009028Y023379D01*
X009028Y022998D01*
X009298Y022728D01*
X009679Y022728D01*
X009859Y022908D01*
X010858Y022908D01*
X010968Y022798D01*
X011137Y022728D01*
X011840Y022728D01*
X012009Y022798D01*
X012138Y022928D01*
X012208Y023097D01*
X012208Y023280D01*
X012138Y023449D01*
X012009Y023578D01*
X011840Y023648D01*
X011137Y023648D01*
X010968Y023578D01*
X010858Y023468D01*
X009859Y023468D01*
X009679Y023648D01*
X009298Y023648D01*
X009119Y023470D02*
X008358Y023470D01*
X008448Y023311D02*
X009028Y023311D01*
X009028Y023152D02*
X008448Y023152D01*
X008444Y022994D02*
X009032Y022994D01*
X009191Y022835D02*
X008286Y022835D01*
X008268Y022677D02*
X016834Y022677D01*
X016990Y022518D02*
X015069Y022518D01*
X015009Y022578D02*
X015138Y022449D01*
X015208Y022280D01*
X015208Y022097D01*
X015138Y021928D01*
X015009Y021798D01*
X014840Y021728D01*
X014137Y021728D01*
X013968Y021798D01*
X013838Y021928D01*
X013768Y022097D01*
X013768Y022280D01*
X013838Y022449D01*
X013968Y022578D01*
X014137Y022648D01*
X014840Y022648D01*
X015009Y022578D01*
X015046Y022835D02*
X016498Y022835D01*
X017081Y022360D02*
X015175Y022360D01*
X015208Y022201D02*
X017135Y022201D01*
X017165Y022043D02*
X015186Y022043D01*
X015095Y021884D02*
X017168Y021884D01*
X017168Y021726D02*
X012947Y021726D01*
X012788Y021884D02*
X013882Y021884D01*
X013791Y022043D02*
X012630Y022043D01*
X012471Y022201D02*
X013768Y022201D01*
X013801Y022360D02*
X012313Y022360D01*
X012088Y022188D02*
X013488Y020788D01*
X013488Y020088D01*
X013888Y019688D01*
X015088Y019688D01*
X015688Y019088D01*
X015688Y018488D01*
X017088Y017088D01*
X016688Y016488D02*
X014988Y018188D01*
X014488Y018188D01*
X015968Y018713D02*
X017028Y018713D01*
X017028Y018555D02*
X016018Y018555D01*
X016176Y018396D02*
X017028Y018396D01*
X017069Y018238D02*
X016335Y018238D01*
X015968Y018872D02*
X017028Y018872D01*
X017028Y019030D02*
X015968Y019030D01*
X015950Y019189D02*
X017090Y019189D01*
X017168Y019347D02*
X015825Y019347D01*
X015667Y019506D02*
X017168Y019506D01*
X017168Y019665D02*
X015508Y019665D01*
X015350Y019823D02*
X017168Y019823D01*
X017168Y019982D02*
X015161Y019982D01*
X015208Y020140D02*
X017168Y020140D01*
X017168Y020299D02*
X015201Y020299D01*
X015130Y020457D02*
X017168Y020457D01*
X017168Y020616D02*
X014918Y020616D01*
X014840Y020728D02*
X015009Y020798D01*
X015138Y020928D01*
X015208Y021097D01*
X015208Y021280D01*
X015138Y021449D01*
X015009Y021578D01*
X014840Y021648D01*
X014137Y021648D01*
X013968Y021578D01*
X013838Y021449D01*
X013768Y021280D01*
X013768Y021097D01*
X013838Y020928D01*
X013968Y020798D01*
X014137Y020728D01*
X014840Y020728D01*
X014951Y020774D02*
X017168Y020774D01*
X017168Y020933D02*
X015140Y020933D01*
X015206Y021091D02*
X017168Y021091D01*
X017168Y021250D02*
X015208Y021250D01*
X015155Y021409D02*
X017168Y021409D01*
X017168Y021567D02*
X015020Y021567D01*
X013957Y021567D02*
X013106Y021567D01*
X013264Y021409D02*
X013822Y021409D01*
X013768Y021250D02*
X013423Y021250D01*
X013581Y021091D02*
X013771Y021091D01*
X013647Y021026D02*
X013647Y021026D01*
X013731Y020933D02*
X013836Y020933D01*
X013768Y020774D02*
X014026Y020774D01*
X014058Y020616D02*
X013768Y020616D01*
X013768Y020457D02*
X013847Y020457D01*
X013776Y020299D02*
X013768Y020299D01*
X013768Y020204D02*
X013768Y020204D01*
X013208Y020616D02*
X013057Y020616D01*
X013106Y020774D02*
X012898Y020774D01*
X012948Y020933D02*
X012740Y020933D01*
X012789Y021091D02*
X012581Y021091D01*
X012631Y021250D02*
X012423Y021250D01*
X012472Y021409D02*
X012264Y021409D01*
X012314Y021567D02*
X012020Y021567D01*
X012155Y021726D02*
X008268Y021726D01*
X008268Y021884D02*
X010882Y021884D01*
X010791Y022043D02*
X008268Y022043D01*
X008268Y022201D02*
X010768Y022201D01*
X010801Y022360D02*
X008268Y022360D01*
X008268Y022518D02*
X010908Y022518D01*
X010931Y022835D02*
X009786Y022835D01*
X009488Y023188D02*
X011488Y023188D01*
X011088Y023628D02*
X009699Y023628D01*
X009858Y023470D02*
X010859Y023470D01*
X011889Y023628D02*
X014088Y023628D01*
X013859Y023470D02*
X012118Y023470D01*
X012195Y023311D02*
X013781Y023311D01*
X013768Y023152D02*
X012208Y023152D01*
X012166Y022994D02*
X013811Y022994D01*
X013931Y022835D02*
X012046Y022835D01*
X012069Y022518D02*
X013908Y022518D01*
X014889Y023628D02*
X036678Y023628D01*
X036678Y023470D02*
X016633Y023470D01*
X016488Y023508D02*
X016488Y023508D01*
X016875Y023405D02*
X016875Y023405D01*
X017037Y023311D02*
X036678Y023311D01*
X036678Y023152D02*
X017274Y023152D01*
X017222Y023205D02*
X017222Y023205D01*
X017432Y022994D02*
X036678Y022994D01*
X036678Y022835D02*
X017554Y022835D01*
X017505Y022922D02*
X017505Y022922D01*
X017646Y022677D02*
X036678Y022677D01*
X036678Y022518D02*
X017720Y022518D01*
X017705Y022575D02*
X017705Y022575D01*
X017762Y022360D02*
X018280Y022360D01*
X018095Y022201D02*
X017805Y022201D01*
X017808Y022043D02*
X018030Y022043D01*
X018028Y021884D02*
X017808Y021884D01*
X017808Y021726D02*
X018028Y021726D01*
X018028Y021567D02*
X017808Y021567D01*
X017808Y021409D02*
X018028Y021409D01*
X018064Y021250D02*
X017808Y021250D01*
X017808Y020774D02*
X018306Y020774D01*
X018465Y020616D02*
X017808Y020616D01*
X017808Y020457D02*
X018623Y020457D01*
X018782Y020299D02*
X017808Y020299D01*
X017808Y020140D02*
X018941Y020140D01*
X019099Y019982D02*
X017808Y019982D01*
X017808Y019823D02*
X019208Y019823D01*
X019208Y019665D02*
X017808Y019665D01*
X017808Y019506D02*
X019208Y019506D01*
X019488Y019988D02*
X018488Y020988D01*
X018488Y021688D01*
X018948Y021726D02*
X019028Y021726D01*
X019028Y021884D02*
X018948Y021884D01*
X018947Y022043D02*
X019030Y022043D01*
X019028Y022040D02*
X019098Y022209D01*
X019228Y022338D01*
X019397Y022408D01*
X019580Y022408D01*
X019749Y022338D01*
X019878Y022209D01*
X019948Y022040D01*
X019948Y021337D01*
X019878Y021168D01*
X019749Y021038D01*
X019580Y020968D01*
X019397Y020968D01*
X019228Y021038D01*
X019098Y021168D01*
X019028Y021337D01*
X019028Y022040D01*
X019095Y022201D02*
X018881Y022201D01*
X018697Y022360D02*
X019280Y022360D01*
X019697Y022360D02*
X020280Y022360D01*
X020095Y022201D02*
X019881Y022201D01*
X019947Y022043D02*
X020030Y022043D01*
X020028Y021884D02*
X019948Y021884D01*
X019948Y021726D02*
X020028Y021726D01*
X020028Y021567D02*
X019948Y021567D01*
X019948Y021409D02*
X020028Y021409D01*
X020064Y021250D02*
X019912Y021250D01*
X019802Y021091D02*
X020175Y021091D01*
X020208Y020933D02*
X018940Y020933D01*
X018802Y021091D02*
X019175Y021091D01*
X019064Y021250D02*
X018912Y021250D01*
X018948Y021409D02*
X019028Y021409D01*
X019028Y021567D02*
X018948Y021567D01*
X019098Y020774D02*
X020208Y020774D01*
X020208Y020616D02*
X019257Y020616D01*
X019415Y020457D02*
X020208Y020457D01*
X020208Y020299D02*
X019574Y020299D01*
X019729Y020140D02*
X020208Y020140D01*
X020208Y019982D02*
X019768Y019982D01*
X019768Y019823D02*
X020208Y019823D01*
X020208Y019665D02*
X019768Y019665D01*
X019768Y019506D02*
X020208Y019506D01*
X020208Y019347D02*
X019768Y019347D01*
X019887Y019189D02*
X020090Y019189D01*
X020028Y019030D02*
X019948Y019030D01*
X019948Y018872D02*
X020028Y018872D01*
X019488Y018688D02*
X019488Y019988D01*
X015326Y019847D02*
X015326Y019847D01*
X012088Y021188D02*
X011488Y021188D01*
X011026Y020774D02*
X008268Y020774D01*
X008268Y020933D02*
X010836Y020933D01*
X010771Y021091D02*
X008268Y021091D01*
X008268Y021250D02*
X010768Y021250D01*
X010822Y021409D02*
X008268Y021409D01*
X008268Y021567D02*
X010957Y021567D01*
X011488Y022188D02*
X012088Y022188D01*
X014808Y023787D02*
X036678Y023787D01*
X036678Y023945D02*
X014808Y023945D01*
X014808Y024104D02*
X018162Y024104D01*
X018098Y024168D02*
X018228Y024038D01*
X018397Y023968D01*
X018580Y023968D01*
X018749Y024038D01*
X018878Y024168D01*
X018948Y024337D01*
X018948Y025040D01*
X018878Y025209D01*
X018768Y025319D01*
X018768Y026687D01*
X018811Y026705D01*
X018972Y026865D01*
X018988Y026906D01*
X019005Y026865D01*
X019165Y026705D01*
X019208Y026687D01*
X019208Y025319D01*
X019098Y025209D01*
X019028Y025040D01*
X019028Y024337D01*
X019098Y024168D01*
X019228Y024038D01*
X019397Y023968D01*
X019580Y023968D01*
X019749Y024038D01*
X019878Y024168D01*
X019948Y024337D01*
X019948Y025040D01*
X019878Y025209D01*
X019768Y025319D01*
X019768Y026687D01*
X019811Y026705D01*
X019972Y026865D01*
X019988Y026906D01*
X020005Y026865D01*
X020165Y026705D01*
X020208Y026687D01*
X020208Y025319D01*
X020098Y025209D01*
X020028Y025040D01*
X020028Y024337D01*
X020098Y024168D01*
X020228Y024038D01*
X020397Y023968D01*
X020580Y023968D01*
X020749Y024038D01*
X020878Y024168D01*
X020948Y024337D01*
X020948Y025040D01*
X020878Y025209D01*
X020768Y025319D01*
X020768Y026687D01*
X020811Y026705D01*
X020972Y026865D01*
X020988Y026906D01*
X021005Y026865D01*
X021165Y026705D01*
X021208Y026687D01*
X021208Y025319D01*
X021098Y025209D01*
X021028Y025040D01*
X021028Y024337D01*
X021098Y024168D01*
X021228Y024038D01*
X021397Y023968D01*
X021580Y023968D01*
X021749Y024038D01*
X021878Y024168D01*
X021948Y024337D01*
X021948Y025040D01*
X021878Y025209D01*
X021768Y025319D01*
X021768Y026687D01*
X021811Y026705D01*
X021972Y026865D01*
X021988Y026906D01*
X022005Y026865D01*
X022165Y026705D01*
X022208Y026687D01*
X022208Y025319D01*
X022098Y025209D01*
X022028Y025040D01*
X022028Y024337D01*
X022098Y024168D01*
X022228Y024038D01*
X022397Y023968D01*
X022580Y023968D01*
X022749Y024038D01*
X022878Y024168D01*
X022948Y024337D01*
X022948Y025040D01*
X022878Y025209D01*
X022768Y025319D01*
X022768Y026687D01*
X022811Y026705D01*
X022972Y026865D01*
X022988Y026906D01*
X023005Y026865D01*
X023165Y026705D01*
X023208Y026687D01*
X023208Y025319D01*
X023098Y025209D01*
X023028Y025040D01*
X023028Y024337D01*
X023098Y024168D01*
X023228Y024038D01*
X023397Y023968D01*
X023580Y023968D01*
X023749Y024038D01*
X023878Y024168D01*
X023948Y024337D01*
X023948Y025040D01*
X023878Y025209D01*
X023768Y025319D01*
X023768Y026687D01*
X023811Y026705D01*
X023918Y026812D01*
X023918Y026735D01*
X024035Y026618D01*
X024208Y026618D01*
X024208Y025319D01*
X024098Y025209D01*
X024028Y025040D01*
X024028Y024337D01*
X024098Y024168D01*
X024228Y024038D01*
X024397Y023968D01*
X024580Y023968D01*
X024749Y024038D01*
X024878Y024168D01*
X024948Y024337D01*
X024948Y025040D01*
X024878Y025209D01*
X024768Y025319D01*
X024768Y026618D01*
X024941Y026618D01*
X025058Y026735D01*
X025058Y027641D01*
X024941Y027758D01*
X024035Y027758D01*
X023918Y027641D01*
X023918Y027564D01*
X023811Y027672D01*
X023602Y027758D01*
X023375Y027758D01*
X023165Y027672D01*
X023005Y027511D01*
X022988Y027471D01*
X022972Y027511D01*
X022811Y027672D01*
X022602Y027758D01*
X022375Y027758D01*
X022165Y027672D01*
X022005Y027511D01*
X021988Y027471D01*
X021972Y027511D01*
X021811Y027672D01*
X021602Y027758D01*
X021375Y027758D01*
X021165Y027672D01*
X021005Y027511D01*
X020988Y027471D01*
X020972Y027511D01*
X020811Y027672D01*
X020602Y027758D01*
X020375Y027758D01*
X020165Y027672D01*
X020005Y027511D01*
X019988Y027471D01*
X019972Y027511D01*
X019811Y027672D01*
X019602Y027758D01*
X019375Y027758D01*
X019165Y027672D01*
X019005Y027511D01*
X018988Y027471D01*
X018972Y027511D01*
X018811Y027672D01*
X018602Y027758D01*
X018375Y027758D01*
X018165Y027672D01*
X018005Y027511D01*
X017988Y027471D01*
X017972Y027511D01*
X017811Y027672D01*
X017602Y027758D01*
X017375Y027758D01*
X017165Y027672D01*
X017005Y027511D01*
X016918Y027302D01*
X016918Y027075D01*
X017005Y026865D01*
X017165Y026705D01*
X017375Y026618D01*
X017602Y026618D01*
X017811Y026705D01*
X017972Y026865D01*
X017988Y026906D01*
X018005Y026865D01*
X018165Y026705D01*
X018208Y026687D01*
X018208Y025319D01*
X018098Y025209D01*
X018028Y025040D01*
X018028Y024337D01*
X018098Y024168D01*
X018059Y024262D02*
X014808Y024262D01*
X014871Y024421D02*
X018028Y024421D01*
X018028Y024579D02*
X014948Y024579D01*
X014948Y024738D02*
X018028Y024738D01*
X018028Y024896D02*
X014931Y024896D01*
X014808Y025050D02*
X014808Y025050D01*
X014807Y025055D02*
X018035Y025055D01*
X018103Y025214D02*
X014755Y025214D01*
X014708Y025357D02*
X014708Y025357D01*
X014698Y025372D02*
X018208Y025372D01*
X018208Y025531D02*
X014582Y025531D01*
X014421Y025689D02*
X018208Y025689D01*
X018208Y025848D02*
X014136Y025848D01*
X014257Y025808D02*
X014257Y025808D01*
X014917Y026006D02*
X015212Y026006D01*
X015101Y026165D02*
X015054Y026165D01*
X015042Y026640D02*
X015101Y026640D01*
X015167Y026799D02*
X014859Y026799D01*
X014810Y026958D02*
X016967Y026958D01*
X016918Y027116D02*
X015887Y027116D01*
X015888Y027275D02*
X016918Y027275D01*
X016973Y027433D02*
X015857Y027433D01*
X015888Y027592D02*
X017086Y027592D01*
X017355Y027750D02*
X015784Y027750D01*
X015275Y027750D02*
X014937Y027750D01*
X015062Y027592D02*
X015275Y027592D01*
X015275Y027433D02*
X015108Y027433D01*
X015099Y027275D02*
X015101Y027275D01*
X015103Y027116D02*
X015027Y027116D01*
X015822Y026799D02*
X017072Y026799D01*
X017322Y026640D02*
X015888Y026640D01*
X015819Y026482D02*
X018208Y026482D01*
X018208Y026640D02*
X017655Y026640D01*
X017905Y026799D02*
X018072Y026799D01*
X018208Y026323D02*
X015864Y026323D01*
X015888Y026165D02*
X018208Y026165D01*
X018208Y026006D02*
X015777Y026006D01*
X014046Y024896D02*
X013902Y024896D01*
X013928Y024738D02*
X014028Y024738D01*
X014028Y024579D02*
X013928Y024579D01*
X013843Y024421D02*
X014105Y024421D01*
X017891Y027592D02*
X018086Y027592D01*
X018355Y027750D02*
X017621Y027750D01*
X018621Y027750D02*
X019355Y027750D01*
X019621Y027750D02*
X020355Y027750D01*
X020621Y027750D02*
X021355Y027750D01*
X021621Y027750D02*
X022355Y027750D01*
X022621Y027750D02*
X023355Y027750D01*
X023621Y027750D02*
X024027Y027750D01*
X023918Y027592D02*
X023891Y027592D01*
X023488Y027188D02*
X023488Y024688D01*
X023028Y024738D02*
X022948Y024738D01*
X022948Y024896D02*
X023028Y024896D01*
X023035Y025055D02*
X022942Y025055D01*
X022874Y025214D02*
X023103Y025214D01*
X023208Y025372D02*
X022768Y025372D01*
X022768Y025531D02*
X023208Y025531D01*
X023208Y025689D02*
X022768Y025689D01*
X022768Y025848D02*
X023208Y025848D01*
X023208Y026006D02*
X022768Y026006D01*
X022768Y026165D02*
X023208Y026165D01*
X023208Y026323D02*
X022768Y026323D01*
X022768Y026482D02*
X023208Y026482D01*
X023208Y026640D02*
X022768Y026640D01*
X022905Y026799D02*
X023072Y026799D01*
X022488Y027188D02*
X022488Y024688D01*
X022028Y024738D02*
X021948Y024738D01*
X021948Y024896D02*
X022028Y024896D01*
X022035Y025055D02*
X021942Y025055D01*
X021874Y025214D02*
X022103Y025214D01*
X022208Y025372D02*
X021768Y025372D01*
X021768Y025531D02*
X022208Y025531D01*
X022208Y025689D02*
X021768Y025689D01*
X021768Y025848D02*
X022208Y025848D01*
X022208Y026006D02*
X021768Y026006D01*
X021768Y026165D02*
X022208Y026165D01*
X022208Y026323D02*
X021768Y026323D01*
X021768Y026482D02*
X022208Y026482D01*
X022208Y026640D02*
X021768Y026640D01*
X021905Y026799D02*
X022072Y026799D01*
X021488Y027188D02*
X021488Y024688D01*
X021028Y024738D02*
X020948Y024738D01*
X020948Y024896D02*
X021028Y024896D01*
X021035Y025055D02*
X020942Y025055D01*
X020874Y025214D02*
X021103Y025214D01*
X021208Y025372D02*
X020768Y025372D01*
X020768Y025531D02*
X021208Y025531D01*
X021208Y025689D02*
X020768Y025689D01*
X020768Y025848D02*
X021208Y025848D01*
X021208Y026006D02*
X020768Y026006D01*
X020768Y026165D02*
X021208Y026165D01*
X021208Y026323D02*
X020768Y026323D01*
X020768Y026482D02*
X021208Y026482D01*
X021208Y026640D02*
X020768Y026640D01*
X020905Y026799D02*
X021072Y026799D01*
X020488Y027188D02*
X020488Y024688D01*
X020028Y024738D02*
X019948Y024738D01*
X019948Y024896D02*
X020028Y024896D01*
X020035Y025055D02*
X019942Y025055D01*
X019874Y025214D02*
X020103Y025214D01*
X020208Y025372D02*
X019768Y025372D01*
X019768Y025531D02*
X020208Y025531D01*
X020208Y025689D02*
X019768Y025689D01*
X019768Y025848D02*
X020208Y025848D01*
X020208Y026006D02*
X019768Y026006D01*
X019768Y026165D02*
X020208Y026165D01*
X020208Y026323D02*
X019768Y026323D01*
X019768Y026482D02*
X020208Y026482D01*
X020208Y026640D02*
X019768Y026640D01*
X019905Y026799D02*
X020072Y026799D01*
X019488Y027188D02*
X019488Y024688D01*
X019028Y024738D02*
X018948Y024738D01*
X018948Y024896D02*
X019028Y024896D01*
X019035Y025055D02*
X018942Y025055D01*
X018874Y025214D02*
X019103Y025214D01*
X019208Y025372D02*
X018768Y025372D01*
X018768Y025531D02*
X019208Y025531D01*
X019208Y025689D02*
X018768Y025689D01*
X018768Y025848D02*
X019208Y025848D01*
X019208Y026006D02*
X018768Y026006D01*
X018768Y026165D02*
X019208Y026165D01*
X019208Y026323D02*
X018768Y026323D01*
X018768Y026482D02*
X019208Y026482D01*
X019208Y026640D02*
X018768Y026640D01*
X018905Y026799D02*
X019072Y026799D01*
X018488Y027188D02*
X018488Y024688D01*
X018948Y024579D02*
X019028Y024579D01*
X019028Y024421D02*
X018948Y024421D01*
X018917Y024262D02*
X019059Y024262D01*
X019162Y024104D02*
X018814Y024104D01*
X019814Y024104D02*
X020162Y024104D01*
X020059Y024262D02*
X019917Y024262D01*
X019948Y024421D02*
X020028Y024421D01*
X020028Y024579D02*
X019948Y024579D01*
X020814Y024104D02*
X021162Y024104D01*
X021059Y024262D02*
X020917Y024262D01*
X020948Y024421D02*
X021028Y024421D01*
X021028Y024579D02*
X020948Y024579D01*
X021814Y024104D02*
X022162Y024104D01*
X022059Y024262D02*
X021917Y024262D01*
X021948Y024421D02*
X022028Y024421D01*
X022028Y024579D02*
X021948Y024579D01*
X022814Y024104D02*
X023162Y024104D01*
X023059Y024262D02*
X022917Y024262D01*
X022948Y024421D02*
X023028Y024421D01*
X023028Y024579D02*
X022948Y024579D01*
X023814Y024104D02*
X024162Y024104D01*
X024059Y024262D02*
X023917Y024262D01*
X023948Y024421D02*
X024028Y024421D01*
X024028Y024579D02*
X023948Y024579D01*
X023948Y024738D02*
X024028Y024738D01*
X024028Y024896D02*
X023948Y024896D01*
X023942Y025055D02*
X024035Y025055D01*
X024103Y025214D02*
X023874Y025214D01*
X023768Y025372D02*
X024208Y025372D01*
X024208Y025531D02*
X023768Y025531D01*
X023768Y025689D02*
X024208Y025689D01*
X024208Y025848D02*
X023768Y025848D01*
X023768Y026006D02*
X024208Y026006D01*
X024208Y026165D02*
X023768Y026165D01*
X023768Y026323D02*
X024208Y026323D01*
X024208Y026482D02*
X023768Y026482D01*
X023768Y026640D02*
X024013Y026640D01*
X023918Y026799D02*
X023905Y026799D01*
X024488Y027188D02*
X024488Y024688D01*
X024948Y024738D02*
X025028Y024738D01*
X025028Y024896D02*
X024948Y024896D01*
X024942Y025055D02*
X025035Y025055D01*
X025028Y025040D02*
X025098Y025209D01*
X025228Y025338D01*
X025397Y025408D01*
X025580Y025408D01*
X025749Y025338D01*
X025878Y025209D01*
X025948Y025040D01*
X025948Y024337D01*
X025878Y024168D01*
X025749Y024038D01*
X025580Y023968D01*
X025397Y023968D01*
X025228Y024038D01*
X025098Y024168D01*
X025028Y024337D01*
X025028Y025040D01*
X025103Y025214D02*
X024874Y025214D01*
X024768Y025372D02*
X025309Y025372D01*
X025667Y025372D02*
X027208Y025372D01*
X027208Y025531D02*
X024768Y025531D01*
X024768Y025689D02*
X027208Y025689D01*
X027208Y025848D02*
X024768Y025848D01*
X024768Y026006D02*
X027208Y026006D01*
X027208Y026165D02*
X024768Y026165D01*
X024768Y026323D02*
X027208Y026323D01*
X027208Y026482D02*
X024768Y026482D01*
X024963Y026640D02*
X026322Y026640D01*
X026072Y026799D02*
X025058Y026799D01*
X025058Y026958D02*
X025967Y026958D01*
X025918Y027116D02*
X025058Y027116D01*
X025058Y027275D02*
X025918Y027275D01*
X025973Y027433D02*
X025058Y027433D01*
X025058Y027592D02*
X026086Y027592D01*
X026355Y027750D02*
X024949Y027750D01*
X026621Y027750D02*
X027355Y027750D01*
X027621Y027750D02*
X028355Y027750D01*
X028621Y027750D02*
X029355Y027750D01*
X029621Y027750D02*
X030355Y027750D01*
X030621Y027750D02*
X031355Y027750D01*
X031621Y027750D02*
X032355Y027750D01*
X032621Y027750D02*
X033027Y027750D01*
X032918Y027592D02*
X032891Y027592D01*
X032488Y027188D02*
X032488Y024688D01*
X032028Y024738D02*
X031948Y024738D01*
X031948Y024896D02*
X032028Y024896D01*
X032035Y025055D02*
X031942Y025055D01*
X031874Y025214D02*
X032103Y025214D01*
X032208Y025372D02*
X031768Y025372D01*
X031768Y025531D02*
X032208Y025531D01*
X032208Y025689D02*
X031768Y025689D01*
X031768Y025848D02*
X032208Y025848D01*
X032208Y026006D02*
X031768Y026006D01*
X031768Y026165D02*
X032208Y026165D01*
X032208Y026323D02*
X031768Y026323D01*
X031768Y026482D02*
X032208Y026482D01*
X032208Y026640D02*
X031768Y026640D01*
X031905Y026799D02*
X032072Y026799D01*
X032768Y026640D02*
X033013Y026640D01*
X032918Y026799D02*
X032905Y026799D01*
X032768Y026482D02*
X033208Y026482D01*
X033208Y026323D02*
X032768Y026323D01*
X032768Y026165D02*
X033208Y026165D01*
X033208Y026006D02*
X032768Y026006D01*
X032768Y025848D02*
X033208Y025848D01*
X033208Y025689D02*
X032768Y025689D01*
X032768Y025531D02*
X033208Y025531D01*
X033208Y025372D02*
X032768Y025372D01*
X032874Y025214D02*
X033103Y025214D01*
X033035Y025055D02*
X032942Y025055D01*
X032948Y024896D02*
X033028Y024896D01*
X033028Y024738D02*
X032948Y024738D01*
X032948Y024579D02*
X033028Y024579D01*
X033028Y024421D02*
X032948Y024421D01*
X032917Y024262D02*
X033059Y024262D01*
X033162Y024104D02*
X032814Y024104D01*
X032162Y024104D02*
X031814Y024104D01*
X031917Y024262D02*
X032059Y024262D01*
X032028Y024421D02*
X031948Y024421D01*
X031948Y024579D02*
X032028Y024579D01*
X031488Y024688D02*
X031488Y027188D01*
X031072Y026799D02*
X030905Y026799D01*
X030768Y026640D02*
X031208Y026640D01*
X031208Y026482D02*
X030768Y026482D01*
X030768Y026323D02*
X031208Y026323D01*
X031208Y026165D02*
X030768Y026165D01*
X030768Y026006D02*
X031208Y026006D01*
X031208Y025848D02*
X030768Y025848D01*
X030768Y025689D02*
X031208Y025689D01*
X031208Y025531D02*
X030768Y025531D01*
X030768Y025372D02*
X031208Y025372D01*
X031103Y025214D02*
X030874Y025214D01*
X030942Y025055D02*
X031035Y025055D01*
X031028Y024896D02*
X030948Y024896D01*
X030948Y024738D02*
X031028Y024738D01*
X031028Y024579D02*
X030948Y024579D01*
X030948Y024421D02*
X031028Y024421D01*
X031059Y024262D02*
X030917Y024262D01*
X030814Y024104D02*
X031162Y024104D01*
X030488Y024688D02*
X030488Y027188D01*
X030072Y026799D02*
X029905Y026799D01*
X029768Y026640D02*
X030208Y026640D01*
X030208Y026482D02*
X029768Y026482D01*
X029768Y026323D02*
X030208Y026323D01*
X030208Y026165D02*
X029768Y026165D01*
X029768Y026006D02*
X030208Y026006D01*
X030208Y025848D02*
X029768Y025848D01*
X029768Y025689D02*
X030208Y025689D01*
X030208Y025531D02*
X029768Y025531D01*
X029768Y025372D02*
X030208Y025372D01*
X030103Y025214D02*
X029874Y025214D01*
X029942Y025055D02*
X030035Y025055D01*
X030028Y024896D02*
X029948Y024896D01*
X029948Y024738D02*
X030028Y024738D01*
X030028Y024579D02*
X029948Y024579D01*
X029948Y024421D02*
X030028Y024421D01*
X030059Y024262D02*
X029917Y024262D01*
X029814Y024104D02*
X030162Y024104D01*
X029488Y024688D02*
X029488Y027188D01*
X029072Y026799D02*
X028905Y026799D01*
X028768Y026640D02*
X029208Y026640D01*
X029208Y026482D02*
X028768Y026482D01*
X028768Y026323D02*
X029208Y026323D01*
X029208Y026165D02*
X028768Y026165D01*
X028768Y026006D02*
X029208Y026006D01*
X029208Y025848D02*
X028768Y025848D01*
X028768Y025689D02*
X029208Y025689D01*
X029208Y025531D02*
X028768Y025531D01*
X028768Y025372D02*
X029208Y025372D01*
X029103Y025214D02*
X028874Y025214D01*
X028942Y025055D02*
X029035Y025055D01*
X029028Y024896D02*
X028948Y024896D01*
X028948Y024738D02*
X029028Y024738D01*
X029028Y024579D02*
X028948Y024579D01*
X028948Y024421D02*
X029028Y024421D01*
X029059Y024262D02*
X028917Y024262D01*
X028814Y024104D02*
X029162Y024104D01*
X028488Y024688D02*
X028488Y027188D01*
X028072Y026799D02*
X027905Y026799D01*
X027768Y026640D02*
X028208Y026640D01*
X028208Y026482D02*
X027768Y026482D01*
X027768Y026323D02*
X028208Y026323D01*
X028208Y026165D02*
X027768Y026165D01*
X027768Y026006D02*
X028208Y026006D01*
X028208Y025848D02*
X027768Y025848D01*
X027768Y025689D02*
X028208Y025689D01*
X028208Y025531D02*
X027768Y025531D01*
X027768Y025372D02*
X028208Y025372D01*
X028103Y025214D02*
X027874Y025214D01*
X027942Y025055D02*
X028035Y025055D01*
X028028Y024896D02*
X027948Y024896D01*
X027948Y024738D02*
X028028Y024738D01*
X028028Y024579D02*
X027948Y024579D01*
X027948Y024421D02*
X028028Y024421D01*
X028059Y024262D02*
X027917Y024262D01*
X027814Y024104D02*
X028162Y024104D01*
X027488Y024688D02*
X027488Y027188D01*
X027072Y026799D02*
X026905Y026799D01*
X026655Y026640D02*
X027208Y026640D01*
X027086Y027592D02*
X026891Y027592D01*
X027891Y027592D02*
X028086Y027592D01*
X028891Y027592D02*
X029086Y027592D01*
X029891Y027592D02*
X030086Y027592D01*
X030891Y027592D02*
X031086Y027592D01*
X031891Y027592D02*
X032086Y027592D01*
X033488Y027188D02*
X033488Y024688D01*
X033948Y024738D02*
X034028Y024738D01*
X034028Y024896D02*
X033948Y024896D01*
X033942Y025055D02*
X034035Y025055D01*
X034103Y025214D02*
X033874Y025214D01*
X033768Y025372D02*
X034309Y025372D01*
X034028Y024579D02*
X033948Y024579D01*
X033948Y024421D02*
X034028Y024421D01*
X034059Y024262D02*
X033917Y024262D01*
X033814Y024104D02*
X034162Y024104D01*
X031280Y022360D02*
X030697Y022360D01*
X030749Y022338D02*
X030580Y022408D01*
X030397Y022408D01*
X030228Y022338D01*
X030098Y022209D01*
X030028Y022040D01*
X030028Y021337D01*
X030098Y021168D01*
X030208Y021058D01*
X030208Y019319D01*
X030098Y019209D01*
X030028Y019040D01*
X030028Y018337D01*
X030098Y018168D01*
X030228Y018038D01*
X030397Y017968D01*
X030580Y017968D01*
X030749Y018038D01*
X030878Y018168D01*
X030948Y018337D01*
X030948Y019040D01*
X030878Y019209D01*
X030768Y019319D01*
X030768Y021058D01*
X030878Y021168D01*
X030948Y021337D01*
X030948Y022040D01*
X030878Y022209D01*
X030749Y022338D01*
X030881Y022201D02*
X031095Y022201D01*
X031030Y022043D02*
X030947Y022043D01*
X030948Y021884D02*
X031028Y021884D01*
X031028Y021726D02*
X030948Y021726D01*
X030948Y021567D02*
X031028Y021567D01*
X031028Y021409D02*
X030948Y021409D01*
X030912Y021250D02*
X031064Y021250D01*
X031175Y021091D02*
X030802Y021091D01*
X030768Y020933D02*
X031208Y020933D01*
X031208Y020774D02*
X030768Y020774D01*
X030768Y020616D02*
X031208Y020616D01*
X031208Y020457D02*
X030768Y020457D01*
X030768Y020299D02*
X031208Y020299D01*
X031208Y020140D02*
X030768Y020140D01*
X030768Y019982D02*
X031208Y019982D01*
X031208Y019823D02*
X030768Y019823D01*
X030768Y019665D02*
X031208Y019665D01*
X031208Y019506D02*
X030768Y019506D01*
X030768Y019347D02*
X031208Y019347D01*
X031090Y019189D02*
X030887Y019189D01*
X030948Y019030D02*
X031028Y019030D01*
X031028Y018872D02*
X030948Y018872D01*
X030948Y018713D02*
X031028Y018713D01*
X031028Y018555D02*
X030948Y018555D01*
X030948Y018396D02*
X031028Y018396D01*
X031069Y018238D02*
X030907Y018238D01*
X030790Y018079D02*
X031187Y018079D01*
X031488Y018688D02*
X031488Y021688D01*
X030488Y021688D02*
X030488Y018688D01*
X030028Y018713D02*
X029948Y018713D01*
X029948Y018555D02*
X030028Y018555D01*
X030028Y018396D02*
X029948Y018396D01*
X029948Y018337D02*
X029948Y019040D01*
X029878Y019209D01*
X029768Y019319D01*
X029768Y021058D01*
X029878Y021168D01*
X029948Y021337D01*
X029948Y022040D01*
X029878Y022209D01*
X029749Y022338D01*
X029580Y022408D01*
X029397Y022408D01*
X029228Y022338D01*
X029098Y022209D01*
X029028Y022040D01*
X029028Y021337D01*
X029098Y021168D01*
X029208Y021058D01*
X029208Y019319D01*
X029098Y019209D01*
X029028Y019040D01*
X029028Y018337D01*
X029098Y018168D01*
X029228Y018038D01*
X029397Y017968D01*
X029580Y017968D01*
X029749Y018038D01*
X029878Y018168D01*
X029948Y018337D01*
X029907Y018238D02*
X030069Y018238D01*
X030187Y018079D02*
X029790Y018079D01*
X029187Y018079D02*
X028790Y018079D01*
X028749Y018038D02*
X028878Y018168D01*
X028948Y018337D01*
X028948Y019040D01*
X028878Y019209D01*
X028768Y019319D01*
X028768Y019833D01*
X028768Y019944D01*
X028726Y020047D01*
X027768Y021004D01*
X027768Y021058D01*
X027878Y021168D01*
X027948Y021337D01*
X027948Y022040D01*
X027878Y022209D01*
X027749Y022338D01*
X027580Y022408D01*
X027397Y022408D01*
X027228Y022338D01*
X027098Y022209D01*
X027028Y022040D01*
X027028Y021337D01*
X027098Y021168D01*
X027208Y021058D01*
X027208Y020833D01*
X027251Y020730D01*
X027330Y020651D01*
X028208Y019772D01*
X028208Y019319D01*
X028098Y019209D01*
X028028Y019040D01*
X028028Y018337D01*
X028098Y018168D01*
X028228Y018038D01*
X028397Y017968D01*
X028580Y017968D01*
X028749Y018038D01*
X028907Y018238D02*
X029069Y018238D01*
X029028Y018396D02*
X028948Y018396D01*
X028948Y018555D02*
X029028Y018555D01*
X029028Y018713D02*
X028948Y018713D01*
X028948Y018872D02*
X029028Y018872D01*
X029028Y019030D02*
X028948Y019030D01*
X028887Y019189D02*
X029090Y019189D01*
X029208Y019347D02*
X028768Y019347D01*
X028768Y019506D02*
X029208Y019506D01*
X029208Y019665D02*
X028768Y019665D01*
X028768Y019823D02*
X029208Y019823D01*
X029208Y019982D02*
X028753Y019982D01*
X028632Y020140D02*
X029208Y020140D01*
X029208Y020299D02*
X028474Y020299D01*
X028315Y020457D02*
X029208Y020457D01*
X029208Y020616D02*
X028157Y020616D01*
X027998Y020774D02*
X029208Y020774D01*
X029208Y020933D02*
X027840Y020933D01*
X027802Y021091D02*
X028175Y021091D01*
X028228Y021038D02*
X028397Y020968D01*
X028580Y020968D01*
X028749Y021038D01*
X028878Y021168D01*
X028948Y021337D01*
X028948Y022040D01*
X028878Y022209D01*
X028749Y022338D01*
X028580Y022408D01*
X028397Y022408D01*
X028228Y022338D01*
X028098Y022209D01*
X028028Y022040D01*
X028028Y021337D01*
X028098Y021168D01*
X028228Y021038D01*
X028064Y021250D02*
X027912Y021250D01*
X027948Y021409D02*
X028028Y021409D01*
X028028Y021567D02*
X027948Y021567D01*
X027948Y021726D02*
X028028Y021726D01*
X028028Y021884D02*
X027948Y021884D01*
X027947Y022043D02*
X028030Y022043D01*
X028095Y022201D02*
X027881Y022201D01*
X027697Y022360D02*
X028280Y022360D01*
X028697Y022360D02*
X029280Y022360D01*
X029095Y022201D02*
X028881Y022201D01*
X028947Y022043D02*
X029030Y022043D01*
X029028Y021884D02*
X028948Y021884D01*
X028948Y021726D02*
X029028Y021726D01*
X029028Y021567D02*
X028948Y021567D01*
X028948Y021409D02*
X029028Y021409D01*
X029064Y021250D02*
X028912Y021250D01*
X028802Y021091D02*
X029175Y021091D01*
X029768Y020933D02*
X030208Y020933D01*
X030208Y020774D02*
X029768Y020774D01*
X029768Y020616D02*
X030208Y020616D01*
X030208Y020457D02*
X029768Y020457D01*
X029768Y020299D02*
X030208Y020299D01*
X030208Y020140D02*
X029768Y020140D01*
X029768Y019982D02*
X030208Y019982D01*
X030208Y019823D02*
X029768Y019823D01*
X029768Y019665D02*
X030208Y019665D01*
X030208Y019506D02*
X029768Y019506D01*
X029768Y019347D02*
X030208Y019347D01*
X030090Y019189D02*
X029887Y019189D01*
X029948Y019030D02*
X030028Y019030D01*
X030028Y018872D02*
X029948Y018872D01*
X029488Y018688D02*
X029488Y021688D01*
X029948Y021726D02*
X030028Y021726D01*
X030028Y021884D02*
X029948Y021884D01*
X029947Y022043D02*
X030030Y022043D01*
X030095Y022201D02*
X029881Y022201D01*
X029697Y022360D02*
X030280Y022360D01*
X030028Y021567D02*
X029948Y021567D01*
X029948Y021409D02*
X030028Y021409D01*
X030064Y021250D02*
X029912Y021250D01*
X029802Y021091D02*
X030175Y021091D01*
X028488Y019888D02*
X027488Y020888D01*
X027488Y021688D01*
X027028Y021726D02*
X025928Y021726D01*
X025928Y021689D02*
X025928Y021983D01*
X025917Y022051D01*
X025896Y022117D01*
X025865Y022179D01*
X025824Y022235D01*
X025775Y022284D01*
X025719Y022325D01*
X025657Y022356D01*
X025591Y022377D01*
X025523Y022388D01*
X025489Y022388D01*
X025489Y021689D01*
X025928Y021689D01*
X025928Y021688D02*
X025489Y021688D01*
X025489Y021689D01*
X025488Y021689D01*
X025488Y022388D01*
X025454Y022388D01*
X025385Y022377D01*
X025319Y022356D01*
X025258Y022325D01*
X025202Y022284D01*
X025153Y022235D01*
X025112Y022179D01*
X025081Y022117D01*
X025059Y022051D01*
X025048Y021983D01*
X025048Y021689D01*
X025488Y021689D01*
X025488Y021688D01*
X025489Y021688D01*
X025489Y020988D01*
X025523Y020988D01*
X025591Y020999D01*
X025657Y021021D01*
X025719Y021052D01*
X025775Y021093D01*
X025824Y021142D01*
X025865Y021198D01*
X025896Y021259D01*
X025917Y021325D01*
X025928Y021394D01*
X025928Y021688D01*
X025928Y021567D02*
X027028Y021567D01*
X027028Y021409D02*
X025928Y021409D01*
X025891Y021250D02*
X027064Y021250D01*
X027175Y021091D02*
X025773Y021091D01*
X025489Y021091D02*
X025488Y021091D01*
X025488Y020988D02*
X025488Y021688D01*
X025048Y021688D01*
X025048Y021394D01*
X025059Y021325D01*
X025081Y021259D01*
X025112Y021198D01*
X025153Y021142D01*
X025202Y021093D01*
X025258Y021052D01*
X025319Y021021D01*
X025385Y020999D01*
X025454Y020988D01*
X025488Y020988D01*
X025488Y021250D02*
X025489Y021250D01*
X025488Y021409D02*
X025489Y021409D01*
X025488Y021567D02*
X025489Y021567D01*
X025488Y021726D02*
X025489Y021726D01*
X025488Y021884D02*
X025489Y021884D01*
X025488Y022043D02*
X025489Y022043D01*
X025488Y022201D02*
X025489Y022201D01*
X025488Y022360D02*
X025489Y022360D01*
X025646Y022360D02*
X027280Y022360D01*
X027095Y022201D02*
X025848Y022201D01*
X025919Y022043D02*
X027030Y022043D01*
X027028Y021884D02*
X025928Y021884D01*
X025331Y022360D02*
X024697Y022360D01*
X024881Y022201D02*
X025128Y022201D01*
X025058Y022043D02*
X024947Y022043D01*
X024948Y021884D02*
X025048Y021884D01*
X025048Y021726D02*
X024948Y021726D01*
X024948Y021567D02*
X025048Y021567D01*
X025048Y021409D02*
X024948Y021409D01*
X024912Y021250D02*
X025085Y021250D01*
X025203Y021091D02*
X024802Y021091D01*
X024768Y020933D02*
X027208Y020933D01*
X027232Y020774D02*
X024768Y020774D01*
X024768Y020616D02*
X027365Y020616D01*
X027523Y020457D02*
X024768Y020457D01*
X024768Y020299D02*
X027682Y020299D01*
X027841Y020140D02*
X024768Y020140D01*
X024768Y019982D02*
X027999Y019982D01*
X028158Y019823D02*
X024768Y019823D01*
X024768Y019665D02*
X028208Y019665D01*
X028208Y019506D02*
X024768Y019506D01*
X024768Y019347D02*
X026250Y019347D01*
X026228Y019338D02*
X026098Y019209D01*
X026028Y019040D01*
X026028Y018337D01*
X026098Y018168D01*
X026228Y018038D01*
X026397Y017968D01*
X026580Y017968D01*
X026749Y018038D01*
X026878Y018168D01*
X026948Y018337D01*
X026948Y019040D01*
X026878Y019209D01*
X026749Y019338D01*
X026580Y019408D01*
X026397Y019408D01*
X026228Y019338D01*
X026090Y019189D02*
X024887Y019189D01*
X024948Y019030D02*
X026028Y019030D01*
X026028Y018872D02*
X024948Y018872D01*
X024948Y018713D02*
X026028Y018713D01*
X026028Y018555D02*
X024948Y018555D01*
X024948Y018396D02*
X026028Y018396D01*
X026069Y018238D02*
X024907Y018238D01*
X024790Y018079D02*
X026187Y018079D01*
X026790Y018079D02*
X027187Y018079D01*
X027228Y018038D02*
X027397Y017968D01*
X027580Y017968D01*
X027749Y018038D01*
X027878Y018168D01*
X027948Y018337D01*
X027948Y019040D01*
X027878Y019209D01*
X027749Y019338D01*
X027580Y019408D01*
X027397Y019408D01*
X027228Y019338D01*
X027098Y019209D01*
X027028Y019040D01*
X027028Y018337D01*
X027098Y018168D01*
X027228Y018038D01*
X027069Y018238D02*
X026907Y018238D01*
X026948Y018396D02*
X027028Y018396D01*
X027028Y018555D02*
X026948Y018555D01*
X026948Y018713D02*
X027028Y018713D01*
X027028Y018872D02*
X026948Y018872D01*
X026948Y019030D02*
X027028Y019030D01*
X027090Y019189D02*
X026887Y019189D01*
X026727Y019347D02*
X027250Y019347D01*
X027727Y019347D02*
X028208Y019347D01*
X028090Y019189D02*
X027887Y019189D01*
X027948Y019030D02*
X028028Y019030D01*
X028028Y018872D02*
X027948Y018872D01*
X027948Y018713D02*
X028028Y018713D01*
X028028Y018555D02*
X027948Y018555D01*
X027948Y018396D02*
X028028Y018396D01*
X028069Y018238D02*
X027907Y018238D01*
X027790Y018079D02*
X028187Y018079D01*
X028488Y018688D02*
X028488Y019888D01*
X024488Y018688D02*
X024488Y021688D01*
X024814Y024104D02*
X025162Y024104D01*
X025059Y024262D02*
X024917Y024262D01*
X024948Y024421D02*
X025028Y024421D01*
X025028Y024579D02*
X024948Y024579D01*
X025814Y024104D02*
X027162Y024104D01*
X027059Y024262D02*
X025917Y024262D01*
X025948Y024421D02*
X027028Y024421D01*
X027028Y024579D02*
X025948Y024579D01*
X025948Y024738D02*
X027028Y024738D01*
X027028Y024896D02*
X025948Y024896D01*
X025942Y025055D02*
X027035Y025055D01*
X027103Y025214D02*
X025874Y025214D01*
X023086Y027592D02*
X022891Y027592D01*
X022086Y027592D02*
X021891Y027592D01*
X021086Y027592D02*
X020891Y027592D01*
X020086Y027592D02*
X019891Y027592D01*
X019086Y027592D02*
X018891Y027592D01*
X011685Y028543D02*
X011676Y028543D01*
X009943Y025268D02*
X009943Y025268D01*
X009719Y016969D02*
X006668Y016969D01*
X007988Y015438D02*
X009138Y016588D01*
X008086Y014908D02*
X007919Y014908D01*
X007948Y014750D02*
X008048Y014750D01*
X008048Y014591D02*
X007948Y014591D01*
X007883Y014433D02*
X008122Y014433D01*
X014488Y016188D02*
X014988Y016188D01*
X015188Y015988D01*
X015188Y015488D01*
X031630Y011103D02*
X033708Y011103D01*
X033594Y010945D02*
X031749Y010945D01*
X031808Y010786D02*
X033528Y010786D01*
X033528Y010628D02*
X031808Y010628D01*
X031764Y010469D02*
X033557Y010469D01*
X033716Y010310D02*
X031667Y010310D01*
X035349Y017286D02*
X036678Y017286D01*
X036678Y017445D02*
X036189Y017445D01*
X036189Y017603D02*
X036678Y017603D01*
X036678Y017762D02*
X036189Y017762D01*
X036136Y017921D02*
X036678Y017921D01*
X036678Y018079D02*
X036015Y018079D01*
X036015Y018238D02*
X036678Y018238D01*
X036678Y018396D02*
X036002Y018396D01*
X036015Y018555D02*
X036678Y018555D01*
X036678Y018713D02*
X036015Y018713D01*
X036015Y018872D02*
X036678Y018872D01*
X036678Y019030D02*
X036015Y019030D01*
X036015Y019189D02*
X036678Y019189D01*
X036678Y019347D02*
X036015Y019347D01*
X036015Y019506D02*
X036678Y019506D01*
X036678Y019665D02*
X036105Y019665D01*
X036189Y019823D02*
X036678Y019823D01*
D22*
X012588Y013088D03*
D23*
X007488Y012688D02*
X007488Y014688D01*
X016288Y023188D02*
X016355Y023186D01*
X016422Y023180D01*
X016489Y023171D01*
X016555Y023158D01*
X016620Y023141D01*
X016684Y023121D01*
X016747Y023097D01*
X016809Y023069D01*
X016868Y023038D01*
X016926Y023004D01*
X016982Y022967D01*
X017036Y022926D01*
X017088Y022883D01*
X017137Y022837D01*
X017183Y022788D01*
X017226Y022736D01*
X017267Y022682D01*
X017304Y022626D01*
X017338Y022568D01*
X017369Y022509D01*
X017397Y022447D01*
X017421Y022384D01*
X017441Y022320D01*
X017458Y022255D01*
X017471Y022189D01*
X017480Y022122D01*
X017486Y022055D01*
X017488Y021988D01*
X017488Y018688D01*
X016288Y023188D02*
X014488Y023188D01*
X014488Y024688D01*
X014488Y024888D01*
X014486Y024938D01*
X014481Y024988D01*
X014472Y025037D01*
X014460Y025085D01*
X014444Y025133D01*
X014425Y025179D01*
X014402Y025223D01*
X014377Y025266D01*
X014348Y025307D01*
X014317Y025346D01*
X014283Y025383D01*
X014246Y025417D01*
X014207Y025448D01*
X014166Y025477D01*
X014123Y025502D01*
X014079Y025525D01*
X014033Y025544D01*
X013985Y025560D01*
X013937Y025572D01*
X013888Y025581D01*
X013838Y025586D01*
X013788Y025588D01*
X010088Y025588D01*
X010041Y025590D01*
X009994Y025595D01*
X009948Y025605D01*
X009903Y025617D01*
X009858Y025634D01*
X009816Y025653D01*
X009775Y025676D01*
X009735Y025703D01*
X009698Y025732D01*
X009664Y025764D01*
X009632Y025798D01*
X009603Y025835D01*
X009576Y025875D01*
X009553Y025916D01*
X009534Y025958D01*
X009517Y026003D01*
X009505Y026048D01*
X009495Y026094D01*
X009490Y026141D01*
X009488Y026188D01*
X007988Y026188D01*
M02*
