G75*
G70*
%OFA0B0*%
%FSLAX24Y24*%
%IPPOS*%
%LPD*%
%AMOC8*
5,1,8,0,0,1.08239X$1,22.5*
%
%ADD10C,0.0000*%
%ADD11C,0.0040*%
%ADD12C,0.0030*%
%ADD13C,0.0060*%
%ADD14C,0.0080*%
%ADD15R,0.0200X0.1000*%
%ADD16R,0.0750X0.0300*%
%ADD17C,0.0010*%
%ADD18C,0.0120*%
%ADD19C,0.0050*%
%ADD20C,0.0100*%
D10*
X006188Y006188D02*
X006188Y029084D01*
X037158Y029084D01*
X037158Y006188D01*
X006188Y006188D01*
X006838Y007588D02*
X006840Y007638D01*
X006846Y007688D01*
X006856Y007738D01*
X006869Y007786D01*
X006886Y007834D01*
X006907Y007880D01*
X006931Y007924D01*
X006959Y007966D01*
X006990Y008006D01*
X007024Y008043D01*
X007061Y008078D01*
X007100Y008109D01*
X007141Y008138D01*
X007185Y008163D01*
X007231Y008185D01*
X007278Y008203D01*
X007326Y008217D01*
X007375Y008228D01*
X007425Y008235D01*
X007475Y008238D01*
X007526Y008237D01*
X007576Y008232D01*
X007626Y008223D01*
X007674Y008211D01*
X007722Y008194D01*
X007768Y008174D01*
X007813Y008151D01*
X007856Y008124D01*
X007896Y008094D01*
X007934Y008061D01*
X007969Y008025D01*
X008002Y007986D01*
X008031Y007945D01*
X008057Y007902D01*
X008080Y007857D01*
X008099Y007810D01*
X008114Y007762D01*
X008126Y007713D01*
X008134Y007663D01*
X008138Y007613D01*
X008138Y007563D01*
X008134Y007513D01*
X008126Y007463D01*
X008114Y007414D01*
X008099Y007366D01*
X008080Y007319D01*
X008057Y007274D01*
X008031Y007231D01*
X008002Y007190D01*
X007969Y007151D01*
X007934Y007115D01*
X007896Y007082D01*
X007856Y007052D01*
X007813Y007025D01*
X007768Y007002D01*
X007722Y006982D01*
X007674Y006965D01*
X007626Y006953D01*
X007576Y006944D01*
X007526Y006939D01*
X007475Y006938D01*
X007425Y006941D01*
X007375Y006948D01*
X007326Y006959D01*
X007278Y006973D01*
X007231Y006991D01*
X007185Y007013D01*
X007141Y007038D01*
X007100Y007067D01*
X007061Y007098D01*
X007024Y007133D01*
X006990Y007170D01*
X006959Y007210D01*
X006931Y007252D01*
X006907Y007296D01*
X006886Y007342D01*
X006869Y007390D01*
X006856Y007438D01*
X006846Y007488D01*
X006840Y007538D01*
X006838Y007588D01*
X009608Y008188D02*
X009610Y008238D01*
X009616Y008288D01*
X009626Y008337D01*
X009640Y008385D01*
X009657Y008432D01*
X009678Y008477D01*
X009703Y008521D01*
X009731Y008562D01*
X009763Y008601D01*
X009797Y008638D01*
X009834Y008672D01*
X009874Y008702D01*
X009916Y008729D01*
X009960Y008753D01*
X010006Y008774D01*
X010053Y008790D01*
X010101Y008803D01*
X010151Y008812D01*
X010200Y008817D01*
X010251Y008818D01*
X010301Y008815D01*
X010350Y008808D01*
X010399Y008797D01*
X010447Y008782D01*
X010493Y008764D01*
X010538Y008742D01*
X010581Y008716D01*
X010622Y008687D01*
X010661Y008655D01*
X010697Y008620D01*
X010729Y008582D01*
X010759Y008542D01*
X010786Y008499D01*
X010809Y008455D01*
X010828Y008409D01*
X010844Y008361D01*
X010856Y008312D01*
X010864Y008263D01*
X010868Y008213D01*
X010868Y008163D01*
X010864Y008113D01*
X010856Y008064D01*
X010844Y008015D01*
X010828Y007967D01*
X010809Y007921D01*
X010786Y007877D01*
X010759Y007834D01*
X010729Y007794D01*
X010697Y007756D01*
X010661Y007721D01*
X010622Y007689D01*
X010581Y007660D01*
X010538Y007634D01*
X010493Y007612D01*
X010447Y007594D01*
X010399Y007579D01*
X010350Y007568D01*
X010301Y007561D01*
X010251Y007558D01*
X010200Y007559D01*
X010151Y007564D01*
X010101Y007573D01*
X010053Y007586D01*
X010006Y007602D01*
X009960Y007623D01*
X009916Y007647D01*
X009874Y007674D01*
X009834Y007704D01*
X009797Y007738D01*
X009763Y007775D01*
X009731Y007814D01*
X009703Y007855D01*
X009678Y007899D01*
X009657Y007944D01*
X009640Y007991D01*
X009626Y008039D01*
X009616Y008088D01*
X009610Y008138D01*
X009608Y008188D01*
X014108Y008188D02*
X014110Y008238D01*
X014116Y008288D01*
X014126Y008337D01*
X014140Y008385D01*
X014157Y008432D01*
X014178Y008477D01*
X014203Y008521D01*
X014231Y008562D01*
X014263Y008601D01*
X014297Y008638D01*
X014334Y008672D01*
X014374Y008702D01*
X014416Y008729D01*
X014460Y008753D01*
X014506Y008774D01*
X014553Y008790D01*
X014601Y008803D01*
X014651Y008812D01*
X014700Y008817D01*
X014751Y008818D01*
X014801Y008815D01*
X014850Y008808D01*
X014899Y008797D01*
X014947Y008782D01*
X014993Y008764D01*
X015038Y008742D01*
X015081Y008716D01*
X015122Y008687D01*
X015161Y008655D01*
X015197Y008620D01*
X015229Y008582D01*
X015259Y008542D01*
X015286Y008499D01*
X015309Y008455D01*
X015328Y008409D01*
X015344Y008361D01*
X015356Y008312D01*
X015364Y008263D01*
X015368Y008213D01*
X015368Y008163D01*
X015364Y008113D01*
X015356Y008064D01*
X015344Y008015D01*
X015328Y007967D01*
X015309Y007921D01*
X015286Y007877D01*
X015259Y007834D01*
X015229Y007794D01*
X015197Y007756D01*
X015161Y007721D01*
X015122Y007689D01*
X015081Y007660D01*
X015038Y007634D01*
X014993Y007612D01*
X014947Y007594D01*
X014899Y007579D01*
X014850Y007568D01*
X014801Y007561D01*
X014751Y007558D01*
X014700Y007559D01*
X014651Y007564D01*
X014601Y007573D01*
X014553Y007586D01*
X014506Y007602D01*
X014460Y007623D01*
X014416Y007647D01*
X014374Y007674D01*
X014334Y007704D01*
X014297Y007738D01*
X014263Y007775D01*
X014231Y007814D01*
X014203Y007855D01*
X014178Y007899D01*
X014157Y007944D01*
X014140Y007991D01*
X014126Y008039D01*
X014116Y008088D01*
X014110Y008138D01*
X014108Y008188D01*
X016784Y007688D02*
X016786Y007718D01*
X016792Y007748D01*
X016801Y007777D01*
X016814Y007804D01*
X016831Y007829D01*
X016850Y007852D01*
X016873Y007873D01*
X016898Y007890D01*
X016924Y007904D01*
X016953Y007914D01*
X016982Y007921D01*
X017012Y007924D01*
X017043Y007923D01*
X017073Y007918D01*
X017102Y007909D01*
X017129Y007897D01*
X017155Y007882D01*
X017179Y007863D01*
X017200Y007841D01*
X017218Y007817D01*
X017233Y007790D01*
X017244Y007762D01*
X017252Y007733D01*
X017256Y007703D01*
X017256Y007673D01*
X017252Y007643D01*
X017244Y007614D01*
X017233Y007586D01*
X017218Y007559D01*
X017200Y007535D01*
X017179Y007513D01*
X017155Y007494D01*
X017129Y007479D01*
X017102Y007467D01*
X017073Y007458D01*
X017043Y007453D01*
X017012Y007452D01*
X016982Y007455D01*
X016953Y007462D01*
X016924Y007472D01*
X016898Y007486D01*
X016873Y007503D01*
X016850Y007524D01*
X016831Y007547D01*
X016814Y007572D01*
X016801Y007599D01*
X016792Y007628D01*
X016786Y007658D01*
X016784Y007688D01*
X016784Y006704D02*
X016786Y006734D01*
X016792Y006764D01*
X016801Y006793D01*
X016814Y006820D01*
X016831Y006845D01*
X016850Y006868D01*
X016873Y006889D01*
X016898Y006906D01*
X016924Y006920D01*
X016953Y006930D01*
X016982Y006937D01*
X017012Y006940D01*
X017043Y006939D01*
X017073Y006934D01*
X017102Y006925D01*
X017129Y006913D01*
X017155Y006898D01*
X017179Y006879D01*
X017200Y006857D01*
X017218Y006833D01*
X017233Y006806D01*
X017244Y006778D01*
X017252Y006749D01*
X017256Y006719D01*
X017256Y006689D01*
X017252Y006659D01*
X017244Y006630D01*
X017233Y006602D01*
X017218Y006575D01*
X017200Y006551D01*
X017179Y006529D01*
X017155Y006510D01*
X017129Y006495D01*
X017102Y006483D01*
X017073Y006474D01*
X017043Y006469D01*
X017012Y006468D01*
X016982Y006471D01*
X016953Y006478D01*
X016924Y006488D01*
X016898Y006502D01*
X016873Y006519D01*
X016850Y006540D01*
X016831Y006563D01*
X016814Y006588D01*
X016801Y006615D01*
X016792Y006644D01*
X016786Y006674D01*
X016784Y006704D01*
X018752Y009657D02*
X018754Y009687D01*
X018760Y009717D01*
X018769Y009746D01*
X018782Y009773D01*
X018799Y009798D01*
X018818Y009821D01*
X018841Y009842D01*
X018866Y009859D01*
X018892Y009873D01*
X018921Y009883D01*
X018950Y009890D01*
X018980Y009893D01*
X019011Y009892D01*
X019041Y009887D01*
X019070Y009878D01*
X019097Y009866D01*
X019123Y009851D01*
X019147Y009832D01*
X019168Y009810D01*
X019186Y009786D01*
X019201Y009759D01*
X019212Y009731D01*
X019220Y009702D01*
X019224Y009672D01*
X019224Y009642D01*
X019220Y009612D01*
X019212Y009583D01*
X019201Y009555D01*
X019186Y009528D01*
X019168Y009504D01*
X019147Y009482D01*
X019123Y009463D01*
X019097Y009448D01*
X019070Y009436D01*
X019041Y009427D01*
X019011Y009422D01*
X018980Y009421D01*
X018950Y009424D01*
X018921Y009431D01*
X018892Y009441D01*
X018866Y009455D01*
X018841Y009472D01*
X018818Y009493D01*
X018799Y009516D01*
X018782Y009541D01*
X018769Y009568D01*
X018760Y009597D01*
X018754Y009627D01*
X018752Y009657D01*
X020721Y007688D02*
X020723Y007718D01*
X020729Y007748D01*
X020738Y007777D01*
X020751Y007804D01*
X020768Y007829D01*
X020787Y007852D01*
X020810Y007873D01*
X020835Y007890D01*
X020861Y007904D01*
X020890Y007914D01*
X020919Y007921D01*
X020949Y007924D01*
X020980Y007923D01*
X021010Y007918D01*
X021039Y007909D01*
X021066Y007897D01*
X021092Y007882D01*
X021116Y007863D01*
X021137Y007841D01*
X021155Y007817D01*
X021170Y007790D01*
X021181Y007762D01*
X021189Y007733D01*
X021193Y007703D01*
X021193Y007673D01*
X021189Y007643D01*
X021181Y007614D01*
X021170Y007586D01*
X021155Y007559D01*
X021137Y007535D01*
X021116Y007513D01*
X021092Y007494D01*
X021066Y007479D01*
X021039Y007467D01*
X021010Y007458D01*
X020980Y007453D01*
X020949Y007452D01*
X020919Y007455D01*
X020890Y007462D01*
X020861Y007472D01*
X020835Y007486D01*
X020810Y007503D01*
X020787Y007524D01*
X020768Y007547D01*
X020751Y007572D01*
X020738Y007599D01*
X020729Y007628D01*
X020723Y007658D01*
X020721Y007688D01*
X020721Y006704D02*
X020723Y006734D01*
X020729Y006764D01*
X020738Y006793D01*
X020751Y006820D01*
X020768Y006845D01*
X020787Y006868D01*
X020810Y006889D01*
X020835Y006906D01*
X020861Y006920D01*
X020890Y006930D01*
X020919Y006937D01*
X020949Y006940D01*
X020980Y006939D01*
X021010Y006934D01*
X021039Y006925D01*
X021066Y006913D01*
X021092Y006898D01*
X021116Y006879D01*
X021137Y006857D01*
X021155Y006833D01*
X021170Y006806D01*
X021181Y006778D01*
X021189Y006749D01*
X021193Y006719D01*
X021193Y006689D01*
X021189Y006659D01*
X021181Y006630D01*
X021170Y006602D01*
X021155Y006575D01*
X021137Y006551D01*
X021116Y006529D01*
X021092Y006510D01*
X021066Y006495D01*
X021039Y006483D01*
X021010Y006474D01*
X020980Y006469D01*
X020949Y006468D01*
X020919Y006471D01*
X020890Y006478D01*
X020861Y006488D01*
X020835Y006502D01*
X020810Y006519D01*
X020787Y006540D01*
X020768Y006563D01*
X020751Y006588D01*
X020738Y006615D01*
X020729Y006644D01*
X020723Y006674D01*
X020721Y006704D01*
X027108Y008188D02*
X027110Y008238D01*
X027116Y008288D01*
X027126Y008337D01*
X027140Y008385D01*
X027157Y008432D01*
X027178Y008477D01*
X027203Y008521D01*
X027231Y008562D01*
X027263Y008601D01*
X027297Y008638D01*
X027334Y008672D01*
X027374Y008702D01*
X027416Y008729D01*
X027460Y008753D01*
X027506Y008774D01*
X027553Y008790D01*
X027601Y008803D01*
X027651Y008812D01*
X027700Y008817D01*
X027751Y008818D01*
X027801Y008815D01*
X027850Y008808D01*
X027899Y008797D01*
X027947Y008782D01*
X027993Y008764D01*
X028038Y008742D01*
X028081Y008716D01*
X028122Y008687D01*
X028161Y008655D01*
X028197Y008620D01*
X028229Y008582D01*
X028259Y008542D01*
X028286Y008499D01*
X028309Y008455D01*
X028328Y008409D01*
X028344Y008361D01*
X028356Y008312D01*
X028364Y008263D01*
X028368Y008213D01*
X028368Y008163D01*
X028364Y008113D01*
X028356Y008064D01*
X028344Y008015D01*
X028328Y007967D01*
X028309Y007921D01*
X028286Y007877D01*
X028259Y007834D01*
X028229Y007794D01*
X028197Y007756D01*
X028161Y007721D01*
X028122Y007689D01*
X028081Y007660D01*
X028038Y007634D01*
X027993Y007612D01*
X027947Y007594D01*
X027899Y007579D01*
X027850Y007568D01*
X027801Y007561D01*
X027751Y007558D01*
X027700Y007559D01*
X027651Y007564D01*
X027601Y007573D01*
X027553Y007586D01*
X027506Y007602D01*
X027460Y007623D01*
X027416Y007647D01*
X027374Y007674D01*
X027334Y007704D01*
X027297Y007738D01*
X027263Y007775D01*
X027231Y007814D01*
X027203Y007855D01*
X027178Y007899D01*
X027157Y007944D01*
X027140Y007991D01*
X027126Y008039D01*
X027116Y008088D01*
X027110Y008138D01*
X027108Y008188D01*
X031608Y008188D02*
X031610Y008238D01*
X031616Y008288D01*
X031626Y008337D01*
X031640Y008385D01*
X031657Y008432D01*
X031678Y008477D01*
X031703Y008521D01*
X031731Y008562D01*
X031763Y008601D01*
X031797Y008638D01*
X031834Y008672D01*
X031874Y008702D01*
X031916Y008729D01*
X031960Y008753D01*
X032006Y008774D01*
X032053Y008790D01*
X032101Y008803D01*
X032151Y008812D01*
X032200Y008817D01*
X032251Y008818D01*
X032301Y008815D01*
X032350Y008808D01*
X032399Y008797D01*
X032447Y008782D01*
X032493Y008764D01*
X032538Y008742D01*
X032581Y008716D01*
X032622Y008687D01*
X032661Y008655D01*
X032697Y008620D01*
X032729Y008582D01*
X032759Y008542D01*
X032786Y008499D01*
X032809Y008455D01*
X032828Y008409D01*
X032844Y008361D01*
X032856Y008312D01*
X032864Y008263D01*
X032868Y008213D01*
X032868Y008163D01*
X032864Y008113D01*
X032856Y008064D01*
X032844Y008015D01*
X032828Y007967D01*
X032809Y007921D01*
X032786Y007877D01*
X032759Y007834D01*
X032729Y007794D01*
X032697Y007756D01*
X032661Y007721D01*
X032622Y007689D01*
X032581Y007660D01*
X032538Y007634D01*
X032493Y007612D01*
X032447Y007594D01*
X032399Y007579D01*
X032350Y007568D01*
X032301Y007561D01*
X032251Y007558D01*
X032200Y007559D01*
X032151Y007564D01*
X032101Y007573D01*
X032053Y007586D01*
X032006Y007602D01*
X031960Y007623D01*
X031916Y007647D01*
X031874Y007674D01*
X031834Y007704D01*
X031797Y007738D01*
X031763Y007775D01*
X031731Y007814D01*
X031703Y007855D01*
X031678Y007899D01*
X031657Y007944D01*
X031640Y007991D01*
X031626Y008039D01*
X031616Y008088D01*
X031610Y008138D01*
X031608Y008188D01*
X035238Y007588D02*
X035240Y007638D01*
X035246Y007688D01*
X035256Y007738D01*
X035269Y007786D01*
X035286Y007834D01*
X035307Y007880D01*
X035331Y007924D01*
X035359Y007966D01*
X035390Y008006D01*
X035424Y008043D01*
X035461Y008078D01*
X035500Y008109D01*
X035541Y008138D01*
X035585Y008163D01*
X035631Y008185D01*
X035678Y008203D01*
X035726Y008217D01*
X035775Y008228D01*
X035825Y008235D01*
X035875Y008238D01*
X035926Y008237D01*
X035976Y008232D01*
X036026Y008223D01*
X036074Y008211D01*
X036122Y008194D01*
X036168Y008174D01*
X036213Y008151D01*
X036256Y008124D01*
X036296Y008094D01*
X036334Y008061D01*
X036369Y008025D01*
X036402Y007986D01*
X036431Y007945D01*
X036457Y007902D01*
X036480Y007857D01*
X036499Y007810D01*
X036514Y007762D01*
X036526Y007713D01*
X036534Y007663D01*
X036538Y007613D01*
X036538Y007563D01*
X036534Y007513D01*
X036526Y007463D01*
X036514Y007414D01*
X036499Y007366D01*
X036480Y007319D01*
X036457Y007274D01*
X036431Y007231D01*
X036402Y007190D01*
X036369Y007151D01*
X036334Y007115D01*
X036296Y007082D01*
X036256Y007052D01*
X036213Y007025D01*
X036168Y007002D01*
X036122Y006982D01*
X036074Y006965D01*
X036026Y006953D01*
X035976Y006944D01*
X035926Y006939D01*
X035875Y006938D01*
X035825Y006941D01*
X035775Y006948D01*
X035726Y006959D01*
X035678Y006973D01*
X035631Y006991D01*
X035585Y007013D01*
X035541Y007038D01*
X035500Y007067D01*
X035461Y007098D01*
X035424Y007133D01*
X035390Y007170D01*
X035359Y007210D01*
X035331Y007252D01*
X035307Y007296D01*
X035286Y007342D01*
X035269Y007390D01*
X035256Y007438D01*
X035246Y007488D01*
X035240Y007538D01*
X035238Y007588D01*
X035238Y027788D02*
X035240Y027838D01*
X035246Y027888D01*
X035256Y027938D01*
X035269Y027986D01*
X035286Y028034D01*
X035307Y028080D01*
X035331Y028124D01*
X035359Y028166D01*
X035390Y028206D01*
X035424Y028243D01*
X035461Y028278D01*
X035500Y028309D01*
X035541Y028338D01*
X035585Y028363D01*
X035631Y028385D01*
X035678Y028403D01*
X035726Y028417D01*
X035775Y028428D01*
X035825Y028435D01*
X035875Y028438D01*
X035926Y028437D01*
X035976Y028432D01*
X036026Y028423D01*
X036074Y028411D01*
X036122Y028394D01*
X036168Y028374D01*
X036213Y028351D01*
X036256Y028324D01*
X036296Y028294D01*
X036334Y028261D01*
X036369Y028225D01*
X036402Y028186D01*
X036431Y028145D01*
X036457Y028102D01*
X036480Y028057D01*
X036499Y028010D01*
X036514Y027962D01*
X036526Y027913D01*
X036534Y027863D01*
X036538Y027813D01*
X036538Y027763D01*
X036534Y027713D01*
X036526Y027663D01*
X036514Y027614D01*
X036499Y027566D01*
X036480Y027519D01*
X036457Y027474D01*
X036431Y027431D01*
X036402Y027390D01*
X036369Y027351D01*
X036334Y027315D01*
X036296Y027282D01*
X036256Y027252D01*
X036213Y027225D01*
X036168Y027202D01*
X036122Y027182D01*
X036074Y027165D01*
X036026Y027153D01*
X035976Y027144D01*
X035926Y027139D01*
X035875Y027138D01*
X035825Y027141D01*
X035775Y027148D01*
X035726Y027159D01*
X035678Y027173D01*
X035631Y027191D01*
X035585Y027213D01*
X035541Y027238D01*
X035500Y027267D01*
X035461Y027298D01*
X035424Y027333D01*
X035390Y027370D01*
X035359Y027410D01*
X035331Y027452D01*
X035307Y027496D01*
X035286Y027542D01*
X035269Y027590D01*
X035256Y027638D01*
X035246Y027688D01*
X035240Y027738D01*
X035238Y027788D01*
X006838Y027788D02*
X006840Y027838D01*
X006846Y027888D01*
X006856Y027938D01*
X006869Y027986D01*
X006886Y028034D01*
X006907Y028080D01*
X006931Y028124D01*
X006959Y028166D01*
X006990Y028206D01*
X007024Y028243D01*
X007061Y028278D01*
X007100Y028309D01*
X007141Y028338D01*
X007185Y028363D01*
X007231Y028385D01*
X007278Y028403D01*
X007326Y028417D01*
X007375Y028428D01*
X007425Y028435D01*
X007475Y028438D01*
X007526Y028437D01*
X007576Y028432D01*
X007626Y028423D01*
X007674Y028411D01*
X007722Y028394D01*
X007768Y028374D01*
X007813Y028351D01*
X007856Y028324D01*
X007896Y028294D01*
X007934Y028261D01*
X007969Y028225D01*
X008002Y028186D01*
X008031Y028145D01*
X008057Y028102D01*
X008080Y028057D01*
X008099Y028010D01*
X008114Y027962D01*
X008126Y027913D01*
X008134Y027863D01*
X008138Y027813D01*
X008138Y027763D01*
X008134Y027713D01*
X008126Y027663D01*
X008114Y027614D01*
X008099Y027566D01*
X008080Y027519D01*
X008057Y027474D01*
X008031Y027431D01*
X008002Y027390D01*
X007969Y027351D01*
X007934Y027315D01*
X007896Y027282D01*
X007856Y027252D01*
X007813Y027225D01*
X007768Y027202D01*
X007722Y027182D01*
X007674Y027165D01*
X007626Y027153D01*
X007576Y027144D01*
X007526Y027139D01*
X007475Y027138D01*
X007425Y027141D01*
X007375Y027148D01*
X007326Y027159D01*
X007278Y027173D01*
X007231Y027191D01*
X007185Y027213D01*
X007141Y027238D01*
X007100Y027267D01*
X007061Y027298D01*
X007024Y027333D01*
X006990Y027370D01*
X006959Y027410D01*
X006931Y027452D01*
X006907Y027496D01*
X006886Y027542D01*
X006869Y027590D01*
X006856Y027638D01*
X006846Y027688D01*
X006840Y027738D01*
X006838Y027788D01*
D11*
X007835Y025602D02*
X008008Y025602D01*
X008095Y025515D01*
X008095Y025255D01*
X008268Y025255D02*
X007748Y025255D01*
X007748Y025515D01*
X007835Y025602D01*
X008095Y025429D02*
X008268Y025602D01*
X008182Y025087D02*
X007835Y025087D01*
X008182Y024740D01*
X008268Y024826D01*
X008268Y025000D01*
X008182Y025087D01*
X007835Y025087D02*
X007748Y025000D01*
X007748Y024826D01*
X007835Y024740D01*
X008182Y024740D01*
X008182Y024571D02*
X007835Y024571D01*
X008182Y024224D01*
X008268Y024311D01*
X008268Y024484D01*
X008182Y024571D01*
X008182Y024224D02*
X007835Y024224D01*
X007748Y024311D01*
X007748Y024484D01*
X007835Y024571D01*
X007835Y024055D02*
X007921Y024055D01*
X008008Y023969D01*
X008095Y024055D01*
X008182Y024055D01*
X008268Y023969D01*
X008268Y023795D01*
X008182Y023708D01*
X008008Y023882D02*
X008008Y023969D01*
X007835Y024055D02*
X007748Y023969D01*
X007748Y023795D01*
X007835Y023708D01*
X009248Y024182D02*
X009768Y024182D01*
X009768Y024355D02*
X009768Y024008D01*
X009421Y024008D02*
X009248Y024182D01*
X009335Y024524D02*
X009248Y024611D01*
X009248Y024784D01*
X009335Y024871D01*
X009682Y024524D01*
X009768Y024611D01*
X009768Y024784D01*
X009682Y024871D01*
X009335Y024871D01*
X009248Y025040D02*
X009768Y025040D01*
X009595Y025040D02*
X009248Y025387D01*
X009508Y025126D02*
X009768Y025387D01*
X009682Y024524D02*
X009335Y024524D01*
X012908Y025408D02*
X013255Y025408D01*
X013082Y025408D02*
X013082Y025929D01*
X012908Y025755D01*
X013424Y025842D02*
X013511Y025929D01*
X013684Y025929D01*
X013771Y025842D01*
X013424Y025495D01*
X013511Y025408D01*
X013684Y025408D01*
X013771Y025495D01*
X013771Y025842D01*
X013940Y025842D02*
X013940Y025495D01*
X014287Y025842D01*
X014287Y025495D01*
X014200Y025408D01*
X014026Y025408D01*
X013940Y025495D01*
X013940Y025842D02*
X014026Y025929D01*
X014200Y025929D01*
X014287Y025842D01*
X014455Y025755D02*
X014715Y025755D01*
X014802Y025669D01*
X014802Y025408D01*
X014971Y025408D02*
X014971Y025929D01*
X015318Y025929D01*
X015144Y025669D02*
X014971Y025669D01*
X014455Y025755D02*
X014455Y025408D01*
X013424Y025495D02*
X013424Y025842D01*
X010368Y021102D02*
X010108Y021102D01*
X010021Y021015D01*
X010108Y020929D01*
X010368Y020929D01*
X010368Y020755D02*
X010021Y020755D01*
X010021Y020842D01*
X010108Y020929D01*
X010108Y020587D02*
X010368Y020587D01*
X010368Y020413D02*
X010108Y020413D01*
X010021Y020500D01*
X010108Y020587D01*
X010108Y020413D02*
X010021Y020326D01*
X010021Y020240D01*
X010368Y020240D01*
X010282Y020071D02*
X010108Y020071D01*
X010021Y019984D01*
X010021Y019811D01*
X010108Y019724D01*
X010282Y019724D01*
X010368Y019811D01*
X010368Y019984D01*
X010282Y020071D01*
X010282Y019555D02*
X010368Y019469D01*
X010368Y019295D01*
X010282Y019208D01*
X009935Y019208D01*
X009848Y019295D01*
X009848Y019469D01*
X009935Y019555D01*
X012648Y019529D02*
X012648Y019703D01*
X012735Y019790D01*
X012821Y019790D01*
X012908Y019703D01*
X012995Y019790D01*
X013082Y019790D01*
X013168Y019703D01*
X013168Y019529D01*
X013082Y019443D01*
X013168Y019274D02*
X013168Y018927D01*
X012821Y019274D01*
X012735Y019274D01*
X012648Y019187D01*
X012648Y019014D01*
X012735Y018927D01*
X012821Y018758D02*
X013255Y018758D01*
X013342Y018672D01*
X013342Y018585D01*
X013168Y018498D02*
X013168Y018758D01*
X013168Y018498D02*
X013082Y018411D01*
X012821Y018411D01*
X012908Y018243D02*
X013168Y018243D01*
X012908Y018243D02*
X012821Y018156D01*
X012821Y017896D01*
X013168Y017896D01*
X013168Y017726D02*
X013168Y017552D01*
X013168Y017639D02*
X012821Y017639D01*
X012821Y017552D01*
X012821Y017382D02*
X012821Y017208D01*
X012735Y017295D02*
X013082Y017295D01*
X013168Y017382D01*
X012648Y017639D02*
X012561Y017639D01*
X012735Y019443D02*
X012648Y019529D01*
X012908Y019616D02*
X012908Y019703D01*
X012821Y019958D02*
X012648Y020132D01*
X013168Y020132D01*
X013168Y020305D02*
X013168Y019958D01*
X013082Y020474D02*
X013168Y020561D01*
X013168Y020734D01*
X013082Y020821D01*
X012995Y020821D01*
X012908Y020734D01*
X012908Y020647D01*
X012908Y020734D02*
X012821Y020821D01*
X012735Y020821D01*
X012648Y020734D01*
X012648Y020561D01*
X012735Y020474D01*
X008757Y016955D02*
X008583Y016955D01*
X008670Y017042D02*
X008670Y016695D01*
X008757Y016608D01*
X008415Y016695D02*
X008328Y016782D01*
X008154Y016782D01*
X008068Y016869D01*
X008154Y016955D01*
X008415Y016955D01*
X008415Y016695D02*
X008328Y016608D01*
X008068Y016608D01*
X007899Y016782D02*
X007552Y016782D01*
X007552Y016869D02*
X007639Y016955D01*
X007812Y016955D01*
X007899Y016869D01*
X007899Y016782D01*
X007812Y016608D02*
X007639Y016608D01*
X007552Y016695D01*
X007552Y016869D01*
X007382Y016955D02*
X007208Y016955D01*
X007295Y017042D02*
X007295Y016695D01*
X007382Y016608D01*
X009748Y015787D02*
X010095Y015440D01*
X010008Y015526D02*
X010268Y015787D01*
X010268Y015440D02*
X009748Y015440D01*
X009835Y015271D02*
X010182Y014924D01*
X010268Y015011D01*
X010268Y015184D01*
X010182Y015271D01*
X009835Y015271D01*
X009748Y015184D01*
X009748Y015011D01*
X009835Y014924D01*
X010182Y014924D01*
X010268Y014755D02*
X010268Y014408D01*
X010268Y014582D02*
X009748Y014582D01*
X009921Y014408D01*
X008902Y011355D02*
X008555Y011355D01*
X008387Y011355D02*
X008040Y011008D01*
X008387Y011008D01*
X008555Y011008D02*
X008902Y011008D01*
X008902Y011355D02*
X008555Y011008D01*
X008387Y011355D02*
X008040Y011355D01*
X007871Y011355D02*
X007871Y011008D01*
X007611Y011008D01*
X007524Y011095D01*
X007524Y011355D01*
X007355Y011355D02*
X007269Y011269D01*
X007008Y011269D01*
X007008Y011529D02*
X007008Y011008D01*
X007269Y011008D01*
X007355Y011095D01*
X007355Y011182D01*
X007269Y011269D01*
X007355Y011355D02*
X007355Y011442D01*
X007269Y011529D01*
X007008Y011529D01*
X019408Y017095D02*
X019408Y017269D01*
X019495Y017355D01*
X019755Y017355D01*
X019755Y017529D02*
X019755Y017008D01*
X019495Y017008D01*
X019408Y017095D01*
X019924Y017095D02*
X019924Y017269D01*
X020011Y017355D01*
X020184Y017355D01*
X020271Y017269D01*
X020271Y017182D01*
X019924Y017182D01*
X019924Y017095D02*
X020011Y017008D01*
X020184Y017008D01*
X020440Y017095D02*
X020440Y017269D01*
X020526Y017355D01*
X020787Y017355D01*
X020955Y017269D02*
X020955Y017095D01*
X021042Y017008D01*
X021215Y017008D01*
X021302Y017095D01*
X021302Y017269D01*
X021215Y017355D01*
X021042Y017355D01*
X020955Y017269D01*
X020787Y017008D02*
X020526Y017008D01*
X020440Y017095D01*
X021471Y017095D02*
X021471Y017269D01*
X021558Y017355D01*
X021818Y017355D01*
X021818Y017529D02*
X021818Y017008D01*
X021558Y017008D01*
X021471Y017095D01*
X021986Y017095D02*
X021986Y017269D01*
X022073Y017355D01*
X022247Y017355D01*
X022333Y017269D01*
X022333Y017182D01*
X021986Y017182D01*
X021986Y017095D02*
X022073Y017008D01*
X022247Y017008D01*
X022502Y017008D02*
X022502Y017355D01*
X022502Y017182D02*
X022676Y017355D01*
X022762Y017355D01*
X024229Y013129D02*
X024229Y012608D01*
X024402Y012608D02*
X024055Y012608D01*
X023887Y012695D02*
X023800Y012608D01*
X023540Y012608D01*
X023371Y012608D02*
X023111Y012608D01*
X023024Y012695D01*
X023024Y012869D01*
X023111Y012955D01*
X023371Y012955D01*
X023540Y012955D02*
X023800Y012955D01*
X023887Y012869D01*
X023887Y012695D01*
X024055Y012955D02*
X024229Y013129D01*
X024571Y013129D02*
X024918Y013129D01*
X024918Y013042D01*
X024571Y012695D01*
X024571Y012608D01*
X025086Y012695D02*
X025433Y013042D01*
X025433Y012695D01*
X025347Y012608D01*
X025173Y012608D01*
X025086Y012695D01*
X025086Y013042D01*
X025173Y013129D01*
X025347Y013129D01*
X025433Y013042D01*
X025602Y013042D02*
X025689Y013129D01*
X025862Y013129D01*
X025949Y013042D01*
X025949Y012955D01*
X025602Y012608D01*
X025949Y012608D01*
X023540Y012435D02*
X023540Y012955D01*
X022855Y012869D02*
X022855Y012608D01*
X022682Y012608D02*
X022682Y012869D01*
X022769Y012955D01*
X022855Y012869D01*
X022682Y012869D02*
X022595Y012955D01*
X022508Y012955D01*
X022508Y012608D01*
X022524Y008029D02*
X022871Y008029D01*
X022871Y007942D01*
X022524Y007595D01*
X022524Y007508D01*
X022269Y007508D02*
X022269Y008029D01*
X022008Y007769D01*
X022355Y007769D01*
X023040Y007855D02*
X023040Y007595D01*
X023126Y007508D01*
X023387Y007508D01*
X023387Y007855D01*
X023555Y007769D02*
X023729Y007769D01*
X023555Y008029D02*
X023902Y008029D01*
X023555Y008029D02*
X023555Y007508D01*
X024508Y007508D02*
X024855Y007508D01*
X024682Y007508D02*
X024682Y008029D01*
X024508Y007855D01*
X025024Y007942D02*
X025024Y007595D01*
X025371Y007942D01*
X025371Y007595D01*
X025284Y007508D01*
X025111Y007508D01*
X025024Y007595D01*
X025024Y007942D02*
X025111Y008029D01*
X025284Y008029D01*
X025371Y007942D01*
X025540Y007855D02*
X025540Y007595D01*
X025626Y007508D01*
X025887Y007508D01*
X025887Y007855D01*
X026055Y007769D02*
X026229Y007769D01*
X026055Y008029D02*
X026402Y008029D01*
X026055Y008029D02*
X026055Y007508D01*
X033748Y011682D02*
X034268Y011682D01*
X034268Y011855D02*
X034268Y011508D01*
X033921Y011508D02*
X033748Y011682D01*
X033835Y012024D02*
X033748Y012111D01*
X033748Y012284D01*
X033835Y012371D01*
X034182Y012024D01*
X034268Y012111D01*
X034268Y012284D01*
X034182Y012371D01*
X033835Y012371D01*
X033748Y012540D02*
X034268Y012540D01*
X034095Y012540D02*
X033748Y012887D01*
X034008Y012626D02*
X034268Y012887D01*
X034182Y012024D02*
X033835Y012024D01*
X035248Y012111D02*
X035248Y012284D01*
X035335Y012371D01*
X035682Y012024D01*
X035768Y012111D01*
X035768Y012284D01*
X035682Y012371D01*
X035335Y012371D01*
X035248Y012540D02*
X035768Y012540D01*
X035595Y012540D02*
X035248Y012887D01*
X035508Y012626D02*
X035768Y012887D01*
X035682Y012024D02*
X035335Y012024D01*
X035248Y012111D01*
X035248Y011682D02*
X035768Y011682D01*
X035768Y011855D02*
X035768Y011508D01*
X035421Y011508D02*
X035248Y011682D01*
X031502Y017008D02*
X031502Y017355D01*
X031502Y017182D02*
X031676Y017355D01*
X031762Y017355D01*
X031333Y017269D02*
X031333Y017182D01*
X030986Y017182D01*
X030986Y017269D02*
X031073Y017355D01*
X031247Y017355D01*
X031333Y017269D01*
X031247Y017008D02*
X031073Y017008D01*
X030986Y017095D01*
X030986Y017269D01*
X030818Y017355D02*
X030558Y017355D01*
X030471Y017269D01*
X030471Y017095D01*
X030558Y017008D01*
X030818Y017008D01*
X030818Y017529D01*
X030302Y017269D02*
X030215Y017355D01*
X030042Y017355D01*
X029955Y017269D01*
X029955Y017095D01*
X030042Y017008D01*
X030215Y017008D01*
X030302Y017095D01*
X030302Y017269D01*
X029787Y017355D02*
X029526Y017355D01*
X029440Y017269D01*
X029440Y017095D01*
X029526Y017008D01*
X029787Y017008D01*
X029271Y017182D02*
X028924Y017182D01*
X028924Y017269D02*
X029011Y017355D01*
X029184Y017355D01*
X029271Y017269D01*
X029271Y017182D01*
X029184Y017008D02*
X029011Y017008D01*
X028924Y017095D01*
X028924Y017269D01*
X028755Y017355D02*
X028495Y017355D01*
X028408Y017269D01*
X028408Y017095D01*
X028495Y017008D01*
X028755Y017008D01*
X028755Y017529D01*
X024495Y022835D02*
X024408Y022835D01*
X024495Y022835D02*
X024582Y022922D01*
X024582Y023355D01*
X024582Y023008D02*
X024322Y023008D01*
X024235Y023095D01*
X024235Y023355D01*
X024066Y023269D02*
X024066Y023008D01*
X023806Y023008D01*
X023719Y023095D01*
X023806Y023182D01*
X024066Y023182D01*
X024066Y023269D02*
X023979Y023355D01*
X023806Y023355D01*
X023550Y023355D02*
X023463Y023355D01*
X023290Y023182D01*
X023290Y023355D02*
X023290Y023008D01*
X023120Y023355D02*
X023033Y023355D01*
X022860Y023182D01*
X022691Y023182D02*
X022431Y023182D01*
X022344Y023095D01*
X022431Y023008D01*
X022691Y023008D01*
X022691Y023269D01*
X022604Y023355D01*
X022431Y023355D01*
X022860Y023355D02*
X022860Y023008D01*
X021660Y023095D02*
X021573Y023182D01*
X021400Y023182D01*
X021313Y023269D01*
X021400Y023355D01*
X021660Y023355D01*
X021660Y023095D02*
X021573Y023008D01*
X021313Y023008D01*
X021144Y023008D02*
X021144Y023269D01*
X021058Y023355D01*
X020797Y023355D01*
X020797Y023008D01*
X020629Y023008D02*
X020369Y023008D01*
X020282Y023095D01*
X020369Y023182D01*
X020629Y023182D01*
X020629Y023269D02*
X020629Y023008D01*
X020629Y023269D02*
X020542Y023355D01*
X020369Y023355D01*
X020112Y023355D02*
X020026Y023355D01*
X019852Y023182D01*
X019852Y023355D02*
X019852Y023008D01*
X019682Y023008D02*
X019595Y023095D01*
X019595Y023442D01*
X019508Y023355D02*
X019682Y023355D01*
X019895Y025808D02*
X019808Y025895D01*
X019808Y026069D01*
X019895Y026155D01*
X020155Y026155D01*
X020324Y026155D02*
X020411Y026155D01*
X020411Y025808D01*
X020497Y025808D02*
X020324Y025808D01*
X020155Y025808D02*
X019895Y025808D01*
X020155Y025808D02*
X020155Y026329D01*
X020411Y026329D02*
X020411Y026416D01*
X020754Y026155D02*
X020668Y026069D01*
X020668Y025895D01*
X020754Y025808D01*
X021015Y025808D01*
X021015Y025722D02*
X021015Y026155D01*
X020754Y026155D01*
X021183Y026155D02*
X021270Y026155D01*
X021270Y025808D01*
X021183Y025808D02*
X021357Y025808D01*
X021614Y025895D02*
X021701Y025808D01*
X021614Y025895D02*
X021614Y026242D01*
X021527Y026155D02*
X021701Y026155D01*
X021270Y026329D02*
X021270Y026416D01*
X021015Y025722D02*
X020928Y025635D01*
X020841Y025635D01*
X022386Y025808D02*
X022733Y025808D01*
X022560Y025808D02*
X022560Y026329D01*
X022386Y026155D01*
X024408Y026155D02*
X024408Y025808D01*
X024408Y026069D02*
X024755Y026069D01*
X024755Y026155D02*
X024755Y025808D01*
X024755Y026155D02*
X024582Y026329D01*
X024408Y026155D01*
X028408Y026069D02*
X028495Y026155D01*
X028755Y026155D01*
X028924Y026155D02*
X029011Y026155D01*
X029011Y025808D01*
X029097Y025808D02*
X028924Y025808D01*
X028755Y025808D02*
X028495Y025808D01*
X028408Y025895D01*
X028408Y026069D01*
X028755Y026329D02*
X028755Y025808D01*
X029268Y025895D02*
X029354Y025808D01*
X029615Y025808D01*
X029615Y025722D02*
X029615Y026155D01*
X029354Y026155D01*
X029268Y026069D01*
X029268Y025895D01*
X029441Y025635D02*
X029528Y025635D01*
X029615Y025722D01*
X029783Y025808D02*
X029957Y025808D01*
X029870Y025808D02*
X029870Y026155D01*
X029783Y026155D01*
X029870Y026329D02*
X029870Y026416D01*
X030127Y026155D02*
X030301Y026155D01*
X030214Y026242D02*
X030214Y025895D01*
X030301Y025808D01*
X030986Y025895D02*
X031333Y026242D01*
X031333Y025895D01*
X031247Y025808D01*
X031073Y025808D01*
X030986Y025895D01*
X030986Y026242D01*
X031073Y026329D01*
X031247Y026329D01*
X031333Y026242D01*
X033408Y026155D02*
X033408Y025808D01*
X033408Y026069D02*
X033755Y026069D01*
X033755Y026155D02*
X033755Y025808D01*
X033755Y026155D02*
X033582Y026329D01*
X033408Y026155D01*
X033482Y023355D02*
X033482Y022922D01*
X033395Y022835D01*
X033308Y022835D01*
X033222Y023008D02*
X033482Y023008D01*
X033222Y023008D02*
X033135Y023095D01*
X033135Y023355D01*
X032966Y023269D02*
X032966Y023008D01*
X032706Y023008D01*
X032619Y023095D01*
X032706Y023182D01*
X032966Y023182D01*
X032966Y023269D02*
X032879Y023355D01*
X032706Y023355D01*
X032450Y023355D02*
X032363Y023355D01*
X032190Y023182D01*
X032190Y023355D02*
X032190Y023008D01*
X032020Y023355D02*
X031933Y023355D01*
X031760Y023182D01*
X031591Y023182D02*
X031331Y023182D01*
X031244Y023095D01*
X031331Y023008D01*
X031591Y023008D01*
X031591Y023269D01*
X031504Y023355D01*
X031331Y023355D01*
X031760Y023355D02*
X031760Y023008D01*
X030560Y023095D02*
X030473Y023182D01*
X030300Y023182D01*
X030213Y023269D01*
X030300Y023355D01*
X030560Y023355D01*
X030560Y023095D02*
X030473Y023008D01*
X030213Y023008D01*
X030044Y023008D02*
X030044Y023269D01*
X029958Y023355D01*
X029697Y023355D01*
X029697Y023008D01*
X029529Y023008D02*
X029269Y023008D01*
X029182Y023095D01*
X029269Y023182D01*
X029529Y023182D01*
X029529Y023269D02*
X029529Y023008D01*
X029529Y023269D02*
X029442Y023355D01*
X029269Y023355D01*
X029012Y023355D02*
X028926Y023355D01*
X028752Y023182D01*
X028752Y023355D02*
X028752Y023008D01*
X028582Y023008D02*
X028495Y023095D01*
X028495Y023442D01*
X028408Y023355D02*
X028582Y023355D01*
X029011Y026329D02*
X029011Y026416D01*
D12*
X009719Y012874D02*
X009719Y012627D01*
X009595Y012503D01*
X009472Y012627D01*
X009472Y012874D01*
X009350Y012874D02*
X009103Y012874D01*
X009103Y012689D01*
X009227Y012750D01*
X009289Y012750D01*
X009350Y012689D01*
X009350Y012565D01*
X009289Y012503D01*
X009165Y012503D01*
X009103Y012565D01*
D13*
X009538Y013938D02*
X009538Y014088D01*
X009588Y014138D01*
X009588Y016038D01*
X009538Y016088D01*
X009538Y016238D01*
X009540Y016255D01*
X009544Y016272D01*
X009551Y016288D01*
X009561Y016302D01*
X009574Y016315D01*
X009588Y016325D01*
X009604Y016332D01*
X009621Y016336D01*
X009638Y016338D01*
X010338Y016338D02*
X010355Y016336D01*
X010372Y016332D01*
X010388Y016325D01*
X010402Y016315D01*
X010415Y016302D01*
X010425Y016288D01*
X010432Y016272D01*
X010436Y016255D01*
X010438Y016238D01*
X010438Y016088D01*
X010388Y016038D01*
X010388Y014138D01*
X010438Y014088D01*
X010438Y013938D01*
X010436Y013921D01*
X010432Y013904D01*
X010425Y013888D01*
X010415Y013874D01*
X010402Y013861D01*
X010388Y013851D01*
X010372Y013844D01*
X010355Y013840D01*
X010338Y013838D01*
X009638Y013838D02*
X009621Y013840D01*
X009604Y013844D01*
X009588Y013851D01*
X009574Y013861D01*
X009561Y013874D01*
X009551Y013888D01*
X009544Y013904D01*
X009540Y013921D01*
X009538Y013938D01*
X011888Y013488D02*
X011888Y023888D01*
X012738Y023888D01*
X012740Y023858D01*
X012745Y023828D01*
X012754Y023799D01*
X012767Y023772D01*
X012782Y023746D01*
X012801Y023722D01*
X012822Y023701D01*
X012846Y023682D01*
X012872Y023667D01*
X012899Y023654D01*
X012928Y023645D01*
X012958Y023640D01*
X012988Y023638D01*
X013018Y023640D01*
X013048Y023645D01*
X013077Y023654D01*
X013104Y023667D01*
X013130Y023682D01*
X013154Y023701D01*
X013175Y023722D01*
X013194Y023746D01*
X013209Y023772D01*
X013222Y023799D01*
X013231Y023828D01*
X013236Y023858D01*
X013238Y023888D01*
X014088Y023888D01*
X014088Y013488D01*
X011888Y013488D01*
X018188Y012188D02*
X018188Y011188D01*
X019788Y011188D01*
X019788Y012188D01*
X018188Y012188D01*
X018588Y011938D02*
X018988Y011688D01*
X018988Y011938D01*
X018988Y011688D02*
X018988Y011438D01*
X018988Y011688D02*
X018588Y011438D01*
X018588Y011938D01*
X018388Y011688D02*
X018988Y011688D01*
X019238Y011688D01*
X021988Y009188D02*
X021990Y009251D01*
X021996Y009313D01*
X022006Y009375D01*
X022019Y009437D01*
X022037Y009497D01*
X022058Y009556D01*
X022083Y009614D01*
X022112Y009670D01*
X022144Y009724D01*
X022179Y009776D01*
X022217Y009825D01*
X022259Y009873D01*
X022303Y009917D01*
X022351Y009959D01*
X022400Y009997D01*
X022452Y010032D01*
X022506Y010064D01*
X022562Y010093D01*
X022620Y010118D01*
X022679Y010139D01*
X022739Y010157D01*
X022801Y010170D01*
X022863Y010180D01*
X022925Y010186D01*
X022988Y010188D01*
X023051Y010186D01*
X023113Y010180D01*
X023175Y010170D01*
X023237Y010157D01*
X023297Y010139D01*
X023356Y010118D01*
X023414Y010093D01*
X023470Y010064D01*
X023524Y010032D01*
X023576Y009997D01*
X023625Y009959D01*
X023673Y009917D01*
X023717Y009873D01*
X023759Y009825D01*
X023797Y009776D01*
X023832Y009724D01*
X023864Y009670D01*
X023893Y009614D01*
X023918Y009556D01*
X023939Y009497D01*
X023957Y009437D01*
X023970Y009375D01*
X023980Y009313D01*
X023986Y009251D01*
X023988Y009188D01*
X023986Y009125D01*
X023980Y009063D01*
X023970Y009001D01*
X023957Y008939D01*
X023939Y008879D01*
X023918Y008820D01*
X023893Y008762D01*
X023864Y008706D01*
X023832Y008652D01*
X023797Y008600D01*
X023759Y008551D01*
X023717Y008503D01*
X023673Y008459D01*
X023625Y008417D01*
X023576Y008379D01*
X023524Y008344D01*
X023470Y008312D01*
X023414Y008283D01*
X023356Y008258D01*
X023297Y008237D01*
X023237Y008219D01*
X023175Y008206D01*
X023113Y008196D01*
X023051Y008190D01*
X022988Y008188D01*
X022925Y008190D01*
X022863Y008196D01*
X022801Y008206D01*
X022739Y008219D01*
X022679Y008237D01*
X022620Y008258D01*
X022562Y008283D01*
X022506Y008312D01*
X022452Y008344D01*
X022400Y008379D01*
X022351Y008417D01*
X022303Y008459D01*
X022259Y008503D01*
X022217Y008551D01*
X022179Y008600D01*
X022144Y008652D01*
X022112Y008706D01*
X022083Y008762D01*
X022058Y008820D01*
X022037Y008879D01*
X022019Y008939D01*
X022006Y009001D01*
X021996Y009063D01*
X021990Y009125D01*
X021988Y009188D01*
X023588Y009588D02*
X023788Y009588D01*
X023688Y009688D02*
X023688Y009488D01*
X024488Y009188D02*
X024490Y009251D01*
X024496Y009313D01*
X024506Y009375D01*
X024519Y009437D01*
X024537Y009497D01*
X024558Y009556D01*
X024583Y009614D01*
X024612Y009670D01*
X024644Y009724D01*
X024679Y009776D01*
X024717Y009825D01*
X024759Y009873D01*
X024803Y009917D01*
X024851Y009959D01*
X024900Y009997D01*
X024952Y010032D01*
X025006Y010064D01*
X025062Y010093D01*
X025120Y010118D01*
X025179Y010139D01*
X025239Y010157D01*
X025301Y010170D01*
X025363Y010180D01*
X025425Y010186D01*
X025488Y010188D01*
X025551Y010186D01*
X025613Y010180D01*
X025675Y010170D01*
X025737Y010157D01*
X025797Y010139D01*
X025856Y010118D01*
X025914Y010093D01*
X025970Y010064D01*
X026024Y010032D01*
X026076Y009997D01*
X026125Y009959D01*
X026173Y009917D01*
X026217Y009873D01*
X026259Y009825D01*
X026297Y009776D01*
X026332Y009724D01*
X026364Y009670D01*
X026393Y009614D01*
X026418Y009556D01*
X026439Y009497D01*
X026457Y009437D01*
X026470Y009375D01*
X026480Y009313D01*
X026486Y009251D01*
X026488Y009188D01*
X026486Y009125D01*
X026480Y009063D01*
X026470Y009001D01*
X026457Y008939D01*
X026439Y008879D01*
X026418Y008820D01*
X026393Y008762D01*
X026364Y008706D01*
X026332Y008652D01*
X026297Y008600D01*
X026259Y008551D01*
X026217Y008503D01*
X026173Y008459D01*
X026125Y008417D01*
X026076Y008379D01*
X026024Y008344D01*
X025970Y008312D01*
X025914Y008283D01*
X025856Y008258D01*
X025797Y008237D01*
X025737Y008219D01*
X025675Y008206D01*
X025613Y008196D01*
X025551Y008190D01*
X025488Y008188D01*
X025425Y008190D01*
X025363Y008196D01*
X025301Y008206D01*
X025239Y008219D01*
X025179Y008237D01*
X025120Y008258D01*
X025062Y008283D01*
X025006Y008312D01*
X024952Y008344D01*
X024900Y008379D01*
X024851Y008417D01*
X024803Y008459D01*
X024759Y008503D01*
X024717Y008551D01*
X024679Y008600D01*
X024644Y008652D01*
X024612Y008706D01*
X024583Y008762D01*
X024558Y008820D01*
X024537Y008879D01*
X024519Y008939D01*
X024506Y009001D01*
X024496Y009063D01*
X024490Y009125D01*
X024488Y009188D01*
X026088Y009588D02*
X026288Y009588D01*
X026188Y009688D02*
X026188Y009488D01*
X033538Y011038D02*
X033538Y011188D01*
X033588Y011238D01*
X033588Y013138D01*
X033538Y013188D01*
X033538Y013338D01*
X033540Y013355D01*
X033544Y013372D01*
X033551Y013388D01*
X033561Y013402D01*
X033574Y013415D01*
X033588Y013425D01*
X033604Y013432D01*
X033621Y013436D01*
X033638Y013438D01*
X034338Y013438D02*
X034355Y013436D01*
X034372Y013432D01*
X034388Y013425D01*
X034402Y013415D01*
X034415Y013402D01*
X034425Y013388D01*
X034432Y013372D01*
X034436Y013355D01*
X034438Y013338D01*
X034438Y013188D01*
X034388Y013138D01*
X034388Y011238D01*
X034438Y011188D01*
X034438Y011038D01*
X034436Y011021D01*
X034432Y011004D01*
X034425Y010988D01*
X034415Y010974D01*
X034402Y010961D01*
X034388Y010951D01*
X034372Y010944D01*
X034355Y010940D01*
X034338Y010938D01*
X035038Y011038D02*
X035038Y011188D01*
X035088Y011238D01*
X035088Y013138D01*
X035038Y013188D01*
X035038Y013338D01*
X035040Y013355D01*
X035044Y013372D01*
X035051Y013388D01*
X035061Y013402D01*
X035074Y013415D01*
X035088Y013425D01*
X035104Y013432D01*
X035121Y013436D01*
X035138Y013438D01*
X035838Y013438D02*
X035855Y013436D01*
X035872Y013432D01*
X035888Y013425D01*
X035902Y013415D01*
X035915Y013402D01*
X035925Y013388D01*
X035932Y013372D01*
X035936Y013355D01*
X035938Y013338D01*
X035938Y013188D01*
X035888Y013138D01*
X035888Y011238D01*
X035938Y011188D01*
X035938Y011038D01*
X035936Y011021D01*
X035932Y011004D01*
X035925Y010988D01*
X035915Y010974D01*
X035902Y010961D01*
X035888Y010951D01*
X035872Y010944D01*
X035855Y010940D01*
X035838Y010938D01*
X035138Y010938D02*
X035121Y010940D01*
X035104Y010944D01*
X035088Y010951D01*
X035074Y010961D01*
X035061Y010974D01*
X035051Y010988D01*
X035044Y011004D01*
X035040Y011021D01*
X035038Y011038D01*
X033638Y010938D02*
X033621Y010940D01*
X033604Y010944D01*
X033588Y010951D01*
X033574Y010961D01*
X033561Y010974D01*
X033551Y010988D01*
X033544Y011004D01*
X033540Y011021D01*
X033538Y011038D01*
X034988Y022038D02*
X026988Y022038D01*
X026988Y022788D01*
X027027Y022790D01*
X027066Y022796D01*
X027104Y022805D01*
X027141Y022818D01*
X027177Y022835D01*
X027210Y022855D01*
X027242Y022879D01*
X027271Y022905D01*
X027297Y022934D01*
X027321Y022966D01*
X027341Y022999D01*
X027358Y023035D01*
X027371Y023072D01*
X027380Y023110D01*
X027386Y023149D01*
X027388Y023188D01*
X027386Y023227D01*
X027380Y023266D01*
X027371Y023304D01*
X027358Y023341D01*
X027341Y023377D01*
X027321Y023410D01*
X027297Y023442D01*
X027271Y023471D01*
X027242Y023497D01*
X027210Y023521D01*
X027177Y023541D01*
X027141Y023558D01*
X027104Y023571D01*
X027066Y023580D01*
X027027Y023586D01*
X026988Y023588D01*
X026988Y024338D01*
X034988Y024338D01*
X034988Y022038D01*
X025988Y022038D02*
X025988Y024338D01*
X017988Y024338D01*
X017988Y023588D01*
X018027Y023586D01*
X018066Y023580D01*
X018104Y023571D01*
X018141Y023558D01*
X018177Y023541D01*
X018210Y023521D01*
X018242Y023497D01*
X018271Y023471D01*
X018297Y023442D01*
X018321Y023410D01*
X018341Y023377D01*
X018358Y023341D01*
X018371Y023304D01*
X018380Y023266D01*
X018386Y023227D01*
X018388Y023188D01*
X018386Y023149D01*
X018380Y023110D01*
X018371Y023072D01*
X018358Y023035D01*
X018341Y022999D01*
X018321Y022966D01*
X018297Y022934D01*
X018271Y022905D01*
X018242Y022879D01*
X018210Y022855D01*
X018177Y022835D01*
X018141Y022818D01*
X018104Y022805D01*
X018066Y022796D01*
X018027Y022790D01*
X017988Y022788D01*
X017988Y022038D01*
X025988Y022038D01*
X014838Y024438D02*
X014838Y024938D01*
X014836Y024964D01*
X014831Y024990D01*
X014823Y025015D01*
X014811Y025038D01*
X014797Y025060D01*
X014779Y025079D01*
X014760Y025097D01*
X014738Y025111D01*
X014715Y025123D01*
X014690Y025131D01*
X014664Y025136D01*
X014638Y025138D01*
X013338Y025138D01*
X013312Y025136D01*
X013286Y025131D01*
X013261Y025123D01*
X013238Y025111D01*
X013216Y025097D01*
X013197Y025079D01*
X013179Y025060D01*
X013165Y025038D01*
X013153Y025015D01*
X013145Y024990D01*
X013140Y024964D01*
X013138Y024938D01*
X013138Y024438D01*
X013140Y024412D01*
X013145Y024386D01*
X013153Y024361D01*
X013165Y024338D01*
X013179Y024316D01*
X013197Y024297D01*
X013216Y024279D01*
X013238Y024265D01*
X013261Y024253D01*
X013286Y024245D01*
X013312Y024240D01*
X013338Y024238D01*
X014638Y024238D01*
X014664Y024240D01*
X014690Y024245D01*
X014715Y024253D01*
X014738Y024265D01*
X014760Y024279D01*
X014779Y024297D01*
X014797Y024316D01*
X014811Y024338D01*
X014823Y024361D01*
X014831Y024386D01*
X014836Y024412D01*
X014838Y024438D01*
X009938Y023688D02*
X009938Y023538D01*
X009936Y023521D01*
X009932Y023504D01*
X009925Y023488D01*
X009915Y023474D01*
X009902Y023461D01*
X009888Y023451D01*
X009872Y023444D01*
X009855Y023440D01*
X009838Y023438D01*
X009938Y023688D02*
X009888Y023738D01*
X009888Y025638D01*
X009938Y025688D01*
X009938Y025838D01*
X009936Y025855D01*
X009932Y025872D01*
X009925Y025888D01*
X009915Y025902D01*
X009902Y025915D01*
X009888Y025925D01*
X009872Y025932D01*
X009855Y025936D01*
X009838Y025938D01*
X009138Y025938D02*
X009121Y025936D01*
X009104Y025932D01*
X009088Y025925D01*
X009074Y025915D01*
X009061Y025902D01*
X009051Y025888D01*
X009044Y025872D01*
X009040Y025855D01*
X009038Y025838D01*
X009038Y025688D01*
X009088Y025638D01*
X009088Y023738D01*
X009038Y023688D01*
X009038Y023538D01*
X009040Y023521D01*
X009044Y023504D01*
X009051Y023488D01*
X009061Y023474D01*
X009074Y023461D01*
X009088Y023451D01*
X009104Y023444D01*
X009121Y023440D01*
X009138Y023438D01*
X008438Y023538D02*
X008438Y023688D01*
X008388Y023738D01*
X008388Y025638D01*
X008438Y025688D01*
X008438Y025838D01*
X008436Y025855D01*
X008432Y025872D01*
X008425Y025888D01*
X008415Y025902D01*
X008402Y025915D01*
X008388Y025925D01*
X008372Y025932D01*
X008355Y025936D01*
X008338Y025938D01*
X007638Y025938D02*
X007621Y025936D01*
X007604Y025932D01*
X007588Y025925D01*
X007574Y025915D01*
X007561Y025902D01*
X007551Y025888D01*
X007544Y025872D01*
X007540Y025855D01*
X007538Y025838D01*
X007538Y025688D01*
X007588Y025638D01*
X007588Y023738D01*
X007538Y023688D01*
X007538Y023538D01*
X007540Y023521D01*
X007544Y023504D01*
X007551Y023488D01*
X007561Y023474D01*
X007574Y023461D01*
X007588Y023451D01*
X007604Y023444D01*
X007621Y023440D01*
X007638Y023438D01*
X008338Y023438D02*
X008355Y023440D01*
X008372Y023444D01*
X008388Y023451D01*
X008402Y023461D01*
X008415Y023474D01*
X008425Y023488D01*
X008432Y023504D01*
X008436Y023521D01*
X008438Y023538D01*
X007488Y020188D02*
X007490Y020251D01*
X007496Y020313D01*
X007506Y020375D01*
X007519Y020437D01*
X007537Y020497D01*
X007558Y020556D01*
X007583Y020614D01*
X007612Y020670D01*
X007644Y020724D01*
X007679Y020776D01*
X007717Y020825D01*
X007759Y020873D01*
X007803Y020917D01*
X007851Y020959D01*
X007900Y020997D01*
X007952Y021032D01*
X008006Y021064D01*
X008062Y021093D01*
X008120Y021118D01*
X008179Y021139D01*
X008239Y021157D01*
X008301Y021170D01*
X008363Y021180D01*
X008425Y021186D01*
X008488Y021188D01*
X008551Y021186D01*
X008613Y021180D01*
X008675Y021170D01*
X008737Y021157D01*
X008797Y021139D01*
X008856Y021118D01*
X008914Y021093D01*
X008970Y021064D01*
X009024Y021032D01*
X009076Y020997D01*
X009125Y020959D01*
X009173Y020917D01*
X009217Y020873D01*
X009259Y020825D01*
X009297Y020776D01*
X009332Y020724D01*
X009364Y020670D01*
X009393Y020614D01*
X009418Y020556D01*
X009439Y020497D01*
X009457Y020437D01*
X009470Y020375D01*
X009480Y020313D01*
X009486Y020251D01*
X009488Y020188D01*
X009486Y020125D01*
X009480Y020063D01*
X009470Y020001D01*
X009457Y019939D01*
X009439Y019879D01*
X009418Y019820D01*
X009393Y019762D01*
X009364Y019706D01*
X009332Y019652D01*
X009297Y019600D01*
X009259Y019551D01*
X009217Y019503D01*
X009173Y019459D01*
X009125Y019417D01*
X009076Y019379D01*
X009024Y019344D01*
X008970Y019312D01*
X008914Y019283D01*
X008856Y019258D01*
X008797Y019237D01*
X008737Y019219D01*
X008675Y019206D01*
X008613Y019196D01*
X008551Y019190D01*
X008488Y019188D01*
X008425Y019190D01*
X008363Y019196D01*
X008301Y019206D01*
X008239Y019219D01*
X008179Y019237D01*
X008120Y019258D01*
X008062Y019283D01*
X008006Y019312D01*
X007952Y019344D01*
X007900Y019379D01*
X007851Y019417D01*
X007803Y019459D01*
X007759Y019503D01*
X007717Y019551D01*
X007679Y019600D01*
X007644Y019652D01*
X007612Y019706D01*
X007583Y019762D01*
X007558Y019820D01*
X007537Y019879D01*
X007519Y019939D01*
X007506Y020001D01*
X007496Y020063D01*
X007490Y020125D01*
X007488Y020188D01*
D14*
X009488Y019438D02*
X009488Y020938D01*
X008238Y018188D02*
X007738Y018188D01*
X007488Y017938D01*
X007488Y017438D01*
X007738Y017188D01*
X008238Y017188D01*
X008488Y017438D01*
X008488Y017938D01*
X008238Y018188D01*
X009488Y012125D02*
X009488Y007007D01*
X015488Y007007D01*
X015488Y012125D01*
X009488Y012125D01*
X016626Y010641D02*
X016626Y010247D01*
X016626Y010641D02*
X021351Y010641D01*
X021351Y010247D01*
X021351Y009066D02*
X021351Y006310D01*
X016626Y006310D01*
X016626Y009066D01*
X023164Y012338D02*
X024813Y012338D01*
X024738Y010938D02*
X024686Y010896D01*
X024632Y010857D01*
X024575Y010822D01*
X024517Y010789D01*
X024457Y010761D01*
X024395Y010735D01*
X024332Y010713D01*
X024267Y010695D01*
X024202Y010681D01*
X024136Y010671D01*
X024070Y010664D01*
X024003Y010661D01*
X023936Y010662D01*
X023870Y010667D01*
X023804Y010676D01*
X023738Y010688D01*
X023677Y010704D01*
X023617Y010722D01*
X023559Y010744D01*
X023501Y010769D01*
X023445Y010797D01*
X023390Y010828D01*
X023338Y010862D01*
X023287Y010899D01*
X023238Y010938D01*
X023738Y010688D02*
X023800Y010676D01*
X023862Y010668D01*
X023925Y010663D01*
X023988Y010661D01*
X024051Y010663D01*
X024114Y010668D01*
X024176Y010676D01*
X024238Y010688D01*
X026988Y012125D02*
X026988Y007007D01*
X032988Y007007D01*
X032988Y012125D01*
X026988Y012125D01*
X026738Y026688D02*
X026238Y026688D01*
X025988Y026938D01*
X025988Y027438D01*
X026238Y027688D01*
X026738Y027688D01*
X026988Y027438D01*
X027238Y027688D01*
X027738Y027688D01*
X027988Y027438D01*
X028238Y027688D01*
X028738Y027688D01*
X028988Y027438D01*
X029238Y027688D01*
X029738Y027688D01*
X029988Y027438D01*
X030238Y027688D01*
X030738Y027688D01*
X030988Y027438D01*
X031238Y027688D01*
X031738Y027688D01*
X031988Y027438D01*
X032238Y027688D01*
X032738Y027688D01*
X032988Y027438D01*
X033238Y027688D01*
X033738Y027688D01*
X033988Y027438D01*
X033988Y026938D01*
X033738Y026688D01*
X033238Y026688D01*
X032988Y026938D01*
X032738Y026688D01*
X032238Y026688D01*
X031988Y026938D01*
X031738Y026688D01*
X031238Y026688D01*
X030988Y026938D01*
X030738Y026688D01*
X030238Y026688D01*
X029988Y026938D01*
X029738Y026688D01*
X029238Y026688D01*
X028988Y026938D01*
X028738Y026688D01*
X028238Y026688D01*
X027988Y026938D01*
X027738Y026688D01*
X027238Y026688D01*
X026988Y026938D01*
X026738Y026688D01*
X024988Y026938D02*
X024738Y026688D01*
X024238Y026688D01*
X023988Y026938D01*
X023738Y026688D01*
X023238Y026688D01*
X022988Y026938D01*
X022738Y026688D01*
X022238Y026688D01*
X021988Y026938D01*
X021738Y026688D01*
X021238Y026688D01*
X020988Y026938D01*
X020738Y026688D01*
X020238Y026688D01*
X019988Y026938D01*
X019738Y026688D01*
X019238Y026688D01*
X018988Y026938D01*
X018738Y026688D01*
X018238Y026688D01*
X017988Y026938D01*
X017738Y026688D01*
X017238Y026688D01*
X016988Y026938D01*
X016988Y027438D01*
X017238Y027688D01*
X017738Y027688D01*
X017988Y027438D01*
X018238Y027688D01*
X018738Y027688D01*
X018988Y027438D01*
X019238Y027688D01*
X019738Y027688D01*
X019988Y027438D01*
X020238Y027688D01*
X020738Y027688D01*
X020988Y027438D01*
X021238Y027688D01*
X021738Y027688D01*
X021988Y027438D01*
X022238Y027688D01*
X022738Y027688D01*
X022988Y027438D01*
X023238Y027688D01*
X023738Y027688D01*
X023988Y027438D01*
X024238Y027688D01*
X024738Y027688D01*
X024988Y027438D01*
X024988Y026938D01*
D15*
X019538Y011688D03*
D16*
X020163Y011688D03*
X017813Y011688D03*
D17*
X023133Y012355D02*
X023188Y012312D01*
X023152Y012263D01*
X023118Y012212D01*
X023089Y012158D01*
X023062Y012103D01*
X023038Y012047D01*
X023019Y011989D01*
X023002Y011930D01*
X022989Y011870D01*
X022980Y011810D01*
X022975Y011749D01*
X022973Y011687D01*
X022975Y011626D01*
X022980Y011565D01*
X022990Y011505D01*
X023003Y011445D01*
X023019Y011386D01*
X023039Y011328D01*
X023062Y011272D01*
X023089Y011217D01*
X023119Y011163D01*
X023152Y011112D01*
X023188Y011063D01*
X023228Y011016D01*
X023269Y010971D01*
X023314Y010929D01*
X023361Y010890D01*
X023410Y010854D01*
X023461Y010820D01*
X023515Y010790D01*
X023570Y010763D01*
X023626Y010740D01*
X023684Y010720D01*
X023664Y010653D01*
X023663Y010653D01*
X023602Y010674D01*
X023541Y010699D01*
X023482Y010728D01*
X023425Y010760D01*
X023371Y010796D01*
X023318Y010835D01*
X023268Y010877D01*
X023220Y010922D01*
X023175Y010969D01*
X023133Y011019D01*
X023095Y011072D01*
X023059Y011127D01*
X023027Y011184D01*
X022998Y011243D01*
X022973Y011303D01*
X022952Y011365D01*
X022935Y011428D01*
X022921Y011492D01*
X022911Y011557D01*
X022905Y011622D01*
X022903Y011688D01*
X022905Y011753D01*
X022911Y011818D01*
X022921Y011883D01*
X022934Y011947D01*
X022952Y012010D01*
X022973Y012072D01*
X022998Y012132D01*
X023027Y012191D01*
X023059Y012248D01*
X023094Y012303D01*
X023133Y012356D01*
X023140Y012350D01*
X023102Y012298D01*
X023066Y012243D01*
X023035Y012187D01*
X023006Y012128D01*
X022981Y012068D01*
X022960Y012007D01*
X022943Y011945D01*
X022929Y011881D01*
X022920Y011817D01*
X022914Y011752D01*
X022912Y011688D01*
X022914Y011623D01*
X022920Y011558D01*
X022930Y011494D01*
X022943Y011430D01*
X022961Y011368D01*
X022982Y011307D01*
X023007Y011247D01*
X023035Y011188D01*
X023067Y011132D01*
X023102Y011077D01*
X023140Y011025D01*
X023182Y010975D01*
X023226Y010928D01*
X023274Y010883D01*
X023323Y010842D01*
X023376Y010803D01*
X023430Y010768D01*
X023487Y010736D01*
X023545Y010708D01*
X023605Y010683D01*
X023666Y010661D01*
X023669Y010670D01*
X023608Y010691D01*
X023548Y010716D01*
X023491Y010744D01*
X023435Y010776D01*
X023381Y010811D01*
X023329Y010849D01*
X023280Y010890D01*
X023233Y010934D01*
X023189Y010981D01*
X023148Y011031D01*
X023109Y011082D01*
X023075Y011136D01*
X023043Y011193D01*
X023015Y011250D01*
X022990Y011310D01*
X022969Y011371D01*
X022952Y011433D01*
X022939Y011496D01*
X022929Y011559D01*
X022923Y011623D01*
X022921Y011687D01*
X022923Y011752D01*
X022929Y011816D01*
X022938Y011879D01*
X022952Y011942D01*
X022969Y012004D01*
X022990Y012065D01*
X023014Y012125D01*
X023043Y012183D01*
X023074Y012239D01*
X023109Y012293D01*
X023147Y012345D01*
X023154Y012339D01*
X023116Y012288D01*
X023082Y012234D01*
X023050Y012178D01*
X023023Y012121D01*
X022998Y012062D01*
X022978Y012002D01*
X022961Y011940D01*
X022947Y011878D01*
X022938Y011815D01*
X022932Y011751D01*
X022930Y011687D01*
X022932Y011624D01*
X022938Y011560D01*
X022947Y011497D01*
X022961Y011435D01*
X022978Y011373D01*
X022999Y011313D01*
X023023Y011254D01*
X023051Y011197D01*
X023082Y011141D01*
X023117Y011088D01*
X023155Y011036D01*
X023195Y010987D01*
X023239Y010941D01*
X023286Y010897D01*
X023334Y010856D01*
X023386Y010818D01*
X023439Y010783D01*
X023495Y010752D01*
X023552Y010724D01*
X023611Y010699D01*
X023671Y010679D01*
X023674Y010687D01*
X023614Y010708D01*
X023556Y010732D01*
X023499Y010760D01*
X023444Y010791D01*
X023391Y010826D01*
X023340Y010863D01*
X023291Y010904D01*
X023245Y010947D01*
X023202Y010993D01*
X023162Y011042D01*
X023124Y011093D01*
X023090Y011146D01*
X023059Y011201D01*
X023031Y011258D01*
X023007Y011316D01*
X022986Y011376D01*
X022969Y011437D01*
X022956Y011499D01*
X022947Y011561D01*
X022941Y011624D01*
X022939Y011687D01*
X022941Y011751D01*
X022947Y011814D01*
X022956Y011876D01*
X022969Y011938D01*
X022986Y011999D01*
X023007Y012059D01*
X023031Y012117D01*
X023058Y012174D01*
X023089Y012229D01*
X023124Y012282D01*
X023161Y012333D01*
X023168Y012328D01*
X023131Y012277D01*
X023097Y012225D01*
X023066Y012170D01*
X023039Y012114D01*
X023015Y012056D01*
X022995Y011996D01*
X022978Y011936D01*
X022965Y011875D01*
X022955Y011813D01*
X022950Y011750D01*
X022948Y011687D01*
X022950Y011625D01*
X022956Y011562D01*
X022965Y011500D01*
X022978Y011439D01*
X022995Y011379D01*
X023016Y011319D01*
X023039Y011261D01*
X023067Y011205D01*
X023098Y011150D01*
X023132Y011098D01*
X023169Y011047D01*
X023209Y010999D01*
X023252Y010953D01*
X023297Y010910D01*
X023346Y010870D01*
X023396Y010833D01*
X023449Y010799D01*
X023503Y010768D01*
X023559Y010740D01*
X023617Y010716D01*
X023677Y010696D01*
X023679Y010704D01*
X023621Y010725D01*
X023563Y010749D01*
X023507Y010776D01*
X023453Y010807D01*
X023401Y010840D01*
X023351Y010877D01*
X023303Y010917D01*
X023258Y010960D01*
X023216Y011005D01*
X023176Y011053D01*
X023139Y011103D01*
X023105Y011155D01*
X023075Y011209D01*
X023048Y011265D01*
X023024Y011323D01*
X023004Y011381D01*
X022987Y011441D01*
X022974Y011502D01*
X022965Y011563D01*
X022959Y011625D01*
X022957Y011687D01*
X022959Y011750D01*
X022964Y011811D01*
X022974Y011873D01*
X022987Y011934D01*
X023003Y011994D01*
X023024Y012052D01*
X023047Y012110D01*
X023074Y012166D01*
X023105Y012220D01*
X023138Y012272D01*
X023175Y012322D01*
X023182Y012317D01*
X023146Y012267D01*
X023113Y012215D01*
X023082Y012162D01*
X023055Y012106D01*
X023032Y012049D01*
X023012Y011991D01*
X022995Y011932D01*
X022983Y011871D01*
X022973Y011810D01*
X022968Y011749D01*
X022966Y011687D01*
X022968Y011626D01*
X022973Y011565D01*
X022983Y011504D01*
X022996Y011443D01*
X023012Y011384D01*
X023032Y011326D01*
X023056Y011269D01*
X023083Y011213D01*
X023113Y011160D01*
X023146Y011108D01*
X023183Y011058D01*
X023222Y011011D01*
X023265Y010966D01*
X023309Y010924D01*
X023357Y010884D01*
X023406Y010848D01*
X023458Y010814D01*
X023511Y010784D01*
X023567Y010757D01*
X023624Y010733D01*
X023682Y010713D01*
X024312Y010653D02*
X024292Y010720D01*
X024350Y010740D01*
X024406Y010763D01*
X024461Y010790D01*
X024514Y010820D01*
X024566Y010854D01*
X024615Y010890D01*
X024662Y010929D01*
X024706Y010971D01*
X024748Y011016D01*
X024788Y011063D01*
X024824Y011112D01*
X024857Y011163D01*
X024887Y011217D01*
X024914Y011272D01*
X024937Y011328D01*
X024957Y011386D01*
X024973Y011445D01*
X024986Y011505D01*
X024996Y011565D01*
X025001Y011626D01*
X025003Y011687D01*
X025001Y011749D01*
X024996Y011810D01*
X024987Y011870D01*
X024974Y011930D01*
X024957Y011989D01*
X024938Y012047D01*
X024914Y012103D01*
X024887Y012158D01*
X024858Y012212D01*
X024824Y012263D01*
X024788Y012312D01*
X024843Y012355D01*
X024843Y012356D01*
X024882Y012303D01*
X024917Y012248D01*
X024949Y012191D01*
X024978Y012132D01*
X025003Y012072D01*
X025024Y012010D01*
X025042Y011947D01*
X025055Y011883D01*
X025065Y011818D01*
X025071Y011753D01*
X025073Y011687D01*
X025071Y011622D01*
X025065Y011557D01*
X025055Y011492D01*
X025041Y011428D01*
X025024Y011365D01*
X025003Y011303D01*
X024978Y011243D01*
X024949Y011184D01*
X024917Y011127D01*
X024881Y011072D01*
X024843Y011019D01*
X024801Y010969D01*
X024756Y010922D01*
X024708Y010877D01*
X024658Y010835D01*
X024605Y010796D01*
X024551Y010760D01*
X024494Y010728D01*
X024435Y010699D01*
X024374Y010674D01*
X024313Y010653D01*
X024310Y010661D01*
X024371Y010683D01*
X024431Y010708D01*
X024489Y010736D01*
X024546Y010768D01*
X024600Y010803D01*
X024653Y010842D01*
X024702Y010883D01*
X024750Y010928D01*
X024794Y010975D01*
X024835Y011025D01*
X024874Y011077D01*
X024909Y011132D01*
X024941Y011188D01*
X024969Y011247D01*
X024994Y011307D01*
X025015Y011368D01*
X025033Y011430D01*
X025046Y011494D01*
X025056Y011558D01*
X025062Y011623D01*
X025064Y011687D01*
X025062Y011752D01*
X025056Y011817D01*
X025047Y011881D01*
X025033Y011945D01*
X025016Y012007D01*
X024995Y012068D01*
X024970Y012128D01*
X024941Y012187D01*
X024910Y012243D01*
X024875Y012298D01*
X024836Y012350D01*
X024829Y012345D01*
X024867Y012293D01*
X024902Y012239D01*
X024933Y012183D01*
X024962Y012125D01*
X024986Y012065D01*
X025007Y012004D01*
X025024Y011942D01*
X025038Y011879D01*
X025047Y011816D01*
X025053Y011752D01*
X025055Y011687D01*
X025053Y011623D01*
X025047Y011559D01*
X025037Y011496D01*
X025024Y011433D01*
X025007Y011371D01*
X024986Y011310D01*
X024961Y011250D01*
X024933Y011193D01*
X024901Y011136D01*
X024867Y011082D01*
X024828Y011031D01*
X024787Y010981D01*
X024743Y010934D01*
X024696Y010890D01*
X024647Y010849D01*
X024595Y010811D01*
X024541Y010776D01*
X024485Y010744D01*
X024428Y010716D01*
X024368Y010691D01*
X024307Y010670D01*
X024305Y010679D01*
X024365Y010699D01*
X024424Y010724D01*
X024481Y010752D01*
X024537Y010783D01*
X024590Y010818D01*
X024642Y010856D01*
X024690Y010897D01*
X024737Y010941D01*
X024781Y010987D01*
X024821Y011036D01*
X024859Y011088D01*
X024894Y011141D01*
X024925Y011197D01*
X024953Y011254D01*
X024977Y011313D01*
X024998Y011373D01*
X025015Y011435D01*
X025029Y011497D01*
X025038Y011560D01*
X025044Y011624D01*
X025046Y011687D01*
X025044Y011751D01*
X025038Y011815D01*
X025029Y011878D01*
X025016Y011940D01*
X024998Y012002D01*
X024978Y012062D01*
X024953Y012121D01*
X024926Y012178D01*
X024894Y012234D01*
X024860Y012288D01*
X024822Y012339D01*
X024815Y012333D01*
X024852Y012282D01*
X024887Y012229D01*
X024918Y012174D01*
X024945Y012117D01*
X024969Y012059D01*
X024990Y011999D01*
X025007Y011938D01*
X025020Y011876D01*
X025029Y011814D01*
X025035Y011751D01*
X025037Y011687D01*
X025035Y011624D01*
X025029Y011561D01*
X025020Y011499D01*
X025007Y011437D01*
X024990Y011376D01*
X024969Y011316D01*
X024945Y011258D01*
X024917Y011201D01*
X024886Y011146D01*
X024852Y011093D01*
X024814Y011042D01*
X024774Y010993D01*
X024731Y010947D01*
X024685Y010904D01*
X024636Y010863D01*
X024585Y010826D01*
X024532Y010791D01*
X024477Y010760D01*
X024420Y010732D01*
X024362Y010708D01*
X024302Y010687D01*
X024299Y010696D01*
X024359Y010716D01*
X024416Y010740D01*
X024473Y010768D01*
X024527Y010799D01*
X024580Y010833D01*
X024630Y010870D01*
X024679Y010910D01*
X024724Y010953D01*
X024767Y010999D01*
X024807Y011047D01*
X024844Y011098D01*
X024878Y011150D01*
X024909Y011205D01*
X024937Y011261D01*
X024960Y011319D01*
X024981Y011379D01*
X024998Y011439D01*
X025011Y011500D01*
X025020Y011562D01*
X025026Y011625D01*
X025028Y011687D01*
X025026Y011750D01*
X025021Y011813D01*
X025011Y011875D01*
X024998Y011936D01*
X024981Y011996D01*
X024961Y012056D01*
X024937Y012114D01*
X024910Y012170D01*
X024879Y012225D01*
X024845Y012277D01*
X024808Y012328D01*
X024801Y012322D01*
X024838Y012272D01*
X024871Y012220D01*
X024902Y012166D01*
X024929Y012110D01*
X024952Y012052D01*
X024973Y011994D01*
X024989Y011934D01*
X025002Y011873D01*
X025012Y011811D01*
X025017Y011750D01*
X025019Y011687D01*
X025017Y011625D01*
X025011Y011563D01*
X025002Y011502D01*
X024989Y011441D01*
X024972Y011381D01*
X024952Y011323D01*
X024928Y011265D01*
X024901Y011209D01*
X024871Y011155D01*
X024837Y011103D01*
X024800Y011053D01*
X024760Y011005D01*
X024718Y010960D01*
X024673Y010917D01*
X024625Y010877D01*
X024575Y010840D01*
X024523Y010807D01*
X024469Y010776D01*
X024413Y010749D01*
X024355Y010725D01*
X024297Y010704D01*
X024294Y010713D01*
X024352Y010733D01*
X024409Y010757D01*
X024464Y010784D01*
X024518Y010814D01*
X024570Y010848D01*
X024619Y010884D01*
X024667Y010924D01*
X024711Y010966D01*
X024754Y011011D01*
X024793Y011058D01*
X024829Y011108D01*
X024863Y011160D01*
X024893Y011213D01*
X024920Y011269D01*
X024944Y011326D01*
X024964Y011384D01*
X024980Y011443D01*
X024993Y011504D01*
X025003Y011564D01*
X025008Y011626D01*
X025010Y011687D01*
X025008Y011749D01*
X025003Y011810D01*
X024993Y011871D01*
X024981Y011932D01*
X024964Y011991D01*
X024944Y012049D01*
X024921Y012106D01*
X024894Y012162D01*
X024864Y012215D01*
X024830Y012267D01*
X024794Y012317D01*
D18*
X024988Y016038D02*
X024988Y018338D01*
X016988Y018338D01*
X016988Y017588D01*
X017027Y017586D01*
X017066Y017580D01*
X017104Y017571D01*
X017141Y017558D01*
X017177Y017541D01*
X017210Y017521D01*
X017242Y017497D01*
X017271Y017471D01*
X017297Y017442D01*
X017321Y017410D01*
X017341Y017377D01*
X017358Y017341D01*
X017371Y017304D01*
X017380Y017266D01*
X017386Y017227D01*
X017388Y017188D01*
X017386Y017149D01*
X017380Y017110D01*
X017371Y017072D01*
X017358Y017035D01*
X017341Y016999D01*
X017321Y016966D01*
X017297Y016934D01*
X017271Y016905D01*
X017242Y016879D01*
X017210Y016855D01*
X017177Y016835D01*
X017141Y016818D01*
X017104Y016805D01*
X017066Y016796D01*
X017027Y016790D01*
X016988Y016788D01*
X016988Y016038D01*
X024988Y016038D01*
X025988Y016038D02*
X025988Y016788D01*
X026027Y016790D01*
X026066Y016796D01*
X026104Y016805D01*
X026141Y016818D01*
X026177Y016835D01*
X026210Y016855D01*
X026242Y016879D01*
X026271Y016905D01*
X026297Y016934D01*
X026321Y016966D01*
X026341Y016999D01*
X026358Y017035D01*
X026371Y017072D01*
X026380Y017110D01*
X026386Y017149D01*
X026388Y017188D01*
X026386Y017227D01*
X026380Y017266D01*
X026371Y017304D01*
X026358Y017341D01*
X026341Y017377D01*
X026321Y017410D01*
X026297Y017442D01*
X026271Y017471D01*
X026242Y017497D01*
X026210Y017521D01*
X026177Y017541D01*
X026141Y017558D01*
X026104Y017571D01*
X026066Y017580D01*
X026027Y017586D01*
X025988Y017588D01*
X025988Y018338D01*
X033988Y018338D01*
X033988Y016038D01*
X025988Y016038D01*
X014108Y024388D02*
X014108Y024988D01*
X013858Y024988D02*
X013858Y024388D01*
D19*
X009034Y014588D02*
X008876Y014588D01*
X008813Y014038D02*
X007164Y014038D01*
X007101Y014588D02*
X006943Y014588D01*
X007876Y014588D02*
X008101Y014588D01*
X008813Y014038D02*
X008850Y014089D01*
X008885Y014142D01*
X008917Y014198D01*
X008945Y014255D01*
X008969Y014314D01*
X008990Y014374D01*
X009007Y014435D01*
X009021Y014497D01*
X009030Y014560D01*
X009036Y014623D01*
X009038Y014687D01*
X009036Y014751D01*
X009030Y014814D01*
X009021Y014877D01*
X009008Y014939D01*
X008990Y015000D01*
X008970Y015060D01*
X008945Y015119D01*
X008918Y015176D01*
X008886Y015232D01*
X008852Y015285D01*
X008814Y015336D01*
X008773Y015385D01*
X008729Y015431D01*
X008683Y015475D01*
X008634Y015516D01*
X008583Y015553D01*
X008529Y015588D01*
X008474Y015619D01*
X008417Y015647D01*
X008358Y015671D01*
X008298Y015691D01*
X007678Y015691D02*
X007619Y015671D01*
X007562Y015648D01*
X007505Y015621D01*
X007451Y015590D01*
X007398Y015557D01*
X007348Y015520D01*
X007299Y015481D01*
X007254Y015438D01*
X007210Y015393D01*
X007170Y015346D01*
X007132Y015296D01*
X007097Y015244D01*
X007066Y015190D01*
X007038Y015135D01*
X007013Y015078D01*
X006992Y015019D01*
X006974Y014959D01*
X006959Y014898D01*
X006949Y014837D01*
X006942Y014775D01*
X006938Y014713D01*
X006939Y014650D01*
X006943Y014588D01*
X006950Y014528D01*
X006961Y014469D01*
X006975Y014411D01*
X006993Y014354D01*
X007013Y014297D01*
X007037Y014242D01*
X007064Y014188D01*
X007095Y014136D01*
X007128Y014086D01*
X007163Y014038D01*
D20*
X009488Y019438D02*
X009445Y019384D01*
X009399Y019332D01*
X009350Y019283D01*
X009298Y019236D01*
X009244Y019193D01*
X009188Y019152D01*
X009129Y019115D01*
X009069Y019081D01*
X009006Y019051D01*
X008943Y019024D01*
X008877Y019000D01*
X008811Y018980D01*
X008743Y018964D01*
X008675Y018952D01*
X008606Y018944D01*
X008537Y018939D01*
X008467Y018938D01*
X008398Y018941D01*
X008329Y018948D01*
X008261Y018959D01*
X008193Y018973D01*
X008126Y018992D01*
X008060Y019014D01*
X007995Y019039D01*
X007932Y019068D01*
X007871Y019101D01*
X007812Y019137D01*
X007755Y019176D01*
X007699Y019218D01*
X007647Y019263D01*
X007597Y019311D01*
X007550Y019362D01*
X007505Y019416D01*
X007464Y019471D01*
X007426Y019529D01*
X007391Y019589D01*
X007359Y019651D01*
X007331Y019714D01*
X007307Y019779D01*
X007286Y019845D01*
X007269Y019913D01*
X007255Y019981D01*
X007246Y020050D01*
X007240Y020119D01*
X007238Y020188D01*
X007240Y020257D01*
X007246Y020326D01*
X007255Y020395D01*
X007269Y020463D01*
X007286Y020531D01*
X007307Y020597D01*
X007331Y020662D01*
X007359Y020725D01*
X007391Y020787D01*
X007426Y020847D01*
X007464Y020905D01*
X007505Y020960D01*
X007550Y021014D01*
X007597Y021065D01*
X007647Y021113D01*
X007699Y021158D01*
X007755Y021200D01*
X007812Y021239D01*
X007871Y021275D01*
X007932Y021308D01*
X007995Y021337D01*
X008060Y021362D01*
X008126Y021384D01*
X008193Y021403D01*
X008261Y021417D01*
X008329Y021428D01*
X008398Y021435D01*
X008467Y021438D01*
X008537Y021437D01*
X008606Y021432D01*
X008675Y021424D01*
X008743Y021412D01*
X008811Y021396D01*
X008877Y021376D01*
X008943Y021352D01*
X009006Y021325D01*
X009069Y021295D01*
X009129Y021261D01*
X009188Y021224D01*
X009244Y021183D01*
X009298Y021140D01*
X009350Y021093D01*
X009399Y021044D01*
X009445Y020992D01*
X009488Y020938D01*
M02*
