G75*
G70*
%OFA0B0*%
%FSLAX24Y24*%
%IPPOS*%
%LPD*%
%AMOC8*
5,1,8,0,0,1.08239X$1,22.5*
%
%ADD10C,0.0000*%
%ADD11C,0.0060*%
%ADD12C,0.0740*%
%ADD13OC8,0.0520*%
%ADD14R,0.0740X0.0740*%
%ADD15C,0.0160*%
D10*
X002681Y004687D02*
X002681Y023683D01*
X036051Y023683D01*
X036051Y004687D01*
X002681Y004687D01*
X003585Y006224D02*
X003587Y006274D01*
X003593Y006324D01*
X003603Y006374D01*
X003616Y006422D01*
X003633Y006470D01*
X003654Y006516D01*
X003678Y006560D01*
X003706Y006602D01*
X003737Y006642D01*
X003771Y006679D01*
X003808Y006714D01*
X003847Y006745D01*
X003888Y006774D01*
X003932Y006799D01*
X003978Y006821D01*
X004025Y006839D01*
X004073Y006853D01*
X004122Y006864D01*
X004172Y006871D01*
X004222Y006874D01*
X004273Y006873D01*
X004323Y006868D01*
X004373Y006859D01*
X004421Y006847D01*
X004469Y006830D01*
X004515Y006810D01*
X004560Y006787D01*
X004603Y006760D01*
X004643Y006730D01*
X004681Y006697D01*
X004716Y006661D01*
X004749Y006622D01*
X004778Y006581D01*
X004804Y006538D01*
X004827Y006493D01*
X004846Y006446D01*
X004861Y006398D01*
X004873Y006349D01*
X004881Y006299D01*
X004885Y006249D01*
X004885Y006199D01*
X004881Y006149D01*
X004873Y006099D01*
X004861Y006050D01*
X004846Y006002D01*
X004827Y005955D01*
X004804Y005910D01*
X004778Y005867D01*
X004749Y005826D01*
X004716Y005787D01*
X004681Y005751D01*
X004643Y005718D01*
X004603Y005688D01*
X004560Y005661D01*
X004515Y005638D01*
X004469Y005618D01*
X004421Y005601D01*
X004373Y005589D01*
X004323Y005580D01*
X004273Y005575D01*
X004222Y005574D01*
X004172Y005577D01*
X004122Y005584D01*
X004073Y005595D01*
X004025Y005609D01*
X003978Y005627D01*
X003932Y005649D01*
X003888Y005674D01*
X003847Y005703D01*
X003808Y005734D01*
X003771Y005769D01*
X003737Y005806D01*
X003706Y005846D01*
X003678Y005888D01*
X003654Y005932D01*
X003633Y005978D01*
X003616Y006026D01*
X003603Y006074D01*
X003593Y006124D01*
X003587Y006174D01*
X003585Y006224D01*
X003596Y022198D02*
X003598Y022248D01*
X003604Y022298D01*
X003614Y022348D01*
X003627Y022396D01*
X003644Y022444D01*
X003665Y022490D01*
X003689Y022534D01*
X003717Y022576D01*
X003748Y022616D01*
X003782Y022653D01*
X003819Y022688D01*
X003858Y022719D01*
X003899Y022748D01*
X003943Y022773D01*
X003989Y022795D01*
X004036Y022813D01*
X004084Y022827D01*
X004133Y022838D01*
X004183Y022845D01*
X004233Y022848D01*
X004284Y022847D01*
X004334Y022842D01*
X004384Y022833D01*
X004432Y022821D01*
X004480Y022804D01*
X004526Y022784D01*
X004571Y022761D01*
X004614Y022734D01*
X004654Y022704D01*
X004692Y022671D01*
X004727Y022635D01*
X004760Y022596D01*
X004789Y022555D01*
X004815Y022512D01*
X004838Y022467D01*
X004857Y022420D01*
X004872Y022372D01*
X004884Y022323D01*
X004892Y022273D01*
X004896Y022223D01*
X004896Y022173D01*
X004892Y022123D01*
X004884Y022073D01*
X004872Y022024D01*
X004857Y021976D01*
X004838Y021929D01*
X004815Y021884D01*
X004789Y021841D01*
X004760Y021800D01*
X004727Y021761D01*
X004692Y021725D01*
X004654Y021692D01*
X004614Y021662D01*
X004571Y021635D01*
X004526Y021612D01*
X004480Y021592D01*
X004432Y021575D01*
X004384Y021563D01*
X004334Y021554D01*
X004284Y021549D01*
X004233Y021548D01*
X004183Y021551D01*
X004133Y021558D01*
X004084Y021569D01*
X004036Y021583D01*
X003989Y021601D01*
X003943Y021623D01*
X003899Y021648D01*
X003858Y021677D01*
X003819Y021708D01*
X003782Y021743D01*
X003748Y021780D01*
X003717Y021820D01*
X003689Y021862D01*
X003665Y021906D01*
X003644Y021952D01*
X003627Y022000D01*
X003614Y022048D01*
X003604Y022098D01*
X003598Y022148D01*
X003596Y022198D01*
X028566Y018112D02*
X028568Y018162D01*
X028574Y018212D01*
X028584Y018262D01*
X028597Y018310D01*
X028614Y018358D01*
X028635Y018404D01*
X028659Y018448D01*
X028687Y018490D01*
X028718Y018530D01*
X028752Y018567D01*
X028789Y018602D01*
X028828Y018633D01*
X028869Y018662D01*
X028913Y018687D01*
X028959Y018709D01*
X029006Y018727D01*
X029054Y018741D01*
X029103Y018752D01*
X029153Y018759D01*
X029203Y018762D01*
X029254Y018761D01*
X029304Y018756D01*
X029354Y018747D01*
X029402Y018735D01*
X029450Y018718D01*
X029496Y018698D01*
X029541Y018675D01*
X029584Y018648D01*
X029624Y018618D01*
X029662Y018585D01*
X029697Y018549D01*
X029730Y018510D01*
X029759Y018469D01*
X029785Y018426D01*
X029808Y018381D01*
X029827Y018334D01*
X029842Y018286D01*
X029854Y018237D01*
X029862Y018187D01*
X029866Y018137D01*
X029866Y018087D01*
X029862Y018037D01*
X029854Y017987D01*
X029842Y017938D01*
X029827Y017890D01*
X029808Y017843D01*
X029785Y017798D01*
X029759Y017755D01*
X029730Y017714D01*
X029697Y017675D01*
X029662Y017639D01*
X029624Y017606D01*
X029584Y017576D01*
X029541Y017549D01*
X029496Y017526D01*
X029450Y017506D01*
X029402Y017489D01*
X029354Y017477D01*
X029304Y017468D01*
X029254Y017463D01*
X029203Y017462D01*
X029153Y017465D01*
X029103Y017472D01*
X029054Y017483D01*
X029006Y017497D01*
X028959Y017515D01*
X028913Y017537D01*
X028869Y017562D01*
X028828Y017591D01*
X028789Y017622D01*
X028752Y017657D01*
X028718Y017694D01*
X028687Y017734D01*
X028659Y017776D01*
X028635Y017820D01*
X028614Y017866D01*
X028597Y017914D01*
X028584Y017962D01*
X028574Y018012D01*
X028568Y018062D01*
X028566Y018112D01*
X033831Y022187D02*
X033833Y022237D01*
X033839Y022287D01*
X033849Y022337D01*
X033862Y022385D01*
X033879Y022433D01*
X033900Y022479D01*
X033924Y022523D01*
X033952Y022565D01*
X033983Y022605D01*
X034017Y022642D01*
X034054Y022677D01*
X034093Y022708D01*
X034134Y022737D01*
X034178Y022762D01*
X034224Y022784D01*
X034271Y022802D01*
X034319Y022816D01*
X034368Y022827D01*
X034418Y022834D01*
X034468Y022837D01*
X034519Y022836D01*
X034569Y022831D01*
X034619Y022822D01*
X034667Y022810D01*
X034715Y022793D01*
X034761Y022773D01*
X034806Y022750D01*
X034849Y022723D01*
X034889Y022693D01*
X034927Y022660D01*
X034962Y022624D01*
X034995Y022585D01*
X035024Y022544D01*
X035050Y022501D01*
X035073Y022456D01*
X035092Y022409D01*
X035107Y022361D01*
X035119Y022312D01*
X035127Y022262D01*
X035131Y022212D01*
X035131Y022162D01*
X035127Y022112D01*
X035119Y022062D01*
X035107Y022013D01*
X035092Y021965D01*
X035073Y021918D01*
X035050Y021873D01*
X035024Y021830D01*
X034995Y021789D01*
X034962Y021750D01*
X034927Y021714D01*
X034889Y021681D01*
X034849Y021651D01*
X034806Y021624D01*
X034761Y021601D01*
X034715Y021581D01*
X034667Y021564D01*
X034619Y021552D01*
X034569Y021543D01*
X034519Y021538D01*
X034468Y021537D01*
X034418Y021540D01*
X034368Y021547D01*
X034319Y021558D01*
X034271Y021572D01*
X034224Y021590D01*
X034178Y021612D01*
X034134Y021637D01*
X034093Y021666D01*
X034054Y021697D01*
X034017Y021732D01*
X033983Y021769D01*
X033952Y021809D01*
X033924Y021851D01*
X033900Y021895D01*
X033879Y021941D01*
X033862Y021989D01*
X033849Y022037D01*
X033839Y022087D01*
X033833Y022137D01*
X033831Y022187D01*
X028566Y009254D02*
X028568Y009304D01*
X028574Y009354D01*
X028584Y009404D01*
X028597Y009452D01*
X028614Y009500D01*
X028635Y009546D01*
X028659Y009590D01*
X028687Y009632D01*
X028718Y009672D01*
X028752Y009709D01*
X028789Y009744D01*
X028828Y009775D01*
X028869Y009804D01*
X028913Y009829D01*
X028959Y009851D01*
X029006Y009869D01*
X029054Y009883D01*
X029103Y009894D01*
X029153Y009901D01*
X029203Y009904D01*
X029254Y009903D01*
X029304Y009898D01*
X029354Y009889D01*
X029402Y009877D01*
X029450Y009860D01*
X029496Y009840D01*
X029541Y009817D01*
X029584Y009790D01*
X029624Y009760D01*
X029662Y009727D01*
X029697Y009691D01*
X029730Y009652D01*
X029759Y009611D01*
X029785Y009568D01*
X029808Y009523D01*
X029827Y009476D01*
X029842Y009428D01*
X029854Y009379D01*
X029862Y009329D01*
X029866Y009279D01*
X029866Y009229D01*
X029862Y009179D01*
X029854Y009129D01*
X029842Y009080D01*
X029827Y009032D01*
X029808Y008985D01*
X029785Y008940D01*
X029759Y008897D01*
X029730Y008856D01*
X029697Y008817D01*
X029662Y008781D01*
X029624Y008748D01*
X029584Y008718D01*
X029541Y008691D01*
X029496Y008668D01*
X029450Y008648D01*
X029402Y008631D01*
X029354Y008619D01*
X029304Y008610D01*
X029254Y008605D01*
X029203Y008604D01*
X029153Y008607D01*
X029103Y008614D01*
X029054Y008625D01*
X029006Y008639D01*
X028959Y008657D01*
X028913Y008679D01*
X028869Y008704D01*
X028828Y008733D01*
X028789Y008764D01*
X028752Y008799D01*
X028718Y008836D01*
X028687Y008876D01*
X028659Y008918D01*
X028635Y008962D01*
X028614Y009008D01*
X028597Y009056D01*
X028584Y009104D01*
X028574Y009154D01*
X028568Y009204D01*
X028566Y009254D01*
X033831Y006187D02*
X033833Y006237D01*
X033839Y006287D01*
X033849Y006337D01*
X033862Y006385D01*
X033879Y006433D01*
X033900Y006479D01*
X033924Y006523D01*
X033952Y006565D01*
X033983Y006605D01*
X034017Y006642D01*
X034054Y006677D01*
X034093Y006708D01*
X034134Y006737D01*
X034178Y006762D01*
X034224Y006784D01*
X034271Y006802D01*
X034319Y006816D01*
X034368Y006827D01*
X034418Y006834D01*
X034468Y006837D01*
X034519Y006836D01*
X034569Y006831D01*
X034619Y006822D01*
X034667Y006810D01*
X034715Y006793D01*
X034761Y006773D01*
X034806Y006750D01*
X034849Y006723D01*
X034889Y006693D01*
X034927Y006660D01*
X034962Y006624D01*
X034995Y006585D01*
X035024Y006544D01*
X035050Y006501D01*
X035073Y006456D01*
X035092Y006409D01*
X035107Y006361D01*
X035119Y006312D01*
X035127Y006262D01*
X035131Y006212D01*
X035131Y006162D01*
X035127Y006112D01*
X035119Y006062D01*
X035107Y006013D01*
X035092Y005965D01*
X035073Y005918D01*
X035050Y005873D01*
X035024Y005830D01*
X034995Y005789D01*
X034962Y005750D01*
X034927Y005714D01*
X034889Y005681D01*
X034849Y005651D01*
X034806Y005624D01*
X034761Y005601D01*
X034715Y005581D01*
X034667Y005564D01*
X034619Y005552D01*
X034569Y005543D01*
X034519Y005538D01*
X034468Y005537D01*
X034418Y005540D01*
X034368Y005547D01*
X034319Y005558D01*
X034271Y005572D01*
X034224Y005590D01*
X034178Y005612D01*
X034134Y005637D01*
X034093Y005666D01*
X034054Y005697D01*
X034017Y005732D01*
X033983Y005769D01*
X033952Y005809D01*
X033924Y005851D01*
X033900Y005895D01*
X033879Y005941D01*
X033862Y005989D01*
X033849Y006037D01*
X033839Y006087D01*
X033833Y006137D01*
X033831Y006187D01*
D11*
X032737Y022170D02*
X032310Y022170D01*
X032093Y022170D02*
X031666Y022597D01*
X031666Y022704D01*
X031773Y022811D01*
X031986Y022811D01*
X032093Y022704D01*
X032310Y022704D02*
X032417Y022811D01*
X032631Y022811D01*
X032737Y022704D01*
X032310Y022704D02*
X032310Y022597D01*
X032737Y022170D01*
X032093Y022170D02*
X031666Y022170D01*
X031448Y022170D02*
X031021Y022811D01*
X030804Y022597D02*
X030590Y022811D01*
X030590Y022170D01*
X030377Y022170D02*
X030804Y022170D01*
X030159Y022277D02*
X029732Y022704D01*
X029732Y022277D01*
X029839Y022170D01*
X030053Y022170D01*
X030159Y022277D01*
X030159Y022704D01*
X030053Y022811D01*
X029839Y022811D01*
X029732Y022704D01*
X029515Y022170D02*
X029088Y022811D01*
X028870Y022704D02*
X028763Y022811D01*
X028550Y022811D01*
X028443Y022704D01*
X028443Y022597D01*
X028870Y022170D01*
X028443Y022170D01*
X028226Y022277D02*
X027799Y022704D01*
X027799Y022277D01*
X027905Y022170D01*
X028119Y022170D01*
X028226Y022277D01*
X028226Y022704D01*
X028119Y022811D01*
X027905Y022811D01*
X027799Y022704D01*
X027581Y022597D02*
X027368Y022811D01*
X027368Y022170D01*
X027581Y022170D02*
X027154Y022170D01*
X026937Y022170D02*
X026510Y022170D01*
X026723Y022170D02*
X026723Y022811D01*
X026937Y022597D01*
D12*
X025681Y020687D03*
X024681Y020687D03*
X021681Y020687D03*
X020681Y020687D03*
X018681Y018187D03*
X018681Y017187D03*
X018681Y014187D03*
X018681Y013187D03*
X018681Y010187D03*
X018681Y009187D03*
X020681Y006687D03*
X021681Y006687D03*
X024681Y006687D03*
X025681Y006687D03*
X028681Y006687D03*
X029681Y006687D03*
X032181Y009187D03*
X032181Y010187D03*
X032181Y013187D03*
X032181Y014187D03*
X032181Y017187D03*
X032181Y018187D03*
X029681Y020687D03*
X028681Y020687D03*
X023281Y016337D03*
X023281Y015337D03*
X023281Y014337D03*
X023281Y013337D03*
X023281Y012337D03*
X023281Y011337D03*
X023281Y010337D03*
X016681Y006687D03*
X015681Y006687D03*
X012681Y006687D03*
X011681Y006687D03*
X008681Y006687D03*
X007681Y006687D03*
X005181Y009187D03*
X005181Y010187D03*
X005181Y013187D03*
X005181Y014187D03*
X005181Y017187D03*
X005181Y018187D03*
X007681Y020687D03*
X008681Y020687D03*
X011681Y020687D03*
X012681Y020687D03*
X015681Y020687D03*
X016681Y020687D03*
D13*
X021081Y017537D03*
X022081Y017537D03*
X024531Y017287D03*
X024531Y018287D03*
X024581Y016037D03*
X025581Y016037D03*
X025581Y014537D03*
X024581Y014537D03*
X024581Y013037D03*
X025581Y013037D03*
X024331Y011087D03*
X024331Y010087D03*
X022081Y010037D03*
X021081Y010037D03*
D14*
X023281Y017337D03*
D15*
X023081Y017537D01*
X022081Y017537D01*
X021581Y017529D02*
X021581Y017529D01*
X021581Y017687D02*
X021581Y017687D01*
X021581Y017744D02*
X021581Y017329D01*
X021874Y017037D01*
X022288Y017037D01*
X022468Y017217D01*
X022671Y017217D01*
X022671Y016919D01*
X022707Y016831D01*
X022775Y016763D01*
X022824Y016743D01*
X022764Y016682D01*
X022671Y016458D01*
X022671Y016215D01*
X022764Y015991D01*
X022918Y015837D01*
X022764Y015682D01*
X022671Y015458D01*
X022671Y015215D01*
X022764Y014991D01*
X022918Y014837D01*
X022764Y014682D01*
X022671Y014458D01*
X022671Y014215D01*
X022764Y013991D01*
X022918Y013837D01*
X022764Y013682D01*
X022671Y013458D01*
X022671Y013215D01*
X022764Y012991D01*
X022918Y012837D01*
X022764Y012682D01*
X022671Y012458D01*
X022671Y012215D01*
X022764Y011991D01*
X022918Y011837D01*
X022764Y011682D01*
X022753Y011657D01*
X022395Y011657D01*
X022267Y011657D01*
X022150Y011608D01*
X021900Y011358D01*
X021810Y011268D01*
X021761Y011150D01*
X021761Y010424D01*
X021581Y010244D01*
X021581Y009829D01*
X021874Y009537D01*
X022288Y009537D01*
X022581Y009829D01*
X022581Y010244D01*
X022401Y010424D01*
X022401Y010954D01*
X022464Y011017D01*
X022753Y011017D01*
X022764Y010991D01*
X022935Y010819D01*
X022983Y010800D01*
X022923Y010756D01*
X022861Y010695D01*
X022811Y010625D01*
X022771Y010548D01*
X022744Y010465D01*
X022731Y010380D01*
X022731Y010357D01*
X023261Y010357D01*
X023261Y010317D01*
X022731Y010317D01*
X022731Y010293D01*
X022744Y010208D01*
X022771Y010125D01*
X022811Y010048D01*
X022861Y009978D01*
X022923Y009917D01*
X022993Y009866D01*
X023070Y009827D01*
X023152Y009800D01*
X023238Y009787D01*
X023261Y009787D01*
X023261Y010316D01*
X023301Y010316D01*
X023301Y009787D01*
X023324Y009787D01*
X023410Y009800D01*
X023492Y009827D01*
X023569Y009866D01*
X023639Y009917D01*
X023700Y009978D01*
X023751Y010048D01*
X023791Y010125D01*
X023817Y010208D01*
X023831Y010293D01*
X023831Y010317D01*
X023301Y010317D01*
X023301Y010357D01*
X023831Y010357D01*
X023831Y010380D01*
X023817Y010465D01*
X023791Y010548D01*
X023751Y010625D01*
X023700Y010695D01*
X023639Y010756D01*
X023579Y010800D01*
X023626Y010819D01*
X023798Y010991D01*
X023831Y011071D01*
X023831Y010879D01*
X024124Y010587D01*
X024538Y010587D01*
X024831Y010879D01*
X024831Y011294D01*
X024701Y011424D01*
X024701Y012200D01*
X024652Y012318D01*
X024562Y012408D01*
X024433Y012537D01*
X024788Y012537D01*
X025081Y012829D01*
X025081Y013244D01*
X024788Y013537D01*
X024534Y013537D01*
X024462Y013608D01*
X024345Y013657D01*
X024217Y013657D01*
X023809Y013657D01*
X023798Y013682D01*
X023644Y013837D01*
X023798Y013991D01*
X023809Y014017D01*
X024317Y014017D01*
X024445Y014017D01*
X024493Y014037D01*
X024788Y014037D01*
X025081Y014329D01*
X025081Y014744D01*
X024788Y015037D01*
X024374Y015037D01*
X024081Y014744D01*
X024081Y014657D01*
X023809Y014657D01*
X023798Y014682D01*
X023644Y014837D01*
X023798Y014991D01*
X023809Y015017D01*
X023817Y015017D01*
X023945Y015017D01*
X024062Y015065D01*
X024534Y015537D01*
X024788Y015537D01*
X025081Y015829D01*
X025081Y016244D01*
X024788Y016537D01*
X024374Y016537D01*
X024081Y016244D01*
X024081Y015989D01*
X023786Y015694D01*
X023644Y015837D01*
X023798Y015991D01*
X023876Y016179D01*
X024484Y016787D01*
X024738Y016787D01*
X025031Y017079D01*
X025031Y017494D01*
X024738Y017787D01*
X025031Y018079D01*
X025031Y018494D01*
X024738Y018787D01*
X024324Y018787D01*
X024144Y018607D01*
X021664Y018607D01*
X019312Y020958D01*
X019195Y021007D01*
X019067Y021007D01*
X017209Y021007D01*
X017198Y021032D01*
X017026Y021204D01*
X016802Y021297D01*
X016560Y021297D01*
X016335Y021204D01*
X016181Y021049D01*
X016026Y021204D01*
X015802Y021297D01*
X015560Y021297D01*
X015335Y021204D01*
X015164Y021032D01*
X015153Y021007D01*
X013209Y021007D01*
X013198Y021032D01*
X013026Y021204D01*
X012802Y021297D01*
X012560Y021297D01*
X012335Y021204D01*
X012181Y021049D01*
X012026Y021204D01*
X011802Y021297D01*
X011560Y021297D01*
X011335Y021204D01*
X011164Y021032D01*
X011153Y021007D01*
X009209Y021007D01*
X009198Y021032D01*
X009026Y021204D01*
X008802Y021297D01*
X008560Y021297D01*
X008335Y021204D01*
X008164Y021032D01*
X008144Y020985D01*
X008100Y021045D01*
X008039Y021106D01*
X007969Y021157D01*
X007892Y021196D01*
X007810Y021223D01*
X007724Y021237D01*
X007681Y021237D01*
X007681Y020687D01*
X007681Y020687D01*
X007681Y021237D01*
X007638Y021237D01*
X007552Y021223D01*
X007470Y021196D01*
X007393Y021157D01*
X007323Y021106D01*
X007261Y021045D01*
X007211Y020975D01*
X007171Y020898D01*
X007144Y020815D01*
X007131Y020730D01*
X007131Y020687D01*
X007681Y020687D01*
X007681Y020686D01*
X007681Y020137D01*
X007724Y020137D01*
X007810Y020150D01*
X007892Y020177D01*
X007969Y020216D01*
X008039Y020267D01*
X008100Y020328D01*
X008144Y020389D01*
X008164Y020341D01*
X008335Y020169D01*
X008560Y020077D01*
X008802Y020077D01*
X009026Y020169D01*
X009198Y020341D01*
X009209Y020367D01*
X011153Y020367D01*
X011164Y020341D01*
X011335Y020169D01*
X011560Y020077D01*
X011802Y020077D01*
X012026Y020169D01*
X012181Y020324D01*
X012335Y020169D01*
X012560Y020077D01*
X012802Y020077D01*
X013026Y020169D01*
X013198Y020341D01*
X013209Y020367D01*
X015153Y020367D01*
X015164Y020341D01*
X015335Y020169D01*
X015560Y020077D01*
X015802Y020077D01*
X016026Y020169D01*
X016181Y020324D01*
X016335Y020169D01*
X016560Y020077D01*
X016802Y020077D01*
X017026Y020169D01*
X017198Y020341D01*
X017209Y020367D01*
X018998Y020367D01*
X021260Y018105D01*
X021350Y018015D01*
X021467Y017967D01*
X021804Y017967D01*
X021581Y017744D01*
X021288Y018037D01*
X021033Y018037D01*
X019502Y019568D01*
X019412Y019658D01*
X019295Y019707D01*
X006445Y019707D01*
X006317Y019707D01*
X006200Y019658D01*
X005328Y018786D01*
X005302Y018797D01*
X005060Y018797D01*
X004835Y018704D01*
X004664Y018532D01*
X004571Y018308D01*
X004571Y018065D01*
X004664Y017841D01*
X004818Y017687D01*
X003161Y017687D01*
X003161Y017529D02*
X004662Y017529D01*
X004664Y017532D02*
X004571Y017308D01*
X004571Y017065D01*
X004664Y016841D01*
X004835Y016669D01*
X004861Y016659D01*
X004861Y014714D01*
X004835Y014704D01*
X004664Y014532D01*
X004571Y014308D01*
X004571Y014065D01*
X004664Y013841D01*
X004818Y013687D01*
X004664Y013532D01*
X004571Y013308D01*
X004571Y013065D01*
X004664Y012841D01*
X004835Y012669D01*
X004861Y012659D01*
X004861Y010714D01*
X004835Y010704D01*
X004664Y010532D01*
X004571Y010308D01*
X004571Y010065D01*
X004664Y009841D01*
X004835Y009669D01*
X004883Y009650D01*
X004823Y009606D01*
X004761Y009545D01*
X004711Y009475D01*
X004671Y009398D01*
X004644Y009315D01*
X004631Y009230D01*
X004631Y009187D01*
X005181Y009187D01*
X005731Y009187D01*
X005731Y009230D01*
X005717Y009315D01*
X005691Y009398D01*
X005651Y009475D01*
X005600Y009545D01*
X005539Y009606D01*
X005479Y009650D01*
X005526Y009669D01*
X005698Y009841D01*
X005791Y010065D01*
X005791Y010308D01*
X005698Y010532D01*
X005526Y010704D01*
X005501Y010714D01*
X005501Y012659D01*
X005526Y012669D01*
X005698Y012841D01*
X005791Y013065D01*
X005791Y013308D01*
X005698Y013532D01*
X005544Y013687D01*
X005698Y013841D01*
X005791Y014065D01*
X005791Y014308D01*
X005698Y014532D01*
X005526Y014704D01*
X005501Y014714D01*
X005501Y016659D01*
X005526Y016669D01*
X005698Y016841D01*
X005791Y017065D01*
X005791Y017308D01*
X005698Y017532D01*
X005544Y017687D01*
X018319Y017687D01*
X018335Y017704D02*
X018164Y017532D01*
X018071Y017308D01*
X018071Y017065D01*
X018164Y016841D01*
X018335Y016669D01*
X018361Y016659D01*
X018361Y014714D01*
X018335Y014704D01*
X018164Y014532D01*
X018071Y014308D01*
X018071Y014065D01*
X018164Y013841D01*
X018318Y013687D01*
X018164Y013532D01*
X018071Y013308D01*
X018071Y013065D01*
X018164Y012841D01*
X018335Y012669D01*
X018361Y012659D01*
X018361Y010714D01*
X018335Y010704D01*
X018164Y010532D01*
X018071Y010308D01*
X018071Y010065D01*
X018164Y009841D01*
X018318Y009687D01*
X018164Y009532D01*
X018071Y009308D01*
X018071Y009065D01*
X018164Y008841D01*
X018248Y008757D01*
X009495Y008757D01*
X009367Y008757D01*
X009250Y008708D01*
X007828Y007286D01*
X007802Y007297D01*
X007560Y007297D01*
X007335Y007204D01*
X007164Y007032D01*
X007071Y006808D01*
X007071Y006565D01*
X007164Y006341D01*
X007335Y006169D01*
X007560Y006077D01*
X007802Y006077D01*
X008026Y006169D01*
X008181Y006324D01*
X008335Y006169D01*
X008560Y006077D01*
X008802Y006077D01*
X009026Y006169D01*
X009198Y006341D01*
X009209Y006367D01*
X011153Y006367D01*
X011164Y006341D01*
X011335Y006169D01*
X011560Y006077D01*
X011802Y006077D01*
X012026Y006169D01*
X012181Y006324D01*
X012335Y006169D01*
X012560Y006077D01*
X012802Y006077D01*
X013026Y006169D01*
X013198Y006341D01*
X013209Y006367D01*
X015153Y006367D01*
X015164Y006341D01*
X015335Y006169D01*
X015560Y006077D01*
X015802Y006077D01*
X016026Y006169D01*
X016198Y006341D01*
X016218Y006389D01*
X016261Y006328D01*
X016323Y006267D01*
X016393Y006216D01*
X016470Y006177D01*
X016552Y006150D01*
X016638Y006137D01*
X016681Y006137D01*
X016724Y006137D01*
X016810Y006150D01*
X016892Y006177D01*
X016969Y006216D01*
X017039Y006267D01*
X017100Y006328D01*
X017151Y006398D01*
X017191Y006475D01*
X017217Y006558D01*
X017231Y006643D01*
X017231Y006686D01*
X016681Y006686D01*
X016681Y006137D01*
X016681Y006686D01*
X016681Y006686D01*
X016681Y006687D01*
X016681Y006687D01*
X016681Y007237D01*
X016724Y007237D01*
X016810Y007223D01*
X016892Y007196D01*
X016969Y007157D01*
X017039Y007106D01*
X017100Y007045D01*
X017151Y006975D01*
X017191Y006898D01*
X017217Y006815D01*
X017231Y006730D01*
X017231Y006687D01*
X016681Y006687D01*
X016681Y007237D01*
X016638Y007237D01*
X016552Y007223D01*
X016470Y007196D01*
X016393Y007157D01*
X016323Y007106D01*
X016261Y007045D01*
X016218Y006985D01*
X016198Y007032D01*
X016026Y007204D01*
X015802Y007297D01*
X015560Y007297D01*
X015335Y007204D01*
X015164Y007032D01*
X015153Y007007D01*
X013209Y007007D01*
X013198Y007032D01*
X013026Y007204D01*
X012802Y007297D01*
X012560Y007297D01*
X012335Y007204D01*
X012181Y007049D01*
X012026Y007204D01*
X011802Y007297D01*
X011560Y007297D01*
X011335Y007204D01*
X011164Y007032D01*
X011153Y007007D01*
X009209Y007007D01*
X009198Y007032D01*
X009026Y007204D01*
X008802Y007297D01*
X008743Y007297D01*
X009564Y008117D01*
X023745Y008117D01*
X023862Y008165D01*
X023952Y008255D01*
X024602Y008905D01*
X024651Y009023D01*
X024651Y009150D01*
X024651Y009699D01*
X024831Y009879D01*
X024831Y010294D01*
X024538Y010587D01*
X024124Y010587D01*
X023831Y010294D01*
X023831Y009879D01*
X024011Y009699D01*
X024011Y009219D01*
X023548Y008757D01*
X019114Y008757D01*
X019198Y008841D01*
X019209Y008867D01*
X020167Y008867D01*
X020295Y008867D01*
X020412Y008915D01*
X021034Y009537D01*
X021288Y009537D01*
X021581Y009829D01*
X021581Y010244D01*
X021288Y010537D01*
X020874Y010537D01*
X020581Y010244D01*
X020581Y009989D01*
X020098Y009507D01*
X019209Y009507D01*
X019198Y009532D01*
X019044Y009687D01*
X019198Y009841D01*
X019291Y010065D01*
X019291Y010308D01*
X019198Y010532D01*
X019026Y010704D01*
X019001Y010714D01*
X019001Y012659D01*
X019026Y012669D01*
X019198Y012841D01*
X019291Y013065D01*
X019291Y013308D01*
X019198Y013532D01*
X019044Y013687D01*
X019198Y013841D01*
X019291Y014065D01*
X019291Y014308D01*
X019198Y014532D01*
X019026Y014704D01*
X019001Y014714D01*
X019001Y016659D01*
X019026Y016669D01*
X019198Y016841D01*
X019291Y017065D01*
X019291Y017308D01*
X019198Y017532D01*
X019026Y017704D01*
X018979Y017723D01*
X019039Y017767D01*
X019100Y017828D01*
X019151Y017898D01*
X019191Y017975D01*
X019217Y018058D01*
X019231Y018143D01*
X019231Y018186D01*
X018681Y018186D01*
X018681Y018187D01*
X018681Y018187D01*
X018681Y018737D01*
X018724Y018737D01*
X018810Y018723D01*
X018892Y018696D01*
X018969Y018657D01*
X019039Y018606D01*
X019100Y018545D01*
X019151Y018475D01*
X019191Y018398D01*
X019217Y018315D01*
X019231Y018230D01*
X019231Y018187D01*
X018681Y018187D01*
X018681Y018737D01*
X018638Y018737D01*
X018552Y018723D01*
X018470Y018696D01*
X018393Y018657D01*
X018323Y018606D01*
X018261Y018545D01*
X018211Y018475D01*
X018171Y018398D01*
X018144Y018315D01*
X018131Y018230D01*
X018131Y018187D01*
X018681Y018187D01*
X018681Y018186D01*
X018131Y018186D01*
X018131Y018143D01*
X018144Y018058D01*
X018171Y017975D01*
X018211Y017898D01*
X018261Y017828D01*
X018323Y017767D01*
X018383Y017723D01*
X018335Y017704D01*
X018249Y017846D02*
X005700Y017846D01*
X005698Y017841D02*
X005791Y018065D01*
X005791Y018308D01*
X005780Y018333D01*
X006514Y019067D01*
X019098Y019067D01*
X020581Y017584D01*
X020581Y017329D01*
X020874Y017037D01*
X021288Y017037D01*
X021581Y017329D01*
X021581Y017744D01*
X021479Y017846D02*
X021683Y017846D01*
X021376Y018004D02*
X021320Y018004D01*
X021202Y018163D02*
X020907Y018163D01*
X021044Y018321D02*
X020749Y018321D01*
X020885Y018480D02*
X020590Y018480D01*
X020727Y018638D02*
X020432Y018638D01*
X020568Y018797D02*
X020273Y018797D01*
X020409Y018956D02*
X020115Y018956D01*
X020251Y019114D02*
X019956Y019114D01*
X020092Y019273D02*
X019797Y019273D01*
X019934Y019431D02*
X019639Y019431D01*
X019775Y019590D02*
X019480Y019590D01*
X019617Y019748D02*
X003161Y019748D01*
X003161Y019590D02*
X006131Y019590D01*
X005973Y019431D02*
X003161Y019431D01*
X003161Y019273D02*
X005814Y019273D01*
X005656Y019114D02*
X003161Y019114D01*
X003161Y018956D02*
X005497Y018956D01*
X005339Y018797D02*
X003161Y018797D01*
X003161Y018638D02*
X004770Y018638D01*
X004642Y018480D02*
X003161Y018480D01*
X003161Y018321D02*
X004576Y018321D01*
X004571Y018163D02*
X003161Y018163D01*
X003161Y018004D02*
X004596Y018004D01*
X004662Y017846D02*
X003161Y017846D01*
X003161Y017370D02*
X004597Y017370D01*
X004571Y017212D02*
X003161Y017212D01*
X003161Y017053D02*
X004576Y017053D01*
X004642Y016894D02*
X003161Y016894D01*
X003161Y016736D02*
X004769Y016736D01*
X004861Y016577D02*
X003161Y016577D01*
X003161Y016419D02*
X004861Y016419D01*
X004861Y016260D02*
X003161Y016260D01*
X003161Y016102D02*
X004861Y016102D01*
X004861Y015943D02*
X003161Y015943D01*
X003161Y015785D02*
X004861Y015785D01*
X004861Y015626D02*
X003161Y015626D01*
X003161Y015468D02*
X004861Y015468D01*
X004861Y015309D02*
X003161Y015309D01*
X003161Y015150D02*
X004861Y015150D01*
X004861Y014992D02*
X003161Y014992D01*
X003161Y014833D02*
X004861Y014833D01*
X004807Y014675D02*
X003161Y014675D01*
X003161Y014516D02*
X004657Y014516D01*
X004592Y014358D02*
X003161Y014358D01*
X003161Y014199D02*
X004571Y014199D01*
X004581Y014041D02*
X003161Y014041D01*
X003161Y013882D02*
X004647Y013882D01*
X004781Y013724D02*
X003161Y013724D01*
X003161Y013565D02*
X004697Y013565D01*
X004612Y013406D02*
X003161Y013406D01*
X003161Y013248D02*
X004571Y013248D01*
X004571Y013089D02*
X003161Y013089D01*
X003161Y012931D02*
X004627Y012931D01*
X004733Y012772D02*
X003161Y012772D01*
X003161Y012614D02*
X004861Y012614D01*
X004861Y012455D02*
X003161Y012455D01*
X003161Y012297D02*
X004861Y012297D01*
X004861Y012138D02*
X003161Y012138D01*
X003161Y011980D02*
X004861Y011980D01*
X004861Y011821D02*
X003161Y011821D01*
X003161Y011663D02*
X004861Y011663D01*
X004861Y011504D02*
X003161Y011504D01*
X003161Y011345D02*
X004861Y011345D01*
X004861Y011187D02*
X003161Y011187D01*
X003161Y011028D02*
X004861Y011028D01*
X004861Y010870D02*
X003161Y010870D01*
X003161Y010711D02*
X004854Y010711D01*
X004684Y010553D02*
X003161Y010553D01*
X003161Y010394D02*
X004607Y010394D01*
X004571Y010236D02*
X003161Y010236D01*
X003161Y010077D02*
X004571Y010077D01*
X004632Y009919D02*
X003161Y009919D01*
X003161Y009760D02*
X004745Y009760D01*
X004818Y009601D02*
X003161Y009601D01*
X003161Y009443D02*
X004694Y009443D01*
X004640Y009284D02*
X003161Y009284D01*
X003161Y009126D02*
X004634Y009126D01*
X004631Y009143D02*
X004644Y009058D01*
X004671Y008975D01*
X004711Y008898D01*
X004761Y008828D01*
X004823Y008767D01*
X004893Y008716D01*
X004970Y008677D01*
X005052Y008650D01*
X003161Y008650D01*
X003161Y008492D02*
X009033Y008492D01*
X008875Y008333D02*
X003161Y008333D01*
X003161Y008175D02*
X008716Y008175D01*
X008558Y008016D02*
X003161Y008016D01*
X003161Y007857D02*
X008399Y007857D01*
X008241Y007699D02*
X003161Y007699D01*
X003161Y007540D02*
X008082Y007540D01*
X007924Y007382D02*
X003161Y007382D01*
X003161Y007223D02*
X003707Y007223D01*
X003799Y007277D02*
X003541Y007128D01*
X003331Y006917D01*
X003182Y006660D01*
X003161Y006580D01*
X003161Y021880D01*
X003193Y021761D01*
X003341Y021504D01*
X003552Y021293D01*
X003809Y021145D01*
X004097Y021068D01*
X004394Y021068D01*
X004682Y021145D01*
X004939Y021293D01*
X005150Y021504D01*
X005298Y021761D01*
X005375Y022049D01*
X005375Y022346D01*
X005298Y022634D01*
X005150Y022891D01*
X004939Y023102D01*
X004765Y023203D01*
X033981Y023203D01*
X033787Y023091D01*
X033577Y022880D01*
X033428Y022623D01*
X033351Y022335D01*
X033351Y022038D01*
X033428Y021750D01*
X033577Y021493D01*
X033787Y021282D01*
X034045Y021134D01*
X034332Y021057D01*
X034630Y021057D01*
X034917Y021134D01*
X035175Y021282D01*
X035385Y021493D01*
X035534Y021750D01*
X035571Y021889D01*
X035571Y006484D01*
X035534Y006623D01*
X035385Y006880D01*
X035175Y007091D01*
X034917Y007240D01*
X034630Y007317D01*
X034332Y007317D01*
X034045Y007240D01*
X033787Y007091D01*
X033577Y006880D01*
X033428Y006623D01*
X033351Y006335D01*
X033351Y006038D01*
X033428Y005750D01*
X033577Y005493D01*
X033787Y005282D01*
X033988Y005167D01*
X004656Y005167D01*
X004671Y005171D01*
X004929Y005319D01*
X005139Y005530D01*
X005288Y005787D01*
X005365Y006075D01*
X005365Y006372D01*
X005288Y006660D01*
X005139Y006917D01*
X004929Y007128D01*
X004671Y007277D01*
X004384Y007354D01*
X004086Y007354D01*
X003799Y007277D01*
X003478Y007065D02*
X003161Y007065D01*
X003161Y006906D02*
X003325Y006906D01*
X003233Y006748D02*
X003161Y006748D01*
X003161Y006589D02*
X003163Y006589D01*
X004764Y007223D02*
X007383Y007223D01*
X007196Y007065D02*
X004992Y007065D01*
X005146Y006906D02*
X007112Y006906D01*
X007071Y006748D02*
X005238Y006748D01*
X005307Y006589D02*
X007071Y006589D01*
X007127Y006431D02*
X005350Y006431D01*
X005365Y006272D02*
X007233Y006272D01*
X007471Y006114D02*
X005365Y006114D01*
X005333Y005955D02*
X033373Y005955D01*
X033351Y006114D02*
X028891Y006114D01*
X028802Y006077D02*
X029026Y006169D01*
X029198Y006341D01*
X029218Y006389D01*
X029261Y006328D01*
X029323Y006267D01*
X029393Y006216D01*
X029470Y006177D01*
X029552Y006150D01*
X029638Y006137D01*
X029681Y006137D01*
X029724Y006137D01*
X029810Y006150D01*
X029892Y006177D01*
X029969Y006216D01*
X030039Y006267D01*
X030100Y006328D01*
X030151Y006398D01*
X030191Y006475D01*
X030217Y006558D01*
X030231Y006643D01*
X030231Y006686D01*
X029681Y006686D01*
X029681Y006137D01*
X029681Y006686D01*
X029681Y006686D01*
X029681Y006687D01*
X029681Y006687D01*
X029681Y007237D01*
X029724Y007237D01*
X029810Y007223D01*
X029892Y007196D01*
X029969Y007157D01*
X030039Y007106D01*
X030100Y007045D01*
X030151Y006975D01*
X030191Y006898D01*
X030217Y006815D01*
X030231Y006730D01*
X030231Y006687D01*
X029681Y006687D01*
X029681Y007237D01*
X029638Y007237D01*
X029552Y007223D01*
X029470Y007196D01*
X029393Y007157D01*
X029323Y007106D01*
X029261Y007045D01*
X029218Y006985D01*
X029198Y007032D01*
X029026Y007204D01*
X028802Y007297D01*
X028560Y007297D01*
X028335Y007204D01*
X028164Y007032D01*
X028153Y007007D01*
X026209Y007007D01*
X026198Y007032D01*
X026026Y007204D01*
X025802Y007297D01*
X025560Y007297D01*
X025335Y007204D01*
X025181Y007049D01*
X025026Y007204D01*
X024802Y007297D01*
X024560Y007297D01*
X024335Y007204D01*
X024164Y007032D01*
X024153Y007007D01*
X022209Y007007D01*
X022198Y007032D01*
X022026Y007204D01*
X021802Y007297D01*
X021560Y007297D01*
X021335Y007204D01*
X021181Y007049D01*
X021089Y007142D01*
X021314Y007367D01*
X024617Y007367D01*
X024745Y007367D01*
X024862Y007415D01*
X025812Y008365D01*
X025902Y008455D01*
X025951Y008573D01*
X025951Y012699D01*
X026081Y012829D01*
X026081Y013244D01*
X025788Y013537D01*
X025374Y013537D01*
X025081Y013244D01*
X025081Y012829D01*
X025311Y012599D01*
X025311Y008769D01*
X024548Y008007D01*
X021117Y008007D01*
X021000Y007958D01*
X020910Y007868D01*
X020410Y007368D01*
X020361Y007250D01*
X020361Y007214D01*
X020335Y007204D01*
X020164Y007032D01*
X020071Y006808D01*
X020071Y006565D01*
X020164Y006341D01*
X020335Y006169D01*
X020560Y006077D01*
X020802Y006077D01*
X021026Y006169D01*
X021181Y006324D01*
X021335Y006169D01*
X021560Y006077D01*
X021802Y006077D01*
X022026Y006169D01*
X022198Y006341D01*
X022209Y006367D01*
X024153Y006367D01*
X024164Y006341D01*
X024335Y006169D01*
X024560Y006077D01*
X024802Y006077D01*
X025026Y006169D01*
X025181Y006324D01*
X025335Y006169D01*
X025560Y006077D01*
X025802Y006077D01*
X026026Y006169D01*
X026198Y006341D01*
X026209Y006367D01*
X028153Y006367D01*
X028164Y006341D01*
X028335Y006169D01*
X028560Y006077D01*
X028802Y006077D01*
X028471Y006114D02*
X025891Y006114D01*
X026129Y006272D02*
X028233Y006272D01*
X028681Y006687D02*
X025681Y006687D01*
X025196Y007065D02*
X025165Y007065D01*
X024979Y007223D02*
X025383Y007223D01*
X024987Y007540D02*
X035571Y007540D01*
X035571Y007382D02*
X024781Y007382D01*
X024681Y007687D02*
X025631Y008637D01*
X025631Y012987D01*
X025581Y013037D01*
X025918Y013406D02*
X027509Y013406D01*
X027667Y013248D02*
X026077Y013248D01*
X026081Y013089D02*
X027826Y013089D01*
X027984Y012931D02*
X026081Y012931D01*
X026024Y012772D02*
X028143Y012772D01*
X028301Y012614D02*
X025951Y012614D01*
X025951Y012455D02*
X028460Y012455D01*
X028618Y012297D02*
X025951Y012297D01*
X025951Y012138D02*
X028777Y012138D01*
X028935Y011980D02*
X025951Y011980D01*
X025951Y011821D02*
X029094Y011821D01*
X029252Y011663D02*
X025951Y011663D01*
X025951Y011504D02*
X029411Y011504D01*
X029570Y011345D02*
X025951Y011345D01*
X025951Y011187D02*
X029728Y011187D01*
X029887Y011028D02*
X025951Y011028D01*
X025951Y010870D02*
X030045Y010870D01*
X030204Y010711D02*
X025951Y010711D01*
X025951Y010553D02*
X030362Y010553D01*
X030521Y010394D02*
X025951Y010394D01*
X025951Y010236D02*
X028657Y010236D01*
X028780Y010306D02*
X028523Y010158D01*
X028312Y009947D01*
X028163Y009690D01*
X028086Y009402D01*
X028086Y009105D01*
X028163Y008817D01*
X028312Y008560D01*
X028523Y008349D01*
X028780Y008201D01*
X029068Y008124D01*
X029365Y008124D01*
X029653Y008201D01*
X029910Y008349D01*
X030121Y008560D01*
X030269Y008817D01*
X030346Y009105D01*
X030346Y009402D01*
X030269Y009690D01*
X030121Y009947D01*
X029910Y010158D01*
X029653Y010306D01*
X029365Y010384D01*
X029068Y010384D01*
X028780Y010306D01*
X028442Y010077D02*
X025951Y010077D01*
X025951Y009919D02*
X028296Y009919D01*
X028204Y009760D02*
X025951Y009760D01*
X025951Y009601D02*
X028140Y009601D01*
X028097Y009443D02*
X025951Y009443D01*
X025951Y009284D02*
X028086Y009284D01*
X028086Y009126D02*
X025951Y009126D01*
X025951Y008967D02*
X028123Y008967D01*
X028168Y008809D02*
X025951Y008809D01*
X025951Y008650D02*
X028260Y008650D01*
X028380Y008492D02*
X025917Y008492D01*
X025780Y008333D02*
X028551Y008333D01*
X028877Y008175D02*
X025621Y008175D01*
X025463Y008016D02*
X035571Y008016D01*
X035571Y007857D02*
X025304Y007857D01*
X025146Y007699D02*
X035571Y007699D01*
X035571Y007223D02*
X034945Y007223D01*
X035201Y007065D02*
X035571Y007065D01*
X035571Y006906D02*
X035359Y006906D01*
X035462Y006748D02*
X035571Y006748D01*
X035571Y006589D02*
X035543Y006589D01*
X034017Y007223D02*
X029808Y007223D01*
X029681Y007223D02*
X029681Y007223D01*
X029554Y007223D02*
X028979Y007223D01*
X029165Y007065D02*
X029281Y007065D01*
X029681Y007065D02*
X029681Y007065D01*
X029681Y006906D02*
X029681Y006906D01*
X029681Y006748D02*
X029681Y006748D01*
X029681Y006589D02*
X029681Y006589D01*
X029681Y006431D02*
X029681Y006431D01*
X029681Y006272D02*
X029681Y006272D01*
X030044Y006272D02*
X033351Y006272D01*
X033376Y006431D02*
X030168Y006431D01*
X030222Y006589D02*
X033419Y006589D01*
X033500Y006748D02*
X030228Y006748D01*
X030186Y006906D02*
X033602Y006906D01*
X033761Y007065D02*
X030081Y007065D01*
X029318Y006272D02*
X029129Y006272D01*
X028196Y007065D02*
X026165Y007065D01*
X025979Y007223D02*
X028383Y007223D01*
X029556Y008175D02*
X035571Y008175D01*
X035571Y008333D02*
X029882Y008333D01*
X030053Y008492D02*
X035571Y008492D01*
X035571Y008650D02*
X032480Y008650D01*
X032526Y008669D02*
X032302Y008577D01*
X032060Y008577D01*
X031835Y008669D01*
X031664Y008841D01*
X031571Y009065D01*
X031571Y009308D01*
X031582Y009333D01*
X026698Y014217D01*
X025968Y014217D01*
X025788Y014037D01*
X025374Y014037D01*
X025081Y014329D01*
X025081Y014744D01*
X025374Y015037D01*
X025788Y015037D01*
X025968Y014857D01*
X026895Y014857D01*
X027012Y014808D01*
X027102Y014718D01*
X027102Y014718D01*
X031571Y010249D01*
X031571Y010308D01*
X031664Y010532D01*
X031835Y010704D01*
X031861Y010714D01*
X031861Y012659D01*
X031835Y012669D01*
X031664Y012841D01*
X031571Y013065D01*
X031571Y013308D01*
X031664Y013532D01*
X031818Y013687D01*
X031664Y013841D01*
X031571Y014065D01*
X031571Y014308D01*
X031664Y014532D01*
X031835Y014704D01*
X031861Y014714D01*
X031861Y016659D01*
X031835Y016669D01*
X031664Y016841D01*
X031571Y017065D01*
X031571Y017308D01*
X031664Y017532D01*
X031835Y017704D01*
X031883Y017723D01*
X031823Y017767D01*
X031761Y017828D01*
X031711Y017898D01*
X031671Y017975D01*
X031644Y018058D01*
X031631Y018143D01*
X031631Y018186D01*
X032181Y018186D01*
X032181Y018187D01*
X032181Y018187D01*
X032181Y018737D01*
X032224Y018737D01*
X032310Y018723D01*
X032392Y018696D01*
X032469Y018657D01*
X032539Y018606D01*
X032600Y018545D01*
X032651Y018475D01*
X032691Y018398D01*
X032717Y018315D01*
X032731Y018230D01*
X032731Y018187D01*
X032181Y018187D01*
X032181Y018737D01*
X032138Y018737D01*
X032052Y018723D01*
X031970Y018696D01*
X031893Y018657D01*
X031823Y018606D01*
X031761Y018545D01*
X031711Y018475D01*
X031671Y018398D01*
X031644Y018315D01*
X031631Y018230D01*
X031631Y018187D01*
X032181Y018187D01*
X032181Y018186D01*
X032731Y018186D01*
X032731Y018143D01*
X032717Y018058D01*
X032691Y017975D01*
X032651Y017898D01*
X032600Y017828D01*
X032539Y017767D01*
X032479Y017723D01*
X032526Y017704D01*
X032698Y017532D01*
X032791Y017308D01*
X032791Y017065D01*
X032698Y016841D01*
X032526Y016669D01*
X032501Y016659D01*
X032501Y014714D01*
X032526Y014704D01*
X032698Y014532D01*
X032791Y014308D01*
X032791Y014065D01*
X032698Y013841D01*
X032544Y013687D01*
X032698Y013532D01*
X032791Y013308D01*
X032791Y013065D01*
X032698Y012841D01*
X032526Y012669D01*
X032501Y012659D01*
X032501Y010714D01*
X032526Y010704D01*
X032698Y010532D01*
X032791Y010308D01*
X032791Y010065D01*
X032698Y009841D01*
X032544Y009687D01*
X032698Y009532D01*
X032791Y009308D01*
X032791Y009065D01*
X032698Y008841D01*
X032526Y008669D01*
X032666Y008809D02*
X035571Y008809D01*
X035571Y008967D02*
X032750Y008967D01*
X032791Y009126D02*
X035571Y009126D01*
X035571Y009284D02*
X032791Y009284D01*
X032735Y009443D02*
X035571Y009443D01*
X035571Y009601D02*
X032629Y009601D01*
X032617Y009760D02*
X035571Y009760D01*
X035571Y009919D02*
X032730Y009919D01*
X032791Y010077D02*
X035571Y010077D01*
X035571Y010236D02*
X032791Y010236D01*
X032755Y010394D02*
X035571Y010394D01*
X035571Y010553D02*
X032677Y010553D01*
X032508Y010711D02*
X035571Y010711D01*
X035571Y010870D02*
X032501Y010870D01*
X032501Y011028D02*
X035571Y011028D01*
X035571Y011187D02*
X032501Y011187D01*
X032501Y011345D02*
X035571Y011345D01*
X035571Y011504D02*
X032501Y011504D01*
X032501Y011663D02*
X035571Y011663D01*
X035571Y011821D02*
X032501Y011821D01*
X032501Y011980D02*
X035571Y011980D01*
X035571Y012138D02*
X032501Y012138D01*
X032501Y012297D02*
X035571Y012297D01*
X035571Y012455D02*
X032501Y012455D01*
X032501Y012614D02*
X035571Y012614D01*
X035571Y012772D02*
X032629Y012772D01*
X032735Y012931D02*
X035571Y012931D01*
X035571Y013089D02*
X032791Y013089D01*
X032791Y013248D02*
X035571Y013248D01*
X035571Y013406D02*
X032750Y013406D01*
X032665Y013565D02*
X035571Y013565D01*
X035571Y013724D02*
X032581Y013724D01*
X032715Y013882D02*
X035571Y013882D01*
X035571Y014041D02*
X032781Y014041D01*
X032791Y014199D02*
X035571Y014199D01*
X035571Y014358D02*
X032770Y014358D01*
X032705Y014516D02*
X035571Y014516D01*
X035571Y014675D02*
X032555Y014675D01*
X032501Y014833D02*
X035571Y014833D01*
X035571Y014992D02*
X032501Y014992D01*
X032501Y015150D02*
X035571Y015150D01*
X035571Y015309D02*
X032501Y015309D01*
X032501Y015468D02*
X035571Y015468D01*
X035571Y015626D02*
X032501Y015626D01*
X032501Y015785D02*
X035571Y015785D01*
X035571Y015943D02*
X032501Y015943D01*
X032501Y016102D02*
X035571Y016102D01*
X035571Y016260D02*
X032501Y016260D01*
X032501Y016419D02*
X035571Y016419D01*
X035571Y016577D02*
X032501Y016577D01*
X032593Y016736D02*
X035571Y016736D01*
X035571Y016894D02*
X032720Y016894D01*
X032786Y017053D02*
X035571Y017053D01*
X035571Y017212D02*
X032791Y017212D01*
X032765Y017370D02*
X035571Y017370D01*
X035571Y017529D02*
X032699Y017529D01*
X032543Y017687D02*
X035571Y017687D01*
X035571Y017846D02*
X032613Y017846D01*
X032700Y018004D02*
X035571Y018004D01*
X035571Y018163D02*
X032731Y018163D01*
X032715Y018321D02*
X035571Y018321D01*
X035571Y018480D02*
X032648Y018480D01*
X032495Y018638D02*
X035571Y018638D01*
X035571Y018797D02*
X030126Y018797D01*
X030121Y018806D02*
X029910Y019016D01*
X029653Y019165D01*
X029365Y019242D01*
X029068Y019242D01*
X028780Y019165D01*
X028618Y019071D01*
X029624Y020077D01*
X029802Y020077D01*
X030026Y020169D01*
X030198Y020341D01*
X030291Y020565D01*
X030291Y020808D01*
X030198Y021032D01*
X030026Y021204D01*
X029802Y021297D01*
X029560Y021297D01*
X029335Y021204D01*
X029181Y021049D01*
X029026Y021204D01*
X028802Y021297D01*
X028560Y021297D01*
X028335Y021204D01*
X028164Y021032D01*
X028153Y021007D01*
X026209Y021007D01*
X026198Y021032D01*
X026026Y021204D01*
X025802Y021297D01*
X025560Y021297D01*
X025335Y021204D01*
X025181Y021049D01*
X025026Y021204D01*
X024802Y021297D01*
X024560Y021297D01*
X024335Y021204D01*
X024164Y021032D01*
X024153Y021007D01*
X022209Y021007D01*
X022198Y021032D01*
X022026Y021204D01*
X021802Y021297D01*
X021560Y021297D01*
X021335Y021204D01*
X021164Y021032D01*
X021144Y020985D01*
X021100Y021045D01*
X021039Y021106D01*
X020969Y021157D01*
X020892Y021196D01*
X020810Y021223D01*
X020724Y021237D01*
X020681Y021237D01*
X020681Y020687D01*
X020681Y020687D01*
X020681Y021237D01*
X020638Y021237D01*
X020552Y021223D01*
X020470Y021196D01*
X020393Y021157D01*
X020323Y021106D01*
X020261Y021045D01*
X020211Y020975D01*
X020171Y020898D01*
X020144Y020815D01*
X020131Y020730D01*
X020131Y020687D01*
X020681Y020687D01*
X020681Y020686D01*
X020681Y020137D01*
X020724Y020137D01*
X020810Y020150D01*
X020892Y020177D01*
X020969Y020216D01*
X021039Y020267D01*
X021100Y020328D01*
X021144Y020389D01*
X021164Y020341D01*
X021335Y020169D01*
X021560Y020077D01*
X021802Y020077D01*
X022026Y020169D01*
X022198Y020341D01*
X022209Y020367D01*
X024153Y020367D01*
X024164Y020341D01*
X024335Y020169D01*
X024560Y020077D01*
X024802Y020077D01*
X025026Y020169D01*
X025181Y020324D01*
X025335Y020169D01*
X025560Y020077D01*
X025802Y020077D01*
X026026Y020169D01*
X026198Y020341D01*
X026209Y020367D01*
X028153Y020367D01*
X028164Y020341D01*
X028335Y020169D01*
X028560Y020077D01*
X028718Y020077D01*
X025310Y016668D01*
X025261Y016550D01*
X025261Y016424D01*
X025081Y016244D01*
X025081Y015829D01*
X025374Y015537D01*
X025788Y015537D01*
X026081Y015829D01*
X026081Y016244D01*
X025936Y016389D01*
X028257Y018710D01*
X028163Y018548D01*
X028086Y018261D01*
X028086Y017963D01*
X028163Y017676D01*
X028312Y017418D01*
X028523Y017208D01*
X028780Y017059D01*
X029068Y016982D01*
X029365Y016982D01*
X029653Y017059D01*
X029910Y017208D01*
X030121Y017418D01*
X030269Y017676D01*
X030346Y017963D01*
X030346Y018261D01*
X030269Y018548D01*
X030121Y018806D01*
X030217Y018638D02*
X031867Y018638D01*
X031714Y018480D02*
X030288Y018480D01*
X030330Y018321D02*
X031646Y018321D01*
X031631Y018163D02*
X030346Y018163D01*
X030346Y018004D02*
X031662Y018004D01*
X031749Y017846D02*
X030315Y017846D01*
X030272Y017687D02*
X031819Y017687D01*
X031662Y017529D02*
X030184Y017529D01*
X030073Y017370D02*
X031597Y017370D01*
X031571Y017212D02*
X029914Y017212D01*
X029631Y017053D02*
X031576Y017053D01*
X031642Y016894D02*
X026441Y016894D01*
X026283Y016736D02*
X031769Y016736D01*
X031861Y016577D02*
X026124Y016577D01*
X025966Y016419D02*
X031861Y016419D01*
X031861Y016260D02*
X026064Y016260D01*
X026081Y016102D02*
X031861Y016102D01*
X031861Y015943D02*
X026081Y015943D01*
X026036Y015785D02*
X031861Y015785D01*
X031861Y015626D02*
X025878Y015626D01*
X025581Y016037D02*
X025581Y016487D01*
X029681Y020587D01*
X029681Y020687D01*
X030291Y020699D02*
X035571Y020699D01*
X035571Y020541D02*
X030281Y020541D01*
X030215Y020382D02*
X035571Y020382D01*
X035571Y020224D02*
X030081Y020224D01*
X029612Y020065D02*
X035571Y020065D01*
X035571Y019907D02*
X029454Y019907D01*
X029295Y019748D02*
X035571Y019748D01*
X035571Y019590D02*
X029137Y019590D01*
X028978Y019431D02*
X035571Y019431D01*
X035571Y019273D02*
X028819Y019273D01*
X028692Y019114D02*
X028661Y019114D01*
X028231Y019590D02*
X020680Y019590D01*
X020522Y019748D02*
X028390Y019748D01*
X028549Y019907D02*
X020363Y019907D01*
X020205Y020065D02*
X028707Y020065D01*
X028281Y020224D02*
X026081Y020224D01*
X025681Y020687D02*
X028681Y020687D01*
X028157Y021017D02*
X026204Y021017D01*
X026055Y021175D02*
X028307Y021175D01*
X029055Y021175D02*
X029307Y021175D01*
X029409Y021916D02*
X029514Y021895D01*
X029620Y021916D01*
X029675Y021952D01*
X029683Y021944D01*
X029686Y021941D01*
X029743Y021918D01*
X029785Y021900D01*
X029999Y021900D01*
X030106Y021900D01*
X030205Y021941D01*
X030215Y021950D01*
X030224Y021941D01*
X030323Y021900D01*
X030857Y021900D01*
X030957Y021941D01*
X031033Y022017D01*
X031074Y022116D01*
X031074Y022224D01*
X031050Y022280D01*
X031253Y021976D01*
X031343Y021916D01*
X031448Y021895D01*
X031553Y021916D01*
X031561Y021921D01*
X031612Y021900D01*
X032039Y021900D01*
X032147Y021900D01*
X032202Y021923D01*
X032257Y021900D01*
X032684Y021900D01*
X032791Y021900D01*
X032890Y021941D01*
X032966Y022017D01*
X033007Y022116D01*
X033007Y022224D01*
X032966Y022323D01*
X032836Y022453D01*
X032890Y022475D01*
X032966Y022551D01*
X033007Y022650D01*
X033007Y022758D01*
X032966Y022857D01*
X032784Y023040D01*
X032684Y023081D01*
X032577Y023081D01*
X032363Y023081D01*
X032321Y023063D01*
X032264Y023040D01*
X032261Y023037D01*
X032202Y022977D01*
X032139Y023040D01*
X032040Y023081D01*
X031932Y023081D01*
X031719Y023081D01*
X031677Y023063D01*
X031620Y023040D01*
X031620Y023040D01*
X031617Y023037D01*
X031513Y022933D01*
X031440Y022860D01*
X031437Y022857D01*
X031437Y022857D01*
X031413Y022800D01*
X031396Y022758D01*
X031396Y022736D01*
X031216Y023005D01*
X031127Y023065D01*
X031022Y023086D01*
X030916Y023065D01*
X030827Y023006D01*
X030807Y022976D01*
X030743Y023040D01*
X030644Y023081D01*
X030537Y023081D01*
X030437Y023040D01*
X030361Y022964D01*
X030338Y022907D01*
X030281Y022964D01*
X030205Y023040D01*
X030106Y023081D01*
X029893Y023081D01*
X029785Y023081D01*
X029745Y023064D01*
X029686Y023040D01*
X029579Y022933D01*
X029503Y022857D01*
X029477Y022793D01*
X029462Y022758D01*
X029462Y022736D01*
X029283Y023005D01*
X029193Y023065D01*
X029088Y023086D01*
X028983Y023065D01*
X028928Y023028D01*
X028916Y023040D01*
X028817Y023081D01*
X028710Y023081D01*
X028496Y023081D01*
X028454Y023063D01*
X028397Y023040D01*
X028397Y023040D01*
X028394Y023037D01*
X028334Y022977D01*
X028272Y023040D01*
X028173Y023081D01*
X027959Y023081D01*
X027852Y023081D01*
X027852Y023081D01*
X027812Y023064D01*
X027753Y023040D01*
X027646Y022933D01*
X027646Y022933D01*
X027636Y022924D01*
X027596Y022964D01*
X027521Y023040D01*
X027421Y023081D01*
X027314Y023081D01*
X027215Y023040D01*
X027139Y022964D01*
X027098Y022864D01*
X027098Y022818D01*
X026952Y022964D01*
X026876Y023040D01*
X026777Y023081D01*
X026669Y023081D01*
X026570Y023040D01*
X026494Y022964D01*
X026453Y022864D01*
X026453Y022439D01*
X026357Y022399D01*
X026281Y022323D01*
X026240Y022224D01*
X026240Y022116D01*
X026281Y022017D01*
X026357Y021941D01*
X026456Y021900D01*
X026990Y021900D01*
X027045Y021923D01*
X027100Y021900D01*
X027635Y021900D01*
X027734Y021941D01*
X027743Y021951D01*
X027750Y021944D01*
X027752Y021941D01*
X027753Y021941D01*
X027809Y021918D01*
X027852Y021900D01*
X028065Y021900D01*
X028173Y021900D01*
X028272Y021941D01*
X028281Y021950D01*
X028290Y021941D01*
X028389Y021900D01*
X028816Y021900D01*
X028924Y021900D01*
X029023Y021941D01*
X029099Y022017D01*
X029140Y022116D01*
X029140Y022224D01*
X029117Y022280D01*
X029320Y021976D01*
X029409Y021916D01*
X029332Y021968D02*
X029050Y021968D01*
X029140Y022126D02*
X029219Y022126D01*
X029686Y021941D02*
X029686Y021941D01*
X030055Y021175D02*
X033973Y021175D01*
X033736Y021334D02*
X004980Y021334D01*
X005138Y021492D02*
X033577Y021492D01*
X033485Y021651D02*
X005235Y021651D01*
X005311Y021809D02*
X033412Y021809D01*
X033370Y021968D02*
X032917Y021968D01*
X033007Y022126D02*
X033351Y022126D01*
X033351Y022285D02*
X032982Y022285D01*
X032846Y022443D02*
X033380Y022443D01*
X033422Y022602D02*
X032987Y022602D01*
X033006Y022761D02*
X033508Y022761D01*
X033615Y022919D02*
X032904Y022919D01*
X032692Y023078D02*
X033774Y023078D01*
X032356Y023078D02*
X032047Y023078D01*
X032264Y023040D02*
X032264Y023040D01*
X031712Y023078D02*
X031063Y023078D01*
X030980Y023078D02*
X030651Y023078D01*
X030529Y023078D02*
X030113Y023078D01*
X030326Y022919D02*
X030343Y022919D01*
X029785Y023081D02*
X029785Y023081D01*
X029778Y023078D02*
X029129Y023078D01*
X029046Y023078D02*
X028824Y023078D01*
X028489Y023078D02*
X028180Y023078D01*
X027844Y023078D02*
X027429Y023078D01*
X027307Y023078D02*
X026784Y023078D01*
X026662Y023078D02*
X004964Y023078D01*
X005122Y022919D02*
X026476Y022919D01*
X026453Y022761D02*
X005225Y022761D01*
X005307Y022602D02*
X026453Y022602D01*
X026453Y022443D02*
X005349Y022443D01*
X005375Y022285D02*
X026265Y022285D01*
X026240Y022126D02*
X005375Y022126D01*
X005354Y021968D02*
X026330Y021968D01*
X026996Y022919D02*
X027120Y022919D01*
X029340Y022919D02*
X029566Y022919D01*
X029579Y022933D02*
X029579Y022933D01*
X029463Y022761D02*
X029446Y022761D01*
X029462Y022758D02*
X029462Y022758D01*
X030983Y021968D02*
X031265Y021968D01*
X031153Y022126D02*
X031074Y022126D01*
X031379Y022761D02*
X031397Y022761D01*
X031499Y022919D02*
X031273Y022919D01*
X031513Y022933D02*
X031513Y022933D01*
X030204Y021017D02*
X035571Y021017D01*
X035571Y021175D02*
X034989Y021175D01*
X035226Y021334D02*
X035571Y021334D01*
X035571Y021492D02*
X035385Y021492D01*
X035476Y021651D02*
X035571Y021651D01*
X035571Y021809D02*
X035550Y021809D01*
X035571Y020858D02*
X030270Y020858D01*
X028073Y019431D02*
X020839Y019431D01*
X020997Y019273D02*
X027914Y019273D01*
X027756Y019114D02*
X021156Y019114D01*
X021315Y018956D02*
X027597Y018956D01*
X027439Y018797D02*
X021473Y018797D01*
X021632Y018638D02*
X024176Y018638D01*
X024531Y018287D02*
X021531Y018287D01*
X019131Y020687D01*
X016681Y020687D01*
X017081Y020224D02*
X019141Y020224D01*
X019300Y020065D02*
X003161Y020065D01*
X003161Y019907D02*
X019458Y019907D01*
X019231Y019387D02*
X006381Y019387D01*
X005181Y018187D01*
X005791Y018163D02*
X018131Y018163D01*
X018146Y018321D02*
X005785Y018321D01*
X005927Y018480D02*
X018214Y018480D01*
X018367Y018638D02*
X006085Y018638D01*
X006244Y018797D02*
X019368Y018797D01*
X019209Y018956D02*
X006402Y018956D01*
X005766Y018004D02*
X018162Y018004D01*
X018681Y018321D02*
X018681Y018321D01*
X018681Y018480D02*
X018681Y018480D01*
X018681Y018638D02*
X018681Y018638D01*
X018995Y018638D02*
X019527Y018638D01*
X019685Y018480D02*
X019148Y018480D01*
X019215Y018321D02*
X019844Y018321D01*
X020002Y018163D02*
X019231Y018163D01*
X019200Y018004D02*
X020161Y018004D01*
X020319Y017846D02*
X019113Y017846D01*
X019043Y017687D02*
X020478Y017687D01*
X020581Y017529D02*
X019199Y017529D01*
X019265Y017370D02*
X020581Y017370D01*
X020699Y017212D02*
X019291Y017212D01*
X019286Y017053D02*
X020857Y017053D01*
X021304Y017053D02*
X021857Y017053D01*
X021699Y017212D02*
X021463Y017212D01*
X021581Y017370D02*
X021581Y017370D01*
X021081Y017537D02*
X019231Y019387D01*
X020046Y020224D02*
X020382Y020224D01*
X020393Y020216D02*
X020470Y020177D01*
X020552Y020150D01*
X020638Y020137D01*
X020681Y020137D01*
X020681Y020686D01*
X020681Y020686D01*
X020131Y020686D01*
X020131Y020643D01*
X020144Y020558D01*
X020171Y020475D01*
X020211Y020398D01*
X020261Y020328D01*
X020323Y020267D01*
X020393Y020216D01*
X020222Y020382D02*
X019888Y020382D01*
X019729Y020541D02*
X020150Y020541D01*
X020131Y020699D02*
X019571Y020699D01*
X019412Y020858D02*
X020158Y020858D01*
X020241Y021017D02*
X017204Y021017D01*
X017055Y021175D02*
X020428Y021175D01*
X020681Y021175D02*
X020681Y021175D01*
X020681Y021017D02*
X020681Y021017D01*
X020681Y020858D02*
X020681Y020858D01*
X020681Y020699D02*
X020681Y020699D01*
X020681Y020541D02*
X020681Y020541D01*
X020681Y020382D02*
X020681Y020382D01*
X020681Y020224D02*
X020681Y020224D01*
X020980Y020224D02*
X021281Y020224D01*
X021147Y020382D02*
X021140Y020382D01*
X021681Y020687D02*
X024681Y020687D01*
X025081Y020224D02*
X025281Y020224D01*
X024281Y020224D02*
X022081Y020224D01*
X022204Y021017D02*
X024157Y021017D01*
X024307Y021175D02*
X022055Y021175D01*
X021307Y021175D02*
X020934Y021175D01*
X021121Y021017D02*
X021157Y021017D01*
X025055Y021175D02*
X025307Y021175D01*
X024886Y018638D02*
X027280Y018638D01*
X027122Y018480D02*
X025031Y018480D01*
X025031Y018321D02*
X026963Y018321D01*
X026805Y018163D02*
X025031Y018163D01*
X024956Y018004D02*
X026646Y018004D01*
X026488Y017846D02*
X024797Y017846D01*
X024738Y017787D02*
X024324Y017787D01*
X024144Y017967D01*
X022358Y017967D01*
X022468Y017857D01*
X022721Y017857D01*
X022775Y017910D01*
X022863Y017947D01*
X023699Y017947D01*
X023787Y017910D01*
X023854Y017843D01*
X023891Y017754D01*
X023891Y017099D01*
X024031Y017239D01*
X024031Y017494D01*
X024324Y017787D01*
X024738Y017787D01*
X024837Y017687D02*
X026329Y017687D01*
X026170Y017529D02*
X024996Y017529D01*
X025031Y017370D02*
X026012Y017370D01*
X025853Y017212D02*
X025031Y017212D01*
X025004Y017053D02*
X025695Y017053D01*
X025536Y016894D02*
X024846Y016894D01*
X024433Y016736D02*
X025378Y016736D01*
X025272Y016577D02*
X024274Y016577D01*
X024256Y016419D02*
X024116Y016419D01*
X024098Y016260D02*
X023957Y016260D01*
X023844Y016102D02*
X024081Y016102D01*
X024035Y015943D02*
X023750Y015943D01*
X023696Y015785D02*
X023876Y015785D01*
X023881Y015337D02*
X023281Y015337D01*
X023881Y015337D02*
X024581Y016037D01*
X024906Y016419D02*
X025256Y016419D01*
X025098Y016260D02*
X025064Y016260D01*
X025081Y016102D02*
X025081Y016102D01*
X025081Y015943D02*
X025081Y015943D01*
X025036Y015785D02*
X025126Y015785D01*
X025284Y015626D02*
X024878Y015626D01*
X024464Y015468D02*
X031861Y015468D01*
X031861Y015309D02*
X024306Y015309D01*
X024147Y015150D02*
X031861Y015150D01*
X031861Y014992D02*
X025833Y014992D01*
X025329Y014992D02*
X024833Y014992D01*
X024991Y014833D02*
X025171Y014833D01*
X025081Y014675D02*
X025081Y014675D01*
X025081Y014516D02*
X025081Y014516D01*
X025081Y014358D02*
X025081Y014358D01*
X024951Y014199D02*
X025211Y014199D01*
X025370Y014041D02*
X024792Y014041D01*
X024381Y014337D02*
X024581Y014537D01*
X024381Y014337D02*
X023281Y014337D01*
X023689Y013882D02*
X027033Y013882D01*
X027191Y013724D02*
X023757Y013724D01*
X023281Y013337D02*
X024281Y013337D01*
X024581Y013037D01*
X024918Y013406D02*
X025244Y013406D01*
X025085Y013248D02*
X025077Y013248D01*
X025081Y013089D02*
X025081Y013089D01*
X025081Y012931D02*
X025081Y012931D01*
X025024Y012772D02*
X025138Y012772D01*
X025297Y012614D02*
X024865Y012614D01*
X024661Y012297D02*
X025311Y012297D01*
X025311Y012455D02*
X024515Y012455D01*
X024381Y012137D02*
X024381Y011137D01*
X024331Y011087D01*
X024663Y010711D02*
X025311Y010711D01*
X025311Y010553D02*
X024572Y010553D01*
X024730Y010394D02*
X025311Y010394D01*
X025311Y010236D02*
X024831Y010236D01*
X024831Y010077D02*
X025311Y010077D01*
X025311Y009919D02*
X024831Y009919D01*
X024711Y009760D02*
X025311Y009760D01*
X025311Y009601D02*
X024651Y009601D01*
X024651Y009443D02*
X025311Y009443D01*
X025311Y009284D02*
X024651Y009284D01*
X024651Y009126D02*
X025311Y009126D01*
X025311Y008967D02*
X024628Y008967D01*
X024506Y008809D02*
X025311Y008809D01*
X025192Y008650D02*
X024347Y008650D01*
X024189Y008492D02*
X025033Y008492D01*
X024875Y008333D02*
X024030Y008333D01*
X023871Y008175D02*
X024716Y008175D01*
X024558Y008016D02*
X009463Y008016D01*
X009304Y007857D02*
X020899Y007857D01*
X020741Y007699D02*
X009146Y007699D01*
X008987Y007540D02*
X020582Y007540D01*
X020424Y007382D02*
X008829Y007382D01*
X008979Y007223D02*
X011383Y007223D01*
X011196Y007065D02*
X009165Y007065D01*
X008681Y006687D02*
X011681Y006687D01*
X012165Y007065D02*
X012196Y007065D01*
X012383Y007223D02*
X011979Y007223D01*
X012681Y006687D02*
X015681Y006687D01*
X016165Y007065D02*
X016281Y007065D01*
X016554Y007223D02*
X015979Y007223D01*
X016681Y007223D02*
X016681Y007223D01*
X016808Y007223D02*
X020361Y007223D01*
X020196Y007065D02*
X017081Y007065D01*
X017186Y006906D02*
X020112Y006906D01*
X020071Y006748D02*
X017228Y006748D01*
X017222Y006589D02*
X020071Y006589D01*
X020127Y006431D02*
X017168Y006431D01*
X017044Y006272D02*
X020233Y006272D01*
X020471Y006114D02*
X015891Y006114D01*
X016129Y006272D02*
X016318Y006272D01*
X016681Y006272D02*
X016681Y006272D01*
X016681Y006431D02*
X016681Y006431D01*
X016681Y006589D02*
X016681Y006589D01*
X016681Y006748D02*
X016681Y006748D01*
X016681Y006906D02*
X016681Y006906D01*
X016681Y007065D02*
X016681Y007065D01*
X015383Y007223D02*
X012979Y007223D01*
X013165Y007065D02*
X015196Y007065D01*
X015233Y006272D02*
X013129Y006272D01*
X012891Y006114D02*
X015471Y006114D01*
X012471Y006114D02*
X011891Y006114D01*
X012129Y006272D02*
X012233Y006272D01*
X011471Y006114D02*
X008891Y006114D01*
X009129Y006272D02*
X011233Y006272D01*
X008471Y006114D02*
X007891Y006114D01*
X008129Y006272D02*
X008233Y006272D01*
X007681Y006687D02*
X009431Y008437D01*
X023681Y008437D01*
X024331Y009087D01*
X024331Y010087D01*
X023831Y010077D02*
X023766Y010077D01*
X023822Y010236D02*
X023831Y010236D01*
X023829Y010394D02*
X023931Y010394D01*
X023788Y010553D02*
X024090Y010553D01*
X023999Y010711D02*
X023684Y010711D01*
X023677Y010870D02*
X023841Y010870D01*
X023831Y011028D02*
X023813Y011028D01*
X023281Y011337D02*
X022331Y011337D01*
X022081Y011087D01*
X022081Y010037D01*
X022430Y010394D02*
X022733Y010394D01*
X022740Y010236D02*
X022581Y010236D01*
X022581Y010077D02*
X022796Y010077D01*
X022921Y009919D02*
X022581Y009919D01*
X022511Y009760D02*
X023950Y009760D01*
X024011Y009601D02*
X022353Y009601D01*
X021809Y009601D02*
X021353Y009601D01*
X021511Y009760D02*
X021650Y009760D01*
X021581Y009919D02*
X021581Y009919D01*
X021581Y010077D02*
X021581Y010077D01*
X021581Y010236D02*
X021581Y010236D01*
X021731Y010394D02*
X021430Y010394D01*
X021761Y010553D02*
X019177Y010553D01*
X019255Y010394D02*
X020731Y010394D01*
X020581Y010236D02*
X019291Y010236D01*
X019291Y010077D02*
X020581Y010077D01*
X020510Y009919D02*
X019230Y009919D01*
X019117Y009760D02*
X020352Y009760D01*
X020193Y009601D02*
X019129Y009601D01*
X018681Y009187D02*
X020231Y009187D01*
X021081Y010037D01*
X020940Y009443D02*
X024011Y009443D01*
X024011Y009284D02*
X020781Y009284D01*
X020623Y009126D02*
X023918Y009126D01*
X023759Y008967D02*
X020464Y008967D01*
X019166Y008809D02*
X023601Y008809D01*
X023641Y009919D02*
X023831Y009919D01*
X023301Y009919D02*
X023261Y009919D01*
X023261Y010077D02*
X023301Y010077D01*
X023301Y010236D02*
X023261Y010236D01*
X022774Y010553D02*
X022401Y010553D01*
X022401Y010711D02*
X022878Y010711D01*
X022885Y010870D02*
X022401Y010870D01*
X021761Y010870D02*
X019001Y010870D01*
X019001Y011028D02*
X021761Y011028D01*
X021776Y011187D02*
X019001Y011187D01*
X019001Y011345D02*
X021887Y011345D01*
X022046Y011504D02*
X019001Y011504D01*
X019001Y011663D02*
X022756Y011663D01*
X022903Y011821D02*
X019001Y011821D01*
X019001Y011980D02*
X022775Y011980D01*
X022703Y012138D02*
X019001Y012138D01*
X019001Y012297D02*
X022671Y012297D01*
X022671Y012455D02*
X019001Y012455D01*
X019001Y012614D02*
X022736Y012614D01*
X022854Y012772D02*
X019129Y012772D01*
X019235Y012931D02*
X022824Y012931D01*
X022723Y013089D02*
X019291Y013089D01*
X019291Y013248D02*
X022671Y013248D01*
X022671Y013406D02*
X019250Y013406D01*
X019165Y013565D02*
X022715Y013565D01*
X022805Y013724D02*
X019081Y013724D01*
X019215Y013882D02*
X022873Y013882D01*
X022743Y014041D02*
X019281Y014041D01*
X019291Y014199D02*
X022678Y014199D01*
X022671Y014358D02*
X019270Y014358D01*
X019205Y014516D02*
X022695Y014516D01*
X022761Y014675D02*
X019055Y014675D01*
X019001Y014833D02*
X022915Y014833D01*
X022763Y014992D02*
X019001Y014992D01*
X019001Y015150D02*
X022698Y015150D01*
X022671Y015309D02*
X019001Y015309D01*
X019001Y015468D02*
X022675Y015468D01*
X022741Y015626D02*
X019001Y015626D01*
X019001Y015785D02*
X022866Y015785D01*
X022812Y015943D02*
X019001Y015943D01*
X019001Y016102D02*
X022718Y016102D01*
X022671Y016260D02*
X019001Y016260D01*
X019001Y016419D02*
X022671Y016419D01*
X022720Y016577D02*
X019001Y016577D01*
X019093Y016736D02*
X022818Y016736D01*
X022681Y016894D02*
X019220Y016894D01*
X018681Y017187D02*
X018681Y014187D01*
X018071Y014199D02*
X005791Y014199D01*
X005781Y014041D02*
X018081Y014041D01*
X018147Y013882D02*
X005715Y013882D01*
X005581Y013724D02*
X018281Y013724D01*
X018197Y013565D02*
X005665Y013565D01*
X005750Y013406D02*
X018112Y013406D01*
X018071Y013248D02*
X005791Y013248D01*
X005791Y013089D02*
X018071Y013089D01*
X018127Y012931D02*
X005735Y012931D01*
X005629Y012772D02*
X018233Y012772D01*
X018361Y012614D02*
X005501Y012614D01*
X005501Y012455D02*
X018361Y012455D01*
X018361Y012297D02*
X005501Y012297D01*
X005501Y012138D02*
X018361Y012138D01*
X018361Y011980D02*
X005501Y011980D01*
X005501Y011821D02*
X018361Y011821D01*
X018361Y011663D02*
X005501Y011663D01*
X005501Y011504D02*
X018361Y011504D01*
X018361Y011345D02*
X005501Y011345D01*
X005501Y011187D02*
X018361Y011187D01*
X018361Y011028D02*
X005501Y011028D01*
X005501Y010870D02*
X018361Y010870D01*
X018354Y010711D02*
X005508Y010711D01*
X005677Y010553D02*
X018184Y010553D01*
X018107Y010394D02*
X005755Y010394D01*
X005791Y010236D02*
X018071Y010236D01*
X018071Y010077D02*
X005791Y010077D01*
X005730Y009919D02*
X018132Y009919D01*
X018245Y009760D02*
X005617Y009760D01*
X005544Y009601D02*
X018233Y009601D01*
X018127Y009443D02*
X005668Y009443D01*
X005722Y009284D02*
X018071Y009284D01*
X018071Y009126D02*
X005728Y009126D01*
X005731Y009143D02*
X005731Y009186D01*
X005181Y009186D01*
X005181Y008637D01*
X005224Y008637D01*
X005310Y008650D01*
X009192Y008650D01*
X005731Y009143D02*
X005717Y009058D01*
X005691Y008975D01*
X005651Y008898D01*
X005600Y008828D01*
X005539Y008767D01*
X005469Y008716D01*
X005392Y008677D01*
X005310Y008650D01*
X005181Y008650D02*
X005181Y008650D01*
X005181Y008637D02*
X005181Y009186D01*
X005181Y009186D01*
X005181Y009187D01*
X005181Y009186D01*
X004631Y009186D01*
X004631Y009143D01*
X004675Y008967D02*
X003161Y008967D01*
X003161Y008809D02*
X004781Y008809D01*
X005052Y008650D02*
X005138Y008637D01*
X005181Y008637D01*
X005181Y008809D02*
X005181Y008809D01*
X005181Y008967D02*
X005181Y008967D01*
X005181Y009126D02*
X005181Y009126D01*
X005581Y008809D02*
X018196Y008809D01*
X018111Y008967D02*
X005686Y008967D01*
X005181Y010187D02*
X005181Y013187D01*
X005181Y014187D02*
X005181Y017187D01*
X005791Y017212D02*
X018071Y017212D01*
X018076Y017053D02*
X005786Y017053D01*
X005720Y016894D02*
X018142Y016894D01*
X018269Y016736D02*
X005593Y016736D01*
X005501Y016577D02*
X018361Y016577D01*
X018361Y016419D02*
X005501Y016419D01*
X005501Y016260D02*
X018361Y016260D01*
X018361Y016102D02*
X005501Y016102D01*
X005501Y015943D02*
X018361Y015943D01*
X018361Y015785D02*
X005501Y015785D01*
X005501Y015626D02*
X018361Y015626D01*
X018361Y015468D02*
X005501Y015468D01*
X005501Y015309D02*
X018361Y015309D01*
X018361Y015150D02*
X005501Y015150D01*
X005501Y014992D02*
X018361Y014992D01*
X018361Y014833D02*
X005501Y014833D01*
X005555Y014675D02*
X018307Y014675D01*
X018157Y014516D02*
X005705Y014516D01*
X005770Y014358D02*
X018092Y014358D01*
X018681Y013187D02*
X018681Y010187D01*
X019008Y010711D02*
X021761Y010711D01*
X023281Y012337D02*
X024181Y012337D01*
X024381Y012137D01*
X024701Y012138D02*
X025311Y012138D01*
X025311Y011980D02*
X024701Y011980D01*
X024701Y011821D02*
X025311Y011821D01*
X025311Y011663D02*
X024701Y011663D01*
X024701Y011504D02*
X025311Y011504D01*
X025311Y011345D02*
X024779Y011345D01*
X024831Y011187D02*
X025311Y011187D01*
X025311Y011028D02*
X024831Y011028D01*
X024821Y010870D02*
X025311Y010870D01*
X028572Y013248D02*
X031571Y013248D01*
X031571Y013089D02*
X028731Y013089D01*
X028889Y012931D02*
X031627Y012931D01*
X031733Y012772D02*
X029048Y012772D01*
X029206Y012614D02*
X031861Y012614D01*
X031861Y012455D02*
X029365Y012455D01*
X029523Y012297D02*
X031861Y012297D01*
X031861Y012138D02*
X029682Y012138D01*
X029840Y011980D02*
X031861Y011980D01*
X031861Y011821D02*
X029999Y011821D01*
X030158Y011663D02*
X031861Y011663D01*
X031861Y011504D02*
X030316Y011504D01*
X030475Y011345D02*
X031861Y011345D01*
X031861Y011187D02*
X030633Y011187D01*
X030792Y011028D02*
X031861Y011028D01*
X031861Y010870D02*
X030950Y010870D01*
X031109Y010711D02*
X031854Y010711D01*
X031684Y010553D02*
X031267Y010553D01*
X031426Y010394D02*
X031607Y010394D01*
X030996Y009919D02*
X030137Y009919D01*
X030229Y009760D02*
X031155Y009760D01*
X031314Y009601D02*
X030293Y009601D01*
X030335Y009443D02*
X031472Y009443D01*
X031571Y009284D02*
X030346Y009284D01*
X030346Y009126D02*
X031571Y009126D01*
X031611Y008967D02*
X030309Y008967D01*
X030264Y008809D02*
X031696Y008809D01*
X031882Y008650D02*
X030173Y008650D01*
X029991Y010077D02*
X030838Y010077D01*
X030679Y010236D02*
X029775Y010236D01*
X032181Y010187D02*
X032181Y013187D01*
X031612Y013406D02*
X028414Y013406D01*
X028255Y013565D02*
X031697Y013565D01*
X031781Y013724D02*
X028096Y013724D01*
X027938Y013882D02*
X031647Y013882D01*
X031581Y014041D02*
X027779Y014041D01*
X027621Y014199D02*
X031571Y014199D01*
X031592Y014358D02*
X027462Y014358D01*
X027304Y014516D02*
X031657Y014516D01*
X031807Y014675D02*
X027145Y014675D01*
X026951Y014833D02*
X031861Y014833D01*
X032181Y014187D02*
X032181Y017187D01*
X032181Y018321D02*
X032181Y018321D01*
X032181Y018480D02*
X032181Y018480D01*
X032181Y018638D02*
X032181Y018638D01*
X029971Y018956D02*
X035571Y018956D01*
X035571Y019114D02*
X029740Y019114D01*
X028216Y018638D02*
X028185Y018638D01*
X028145Y018480D02*
X028027Y018480D01*
X028103Y018321D02*
X027868Y018321D01*
X027710Y018163D02*
X028086Y018163D01*
X028086Y018004D02*
X027551Y018004D01*
X027393Y017846D02*
X028118Y017846D01*
X028160Y017687D02*
X027234Y017687D01*
X027075Y017529D02*
X028248Y017529D01*
X028360Y017370D02*
X026917Y017370D01*
X026758Y017212D02*
X028519Y017212D01*
X028802Y017053D02*
X026600Y017053D01*
X024531Y017287D02*
X023581Y016337D01*
X023281Y016337D01*
X022671Y017053D02*
X022304Y017053D01*
X022463Y017212D02*
X022671Y017212D01*
X023891Y017212D02*
X024003Y017212D01*
X024031Y017370D02*
X023891Y017370D01*
X023891Y017529D02*
X024066Y017529D01*
X024224Y017687D02*
X023891Y017687D01*
X023851Y017846D02*
X024265Y017846D01*
X024329Y014992D02*
X023798Y014992D01*
X023647Y014833D02*
X024171Y014833D01*
X024081Y014675D02*
X023801Y014675D01*
X024505Y013565D02*
X027350Y013565D01*
X026874Y014041D02*
X025792Y014041D01*
X025951Y014199D02*
X026716Y014199D01*
X026831Y014537D02*
X032181Y009187D01*
X033416Y005796D02*
X005291Y005796D01*
X005202Y005638D02*
X033493Y005638D01*
X033590Y005479D02*
X005089Y005479D01*
X004931Y005321D02*
X033749Y005321D01*
X025471Y006114D02*
X024891Y006114D01*
X025129Y006272D02*
X025233Y006272D01*
X024471Y006114D02*
X021891Y006114D01*
X022129Y006272D02*
X024233Y006272D01*
X024681Y006687D02*
X021681Y006687D01*
X022165Y007065D02*
X024196Y007065D01*
X024383Y007223D02*
X021979Y007223D01*
X021383Y007223D02*
X021170Y007223D01*
X021165Y007065D02*
X021196Y007065D01*
X020681Y007187D02*
X020681Y006687D01*
X020681Y007187D02*
X021181Y007687D01*
X024681Y007687D01*
X021471Y006114D02*
X020891Y006114D01*
X021129Y006272D02*
X021233Y006272D01*
X025581Y014537D02*
X026831Y014537D01*
X018162Y017529D02*
X005699Y017529D01*
X005765Y017370D02*
X018097Y017370D01*
X016281Y020224D02*
X016081Y020224D01*
X015681Y020687D02*
X012681Y020687D01*
X013081Y020224D02*
X015281Y020224D01*
X015157Y021017D02*
X013204Y021017D01*
X013055Y021175D02*
X015307Y021175D01*
X016055Y021175D02*
X016307Y021175D01*
X012307Y021175D02*
X012055Y021175D01*
X011681Y020687D02*
X008681Y020687D01*
X009081Y020224D02*
X011281Y020224D01*
X012081Y020224D02*
X012281Y020224D01*
X011157Y021017D02*
X009204Y021017D01*
X009055Y021175D02*
X011307Y021175D01*
X008307Y021175D02*
X007934Y021175D01*
X008121Y021017D02*
X008157Y021017D01*
X007681Y021017D02*
X007681Y021017D01*
X007681Y021175D02*
X007681Y021175D01*
X007428Y021175D02*
X004734Y021175D01*
X003757Y021175D02*
X003161Y021175D01*
X003161Y021017D02*
X007241Y021017D01*
X007158Y020858D02*
X003161Y020858D01*
X003161Y020699D02*
X007131Y020699D01*
X007131Y020686D02*
X007131Y020643D01*
X007144Y020558D01*
X007171Y020475D01*
X007211Y020398D01*
X007261Y020328D01*
X007323Y020267D01*
X007393Y020216D01*
X007470Y020177D01*
X007552Y020150D01*
X007638Y020137D01*
X007681Y020137D01*
X007681Y020686D01*
X007681Y020686D01*
X007131Y020686D01*
X007150Y020541D02*
X003161Y020541D01*
X003161Y020382D02*
X007222Y020382D01*
X007382Y020224D02*
X003161Y020224D01*
X003161Y021334D02*
X003511Y021334D01*
X003353Y021492D02*
X003161Y021492D01*
X003161Y021651D02*
X003256Y021651D01*
X003180Y021809D02*
X003161Y021809D01*
X007681Y020858D02*
X007681Y020858D01*
X007681Y020699D02*
X007681Y020699D01*
X007681Y020541D02*
X007681Y020541D01*
X007681Y020382D02*
X007681Y020382D01*
X007681Y020224D02*
X007681Y020224D01*
X007980Y020224D02*
X008281Y020224D01*
X008147Y020382D02*
X008140Y020382D01*
X005698Y017841D02*
X005544Y017687D01*
X004818Y017687D02*
X004664Y017532D01*
M02*
