G75*
G70*
%OFA0B0*%
%FSLAX24Y24*%
%IPPOS*%
%LPD*%
%AMOC8*
5,1,8,0,0,1.08239X$1,22.5*
%
%ADD10C,0.0820*%
%ADD11OC8,0.0600*%
%ADD12R,0.0820X0.0820*%
%ADD13C,0.1380*%
D10*
X007681Y006687D03*
X008681Y006687D03*
X011681Y006687D03*
X012681Y006687D03*
X015681Y006687D03*
X016681Y006687D03*
X018681Y009187D03*
X018681Y010187D03*
X018681Y013187D03*
X018681Y014187D03*
X018681Y017187D03*
X018681Y018187D03*
X020681Y020687D03*
X021681Y020687D03*
X024681Y020687D03*
X025681Y020687D03*
X028681Y020687D03*
X029681Y020687D03*
X032181Y018187D03*
X032181Y017187D03*
X032181Y014187D03*
X032181Y013187D03*
X032181Y010187D03*
X032181Y009187D03*
X029681Y006687D03*
X028681Y006687D03*
X025681Y006687D03*
X024681Y006687D03*
X021681Y006687D03*
X020681Y006687D03*
X023281Y010337D03*
X023281Y011337D03*
X023281Y012337D03*
X023281Y013337D03*
X023281Y014337D03*
X023281Y015337D03*
X023281Y016337D03*
X016681Y020687D03*
X015681Y020687D03*
X012681Y020687D03*
X011681Y020687D03*
X008681Y020687D03*
X007681Y020687D03*
X005181Y018187D03*
X005181Y017187D03*
X005181Y014187D03*
X005181Y013187D03*
X005181Y010187D03*
X005181Y009187D03*
D11*
X021081Y010037D03*
X022081Y010037D03*
X024331Y010087D03*
X024331Y011087D03*
X024581Y013037D03*
X025581Y013037D03*
X025581Y014537D03*
X024581Y014537D03*
X024581Y016037D03*
X025581Y016037D03*
X024531Y017287D03*
X024531Y018287D03*
X022081Y017537D03*
X021081Y017537D03*
D12*
X023281Y017337D03*
D13*
X004235Y006224D03*
X004246Y022198D03*
X029216Y018112D03*
X034481Y022187D03*
X029216Y009254D03*
X034481Y006187D03*
M02*
